<?xml version="1.0" encoding="utf-8"?>
<!-- Generator: Adobe Illustrator 16.0.0, SVG Export Plug-In . SVG Version: 6.00 Build 0)  -->
<!DOCTYPE svg PUBLIC "-//W3C//DTD SVG 1.1//EN" "http://www.w3.org/Graphics/SVG/1.1/DTD/svg11.dtd">
<svg version="1.1" id="Layer_1" xmlns="http://www.w3.org/2000/svg" xmlns:xlink="http://www.w3.org/1999/xlink" x="0px" y="0px"
	 width="136.833px" height="136.833px" viewBox="0 0 136.833 136.833" style="enable-background:new 0 0 136.833 136.833;"
	 xml:space="preserve">
<style type="text/css">
<![CDATA[
	.st0{fill-rule:evenodd;clip-rule:evenodd;fill:#08090B;}
	.st1{fill:#7BCCC7;}
	.st2{fill:#48584B;}
	.st3{fill:#AC782B;}
	.st4{fill:#49A0AE;}
	.st5{fill:#121212;}
	.st6{fill:#E1E1E1;}
	.st7{fill:#E3E2E2;}
	.st8{fill:none;stroke:#202121;stroke-width:0.5;stroke-miterlimit:10;}
	.st9{fill:#E4E4E4;}
	.st10{fill:#4ABC96;}
	.st11{fill:#E5E5E5;}
	.st12{fill:#4B4A4B;}
	.st13{fill:#E84849;stroke:#FFFFFF;stroke-width:3;}
	.st14{fill:none;stroke:#121212;stroke-miterlimit:10;}
	.st15{fill:#E79E2D;}
	.st16{fill:#E7E7E7;}
	.st17{fill:#4D4D4D;}
	.st18{fill:#4D8A97;}
	.st19{fill:#E84849;}
	.st20{fill:#807F7F;}
	.st21{fill:#B03738;}
	.st22{fill:#818282;}
	.st23{fill:#81C681;}
	.st24{opacity:0.5;fill:#202121;}
	.st25{fill:#B2B2B2;}
	.st26{fill:#B2D0CC;}
	.st27{fill:#83CECA;}
	.st28{fill:#1A1919;}
	.st29{fill:#B5DBAF;}
	.st30{fill:#EB9682;}
	.st31{fill:#EBEDEF;}
	.st32{fill:#B8B9BA;}
	.st33{fill:#ECA448;}
	.st34{fill:#1E261F;}
	.st35{fill:#ECECEC;}
	.st36{fill:#EDBF00;}
	.st37{fill:#EDC92C;}
	.st38{fill:#EDEEEF;}
	.st39{fill:#505251;}
	.st40{fill:#EFC849;}
	.st41{opacity:0.15;fill:#626463;}
	.st42{opacity:0.3;fill:url(#SVGID_16_);}
	.st43{opacity:0.3;fill:url(#SVGID_17_);}
	.st44{opacity:0.3;fill:url(#SVGID_27_);}
	.st45{opacity:0.3;fill:url(#SVGID_28_);}
	.st46{opacity:0.3;fill:url(#SVGID_33_);}
	.st47{opacity:0.3;fill:url(#SVGID_34_);}
	.st48{opacity:0.3;fill:url(#SVGID_37_);}
	.st49{opacity:0.3;fill:url(#SVGID_38_);}
	.st50{fill:none;stroke:#B8B9BA;stroke-width:0.5;stroke-miterlimit:10;}
	.st51{fill:#202121;}
	.st52{fill:#232C25;}
	.st53{fill:#F28400;}
	.st54{fill:#256533;}
	.st55{fill:#F3F4F5;}
	.st56{fill:#263A45;}
	.st57{fill:#265E67;}
	.st58{fill:#F5E554;}
	.st59{fill:#F6A2A3;}
	.st60{fill:#28302A;}
	.st61{fill:#5CA39B;}
	.st62{fill:#5E7564;}
	.st63{fill-rule:evenodd;clip-rule:evenodd;fill:#EDC92C;}
	.st64{opacity:0.2;fill:#FFFFFF;}
	.st65{fill:url(#SVGID_1_);}
	.st66{fill:url(#SVGID_2_);}
	.st67{fill:url(#SVGID_3_);}
	.st68{fill:url(#SVGID_4_);}
	.st69{fill:url(#SVGID_5_);}
	.st70{fill:url(#SVGID_6_);}
	.st71{fill:url(#SVGID_7_);}
	.st72{fill:#C2DFDD;}
	.st73{fill:#C5E2E5;}
	.st74{fill:#98979B;}
	.st75{fill:#989897;}
	.st76{fill:#989A9A;}
	.st77{fill:#C9C9C8;}
	.st78{fill:#2F3A32;}
	.st79{fill:#2F8442;}
	.st80{opacity:0.7;}
	.st81{fill:#60C3B6;}
	.st82{fill:#FFFFFF;}
	.st83{fill:#626463;}
	.st84{fill:#636463;}
	.st85{fill-rule:evenodd;clip-rule:evenodd;fill:#F37C2A;}
	.st86{fill:none;}
	.st87{fill:#676767;}
	.st88{fill:#676969;}
	.st89{fill:#67B4AD;}
	.st90{fill:#67B8CB;}
	.st91{fill:#CBCBC9;}
	.st92{fill:#CCCBCF;}
	.st93{fill:#CCE9E9;}
	.st94{fill:#CDCCCB;}
	.st95{fill:#CDE9E6;}
	.st96{fill:#30302F;}
	.st97{fill-rule:evenodd;clip-rule:evenodd;fill:#F9C645;}
	.st98{opacity:0.7;fill:#FFFFFF;}
	.st99{fill:#343433;}
	.st100{fill:#343434;}
	.st101{fill:#344E5D;}
	.st102{fill:#357180;}
	.st103{opacity:0.25;fill:#DFF1F5;}
	.st104{fill:#6CC077;}
	.st105{fill:#6EBCB5;}
	.st106{fill:none;stroke:#67B8CB;stroke-width:0.5;stroke-miterlimit:10;}
	.st107{fill:#D2D2D2;}
	.st108{fill:#D3D4E3;}
	.st109{fill:#D4A160;}
	.st110{fill:#08090B;}
	.st111{fill:#3CB881;}
	.st112{fill:#D7DABA;}
	.st113{fill:#3D4040;}
	.st114{fill:url(#SVGID_10_);}
	.st115{fill:url(#SVGID_11_);}
	.st116{fill:url(#SVGID_12_);}
	.st117{fill:url(#SVGID_13_);}
	.st118{fill:url(#SVGID_22_);}
	.st119{fill:url(#SVGID_23_);}
	.st120{fill:url(#SVGID_24_);}
	.st121{fill:url(#SVGID_29_);}
	.st122{fill:url(#SVGID_30_);}
	.st123{fill:url(#SVGID_41_);}
	.st124{opacity:0.1;fill:#FFFFFF;}
	.st125{fill:#A07238;}
	.st126{fill:#717171;}
	.st127{clip-path:url(#SVGID_15_);}
	.st128{clip-path:url(#SVGID_19_);}
	.st129{clip-path:url(#SVGID_21_);}
	.st130{clip-path:url(#SVGID_26_);}
	.st131{clip-path:url(#SVGID_32_);}
	.st132{clip-path:url(#SVGID_36_);}
	.st133{clip-path:url(#SVGID_40_);}
	.st134{fill:#A4A5A4;}
	.st135{fill:#767676;}
	.st136{fill:#767879;}
	.st137{fill:#DBF0F5;}
	.st138{fill:#DC494A;}
	.st139{fill:#DCDBDC;}
	.st140{fill:#0EA24A;}
	.st141{fill:#404040;}
	.st142{fill:#DFDFDF;}
	.st143{fill:#447A74;}
]]>
</style>
<g>
	<g>
		<g>
			<g>
				<circle class="st101" cx="68.417" cy="68.417" r="63.333"/>
			</g>
		</g>
	</g>
	<g>
		<path class="st63" d="M88.724,72.889v-4.044h-2.703v4.044c0,9.677-8.01,17.523-17.689,17.523h-0.008
			c-9.678,0-17.523-7.847-17.523-17.523v-4.044h-2.691v4.044c0,10.187,7.553,18.53,17.352,19.936v7.495H54.695
			c-2.324,0-4.203,1.883-4.203,4.205s1.879,4.204,4.203,4.204h27.439c2.322,0,4.203-1.882,4.203-4.204s-1.881-4.205-4.203-4.205
			H70.857v-7.461C80.818,91.602,88.724,83.194,88.724,72.889z"/>
		<g>
			<path class="st37" d="M68.328,28.104c-8.193,0-14.832,6.643-14.832,14.831v23.211H83.33V42.935
				C83.33,34.747,76.521,28.104,68.328,28.104z M73.828,33.56c0.746,0,1.357,0.604,1.357,1.353c0,0.746-0.611,1.354-1.357,1.354
				c-0.744,0-1.354-0.608-1.354-1.354C72.474,34.165,73.083,33.56,73.828,33.56z M68.414,33.56c0.748,0,1.352,0.604,1.352,1.353
				c0,0.746-0.604,1.354-1.352,1.354c-0.754,0-1.352-0.608-1.352-1.354C67.062,34.165,67.66,33.56,68.414,33.56z M63,33.56
				c0.746,0,1.354,0.604,1.354,1.353c0,0.746-0.607,1.354-1.354,1.354s-1.355-0.608-1.355-1.354
				C61.644,34.165,62.253,33.56,63,33.56z M57.583,63.344c-0.75,0-1.355-0.604-1.355-1.354c0-0.745,0.605-1.354,1.355-1.354
				s1.354,0.609,1.354,1.354C58.937,62.74,58.333,63.344,57.583,63.344z M57.583,57.927c-0.75,0-1.355-0.604-1.355-1.352
				c0-0.749,0.605-1.353,1.355-1.353s1.354,0.604,1.354,1.353C58.937,57.323,58.333,57.927,57.583,57.927z M57.583,52.512
				c-0.75,0-1.355-0.606-1.355-1.352c0-0.751,0.605-1.354,1.355-1.354s1.354,0.604,1.354,1.354
				C58.937,51.906,58.333,52.512,57.583,52.512z M57.583,47.098c-0.75,0-1.355-0.604-1.355-1.355c0-0.747,0.605-1.354,1.355-1.354
				s1.354,0.607,1.354,1.354C58.937,46.494,58.333,47.098,57.583,47.098z M60.292,41.681c-0.752,0-1.355-0.604-1.355-1.354
				c0-0.746,0.604-1.353,1.355-1.353c0.744,0,1.352,0.606,1.352,1.353C61.644,41.078,61.037,41.681,60.292,41.681z M63,63.344
				c-0.746,0-1.355-0.604-1.355-1.354c0-0.745,0.609-1.354,1.355-1.354s1.354,0.609,1.354,1.354
				C64.353,62.74,63.746,63.344,63,63.344z M63,57.927c-0.746,0-1.355-0.604-1.355-1.352c0-0.749,0.609-1.353,1.355-1.353
				s1.354,0.604,1.354,1.353C64.353,57.323,63.746,57.927,63,57.927z M63,52.512c-0.746,0-1.355-0.606-1.355-1.352
				c0-0.751,0.609-1.354,1.355-1.354s1.354,0.604,1.354,1.354C64.353,51.906,63.746,52.512,63,52.512z M63,47.098
				c-0.746,0-1.355-0.604-1.355-1.355c0-0.747,0.609-1.354,1.355-1.354s1.354,0.607,1.354,1.354
				C64.353,46.494,63.746,47.098,63,47.098z M65.705,41.681c-0.746,0-1.352-0.604-1.352-1.354c0-0.746,0.605-1.353,1.352-1.353
				c0.748,0,1.357,0.606,1.357,1.353C67.062,41.078,66.453,41.681,65.705,41.681z M68.414,63.344c-0.754,0-1.352-0.604-1.352-1.354
				c0-0.745,0.598-1.354,1.352-1.354c0.748,0,1.352,0.609,1.352,1.354C69.765,62.74,69.162,63.344,68.414,63.344z M68.414,57.927
				c-0.754,0-1.352-0.604-1.352-1.352c0-0.749,0.598-1.353,1.352-1.353c0.748,0,1.352,0.604,1.352,1.353
				C69.765,57.323,69.162,57.927,68.414,57.927z M68.414,52.512c-0.754,0-1.352-0.606-1.352-1.352c0-0.751,0.598-1.354,1.352-1.354
				c0.748,0,1.352,0.604,1.352,1.354C69.765,51.906,69.162,52.512,68.414,52.512z M68.414,47.098c-0.754,0-1.352-0.604-1.352-1.355
				c0-0.747,0.598-1.354,1.352-1.354c0.748,0,1.352,0.607,1.352,1.354C69.765,46.494,69.162,47.098,68.414,47.098z M71.123,41.681
				c-0.748,0-1.357-0.604-1.357-1.354c0-0.746,0.609-1.353,1.357-1.353s1.352,0.606,1.352,1.353
				C72.474,41.078,71.871,41.681,71.123,41.681z M73.828,63.344c-0.744,0-1.354-0.604-1.354-1.354c0-0.745,0.609-1.354,1.354-1.354
				c0.746,0,1.357,0.609,1.357,1.354C75.185,62.74,74.574,63.344,73.828,63.344z M73.828,57.927c-0.744,0-1.354-0.604-1.354-1.352
				c0-0.749,0.609-1.353,1.354-1.353c0.746,0,1.357,0.604,1.357,1.353C75.185,57.323,74.574,57.927,73.828,57.927z M73.828,52.512
				c-0.744,0-1.354-0.606-1.354-1.352c0-0.751,0.609-1.354,1.354-1.354c0.746,0,1.357,0.604,1.357,1.354
				C75.185,51.906,74.574,52.512,73.828,52.512z M73.828,47.098c-0.744,0-1.354-0.604-1.354-1.355c0-0.747,0.609-1.354,1.354-1.354
				c0.746,0,1.357,0.607,1.357,1.354C75.185,46.494,74.574,47.098,73.828,47.098z M76.537,41.681c-0.748,0-1.352-0.604-1.352-1.354
				c0-0.746,0.604-1.353,1.352-1.353s1.355,0.606,1.355,1.353C77.892,41.078,77.285,41.681,76.537,41.681z M79.246,63.344
				c-0.746,0-1.354-0.604-1.354-1.354c0-0.745,0.607-1.354,1.354-1.354c0.748,0,1.354,0.609,1.354,1.354
				C80.599,62.74,79.994,63.344,79.246,63.344z M79.246,57.927c-0.746,0-1.354-0.604-1.354-1.352c0-0.749,0.607-1.353,1.354-1.353
				c0.748,0,1.354,0.604,1.354,1.353C80.599,57.323,79.994,57.927,79.246,57.927z M79.246,52.512c-0.746,0-1.354-0.606-1.354-1.352
				c0-0.751,0.607-1.354,1.354-1.354c0.748,0,1.354,0.604,1.354,1.354C80.599,51.906,79.994,52.512,79.246,52.512z M79.246,47.098
				c-0.746,0-1.354-0.604-1.354-1.355c0-0.747,0.607-1.354,1.354-1.354c0.748,0,1.354,0.607,1.354,1.354
				C80.599,46.494,79.994,47.098,79.246,47.098z"/>
		</g>
		<path class="st63" d="M68.328,87.549c8.193,0,15.002-6.643,15.002-14.831v-3.873H53.496v3.873
			C53.496,80.907,60.134,87.549,68.328,87.549z"/>
	</g>
</g>
</svg>
