<?xml version="1.0" encoding="utf-8"?>
<!-- Generator: Adobe Illustrator 16.0.0, SVG Export Plug-In . SVG Version: 6.00 Build 0)  -->
<!DOCTYPE svg PUBLIC "-//W3C//DTD SVG 1.1//EN" "http://www.w3.org/Graphics/SVG/1.1/DTD/svg11.dtd">
<svg version="1.1" id="Layer_1" xmlns="http://www.w3.org/2000/svg" xmlns:xlink="http://www.w3.org/1999/xlink" x="0px" y="0px"
	 width="136.914px" height="136.913px" viewBox="0 0 136.914 136.913" enable-background="new 0 0 136.914 136.913"
	 xml:space="preserve">
<g>
	<g>
		<g>
			<g>
				<g>
					<circle fill="#EDC92C" cx="68.457" cy="68.457" r="63.333"/>
				</g>
			</g>
		</g>
	</g>
	<g>
		<g>
			<g>
				<path fill="#7C7B7B" d="M62.409,33.379l-8.314-5.828l-4.221,2.115l4.293,8.564l-4.925,2.469l-4.294-8.564l-3.798,1.906
					l-0.304,10.148l9.817,4.373L77.2,107.645c0.389,0.775,1.365,1.076,2.177,0.67l11.16-5.596c0.813-0.406,1.155-1.369,0.767-2.145
					L59.966,44.42L62.409,33.379z"/>
			</g>
			<g>
				<path fill="#868787" d="M62.333,33.227l-8.038-5.857l-3.992,2.004l4.245,8.467l-4.658,2.336l-4.246-8.469l-3.594,1.801
					l-0.114,9.945l9.447,4.455l26.412,58.498c0.385,0.768,1.32,1.078,2.089,0.693l10.557-5.293c0.769-0.385,1.079-1.322,0.694-2.088
					L60.19,44.008L62.333,33.227z"/>
			</g>
		</g>
		<g>
			<g>
				<path fill="#A46434" d="M86.231,35.752c3.005,5.102,0.263,7.842,0.263,7.842L45.345,101.17
					c-0.507,0.691-0.355,1.666,0.337,2.174l9.527,6.977c0.694,0.508,1.669,0.357,2.177-0.336c0,0,33.881-58.906,35.548-61.184
					c3.408-4.654,13.025,1.471,13.025,1.471c-0.084,0.395-0.632,1.5-0.443,1.639l3.985,2.918c0.425,0.311,1.435-0.348,2.253-1.467
					l2.619-3.576c0.818-1.117,1.14-2.277,0.715-2.588l-3.985-2.918c-0.267-0.195-0.761-0.012-1.293,0.426l-7.621-6.797l-0.017,0.021
					c0,0-6.375-6.918-7.745-7.92c-9.578-7.014-17.93-0.953-20.33,2.117C74.097,32.127,83.785,31.598,86.231,35.752z"/>
			</g>
			<g>
				<path fill="#626463" d="M86.231,35.752c3.005,5.102,0.263,7.842,0.263,7.842l6.439,5.207c3.408-4.654,13.025,1.471,13.025,1.471
					c-0.084,0.395-0.632,1.5-0.443,1.639l3.985,2.918c0.425,0.311,1.435-0.348,2.253-1.467l2.619-3.576
					c0.818-1.117,1.14-2.277,0.715-2.588l-3.985-2.918c-0.267-0.195-0.761-0.012-1.293,0.426l-7.621-6.797l-0.017,0.021
					c0,0-6.375-6.918-7.745-7.92c-9.578-7.014-17.93-0.953-20.33,2.117C74.097,32.127,83.785,31.598,86.231,35.752z"/>
			</g>
		</g>
	</g>
</g>
</svg>
