<?xml version="1.0" encoding="utf-8"?>
<!-- Generator: Adobe Illustrator 16.0.0, SVG Export Plug-In . SVG Version: 6.00 Build 0)  -->
<!DOCTYPE svg PUBLIC "-//W3C//DTD SVG 1.1//EN" "http://www.w3.org/Graphics/SVG/1.1/DTD/svg11.dtd">
<svg version="1.1" id="Layer_1" xmlns="http://www.w3.org/2000/svg" xmlns:xlink="http://www.w3.org/1999/xlink" x="0px" y="0px"
	 width="136.913px" height="136.913px" viewBox="0 0 136.913 136.913" enable-background="new 0 0 136.913 136.913"
	 xml:space="preserve">
<g>
	<g>
		<g>
			<circle fill="#357180" cx="68.456" cy="68.457" r="63.333"/>
		</g>
	</g>
	<g>
		<g>
			<g>
				<path fill="#EED22F" d="M70.189,30.082c-15.662,0-28.359,12.695-28.359,28.359c0,20.629,26.764,48.213,29.172,48.213
					c2.406,0,27.547-30.016,27.547-48.213C98.549,42.777,85.854,30.082,70.189,30.082z M70.055,67.922
					c-6.148,0-11.129-4.848-11.129-10.83s4.98-10.832,11.129-10.832c6.146,0,11.129,4.85,11.129,10.832S76.201,67.922,70.055,67.922
					z"/>
			</g>
			<g>
				<path fill="#E4B422" d="M71.002,107.154c-2.504,0-29.672-27.875-29.672-48.713c0-15.914,12.945-28.859,28.859-28.859
					s28.859,12.945,28.859,28.859C99.049,76.535,73.768,107.154,71.002,107.154z M70.189,30.582
					c-15.361,0-27.859,12.498-27.859,27.859c0,19.916,26.129,47.211,28.666,47.709c2.398-0.598,27.053-29.605,27.053-47.709
					C98.049,43.08,85.551,30.582,70.189,30.582z M70.055,68.422c-6.412,0-11.629-5.082-11.629-11.33S63.643,45.76,70.055,45.76
					s11.629,5.084,11.629,11.332S76.467,68.422,70.055,68.422z M70.055,46.76c-5.859,0-10.629,4.635-10.629,10.332
					c0,5.695,4.77,10.33,10.629,10.33c5.861,0,10.629-4.635,10.629-10.33C80.684,51.395,75.916,46.76,70.055,46.76z"/>
			</g>
		</g>
	</g>
	<g>
		<g>
			<path fill="#EED566" d="M70.342,68.455c-6.412,0-11.916-5.115-11.916-11.363s5.504-11.391,11.916-11.391V30.582
				c-15.361,0-28.012,12.498-28.012,27.859c0,19.688,25.514,46.564,28.555,47.664L70.342,68.455z"/>
		</g>
		<g>
			<path fill="#E9B82B" d="M70.189,29.582c-15.914,0-28.859,12.945-28.859,28.859c0,20.588,26.504,48.025,29.555,48.682v-0.5v-0.518
				c-3.041-1.1-28.555-27.977-28.555-47.664c0-15.361,12.498-27.859,27.859-27.859C70.424,30.582,70.424,29.582,70.189,29.582z"/>
		</g>
		<g>
			<path fill="#E9B82B" d="M70.055,45.76c-6.412,0-11.629,5.084-11.629,11.332s5.504,11.33,11.916,11.33l-0.041-1
				c-5.861,0-10.875-4.635-10.875-10.33c0-5.697,4.77-10.332,10.629-10.332c0.279,0,0.555,0.02,0.83,0.041v-0.5v-0.5
				C70.609,45.781,70.334,45.76,70.055,45.76z"/>
		</g>
	</g>
</g>
</svg>
