<?xml version="1.0" encoding="utf-8"?>
<!-- Generator: Adobe Illustrator 16.0.0, SVG Export Plug-In . SVG Version: 6.00 Build 0)  -->
<!DOCTYPE svg PUBLIC "-//W3C//DTD SVG 1.1//EN" "http://www.w3.org/Graphics/SVG/1.1/DTD/svg11.dtd">
<svg version="1.1" id="Layer_1" xmlns="http://www.w3.org/2000/svg" xmlns:xlink="http://www.w3.org/1999/xlink" x="0px" y="0px"
	 width="136.913px" height="136.914px" viewBox="0 0 136.913 136.914" enable-background="new 0 0 136.913 136.914"
	 xml:space="preserve">
<g>
	<g>
		<g>
			<g>
				<g>
					<circle fill="#E84849" cx="68" cy="69.365" r="63.333"/>
				</g>
			</g>
		</g>
	</g>
	<g>
		<g>
			<g>
				<path fill="#CFC7BE" d="M101.253,63.194c0-18.42-14.635-35.168-32.686-35.168c-18.053,0-32.686,16.748-32.686,35.168h8.459
					c0-13.652,10.848-26.535,24.227-26.535c13.381,0,24.227,12.883,24.227,26.535H101.253z"/>
			</g>
			<g>
				<path fill="#F4E028" d="M101.271,104.422c0,3.861-3.195,6.99-7.141,6.99H42.952c-3.945,0-7.141-3.129-7.141-6.99V63.071
					c0-3.859,65.459-3.859,65.459,0V104.422z"/>
			</g>
			<g>
				<path fill="#DAC425" d="M76.108,79.825c0-4.029-3.266-7.295-7.295-7.295s-7.295,3.266-7.295,7.295
					c0,3.074,1.902,5.697,4.59,6.772v6.729c0,1.426,1.158,2.582,2.584,2.582c1.428,0,2.584-1.156,2.584-2.582v-6.641
					C74.091,85.674,76.108,82.989,76.108,79.825z"/>
			</g>
			<g>
				<path fill="#D0B82B" d="M61.245,79.825c0-4.029,3.268-7.295,7.297-7.295c0,0-5.086,3.391-5.086,7.42
					c0,4.104,3.838,6.536,3.838,6.536V93.4c0,1.428,1.367,2.508,1.367,2.508c-1.426,0-2.584-1.156-2.584-2.582v-6.641
					C63.263,85.674,61.245,82.989,61.245,79.825z"/>
			</g>
		</g>
		<g>
			<polygon fill="#F8E349" points="89.364,111.412 80.245,111.412 80.245,60.344 89.364,60.8 			"/>
		</g>
		<g>
			<g>
				<path fill="#E8E7E7" d="M80.245,30.468v9.682c3.764,2.388,6.914,5.843,9.119,9.879V36.387
					C86.657,33.918,83.579,31.904,80.245,30.468z"/>
			</g>
		</g>
	</g>
</g>
</svg>
