<svg xmlns="http://www.w3.org/2000/svg" x="0" y="0" viewBox="0 0 128 128" enable-background="new 0 0 128 128" width="128" height="128"><title>boy</title><g class="nc-icon-wrapper"><path class="st0" d="M128 64c0 25.4-14.7 47.3-36.1 57.6C83.5 125.7 74 127 64 127c-10.3 0-20.1-1.4-28.7-5.8C14.4 110.7 0 89 0 64 0 28.7 28.7 0 64 0s64 28.7 64 64z" fill="#3AD0F9"/><path class="st1" d="M64 128c10.1 0 19.6-2.2 28-6.4C90.6 107.2 78.4 96 63.6 96c-14.7 0-26.7 11-28.4 25.3 8.7 4.3 18.5 6.7 28.8 6.7z" fill="#EAEAEA"/><path class="st2" d="M63.6 94.9c-15 0-27.4 11-29.3 25.8.6.3 1.3.7 1.9 1C37.6 107.6 49.4 97 63.6 97s25.9 10.8 27.4 25.1c.6-.3 1.3-.6 1.9-.9-1.9-15.1-14.3-26.3-29.3-26.3z" fill="#6B3C1C"/><path class="st3" d="M67.9 99.6c0 2.3-1.5 4.2-3.7 4.2-2.3 0-4.3-1.9-4.3-4.2v-8.9c0-2.3 2-4.2 4.3-4.2s3.7 1.9 3.7 4.2v8.9z" fill="#F9D4CA"/><circle class="st3" cx="34.5" cy="63.5" r="5.4" fill="#F9D4CA"/><path class="st2" d="M34.5 70c-3.6 0-6.5-2.9-6.5-6.4 0-3.6 2.9-6.4 6.5-6.4s6.5 2.9 6.5 6.4c-.1 3.5-3 6.4-6.5 6.4zm0-10.9c-2.5 0-4.5 2-4.5 4.4 0 2.5 2 4.4 4.5 4.4s4.5-2 4.5-4.4c-.1-2.4-2.1-4.4-4.5-4.4z" fill="#6B3C1C"/><circle class="st3" cx="93.4" cy="63.5" r="5.4" fill="#F9D4CA"/><path class="st2" d="M64.3 105c-2.9 0-5.3-2.3-5.3-5.2v-9c0-2.9 2.4-5.2 5.3-5.2 2.7 0 4.7 2.2 4.7 5.2v9c0 3-2 5.2-4.7 5.2zm0-17.4c-1.8 0-3.3 1.5-3.3 3.2v9c0 1.7 1.5 3.2 3.3 3.2 1.9 0 2.7-1.7 2.7-3.2v-9c0-1.6-.9-3.2-2.7-3.2z" fill="#6B3C1C"/><path class="st2" d="M93.5 70c-3.6 0-6.5-2.9-6.5-6.4 0-3.6 2.9-6.4 6.5-6.4s6.5 2.9 6.5 6.4c0 3.5-2.9 6.4-6.5 6.4zm0-10.9c-2.5 0-4.5 2-4.5 4.4 0 2.5 2 4.4 4.5 4.4s4.5-2 4.5-4.4c0-2.4-2-4.4-4.5-4.4z" fill="#6B3C1C"/><path class="st3" d="M63.9 27.4c14.9 0 27 12.1 27 27v10.8c0 14.9-12.1 27-27 27s-27-12.1-27-27V54.3c0-14.8 12.1-26.9 27-26.9z" fill="#F9D4CA"/><path d="M46 65.8c0-2.1 1.8-3.8 4-3.8s4 1.7 4 3.8"/><path class="st4" d="M63.9 86.5c-14.9 0-27-12.1-27-27v5.6c0 14.9 12.1 27 27 27s27-12.1 27-27v-5.6c-.1 15-12.1 27-27 27z" fill="#EFBFB4"/><path class="st2" d="M63.9 93C48.5 93 36 80.5 36 65.1V54.3c0-15.4 12.5-28 27.9-28 15.5 0 28.1 12.5 28.1 28v10.8C92 80.5 79.4 93 63.9 93zm0-64.6c-14.4 0-26 11.7-26 26v10.8c0 14.2 11.7 25.8 26 25.8 14.4 0 26.2-11.6 26.2-25.8V54.3c.1-14.3-11.8-25.9-26.2-25.9z" fill="#6B3C1C"/><path d="M74 65.8c0-2.1 1.8-3.8 4-3.8s4 1.7 4 3.8"/><path class="st5" d="M70 77c0 3.3-2.7 6-6 6s-6-2.7-6-6h12z" fill="#FFF"/><path class="st2" d="M53 58h-6c-.5 0-1-.4-1-1s.4-1 1-1h6c.5 0 1 .4 1 1s-.4 1-1 1z" fill="#6B3C1C"/><path class="st2" d="M81 58h-6c-.5 0-1-.4-1-1s.4-1 1-1h6c.5 0 1 .4 1 1s-.4 1-1 1z" fill="#6B3C1C"/><path class="st5" d="M86.1 118.3c-.4 0-.8-.2-.9-.6-.6-1.5-1.2-2.8-1.8-4-.3-.5-.1-1.1.4-1.4.5-.3 1.1-.1 1.4.4.7 1.3 1.3 2.7 1.9 4.3.2.5-.1 1.1-.6 1.3-.2-.1-.3 0-.4 0z" fill="#FFF"/><path class="st5" d="M81.9 110.6c-.3 0-.6-.1-.8-.4-2.6-3.5-5.6-5.1-8.1-6.2-.5-.2-.7-.8-.5-1.3s.8-.7 1.3-.5c2.8 1.3 6 2.9 8.9 6.9.3.4.2 1.1-.2 1.4-.2.1-.4.1-.6.1z" fill="#FFF"/><path class="st4" d="M66 71c0 1.1-.9 2-2 2s-2-.9-2-2v-5c0-1.1.9-2 2-2s2 .9 2 2v5z" fill="#EFBFB4"/><path class="st5" d="M21.9 57.7c0-.4-.4-.8-1-.9l-1.9-.3c-.5-.1-1.1-.6-1.1-1.1l-.3-1.9c-.1-.5-.5-1-.9-1s-.8.4-.9 1l-.3 1.9c-.1.5-.6 1.1-1.1 1.1l-1.9.3c-.5.1-1 .5-1 .9s.4.8 1 .9l1.9.3c.5.1 1.1.6 1.1 1.1l.3 1.9c.1.5.5 1 .9 1s.8-.4.9-1l.3-2.1c.1-.5.6-1 1.1-1.1l1.8-.1c.7-.1 1.1-.5 1.1-.9z" fill="#FFF"/><path class="st5" d="M75.4 10.7c0-.4-.4-.8-1-.9l-1.9-.3c-.5 0-1-.5-1.1-1.1l-.3-1.9c-.1-.5-.5-1-.9-1s-.8.4-.9 1L69 8.4c.1.6-.4 1.1-1 1.2l-1.9.3c-.5.1-1 .5-1 .9s.4.8 1 .9l1.9.3c.5.1 1.1.6 1.1 1.1l.3 1.9c.1.5.5 1 .9 1s.8-.4.9-1l.3-2.1c.1-.5.6-1 1.1-1.1l1.8-.1c.6-.2 1-.6 1-1z" fill="#FFF"/><path class="st5" d="M31 97.9c-2.2 0-4-1.8-4-4s1.8-4 4-4 4 1.8 4 4c-.1 2.3-1.8 4-4 4zm0-6c-1.2 0-2.1.9-2.1 2.1 0 1.2.9 2.1 2.1 2.1 1.2 0 2.1-.9 2.1-2.1 0-1.2-1-2.1-2.1-2.1z" fill="#FFF"/><path class="st5" d="M109 55c-2.2 0-4-1.8-4-4s1.8-4 4-4 4 1.8 4 4-1.8 4-4 4zm0-6.1c-1.2 0-2.1 1-2.1 2.1 0 1.2 1 2.1 2.1 2.1 1.2 0 2.1-1 2.1-2.1 0-1.2-.9-2.1-2.1-2.1z" fill="#FFF"/><path class="st6" d="M41 54.5c0 2.5-2 4.5-4.5 4.5S32 57 32 54.5v-16c0-2.5 2-4.5 4.5-4.5H41v20.5z" fill="#AD5114"/><path class="st2" d="M36.5 60c-3 0-5.5-2.5-5.5-5.5v-16c0-3 2.5-5.5 5.5-5.5H41c.6 0 1 .4 1 1v20.5c0 3-2.5 5.5-5.5 5.5zm0-25c-1.9 0-3.5 1.6-3.5 3.5v16c0 1.9 1.6 3.5 3.5 3.5s3.5-1.6 3.5-3.5V35h-3.5z" fill="#6B3C1C"/><path class="st6" d="M87 54.5c0 2.5 2 4.5 4.5 4.5s4.5-2 4.5-4.5v-16c0-2.5-2-4.5-4.5-4.5H87v20.5z" fill="#AD5114"/><path class="st2" d="M91.5 60c-3 0-5.5-2.5-5.5-5.5V34c0-.6.4-1 1-1h4.5c3 0 5.5 2.5 5.5 5.5v16c0 3-2.5 5.5-5.5 5.5zM88 35v19.5c0 1.9 1.6 3.5 3.5 3.5s3.5-1.6 3.5-3.5v-16c0-1.9-1.6-3.5-3.5-3.5H88z" fill="#6B3C1C"/><path class="st6" d="M93 33.2C93 39.9 87.5 45 80.8 45H41V33.2C41 26.5 46.5 21 53.2 21H93v12.2z" fill="#AD5114"/><path class="st7" d="M80.8 37H41v8h39.8C87.5 45 93 39.9 93 33.2v-8C93 31.9 87.5 37 80.8 37z" fill="#993F0D"/><path class="st2" d="M80.8 46H41c-.6 0-1-.4-1-1V33.2C40 25.9 45.9 20 53.2 20H93c.6 0 1 .4 1 1v12.2C94 40.4 88.2 46 80.8 46zM42 44h38.8C87.1 44 92 39.3 92 33.2V22H53.2C47 22 42 27 42 33.2V44z" fill="#6B3C1C"/><path class="st8" d="M89 26h-6c-.6 0-1-.4-1-1s.4-1 1-1h6c.6 0 1 .4 1 1s-.4 1-1 1z" opacity=".5" fill="#FFF"/><path class="st8" d="M78 26H55c-.6 0-1-.4-1-1s.4-1 1-1h23c.6 0 1 .4 1 1s-.4 1-1 1z" opacity=".5" fill="#FFF"/></g></svg>