<svg xmlns="http://www.w3.org/2000/svg" x="0" y="0" viewBox="0 0 128 128" enable-background="new 0 0 128 128" width="128" height="128"><title>brochure</title><g class="nc-icon-wrapper"><circle class="st0" cx="64" cy="64" r="64" fill="#5E52F7"/><path class="st1" d="M117 54c-2.2 0-4-1.8-4-4s1.8-4 4-4 4 1.8 4 4-1.8 4-4 4zm0-6.1c-1.2 0-2.1.9-2.1 2.1 0 1.2.9 2.1 2.1 2.1 1.2 0 2.1-.9 2.1-2.1 0-1.1-.9-2.1-2.1-2.1z" opacity=".5" fill="#FFF"/><path class="st1" d="M16.9 75.8c0-.4-.4-.8-1-.9l-1.9-.3c-.5-.1-1.1-.6-1.1-1.1l-.3-1.9c-.1-.5-.5-1-.9-1s-.8.4-.9 1l-.3 1.9c-.1.5-.6 1.1-1.1 1.1l-1.7.4c-.5.1-1 .5-1 .9s.4.8 1 .9l1.8.2c.5.1 1.1.6 1.1 1.1l.3 1.9c.1.5.5 1 .9 1s.8-.4.9-1l.3-2.1c.1-.5.6-1 1.1-1.1l1.8-.1c.6-.1 1-.5 1-.9z" opacity=".5" fill="#FFF"/><path class="st2" fill="#F99900" d="M107.5 47.1H13.4l7.4-32.8h94.1z"/><path class="st3" fill="#FBD000" d="M60.1 42H32l4.8-22H65z"/><path class="st2" fill="#F99900" d="M107.5 112H13.4l7.4-32h94.1z"/><path class="st4" d="M107.5 113H13c-.3 0-.6-.1-.8-.4-.2-.2-.3-.6-.2-.8l7.4-32c.1-.5.5-.8 1-.8h94.5c.3 0 .6.1.8.4.2.2.3.6.2.8l-7.4 32c-.1.5-.6.8-1 .8zm-93.2-2h92.4l7-30H21.2l-6.9 30z" fill="#6B3C1C"/><path class="st5" d="M104 109h-.2c-.5-.1-.8-.6-.7-1.2l5.1-23c.1-.5.6-.9 1.2-.7.5.1.8.6.7 1.2l-5.1 23c-.2.4-.6.7-1 .7z" fill="#FFF"/><path class="st6" opacity=".5" fill="#D6742B" d="M107.5 47.1H13.4l7.4-32.8h94.1z"/><path class="st2" fill="#F99900" d="M20.8 80h94.1l-7.4-33H13.4z"/><path class="st3" fill="#FBD000" d="M26 74h28.7l-4.9-22H21z"/><path class="st3" fill="#FBD000" d="M60 74h28.9l-5-22H55z"/><path class="st6" opacity=".5" fill="#D6742B" d="M110.7 61l-3.2-14H13.4l3.2 14z"/><path class="st4" d="M84 22H69c-.6 0-1-.4-1-1s.5-1 1-1h15c.6 0 1 .4 1 1s-.5 1-1 1z" fill="#6B3C1C"/><path class="st4" d="M33 22h-6c-.5 0-1-.4-1-1s.4-1 1-1h6c.5 0 1 .4 1 1s-.4 1-1 1z" fill="#6B3C1C"/><path class="st4" d="M78 87H58c-.6 0-1-.4-1-1s.5-1 1-1h20c.6 0 1 .4 1 1s-.5 1-1 1z" fill="#6B3C1C"/><path class="st4" d="M94 87H81c-.6 0-1-.4-1-1s.5-1 1-1h13c.6 0 1 .4 1 1s-.5 1-1 1z" fill="#6B3C1C"/><path class="st4" d="M89 91H57c-.6 0-1-.4-1-1s.5-1 1-1h32c.6 0 1 .4 1 1s-.5 1-1 1z" fill="#6B3C1C"/><path class="st4" d="M66 95H56c-.6 0-1-.4-1-1s.5-1 1-1h10c.6 0 1 .4 1 1s-.5 1-1 1z" fill="#6B3C1C"/><path class="st4" d="M79.9 95H69.1c-.6 0-1.1-.4-1.1-1s.5-1 1.1-1h10.8c.6 0 1.1.4 1.1 1s-.5 1-1.1 1z" fill="#6B3C1C"/><path class="st4" d="M70 99H55c-.6 0-1-.4-1-1s.4-1 1-1h15c.6 0 1 .4 1 1s-.4 1-1 1z" fill="#6B3C1C"/><path class="st4" d="M77 25.9h-8c-.5 0-1-.4-1-1s.4-1 1-1h8c.5 0 1 .4 1 1s-.4 1-1 1z" fill="#6B3C1C"/><path class="st4" d="M32 25.9h-8c-.6 0-1-.4-1-1 0-.5.5-1 1-1h8c.6 0 1 .4 1 1s-.5 1-1 1z" fill="#6B3C1C"/><path class="st4" d="M80 30H68c-.6 0-1-.4-1-1s.5-1 1-1h12c.6 0 1 .4 1 1s-.5 1-1 1z" fill="#6B3C1C"/><path class="st4" d="M99 54H88c-.6 0-1-.4-1-1s.5-1 1-1h11c.6 0 1 .4 1 1s-.5 1-1 1z" fill="#6B3C1C"/><path class="st4" d="M101 58H90c-.6 0-1-.4-1-1s.5-1 1-1h11c.6 0 1 .4 1 1s-.5 1-1 1z" fill="#6B3C1C"/><path class="st4" d="M99 66h-7c-.6 0-1-.4-1-1s.5-1 1-1h7c.6 0 1 .4 1 1s-.5 1-1 1z" fill="#6B3C1C"/><path class="st4" d="M96 62h-5c-.6 0-1-.4-1-1s.4-1 1-1h5c.6 0 1 .4 1 1s-.4 1-1 1z" fill="#6B3C1C"/><path class="st4" d="M105 62h-5c-.6 0-1-.4-1-1s.4-1 1-1h5c.6 0 1 .4 1 1s-.4 1-1 1z" fill="#6B3C1C"/><path class="st3" fill="#FBD000" d="M49.1 107H21l4.9-22H54z"/><path class="st5" d="M109 76c-.5 0-.9-.3-1-.8l-1.9-8c-.1-.5.2-1.1.8-1.2.5-.1 1.1.2 1.2.7l1.9 8c.1.5-.2 1-.8 1.2-.1.1-.1.1-.2.1z" fill="#FFF"/><path class="st4" d="M107.5 47H13c-.3 0-.6.9-.8.7-.2-.2-.2-.5-.2-.8l7.4-33.1c.1-.5.5-.8 1-.8h94.5c.3 0 .6.1.8.4.2.2.3.5.2.8l-7.4 33.1c-.1.5-.6-.3-1-.3zm-93.2-.9h92.4l7-31.1H21.2l-6.9 31.1z" fill="#6B3C1C"/><path class="st4" d="M114.9 81H20.4c-.5 0-.9-.3-1-.8l-7.4-33c-.1-.3 0-.6.2-.8.2-.2.5-.4.8-.4h94.5c.5 0 .9.3 1 .8l7.4 33c.1.3 0 .6-.2.8-.2.2-.5.4-.8.4zm-93.7-2h92.4l-7-31H14.3l6.9 31z" fill="#6B3C1C"/></g></svg>