<svg xmlns="http://www.w3.org/2000/svg" x="0" y="0" viewBox="0 0 128 128" enable-background="new 0 0 128 128" width="128" height="128"><title>card</title><g class="nc-icon-wrapper"><circle class="st0" cx="64" cy="64" r="64" fill="#A7FCD0"/><path class="st1" d="M50.7 17.4c0-.4-.4-.8-1-.9l-1.9-.3c-.5-.1-1.1-.6-1.1-1.1l-.3-1.9c-.1-.5-.5-1-.9-1s-.8.4-.9 1l-.3 1.9c-.1.5-.6 1.1-1.1 1.1l-1.9.3c-.5.1-1 .5-1 .9s.4.8 1 .9l1.9.3c.5.1 1.1.6 1.1 1.1l.3 1.9c.1.5.5 1 .9 1s.8-.4.9-1l.3-2.1c.1-.5.6-1 1.1-1.1l1.8-.1c.6-.2 1.1-.5 1.1-.9z" fill="#FFF"/><path class="st1" d="M123.3 56.5c0-.4-.4-.8-1-.9l-1.9-.3c-.5-.1-1.1-.6-1.1-1.1l-.3-1.9c-.1-.5-.5-1-.9-1s-.8.4-.9 1l-.3 1.9c-.1.5-.6 1.1-1.1 1.1l-1.9.3c-.5.1-1 .5-1 .9s.4.8 1 .9l1.9.3c.5.1 1.1.6 1.1 1.1l.3 1.9c.1.5.5 1 .9 1s.8-.4.9-1l.3-2.1c.1-.5.6-1 1.1-1.1l1.8-.1c.6-.1 1.1-.5 1.1-.9z" fill="#FFF"/><path class="st1" d="M87.6 27.8c-2.4 0-4.3-1.9-4.3-4.3s1.9-4.3 4.3-4.3 4.3 1.9 4.3 4.3c-.1 2.3-2 4.3-4.3 4.3zm0-6.6c-1.3 0-2.3 1-2.3 2.3 0 1.3 1 2.3 2.3 2.3 1.3 0 2.3-1 2.3-2.3-.1-1.3-1.1-2.3-2.3-2.3z" fill="#FFF"/><path class="st1" d="M26.1 105.1c-2.4 0-4.3-1.9-4.3-4.3s1.9-4.3 4.3-4.3 4.3 1.9 4.3 4.3-1.9 4.3-4.3 4.3zm0-6.6c-1.3 0-2.3 1-2.3 2.3 0 1.3 1 2.3 2.3 2.3 1.3 0 2.3-1 2.3-2.3 0-1.2-1-2.3-2.3-2.3z" fill="#FFF"/><path class="st2" d="M107.6 85.9c0 3.3-2.7 6-6 6H27.2c-3.3 0-6-2.7-6-6V40.6c0-3.3 2.7-6 6-6h74.4c3.3 0 6 2.7 6 6v45.3z" fill="#EAEAEA"/><path class="st3" fill="#105B4C" d="M21.1 48.1h86.4V58H21.1z"/><path class="st1" fill="#FFF" d="M82.2 70.6h15v11h-15z"/><path class="st3" d="M53.5 72H28.2c-.6 0-1-.4-1-1s.4-1 1-1h25.3c.6 0 1 .4 1 1s-.5 1-1 1z" fill="#105B4C"/><path class="st3" d="M43.2 78H28.1c-.6 0-1-.4-1-1s.4-1 1-1h15.1c.6 0 1 .4 1 1s-.4 1-1 1z" fill="#105B4C"/><path class="st3" d="M39.1 84H28.2c-.6 0-1-.4-1-1s.4-1 1-1h10.9c.6 0 1 .4 1 1s-.5 1-1 1z" fill="#105B4C"/><path class="st3" d="M65 108H38.5c-.6 0-1-.4-1-1s.4-1 1-1H65c.6 0 1 .4 1 1s-.4 1-1 1z" fill="#105B4C"/><path class="st3" d="M92.6 108H73.2c-.6 0-1-.4-1-1s.4-1 1-1h19.4c.6 0 1 .4 1 1s-.4 1-1 1z" fill="#105B4C"/><path class="st3" d="M102 92H28c-3.9 0-7-3.1-7-7V40c0-3.9 3.1-7 7-7h74c3.9 0 7 3.1 7 7v45c0 3.9-3.1 7-7 7zM28 35c-2.8 0-5 2.2-5 5v45c0 2.8 2.2 5 5 5h74c2.8 0 5-2.2 5-5V40c0-2.8-2.2-5-5-5H28z" fill="#105B4C"/><path class="st1" d="M103 85c-.6 0-1-.4-1-1V62.4c0-.6.4-1 1-1s1 .4 1 1V84c0 .5-.4 1-1 1z" fill="#FFF"/><path class="st1" d="M102.6 45.1c-.6 0-1-.4-1-1 0-1.7-1.3-3-3.1-3.1H51c-.6 0-1-.4-1-1s.4-1 1-1h47.6c2.8.2 5 2.4 5 5.1 0 .6-.4 1-1 1z" fill="#FFF"/><path class="st1" d="M43.8 41h-8.9c-.6 0-1-.4-1-1s.4-1 1-1h8.9c.6 0 1 .4 1 1s-.4 1-1 1z" fill="#FFF"/><path class="st3" d="M98 83H83c-.6 0-1-.4-1-1V71c0-.6.4-1 1-1h15c.6 0 1 .4 1 1v11c0 .6-.4 1-1 1zm-14-2h13v-9H84v9z" fill="#105B4C"/></g></svg>