<svg xmlns="http://www.w3.org/2000/svg" x="0" y="0" viewBox="0 0 128 128" enable-background="new 0 0 128 128" width="128" height="128"><title>check</title><g class="nc-icon-wrapper"><circle class="st0" cx="64" cy="64" r="64" fill="#FC8BA4"/><path class="st1" d="M63.9 0C49.2 0 35.8 5 25 13.3L24.8 89c0 4.4 3.6 8 8 8h64.3c4.4 0 8-3.6 8-8l-.1-74.1C93.9 5.6 79.7 0 64.1 0h-.2z" fill="#EAEAEA"/><circle class="st2" cx="64.7" cy="69.5" r="17.5" fill="#FFF"/><circle class="st2" cx="64.7" cy="69.5" r="17.5" fill="#FFF"/><path class="st3" d="M64.5 88C54.3 88 46 79.7 46 69.5S54.3 51 64.5 51 83 59.3 83 69.5 74.7 88 64.5 88zm0-35C55.4 53 48 60.4 48 69.5S55.4 86 64.5 86 81 78.6 81 69.5 73.6 53 64.5 53z" fill="#ADADAD"/><path class="st4" d="M63.1 78c-.5 0-1-.2-1.4-.6l-7.1-6.8c-.8-.8-.8-2 0-2.8.8-.8 2.1-.8 2.9 0l5.6 5.4 20.4-19.7c.8-.8 2.1-.8 2.9 0 .8.8.8 2 0 2.8L64.6 77.5c-.4.3-1 .5-1.5.5z" fill="#75B600"/><path class="st3" d="M94 17H74c-.6 0-1-.4-1-1s.5-1 1-1h20c.6 0 1 .4 1 1s-.5 1-1 1z" fill="#ADADAD"/><path class="st3" d="M66 17H37c-.6 0-1-.4-1-1s.4-1 1-1h29c.6 0 1 .4 1 1s-.4 1-1 1z" fill="#ADADAD"/><path class="st3" d="M83 10H37c-.6 0-1-.4-1-1s.5-1 1-1h46c.6 0 1 .4 1 1s-.5 1-1 1z" fill="#ADADAD"/><path class="st3" d="M94 24H54c-.6 0-1-.4-1-1s.5-1 1-1h40c.6 0 1 .4 1 1s-.5 1-1 1z" fill="#ADADAD"/><path class="st3" d="M45 24h-8c-.6 0-1-.4-1-1s.4-1 1-1h8c.6 0 1 .4 1 1s-.4 1-1 1z" fill="#ADADAD"/><path class="st3" d="M93.9 31H87c-.6 0-1.1-.4-1.1-1s.5-1 1.1-1h6.9c.6 0 1.1.4 1.1 1s-.5 1-1.1 1z" fill="#ADADAD"/><path class="st3" d="M82 31H67c-.6 0-1-.4-1-1s.5-1 1-1h15c.6 0 1 .4 1 1s-.5 1-1 1z" fill="#ADADAD"/><path class="st3" d="M60 31H37c-.6 0-1-.4-1-1s.4-1 1-1h23c.6 0 1 .4 1 1s-.4 1-1 1z" fill="#ADADAD"/><path class="st3" d="M94 38H62c-.6 0-1-.4-1-1s.4-1 1-1h32c.6 0 1 .4 1 1s-.4 1-1 1z" fill="#ADADAD"/><path class="st3" d="M53 38H37c-.6 0-1-.4-1-1s.4-1 1-1h16c.6 0 1 .4 1 1s-.4 1-1 1z" fill="#ADADAD"/><path class="st3" d="M94 45H80c-.6 0-1-.4-1-1s.5-1 1-1h14c.6 0 1 .4 1 1s-.5 1-1 1z" fill="#ADADAD"/><path class="st3" d="M70 45H37c-.6 0-1-.4-1-1s.4-1 1-1h33c.6 0 1 .4 1 1s-.4 1-1 1z" fill="#ADADAD"/><path class="st5" d="M17.8 55.4c0-.4-.4-.8-1-.9l-1.9-.3c-.5-.1-1.1-.6-1.1-1.1l-.3-1.9c-.1-.5-.5-1-.9-1s-.8.4-.9 1l-.3 1.9c-.1.5-.6 1.1-1.1 1.1l-1.9.3c-.5.1-1 .5-1 .9s.4.8 1 .9l1.9.3c.5.1 1.1.6 1.1 1.1l.3 1.9c.1.5.5 1 .9 1s.8-.4.9-1l.3-2.1c.1-.5.6-1 1.1-1.1l1.8-.1c.6-.2 1.1-.5 1.1-.9z" opacity=".5" fill="#FFF"/><path class="st5" d="M89 110.9c0-.4-.4-.8-1-.9l-1.9-.3c-.5-.1-1.1-.6-1.1-1.1l-.3-1.9c-.1-.5-.5-1-.9-1s-.8.4-.9 1l-.3 1.9c-.1.5-.6 1.1-1.1 1.1l-1.9.3c-.5.1-1 .5-1 .9s.4.8 1 .9l1.9.3c.5.1 1.1.6 1.1 1.1l.4 1.8c.1.5.5 1 .9 1s.8-.4.9-1l.3-2.1c.1-.5.6-1 1.1-1.1l1.8-.1c.6-.1 1-.4 1-.8z" opacity=".5" fill="#FFF"/><path class="st5" d="M116 72c-2.2 0-4-1.8-4-4s1.8-4 4-4 4 1.8 4 4-1.8 4-4 4zm0-6.1c-1.2 0-2.1 1-2.1 2.1 0 1.2 1 2.1 2.1 2.1 1.2 0 2.1-1 2.1-2.1 0-1.2-.9-2.1-2.1-2.1z" opacity=".5" fill="#FFF"/><path class="st5" d="M46 113c-2.2 0-4-1.8-4-4s1.8-4 4-4 4 1.8 4 4-1.8 4-4 4zm0-6.1c-1.2 0-2.1 1-2.1 2.1 0 1.2 1 2.1 2.1 2.1 1.2 0 2.1-1 2.1-2.1 0-1.2-.9-2.1-2.1-2.1z" opacity=".5" fill="#FFF"/><path class="st6" d="M104 14.1V89c0 3.9-3.1 7-7 7H33c-3.9 0-7-3.1-7-7V12.5c-.7.5-1.3 1-2 1.5v75c0 5 4 9 9 9h64c5 0 9-4 9-9V15.7c-.7-.5-1.3-1.1-2-1.6z" fill="#7C4119"/></g></svg>