<svg xmlns="http://www.w3.org/2000/svg" x="0" y="0" viewBox="0 0 128 128" enable-background="new 0 0 128 128" width="128" height="128"><title>comete</title><g class="nc-icon-wrapper"><circle class="st0" cx="64" cy="64" r="64" fill="#28A5C6"/><path class="st1" d="M113.6 38.6c-1.3-1.3-3.6-1-5.1.5l-5.1 5.5c-1.6 1.6-3.7 1.9-4.8.8-1.1-1.1-.7-3.3.8-4.8l13.2-13.2c1.6-1.6 1.8-3.9.5-5.1-1.3-1.3-3.6-1-5.1.5 0 0-34.6 34.7-35.9 35.9-1.3 1.3-3.7 2.1-5.6.7-1.8-1.5-.9-3.3.1-4.2l39-39c1.6-1.6 1.8-3.9.5-5.1-1.3-1.3-3.6-1-5.1.5l-29 29c-1.6 1.6-3.7 1.9-4.8.8-1.1-1.1-.7-3.3.8-4.8l19.7-19.7c1.6-1.6 1.8-3.9.5-5.1-1.3-1.3-3.6-1-5.1.5 0 0-28 28.3-33.3 33.3-5.3 5.1-16 19.3-21.6 20.9-5.7 1.7-7.6 6.7-3.5 10.7 4.2 4.1 6.8 12.1 5.8 17.9-1 5.8 2.4 8.2 7.6 5.5 5.2-2.7 13.6-2.7 18.8 0 5.2 2.7 7.7-.3 8.6-6.1.8-4.6 13.6-16.6 15.7-18.7 2.1-2.1 31.7-32 31.7-32 1.7-1.6 1.9-3.9.7-5.2zM92.4 56.1l-.3.3c-1.7 1.7-4.1 2.1-5.4.9-1.2-1.2-.8-3.6.9-5.4l.3-.3c1.7-1.7 4.1-2.1 5.4-.9 1.2 1.2.8 3.7-.9 5.4z" fill="#FBD000"/><path class="st2" d="M44.8 62.8c1.5-3 3.9-3 5.3 0l1.2 2.4c1.5 3 5.3 5.8 8.6 6.2l2.7.4c3.3.5 4 2.7 1.6 5.1l-1.9 1.9c-2.4 2.3-3.8 6.8-3.3 10.1l.5 2.7c.6 3.3-1.4 4.7-4.3 3.1l-2.4-1.3c-2.9-1.5-7.7-1.5-10.6 0l-2.4 1.3c-2.9 1.5-4.9.1-4.3-3.1l.5-2.7c.6-3.3-.9-7.8-3.3-10.1l-1.9-1.9c-2.4-2.3-1.6-4.6 1.6-5.1l2.7-.4c3.3-.5 7.1-3.3 8.6-6.2l1.1-2.4z" fill="#FFF"/><path class="st1" d="M51.6 30.4c-1-1-.7-3.1.8-4.5l4.5-4.5c1.5-1.5 3.5-1.8 4.5-.8s.7 3.1-.8 4.5l-4.5 4.5c-1.4 1.5-3.5 1.8-4.5.8z" fill="#FBD000"/><path class="st3" d="M57 92.4l-2.4-1.3c-2.9-1.5-7.7-1.5-10.6 0l-2.4 1.3c-2.9 1.5-4.9.1-4.3-3.1l.5-2.7c.6-3.3-.9-7.8-3.3-10.1l-1.9-1.9c-.9-.9-1.3-1.7-1.4-2.5-2.2.8-2.5 2.8-.5 4.8l1.9 1.9c2.4 2.3 3.8 6.8 3.3 10.1l-.5 2.7c-.6 3.3 1.4 4.7 4.3 3.1l2.4-1.3c2.9-1.5 7.7-1.5 10.6 0l2.4 1.3c2.4 1.3 4.2.5 4.4-1.7-.7.1-1.5-.1-2.5-.6z" fill="#EAEAEA"/><path class="st1" d="M71.6 95.4c-1.1-1.1-.7-3.3.8-4.8l4.1-4.1c1.6-1.6 3.7-1.9 4.8-.8 1.1 1.1.7 3.3-.8 4.9l-4 4c-1.6 1.5-3.8 1.9-4.9.8z" fill="#FBD000"/><path class="st1" d="M116.6 35.4c-1.1-1.1-.7-3.3.8-4.8l.1-.1c1.5-1.5 3.7-1.9 4.8-.8 1.1 1.1.7 3.3-.8 4.8l-.1.1c-1.5 1.5-3.7 1.9-4.8.8z" fill="#FBD000"/><path class="st4" d="M57.5 96c-.8 0-1.7-.2-2.7-.7L52.4 94c-1.3-.6-3.1-1-4.9-1-1.9 0-3.7.4-4.9 1l-2.4 1.2c-2.1 1.1-4 .9-5.1-.3-.5-.6-1.1-1.8-.7-3.8l.5-2.6c.5-2.9-.9-7-3.1-9l-2-1.8c-2-1.8-1.8-3.4-1.6-4.2.3-.8 1.1-2.1 3.8-2.5l2.7-.4c3-.4 6.7-3 8-5.6l1.2-2.4c1.2-2.4 2.8-2.7 3.6-2.7.8 0 2.4.4 3.6 2.7l1.2 2.4c1.3 2.6 5 5.2 8 5.6l2.7.4c2.7.4 3.6 1.7 3.8 2.5.3.8.4 2.3-1.6 4.2l-2 1.8c-2.2 2-3.6 6.2-3.1 9l.5 2.6c.4 2-.2 3.2-.7 3.8-.5.7-1.4 1.1-2.4 1.1zm-10-4.9c2.2 0 4.3.4 5.9 1.2l2.4 1.2c1.2.6 2.2.7 2.6.2.4-.4.5-1.2.3-2.2l-.5-2.6c-.6-3.5 1-8.3 3.6-10.8l2-1.8c.8-.8 1.2-1.6 1.1-2.1-.2-.5-1-1-2.2-1.1l-2.7-.5c-3.7-.5-7.9-3.4-9.5-6.7l-1.2-2.4c-.5-1-1.2-1.6-1.8-1.6-.6 0-1.3.6-1.8 1.6L44.5 66c-1.6 3.2-5.8 6.1-9.5 6.7l-2.8.3c-1.2.2-2 .6-2.2 1.1-.2.5.2 1.4 1.1 2.1l2 1.8c2.7 2.5 4.3 7.2 3.6 10.8l-.5 2.6c-.2 1-.1 1.8.3 2.2.4.5 1.4.4 2.6-.2l2.4-1.2c1.7-.7 3.8-1.1 6-1.1z" fill="#663210"/><path class="st1" d="M58 76h-.1c-8.9-1.1-10.8-8.4-10.8-8.7-.1-.6.2-1.1.7-1.3.5-.1 1.1.2 1.2.8.1.3 1.6 6.2 9.1 7.1.6.1.9.6.9 1.2-.1.5-.5.9-1 .9z" fill="#FBD000"/><path class="st5" d="M74 112c-2.2 0-4-1.8-4-4s1.8-4 4-4 4 1.8 4 4-1.8 4-4 4zm0-6.1c-1.2 0-2.1 1-2.1 2.1 0 1.2 1 2.1 2.1 2.1 1.2 0 2.1-1 2.1-2.1 0-1.2-.9-2.1-2.1-2.1z" opacity=".5" fill="#FFF"/><path class="st5" d="M31 39c-2.2 0-4-1.8-4-4s1.8-4 4-4 4 1.8 4 4-1.8 4-4 4zm0-6.1c-1.2 0-2.1 1-2.1 2.1 0 1.2 1 2.1 2.1 2.1 1.2 0 2.1-1 2.1-2.1 0-1.2-.9-2.1-2.1-2.1z" opacity=".5" fill="#FFF"/><path class="st5" d="M112 71c-2.2 0-4-1.8-4-4s1.8-4 4-4 4 1.8 4 4-1.8 4-4 4zm0-6.1c-1.2 0-2.1 1-2.1 2.1 0 1.2 1 2.1 2.1 2.1 1.2 0 2.1-1 2.1-2.1 0-1.2-.9-2.1-2.1-2.1z" opacity=".5" fill="#FFF"/><path class="st5" d="M106.7 87.5c0-.4-.4-.8-1-.9l-1.9-.3c-.5-.1-1.1-.6-1.1-1.1l-.3-1.9c-.1-.5-.5-1-.9-1s-.8.4-.9 1l-.3 1.9c-.1.5-.6 1.1-1.1 1.1l-1.9.3c-.5.1-1 .5-1 .9s.4.8 1 .9l1.9.3c.5.1 1.1.6 1.1 1.1l.3 1.9c.1.5.5 1 .9 1s.8-.4.8-1l.3-2.1c.1-.5.6-1 1.1-1.1l1.8-.1c.8-.2 1.2-.5 1.2-.9z" opacity=".5" fill="#FFF"/><path class="st5" d="M27 54.5c0-.4-.4-.8-1-.9l-1.9-.3c-.5-.1-1.1-.6-1.1-1.1l-.3-1.9c-.1-.5-.5-1-.9-1s-.8.4-.9 1l-.3 1.9c-.1.5-.6 1.1-1.1 1.1l-1.9.3c-.5.1-1 .5-1 .9s.4.8 1 .9l1.9.3c.5.1 1.1.6 1.1 1.1l.3 1.9c.1.5.5 1 .9 1s.8-.4.8-1l.3-2.1c.1-.5.6-1 1.1-1.1l1.8-.1c.8-.2 1.2-.5 1.2-.9z" opacity=".5" fill="#FFF"/><path class="st5" d="M71.9 11.2c0-.4-.4-.8-1-.9L69 10c-.5 0-1-.5-1.1-1.1L67.6 7c-.1-.5-.5-1-.9-1s-.8.4-.9 1l-.3 1.9c-.1.5-.6 1.1-1.1 1.1l-1.9.3c-.5.1-1 .5-1 .9s.4.8 1 .9l1.9.3c.5.1 1.1.6 1.1 1.1l.3 1.9c.1.5.5 1 .9 1s.8-.4.8-1l.3-2.1c.1-.5.6-1 1.1-1.1l1.8-.1c.8-.2 1.2-.5 1.2-.9z" opacity=".5" fill="#FFF"/><path class="st5" d="M51.4 110.1c0-.4-.4-.8-1-.9l-1.9-.3c-.5-.1-1.1-.6-1.1-1.1l-.3-1.9c-.1-.5-.5-1-.9-1s-.8.4-.9 1l-.3 1.9c-.1.5-.6 1.1-1.1 1.1l-1.9.3c-.5.1-1 .5-1 .9s.4.8 1 .9l1.9.3c.5.1 1.1.6 1.1 1.1l.3 1.9c.1.5.5 1 .9 1s.8-.4.8-1l.3-2.1c.1-.5.6-1 1.1-1.1l1.8-.1c.7-.2 1.2-.6 1.2-.9z" opacity=".5" fill="#FFF"/><path class="st2" d="M60.1 43.2c0-.4-.4-.8-1-.9l-4.8-.8c-.5-.1-1.1-.6-1.2-1.2l-.8-4.8c-.1-.5-.5-1-.9-1s-.8.4-.9 1l-.8 4.8c-.1.5-.6 1.1-1.2 1.2l-4.8.8c-.5.1-1 .5-1 .9s.4.8 1 .9l4.7.6c.5.1 1.1.6 1.2 1.1l.9 5c.1.5.5 1 .9 1s.8-.4.9-1l.9-5.1c.1-.5.6-1 1.2-1.1l4.7-.6c.5.1 1-.3 1-.8z" fill="#FFF"/></g></svg>