<svg xmlns="http://www.w3.org/2000/svg" x="0" y="0" viewBox="0 0 128 128" enable-background="new 0 0 128 128" width="128" height="128"><title>desert</title><g class="nc-icon-wrapper"><circle class="st0" cx="64" cy="64" r="64" fill="#FC8BA4"/><path class="st1" d="M0 66.1C1.1 100.5 29.3 128 64 128s62.8-27.5 63.9-61.9H0z" fill="#F99900"/><path class="st2" d="M64.1 128c11.2 0 21.8-2.9 30.9-8L72.2 66.3H55.9L33.1 120c9.2 5.1 19.7 8 31 8z" fill="#415E6D"/><path class="st3" d="M64 124c-.6 0-1-.4-1-1v-2c0-.6.4-1 1-1s1 .4 1 1v2c0 .6-.4 1-1 1z" opacity=".5" fill="#FFF"/><path class="st3" d="M64 118c-.6 0-1-.4-1-1v-4c0-.6.4-1 1-1s1 .4 1 1v4c0 .6-.4 1-1 1zm0-7.9c-.6 0-1-.4-1-1v-4c0-.6.4-1 1-1s1 .4 1 1v4c0 .5-.4 1-1 1zm0-8c-.6 0-1-.4-1-1v-4c0-.6.4-1 1-1s1 .4 1 1v4c0 .5-.4 1-1 1zm0-8c-.6 0-1-.4-1-1v-4c0-.6.4-1 1-1s1 .4 1 1v4c0 .6-.4 1-1 1zm0-7.9c-.6 0-1-.4-1-1v-4c0-.6.4-1 1-1s1 .4 1 1v4c0 .5-.4 1-1 1zm0-8c-.6 0-1-.4-1-1v-4c0-.6.4-1 1-1s1 .4 1 1v4c0 .6-.4 1-1 1z" opacity=".5" fill="#FFF"/><path class="st3" d="M64 70.2c-.6 0-1-.4-1-1v-2c0-.6.4-1 1-1s1 .4 1 1v2c0 .6-.4 1-1 1z" opacity=".5" fill="#FFF"/><path class="st4" d="M43 46c0-1.1-1.6-2-3.2-2h-14c-1.7 0-2.8.9-2.8 2s-1.6 2-3 2-2 .9-2 2 1.1 2 2.8 2h10c1.7 0 3.2-.9 3.2-2s1.3-2 3-2h3c1.7 0 3-.9 3-2z" fill="#FFF"/><path class="st4" d="M86 22c0-1.1-1.1-1-2.3-1h-1.9c-1.2 0-2.8-1-2.8-2s-.5-2-1.7-2h-13c-1.2 0-2.3 1-2.3 2s-.8 1-2 1h-2c-1.2 0-3 .9-3 2s1.3 2 2.5 2h6.4c1.2 0 2.1 1.1 2.1 2s-.8 1-2.1 1h-1.1c-1.2 0-1.8.9-1.8 2s.6 2 1.8 2H69c1.2 0 2-1 2-2s1.3-1 2.5-1h.8c1.2 0 1.7-1 1.7-2s1.6-2 2.8-2h4.9c1.2 0 2.3-.9 2.3-2z" fill="#FFF"/><circle class="st5" cx="22" cy="21" r="9" fill="#FBD000"/><path class="st6" d="M26 94c-1.1 0-2-.9-2-2V79c0-1.1.9-2 2-2s2 .9 2 2v13c0 1.1-.9 2-2 2z" fill="#46600E"/><path class="st6" d="M31 89h-4.9c-1.1 0-2-.9-2-2s.9-2 2-2H29v-1.2c0-1.1.9-1.8 2-1.8s2 .6 2 1.8V87c0 1.1-.9 2-2 2z" fill="#46600E"/><path class="st6" d="M103 90c-1.1 0-2-.9-2-2v-7.8c0-1.1.9-2.2 2-2.2s2 1.1 2 2.2V88c0 1.1-.9 2-2 2z" fill="#46600E"/><path class="st7" d="M128 64c0-8.1-1.5-15.9-4.3-23H93L80.8 66.1l47.1.2c0-.7.1-1.5.1-2.3z" fill="#AD5114"/><path class="st8" d="M34 120.6l22.7-53.5c.2-.5 0-1.1-.5-1.3-.5-.2-1.1 0-1.3.5l-22.6 53.3c.6.4 1.1.7 1.7 1z" fill="#663210"/><path class="st8" d="M73 66.4c-.2-.5-.8-.7-1.3-.5-.5.2-.7.8-.5 1.3l22.7 53.5c.6-.3 1.2-.6 1.8-1L73 66.4z" fill="#663210"/><path class="st8" d="M.1 67h127.8c0-.7 0-1.3.1-2H0c0 .7 0 1.3.1 2z" fill="#663210"/><path class="st3" d="M121.8 72h-41c-.6 0-1-.4-1-1s.4-1 1-1h41c.6 0 1 .4 1 1s-.5 1-1 1z" opacity=".5" fill="#FFF"/><path class="st3" d="M47.8 72h-41c-.6 0-1-.4-1-1s.4-1 1-1h41c.6 0 1 .4 1 1s-.5 1-1 1z" opacity=".5" fill="#FFF"/><path class="st3" d="M88.8 119c-.4 0-.8-.2-.9-.6L76.2 89.5c-.2-.5 0-1.1.6-1.3.5-.2 1.1 0 1.3.6l11.6 28.9c.2.5 0 1.1-.6 1.3h-.3z" opacity=".5" fill="#FFF"/><path class="st3" d="M74.8 84.3c-.4 0-.8-.2-.9-.6l-4.6-11.3c-.2-.5 0-1.1.6-1.3.5-.2 1.1 0 1.3.6L75.8 83c.2.5 0 1.1-.6 1.3h-.4z" opacity=".5" fill="#FFF"/><path class="st9" d="M103 87c-.6 0-1-.4-1-1v-5c0-.6.4-1 1-1s1 .4 1 1v5c0 .6-.4 1-1 1z" fill="#75B600"/><path class="st9" d="M26 93c-.6 0-1-.4-1-1V80c0-.6.4-1 1-1s1 .4 1 1v12c0 .6-.4 1-1 1z" fill="#75B600"/><path class="st9" d="M31 88h-4c-.6 0-1-.4-1-1s.4-1 1-1h3v-2c0-.6.4-1 1-1s1 .4 1 1v3c0 .6-.4 1-1 1z" fill="#75B600"/><path class="st8" d="M123.3 40H93c-.4 0-.7.2-.9.6L79.9 65.7c-.2.5 0 .1.5.3.1.1.3 0 .4 0 .4 0 .7.9.9.6l12-24.6h30.4c-.3-.7-.5-1.3-.8-2z" fill="#663210"/><path class="st4" d="M108 38c0-1.1-1.2-2-2.8-2h-14c-1.7 0-3.2.9-3.2 2s-.6 2-2 2-3 .9-3 2 1.5 2 3.2 2h10c1.7 0 2.8-.9 2.8-2s1.5-2 3.2-2h3c1.6 0 2.8-.9 2.8-2z" fill="#FFF"/><path class="st3" d="M45 18c-2.2 0-4-1.8-4-4s1.8-4 4-4 4 1.8 4 4-1.8 4-4 4zm0-6.1c-1.2 0-2.1 1-2.1 2.1 0 1.2 1 2.1 2.1 2.1 1.2 0 2.1-1 2.1-2.1 0-1.2-.9-2.1-2.1-2.1z" opacity=".5" fill="#FFF"/><path class="st3" d="M61.9 50.2c0-.4-.4-.8-1-.9l-1.8-.3c-.5-.1-1.1-.6-1.1-1.1l-.3-1.9c-.1-.5-.5-1-.9-1s-.8.4-.9 1l-.3 1.9c-.1.5-.6 1.1-1.1 1.1l-1.9.3c-.5.1-1 .5-1 .9s.4.8 1 .9l1.9.3c.5.1 1.1.6 1.1 1.1l.3 1.9c.1.5.5 1 .9 1s.8-.4.8-1l.3-2.1c.1-.5.6-1 1.1-1.1l1.8-.1c.7-.2 1.1-.6 1.1-.9z" opacity=".5" fill="#FFF"/></g></svg>