<svg xmlns="http://www.w3.org/2000/svg" x="0" y="0" viewBox="0 0 128 128" enable-background="new 0 0 128 128" width="128" height="128"><title>gift</title><g class="nc-icon-wrapper"><circle class="st0" cx="64" cy="64" r="64" fill="#FBD000"/><path class="st1" d="M98.3 100c0 2.8-2.2 5-5 5H36.9c-2.8 0-5-2.2-5-5V59.8c0-2.8 2.2-5 5-5h56.4c2.8 0 5 2.2 5 5V100z" fill="#00B3F9"/><path class="st2" d="M93.3 99H36.9c-2.8 0-5-2.9-5-5.7v6.7c0 2.8 2.2 5 5 5h56.4c2.8 0 5-2.2 5-5v-6.7c0 2.8-2.3 5.7-5 5.7z" fill="#0798E8"/><path class="st2" d="M31.9 59.8V72h66.4V59.8c0-2.8-2.2-5-5-5H36.9c-2.7 0-5 2.2-5 5z" fill="#0798E8"/><path class="st3" fill="#FFF" d="M58 54.8h14.9v50.3H58z"/><path class="st4" opacity=".3" fill="#00B3F9" d="M58 54.8h15V72H58z"/><path class="st3" fill="#FFF" d="M42.9 43.7l6.7-14 14.7 9.8h2.2l14.7-9.8 6.8 14"/><path class="st4" opacity=".3" fill="#00B3F9" d="M66.5 39.9h-2.2l-1.4-.9H45.3l-2.4 5.1H88L85.5 39H67.9z"/><path class="st3" fill="#FFF" d="M40 42h50v11.9H40z"/><circle class="st3" cx="64.9" cy="49.1" r="10.8" fill="#FFF"/><path class="st1" d="M101.3 60.5c0 2.8-2.2 5-5 5H33.9c-2.8 0-5-2.2-5-5v-7.3c0-2.8 2.2-5 5-5h62.4c2.8 0 5 2.2 5 5v7.3z" fill="#00B3F9"/><path class="st3" fill="#FFF" d="M55 48.2h20v16.7H55z"/><path class="st5" d="M100 104H23c-.6 0-1 .4-1 1s.5 1 1 1h77c.6 0 1-.4 1-1 0-.5-.5-1-1-1z" fill="#0C508E"/><path class="st5" d="M108 106h-4c-.6 0-1-.4-1-1s.4-1 1-1h4c.6 0 1 .5 1 1 0 .6-.4 1-1 1z" fill="#0C508E"/><path class="st3" d="M34 32c-2.2 0-4-1.8-4-4s1.8-4 4-4 4 1.8 4 4-1.8 4-4 4zm0-6.1c-1.2 0-2.1 1-2.1 2.1 0 1.2 1 2.1 2.1 2.1 1.2 0 2.1-1 2.1-2.1 0-1.2-.9-2.1-2.1-2.1z" fill="#FFF"/><path class="st3" d="M21 83c-2.2 0-4-1.8-4-4s1.8-4 4-4 4 1.8 4 4-1.8 4-4 4zm0-6.1c-1.2 0-2.1 1-2.1 2.1 0 1.2 1 2.1 2.1 2.1 1.2 0 2.1-1 2.1-2.1 0-1.2-.9-2.1-2.1-2.1z" fill="#FFF"/><path class="st3" d="M109 91c-2.2 0-4-1.8-4-4s1.8-4 4-4 4 1.8 4 4-1.8 4-4 4zm0-6.1c-1.2 0-2.1 1-2.1 2.1 0 1.2 1 2.1 2.1 2.1 1.2 0 2.1-1 2.1-2.1 0-1.2-.9-2.1-2.1-2.1z" fill="#FFF"/><path class="st3" d="M105.3 32.2c0-.4-.4-.8-1-.9l-1.9-.3c-.5-.1-1.1-.6-1.1-1.1L101 28c-.1-.5-.5-1-.9-1s-.8.4-.9 1l-.2 2c-.1.5-.6 1.1-1.1 1.1l-1.9.3c-.5.1-1 .5-1 .9s.4.8 1 .9l1.9.3c.5.1 1.1.6 1.1 1.1l.3 1.9c.1.5.5 1 .9 1s.8-.4.8-1l.3-2.1c.1-.5.6-1 1.1-1.1l1.8-.1c.6-.2 1.1-.6 1.1-1z" fill="#FFF"/><path class="st3" d="M67.3 16.3c0-.4-.4-.8-1-.9l-1.9-.3c-.5-.1-1.1-.6-1.1-1.1l-.3-1.8c-.1-.5-.5-1-.9-1s-.8.4-.9 1l-.2 1.9c-.1.5-.6 1.1-1.1 1.1l-1.9.3c-.5.1-1 .5-1 .9s.4.8 1 .9l1.9.3c.5.1 1.1.6 1.1 1.1l.3 1.9c.1.5.5 1 .9 1s.8-.4.8-1l.3-2.1c.1-.5.6-1 1.1-1.1l1.8-.1c.6-.2 1.1-.6 1.1-1z" fill="#FFF"/><path class="st3" d="M119.8 65.1c0-.4-.4-.8-1-.9l-1.9-.3c-.5-.1-1.1-.6-1.1-1.1l-.3-1.9c-.1-.5-.5-1-.9-1s-.8.4-.9 1l-.3 1.9c-.1.5-.6 1.1-1.1 1.1l-1.9.3c-.5.1-1 .5-1 .9s.4.8 1 .9l1.9.3c.5.1 1.1.6 1.1 1.1l.3 1.9c.1.5.5 1 .9 1s.8-.4.8-1l.3-2.1c.1-.5.6-1 1.1-1.1l1.8-.1c.8-.2 1.2-.6 1.2-.9z" fill="#FFF"/><path class="st6" d="M96 60.4c-.6 0-1-.4-1-1V56c0-1.1-.9-2-2-2H79.5c-.6 0-1-.4-1-1s.4-1 1-1H93c2.2 0 4 1.8 4 4v3.4c0 .6-.4 1-1 1z" opacity=".5" fill="#FFF"/><path class="st6" d="M52.2 54H34.7c-.6 0-1-.4-1-1s.4-1 1-1h17.5c.6 0 1 .4 1 1s-.5 1-1 1z" opacity=".5" fill="#FFF"/><path class="st6" d="M94 93.8c-.6 0-1-.4-1-1V74.5c0-.6.4-1 1-1s1 .4 1 1v18.3c0 .6-.4 1-1 1z" opacity=".5" fill="#FFF"/><path class="st3" d="M65.1 41.7c1.4 0 4.6 1.2 5.6 3.5" fill="#FFF"/><path class="st7" d="M71 46.2c-.4 0-.8-.2-.9-.5-.9-1.8-3.9-2.8-4.9-2.8-.6 0-1-.4-1-.9s.5-.9 1-.9c1.6 0 5.4 1.2 6.8 3.8.2.5 0 1-.5 1.2-.2 0-.4.1-.5.1z" opacity=".5" fill="#0C508E"/><path class="st4" opacity=".3" fill="#00B3F9" d="M58 99h15v6H58z"/><path class="st5" d="M96 47h-5v-5c0-.6-.4-1-1-1h-2.2L83 31c-.1-.3-1-2-2-2-.3 0-1.8.8-2 1l-11.4 7.6c-.9-.2-1.8-.3-2.7-.3-.6 0-1.3.1-1.9.2L52 30s-1.7-1-2-1c-1 0-1.9 1.7-2 2l-4.9 10H40c-.6 0-1 .4-1 1v5h-5.1c-3.3 0-5.9 2.7-5.9 6v7c0 2.2 1.2 4.2 3 5.2V100c0 3.3 2.6 6 5.9 6H93c3.3 0 6-2.6 6-6V65.2c1.8-1 3-3 3-5.2v-7c0-3.3-2.7-6-6-6zm-7-4v4H76.5c-.3-1.4-.8-2.8-1.5-4h14zm-8.2-11.8l4.7 9.8H73.4c-1-1-2.2-1.9-3.5-2.5l10.9-7.3zm-15.9 8.1c4.7 0 8.6 3.3 9.6 7.7H55.3c1-4.4 4.9-7.7 9.6-7.7zM50 31.2l10.4 7c-1.6.6-3 1.6-4.1 2.8h-11l4.7-9.8zM41 43h13.8c-.7 1.2-1.3 2.6-1.5 4H41v-4zm56 57c0 2.2-1.8 4-4 4H36.9c-2.2 0-4-1.8-4-4V65.9c.3.1.7.1 1 .1H96c.3 0 .7 0 1-.1V100zm3-40c0 2.2-1.8 4-4 4H33.9c-2.2 0-4-1.8-4-4v-7c0-2.2 1.8-4 4-4H96c2.2 0 4 1.8 4 4v7z" fill="#0C508E"/></g></svg>