<svg xmlns="http://www.w3.org/2000/svg" x="0" y="0" viewBox="0 0 128 128" enable-background="new 0 0 128 128" width="128" height="128"><title>like</title><g class="nc-icon-wrapper"><circle class="st0" cx="64" cy="64" r="64" fill="#3DB39E"/><path class="st1" d="M25 39c-2.2 0-4-1.8-4-4s1.8-4 4-4 4 1.8 4 4-1.8 4-4 4zm0-6.1c-1.2 0-2.1 1-2.1 2.1 0 1.2 1 2.1 2.1 2.1 1.2 0 2.1-1 2.1-2.1 0-1.2-.9-2.1-2.1-2.1z" opacity=".5" fill="#FFF"/><path class="st1" d="M52 111c-2.2 0-4-1.8-4-4s1.8-4 4-4 4 1.8 4 4-1.8 4-4 4zm0-6.1c-1.2 0-2.1 1-2.1 2.1 0 1.2 1 2.1 2.1 2.1 1.2 0 2.1-1 2.1-2.1 0-1.2-.9-2.1-2.1-2.1z" opacity=".5" fill="#FFF"/><path class="st1" d="M99.5 29.3c0-.4-.4-.8-1-.9l-1.9-.3c-.5-.1-1.1-.6-1.1-1.1l-.3-1.9c-.1-.5-.5-1-.9-1s-.8.4-.9 1l-.2 1.9c-.1.5-.6 1.1-1.1 1.1l-1.9.3c-.5.1-1 .5-1 .9s.4.8 1 .9l1.9.3c.5.1 1.1.6 1.1 1.1l.3 1.9c.1.5.5 1 .9 1s.8-.4.9-1l.3-2.1c.1-.5.6-1 1.1-1.1l1.8-.1c.6-.2 1-.5 1-.9z" opacity=".5" fill="#FFF"/><path class="st1" d="M56.5 17.3c0-.4-.4-.8-1-.9l-1.9-.3c-.5-.1-1.1-.6-1.1-1.1l-.3-1.9c-.1-.5-.5-1-.9-1s-.8.4-.9 1l-.3 1.9c-.1.5-.6 1.1-1.1 1.1l-1.9.3c-.5.1-1 .5-1 .9s.4.8 1 .9l1.9.3c.5.1 1.1.6 1.1 1.1l.3 1.9c.1.5.5 1 .9 1s.8-.4.9-1l.3-2.1c.1-.5.6-1 1.1-1.1l1.8-.1c.7-.1 1.1-.5 1.1-.9z" opacity=".5" fill="#FFF"/><path class="st1" d="M86.4 109.2c0-.4-.4-.8-1-.9l-1.9-.3c-.5-.1-1.1-.6-1.1-1.1l-.3-1.9c-.1-.5-.5-1-.9-1s-.8.4-.9 1l-.3 1.9c-.1.5-.6 1.1-1.1 1.1l-1.9.3c-.5.1-1 .5-1 .9s.4.8 1 .9l1.9.3c.5.1 1.1.6 1.1 1.1l.3 1.9c.1.5.5 1 .9 1s.8-.4.9-1l.3-2.1c.1-.5.6-1 1.1-1.1l1.8-.1c.7-.1 1.1-.5 1.1-.9z" opacity=".5" fill="#FFF"/><path class="st2" d="M26.4 53.5v39.2h23.1c8.3 0 11.6 6.5 20.3 6.5h22.9c4.1 0 7.4-2.9 7.4-6.5s-3.3-6.5-7.4-6.5h2.6c4.1 0 8.5-2.9 8.5-6.5s-2.8-6.5-6.8-6.5h2.6c4.1 0 7.4-2.9 7.4-6.5s-3.3-6.5-7.4-6.5h2.6c4.1 0 6.8-2.9 6.8-6.5s-3.3-6.5-7.4-6.5h-24-2.5c.8-2.3 2.7-7.8 3.4-14.3.9-8.3-1.4-15-6-15.7-6.5-.9-5.6 8.6-8.8 17.8C61 42.8 52 50.8 48.8 53.5H26.4z" fill="#F9D4CA"/><path class="st3" d="M101.1 79.4c0 3.6-4.5 6.5-8.5 6.5H69.8c-5.3 0-13.2-5.8-15.3-14.8-2.9-12.8 3.7-22.9 6.5-30.5-3.8 5.7-9.7 10.9-12.2 13H32.7l5.1 21.3 3.3 4.6H26.4v13.3h23.1c8.3 0 11.6 6.5 20.3 6.5h22.9c4.1 0 7.4-2.9 7.4-6.5s-3.3-6.5-7.4-6.5h2.6c4.1 0 8.5-2.9 8.5-6.5 0-3.4-2.4-6.1-6.2-6.4 1.3.9 3.5 3.2 3.5 6z" fill="#EFBFB4"/><path class="st3" d="M97.6 73.4c-.1-.1-.1-.1 0 0H97c.1-.1.4-.1.6 0z" fill="#EFBFB4"/><path class="st3" d="M109 53.9c0-3.6-3.3-6.5-7.4-6.5h-.1c2.8.9 4.9 3.3 4.9 6.1 0 3.6-2.8 6.5-6.8 6.5 0 0 .2.1.6.4h2c4 0 6.8-2.9 6.8-6.5z" fill="#EFBFB4"/><path class="st3" d="M99.5 60.4h.6-.6z" fill="#EFBFB4"/><path class="st3" d="M104.3 66.5c0 3.6-3.3 6.5-7.4 6.5 0 0 .2.1.6.4h2c4.1 0 7.4-2.9 7.4-6.5 0-3.4-3-6.1-6.8-6.4 1.4.9 4.2 3.2 4.2 6z" fill="#EFBFB4"/><path class="st4" d="M92.6 100H69.8c-4.6 0-7.8-1.7-10.9-3.3-2.9-1.6-6-2.7-9.9-2.7H26c-.6 0-.6-.7-.6-1.3V54c0-.6.4-1 1-1h22c4.1-3.4 12-11.3 14.3-18 1-2.7 1.6-5.5 2.1-8 1.2-5.7 2.6-11 7.2-11h1c5.1.7 8 7.8 7 17-.6 5.7-2.6 10.9-3.5 13.7.5.1 1 .3 1.3.3h23.8c4.8 0 8.4 3 8.4 6.9 0 3.4-2.1 6.1-5.2 7.1 1.9 1.4 3.2 3.6 3.2 6 0 3.4-2.6 6.1-6 7 1.7 1.3 3 3.6 3 6 0 3.4-3.5 6-7.1 6.9 1.9 1.4 3.1 3.5 3.1 5.8 0 4.1-3.7 7.3-8.4 7.3zM27 92h22c4.4 0 7.9 1.3 10.8 2.9 3 1.6 5.8 3.1 9.9 3.1h22.9c3.6 0 6.4-2.3 6.4-5.3s-2.9-5.5-6.4-5.5c-.6 0-1-.4-1-1s.4-1 1-1h2.6c3.4 0 7.8-2.2 7.8-5.2 0-3.2-2.7-5.7-6.1-5.7-.6 0-1-.4-1-1s.4-1 1-1h2.6c3.5 0 6.5-2.3 6.5-5.3s-2.9-5.6-6.5-5.6c-.6 0-1-.4-1-1s.4-1 1-1h2.6c3.4 0 5.8-2.3 5.8-5.5 0-2.9-2.7-4.9-6.4-4.9H77.2c-.6-.2-1.6-.5-2.2-.5-.3 0-.6-.2-.8-.4-.2-.3-.2-.6-.1-.9.9-2.4 3.2-7.9 3.9-14.2.9-7.9-2-15-6-15-3.5 0-3.9 3.2-5.2 9.4-.5 2.5-1.2 5.4-2.2 8.3C62 43 53.5 51.4 49.4 54.9c-.2 0-.4.1-.6.1H27v37z" fill="#176859"/><path class="st5" d="M25 90c0 3.3 2.7 6 6 6h5.8c3.3 0 6-2.7 6-6V55.2c0-3.3-2.7-6-6-6H31c-3.3 0-6 2.7-6 6V90z" fill="#FFF"/><path class="st6" d="M36.9 86.5H31c-3.3 0-6-2.7-6-6V90c0 3.3 2.7 6 6 6h5.8c3.3 0 6-2.7 6-6v-9.5c.1 3.3-2.6 6-5.9 6z" fill="#EAEAEA"/><path class="st4" d="M37 97h-6c-3.9 0-7-3.1-7-7V55c0-3.9 3.1-7 7-7h6c3.9 0 7 3.1 7 7v35c0 3.9-3.1 7-7 7zm-6-47c-2.8 0-5 2.2-5 5v35c0 2.8 2.2 5 5 5h6c2.8 0 5-2.2 5-5V55c0-2.8-2.2-5-5-5h-6z" fill="#176859"/><path class="st5" d="M74 39h-.2c-.5-.1-.9-.7-.8-1.2 2.1-8.9.1-14.5 0-14.5-.2-.5.1-1.1.6-1.3.5-.2 1.1.1 1.3.6.1.2 2.3 6.2 0 15.7 0 .4-.4.7-.9.7z" fill="#FFF"/><circle class="st4" cx="34" cy="60" r="3" fill="#176859"/></g></svg>