<svg xmlns="http://www.w3.org/2000/svg" x="0" y="0" viewBox="0 0 128 128" enable-background="new 0 0 128 128" width="128" height="128"><title>pointer</title><g class="nc-icon-wrapper"><circle class="st0" cx="64" cy="64" r="64" fill="#3AD0F9"/><path class="st1" d="M64 15.5c-2.4 0-4.4 2.7-4.4 6v106.4c1.4.1 2.9.1 4.4.1 1.5 0 3-.1 4.4-.2V21.5c.1-3.3-1.9-6-4.4-6z" fill="#AD5114"/><path class="st2" fill="#993F0D" d="M59.6 26.1h9.2v32h-9.2z"/><path class="st2" fill="#993F0D" d="M59.6 61h9.2v32h-9.2z"/><path class="st3" d="M64 14c-3 0-6 3.2-6 7v106.7c.7.1 1.3.1 2 .2V21c0-2.7 2.2-5 4-5 1.9 0 3 2.3 3 5v106.9c.7 0 1.3-.1 2-.2V21c0-3.8-2-7-5-7z" fill="#663210"/><path class="st4" d="M100.9 51.3c-2.4 2.2-7.1 4.1-10.4 4.1H31.2c-3.3 0-6-2.7-6-6V35.7c0-3.3 2.7-6 6-6h59.2c3.3 0 8 1.8 10.5 4l5.2 4.7c2.5 2.2 2.5 5.8 0 8.1l-5.2 4.8z" fill="#EAEAEA"/><path class="st5" d="M106.2 42.4l-5.3 4.9c-2.4 2.2-7.1 3.7-10.4 3.7H31.2c-3.3 0-6-2.4-6-5.7V50c0 3.3 2.7 6 6 6h59.2c3.3 0 8-1.8 10.4-4.1l5.3-4.9c1.9-1.7 2.3-4.3 1.3-6.3-.2.6-.6 1.2-1.2 1.7z" fill="#D4D6D6"/><path class="st3" d="M90.5 57H31c-3.9 0-7-3.1-7-7V36c0-3.9 3.1-7 7-7h59.5c3.5 0 8.5 1.9 11.2 4.2l5.1 4.5c1.4 1.2 2.2 2.9 2.3 4.7 0 1.8-.7 3.5-2 4.8l-5.5 5.3C99 55 94 57 90.5 57zM31 31c-2.8 0-5 2.2-5 5v14c0 2.8 2.2 5 5 5h59.5c3 0 7.4-1.8 9.6-3.9l5.5-5.3c.9-.9 1.4-2.1 1.4-3.4 0-1.3-.6-2.4-1.6-3.3l-5.1-4.5c-2.3-2-6.8-3.7-9.9-3.7H31z" fill="#663210"/><path class="st6" d="M91 43H78c-1.1 0-2-.9-2-2s.9-2 2-2h13c1.1 0 2 .9 2 2s-.9 2-2 2z" fill="#ADADAD"/><path class="st6" d="M71 43H37c-1.1 0-2-.9-2-2s.9-2 2-2h34c1.1 0 2 .9 2 2s-.9 2-2 2z" fill="#ADADAD"/><path class="st4" d="M27 85.9c2.4 2.2 7.1 4.1 10.4 4.1h59.2c3.3 0 6-2.7 6-6V70.3c0-3.3-2.7-6-6-6H37.4c-3.3 0-8 1.8-10.5 4L21.7 73c-2.5 2.2-2.5 5.8 0 8.1l5.3 4.8z" fill="#EAEAEA"/><path class="st5" d="M21.7 76.3l5.3 4.9c2.4 2.2 7.1 3.8 10.4 3.8h59.2c3.3 0 6-2.4 6-5.7V84c0 3.3-2.7 6-6 6H37.4c-3.3 0-8-1.8-10.4-4.1L21.7 81c-1.9-1.7-2.3-4.3-1.3-6.3.3.6.7 1.1 1.3 1.6z" fill="#D4D6D6"/><path class="st3" d="M97 91H37.4c-3.5 0-8.5-1.9-11.1-4.3L21 81.8c-1.4-1.3-2.1-3-2.1-4.8 0-1.8.8-3.5 2.2-4.8l5.3-4.9C29 64.9 34 63 37.5 63H97c3.9 0 7 3.1 7 7v14c0 3.9-3.1 7-7 7zM37.4 65c-3 0-7.5 1.7-9.8 3.8l-5.3 4.9c-1 .9-1.5 2.1-1.5 3.3 0 1.3.5 2.4 1.5 3.3l5.3 4.9c2.2 2.1 6.7 3.8 9.7 3.8H97c2.8 0 5-2.2 5-5V70c0-2.8-2.2-5-5-5H37.4z" fill="#663210"/><path class="st6" d="M51 78H37c-1.1 0-2-.9-2-2s.9-2 2-2h14c1.1 0 2 .9 2 2s-.9 2-2 2z" fill="#ADADAD"/><path class="st6" d="M76 78H57c-1.1 0-2-.9-2-2s.9-2 2-2h19c1.1 0 2 .9 2 2s-.9 2-2 2z" fill="#ADADAD"/><path class="st6" d="M92.1 78h-9.2c-1.1 0-1.9-.9-1.9-2s.9-2 1.9-2h9.2c1.1 0 1.9.9 1.9 2s-.9 2-1.9 2z" fill="#ADADAD"/><path class="st7" d="M86.5 35H33c-.6 0-1-.4-1-1s.4-1 1-1h53.5c.6 0 1 .4 1 1s-.4 1-1 1z" fill="#FFF"/><path class="st7" d="M96.5 69H43c-.6 0-1-.4-1-1s.4-1 1-1h53.5c.6 0 1 .4 1 1s-.4 1-1 1z" fill="#FFF"/><path class="st8" d="M65 123.8c-.6 0-1-.4-1-1V96c0-.6.4-1 1-1s1 .4 1 1v26.8c0 .5-.4 1-1 1z" opacity=".5" fill="#FFF"/><path class="st8" d="M65 24.5c-.6 0-1-.4-1-1v-2.6c0-.6.4-1 1-1s1 .4 1 1v2.6c0 .6-.4 1-1 1z" opacity=".5" fill="#FFF"/><path class="st7" d="M87 106c-2.2 0-4-1.8-4-4s1.8-4 4-4 4 1.8 4 4-1.8 4-4 4zm0-6.1c-1.2 0-2.1 1-2.1 2.1 0 1.2 1 2.1 2.1 2.1 1.2 0 2.1-1 2.1-2.1 0-1.2-.9-2.1-2.1-2.1z" fill="#FFF"/><path class="st7" d="M84 23c-2.2 0-4-1.8-4-4s1.8-4 4-4 4 1.8 4 4-1.8 4-4 4zm0-6.1c-1.2 0-2.1 1-2.1 2.1 0 1.2 1 2.1 2.1 2.1 1.2 0 2.1-1 2.1-2.1 0-1.2-.9-2.1-2.1-2.1z" fill="#FFF"/><path class="st7" d="M14 65c-2.2 0-4-1.8-4-4s1.8-4 4-4 4 1.8 4 4-1.8 4-4 4zm0-6.1c-1.2 0-2.1 1-2.1 2.1 0 1.2 1 2.1 2.1 2.1 1.2 0 2.1-1 2.1-2.1 0-1.2-.9-2.1-2.1-2.1z" fill="#FFF"/><path class="st7" d="M48.8 108.8c0-.4-.4-.8-1-.9l-1.9-.3c-.5-.1-1.1-.6-1.1-1.1l-.3-1.9c-.1-.5-.5-1-.9-1s-.8.4-.9 1l-.3 1.9c-.1.5-.6 1.1-1.1 1.1l-1.9.3c-.5.1-1 .5-1 .9s.4.8 1 .9l1.9.3c.5.1 1.1.6 1.1 1.1l.3 1.9c.1.5.5 1 .9 1s.8-.4.8-1l.3-2.1c.1-.5.6-1 1.1-1.1l1.8-.1c.7-.1 1.2-.5 1.2-.9z" fill="#FFF"/><path class="st7" d="M120.4 69.5c0-.4-.4-.8-1-.9l-1.9-.3c-.5-.1-1.1-.6-1.1-1.1l-.3-1.9c-.1-.5-.5-1-.9-1s-.8.4-.9 1l-.3 1.9c-.1.5-.6 1.1-1.1 1.1l-1.9.3c-.5.1-1 .5-1 .9s.4.8 1 .9l1.9.3c.5.1 1.1.6 1.1 1.1l.3 1.9c.1.5.5 1 .9 1s.8-.4.8-1l.3-2.1c.1-.5.6-1 1.1-1.1l1.8-.1c.8-.2 1.2-.5 1.2-.9z" fill="#FFF"/><path class="st7" d="M48.1 17.9c0-.4-.4-.8-1-.9l-1.9-.3c-.5-.1-1.1-.6-1.1-1.1l-.3-1.9c-.1-.5-.5-1-.9-1s-.8.4-.9 1l-.3 1.9c-.1.5-.6 1.1-1.1 1.1l-1.9.3c-.5.1-1 .5-1 .9s.4.8 1 .9l1.9.3c.5.1 1.1.6 1.1 1.1l.3 1.9c.1.5.5 1 .9 1s.8-.4.8-1L44 20c.1-.5.6-1 1.1-1.1l1.8-.1c.8-.1 1.2-.5 1.2-.9z" fill="#FFF"/></g></svg>