<svg xmlns="http://www.w3.org/2000/svg" x="0" y="0" viewBox="0 0 128 128" enable-background="new 0 0 128 128" width="128" height="128"><title>safe</title><g class="nc-icon-wrapper"><circle class="st0" cx="64" cy="64" r="64" fill="#FF4848"/><path class="st1" d="M118.7 106H11.6c-.6 0-1-.4-1-1s.4-1 1-1h107.1c.6 0 1 .4 1 1s-.5 1-1 1z" fill="#074370"/><path class="st2" d="M53.5 103c0 1.1-.9 2-2 2H40.3c-1.1 0-2-.9-2-2v-8.5c0-1.1.9-2 2-2h11.2c1.1 0 2 .9 2 2v8.5z" fill="#3AD0F9"/><path class="st2" d="M91.5 103c0 1.1-.9 2-2 2H78.3c-1.1 0-2-.9-2-2v-8.5c0-1.1.9-2 2-2h11.2c1.1 0 2 .9 2 2v8.5z" fill="#3AD0F9"/><path class="st3" fill="#00B3F9" d="M38.7 99.5H53v2.3H38.7z"/><path class="st3" fill="#00B3F9" d="M76.7 99.5H91v2.3H76.7z"/><path class="st1" d="M52 106H40c-1.7 0-3-1.3-3-3v-8.5c0-1.7 1.3-3 3-3h12c1.7 0 3 1.3 3 3v8.5c0 1.7-1.3 3-3 3zM40 93.5c-.6 0-1 .4-1 1v8.5c0 .6.4 1 1 1h12c.6 0 1-.4 1-1v-8.5c0-.6-.4-1-1-1H40z" fill="#074370"/><path class="st1" d="M90 106H78c-1.7 0-3-1.3-3-3v-8.5c0-1.7 1.3-3 3-3h12c1.7 0 3 1.3 3 3v8.5c0 1.7-1.3 3-3 3zM78 93.5c-.6 0-1 .4-1 1v8.5c0 .6.4 1 1 1h12c.6 0 1-.4 1-1v-8.5c0-.6-.4-1-1-1H78z" fill="#074370"/><path class="st2" d="M103.3 91c0 4.4-3.6 8-8 8h-60c-4.4 0-8-3.6-8-8V34.3c0-4.4 3.6-8 8-8h60c4.4 0 8 3.6 8 8V91z" fill="#3AD0F9"/><path class="st2" d="M95.3 85.3c0 3.3-2.7 6-6 6H44.6c-3.3 0-6-2.7-6-6V40c0-3.3 2.7-6 6-6h44.7c3.3 0 6 2.7 6 6v45.3z" fill="#3AD0F9"/><path class="st3" d="M89.3 87H44.6c-3.3 0-6-2.7-6-6v3.5c0 3.3 2.7 6 6 6h44.7c3.3 0 6-2.7 6-6V81c0 3.3-2.7 6-6 6z" fill="#00B3F9"/><path class="st3" d="M95.3 94h-60c-4.4 0-8-3.6-8-8v4.5c0 4.4 3.6 8 8 8h60c4.4 0 8-3.6 8-8V86c0 4.4-3.6 8-8 8z" fill="#00B3F9"/><path class="st1" d="M89 92H45c-3.9 0-7-3.1-7-7V40c0-3.9 3.1-7 7-7h44c3.9 0 7 3.1 7 7v45c0 3.9-3.1 7-7 7zM45 35c-2.8 0-5 2.2-5 5v45c0 2.8 2.2 5 5 5h44c2.8 0 5-2.2 5-5V40c0-2.8-2.2-5-5-5H45z" fill="#074370"/><path class="st3" d="M88.2 76c-1.2 0-2.2-.9-2.2-2v-8.7c0-1.1 1-2 2.2-2h.6c1.2 0 2.2.9 2.2 2V74c0 1.1-1 2-2.2 2h-.6z" fill="#00B3F9"/><ellipse class="st3" cx="66.5" cy="67.5" rx="14.5" ry="14.5" fill="#00B3F9"/><path class="st2" d="M38.4 52.3c-1.1 0-2-.9-2-2v-5.8c0-1.1.9-2 2-2h1c1.1 0 2 .9 2 2v5.8c0 1.1-.9 2-2 2h-1z" fill="#3AD0F9"/><path class="st2" d="M88.4 73.1c-1.1 0-2-.9-2-2v-8.5c0-1.1.9-2 2-2h.5c1.1 0 2 .9 2 2v8.5c0 1.1-.9 2-2 2h-.5z" fill="#3AD0F9"/><path class="st2" d="M38.4 82.8c-1.1 0-2-.9-2-2V75c0-1.1.9-2 2-2h1c1.1 0 2 .9 2 2v5.8c0 1.1-.9 2-2 2h-1z" fill="#3AD0F9"/><circle class="st2" cx="66.8" cy="63.5" r="14.4" fill="#3AD0F9"/><circle class="st3" cx="67" cy="66" r="7" fill="#00B3F9"/><circle class="st2" cx="66.8" cy="63.5" r="7.3" fill="#3AD0F9"/><path class="st1" d="M67 56.6c-.6 0-1-.5-1-1.1v-2.4c0-.6.4-1.1 1-1.1s1 .5 1 1.1v2.4c0 .6-.4 1.1-1 1.1z" fill="#074370"/><path class="st1" d="M67 73c-.6 0-1-.4-1-.9V70c0-.5.4-.9 1-.9s1 .4 1 .9v2.1c0 .5-.4.9-1 .9z" fill="#074370"/><path class="st1" d="M76.9 64h-2.4c-.6 0-1.1-.4-1.1-1s.5-1 1.1-1h2.4c.6 0 1.1.4 1.1 1s-.5 1-1.1 1z" fill="#074370"/><path class="st1" d="M59.2 64H57c-.6 0-1-.4-1-1s.4-1 1-1h2.2c.6 0 1 .4 1 1s-.4 1-1 1z" fill="#074370"/><path class="st1" d="M74 71c-.3 0-.5-.1-.7-.3l-1.6-1.5c-.4-.4-.4-1 0-1.3.4-.4 1.1-.4 1.5 0l1.6 1.5c.4.4.4 1 0 1.3-.3.2-.6.3-.8.3z" fill="#074370"/><path class="st1" d="M61.5 58.9c-.2 0-.5-.1-.7-.3l-1.5-1.7c-.4-.4-.4-1.1 0-1.5.4-.4 1-.4 1.4 0l1.5 1.7c.4.4.4 1.1 0 1.5-.2.2-.5.3-.7.3z" fill="#074370"/><path class="st1" d="M60 71c-.2 0-.5-.1-.7-.3-.4-.4-.4-1 0-1.3l1.5-1.5c.4-.4 1-.4 1.4 0 .4.4.4 1 0 1.3l-1.5 1.5c-.2.2-.5.3-.7.3z" fill="#074370"/><path class="st1" d="M72.3 58.9c-.3 0-.5-.1-.7-.3-.4-.4-.4-1.1 0-1.5l1.7-1.7c.4-.4 1.1-.4 1.5 0s.4 1.1 0 1.5L73 58.6c-.2.2-.4.3-.7.3z" fill="#074370"/><path class="st1" d="M95 100H35c-5 0-9-4-9-9V34c0-5 4-9 9-9h60c5 0 9 4 9 9v57c0 5-4 9-9 9zM35 27c-3.9 0-7 3.1-7 7v57c0 3.9 3.1 7 7 7h60c3.9 0 7-3.1 7-7V34c0-3.9-3.1-7-7-7H35z" fill="#074370"/><path class="st1" d="M40 53h-2c-1.7 0-3-1.3-3-3v-6c0-1.7 1.3-3 3-3h2c1.7 0 3 1.3 3 3v6c0 1.7-1.3 3-3 3zm-2-10c-.6 0-1 .4-1 1v6c0 .6.4 1 1 1h2c.6 0 1-.4 1-1v-6c0-.6-.4-1-1-1h-2z" fill="#074370"/><path class="st1" d="M40 84h-2c-1.7 0-3-1.3-3-3v-6c0-1.7 1.3-3 3-3h2c1.7 0 3 1.3 3 3v6c0 1.7-1.3 3-3 3zm-2-10c-.6 0-1 .4-1 1v6c0 .6.4 1 1 1h2c.6 0 1-.4 1-1v-6c0-.6-.4-1-1-1h-2z" fill="#074370"/><path class="st1" d="M88 74c-1.6 0-3-1.3-3-3v-8c0-1.6 1.3-3 3-3h1c1.7 0 3 1.3 3 3v8c0 1.6-1.3 3-3 3h-1zm0-12c-.6 0-1 .4-1 1v8c0 .5.4 1 1 1v1-1h1c.6 0 1-.5 1-1v-8c0-.5-.4-1-1-1h-1z" fill="#074370"/><path class="st1" d="M66.8 79C58.2 79 51 71.9 51 63.5S58.2 48 66.8 48C75.2 48 82 54.9 82 63.5 82 72 75.2 79 66.8 79zm0-29C59.3 50 53 56.2 53 63.5S59.3 77 66.8 77C74.1 77 80 70.9 80 63.5 80 56 74.1 50 66.8 50z" fill="#074370"/><path class="st1" d="M67 71c-4.4 0-8-3.6-8-8s3.6-8 8-8 8 3.6 8 8-3.6 8-8 8zm0-14.1c-3.3 0-6.1 2.7-6.1 6.1 0 3.3 2.7 6.1 6.1 6.1s6.1-2.7 6.1-6.1c0-3.3-2.8-6.1-6.1-6.1z" fill="#074370"/><path class="st4" d="M69 67c-.2 0-.5-.1-.7-.3-.4-.4-.4-1 0-1.3 1-1 1-2.7 0-3.7s-2.7-1-3.7 0c-.4.4-1 .4-1.3 0-.4-.4-.4-1 0-1.3 1.8-1.8 4.6-1.8 6.4 0 1.8 1.8 1.8 4.6 0 6.4-.2.1-.4.2-.7.2z" fill="#FFF"/><path class="st4" d="M99 90.5c-.6 0-1-.4-1-1V73.2c0-.6.4-1 1-1s1 .4 1 1v16.3c0 .5-.4 1-1 1z" fill="#FFF"/><path class="st4" d="M99 63.2c-.6 0-1-.4-1-1V36c0-2.8-2.2-5-5-5H52.4c-.6 0-1-.4-1-1s.4-1 1-1H93c3.9 0 7 3.1 7 7v26.2c0 .6-.4 1-1 1z" fill="#FFF"/><path class="st4" d="M47 31H36.9c-.5 0-1-.4-1-1s.4-1 1-1H47c.5 0 1 .4 1 1s-.4 1-1 1z" fill="#FFF"/><path class="st4" d="M39 49c-.6 0-1-.5-1-1.1v-2.8c0-.6.4-1.1 1-1.1s1 .5 1 1.1v2.8c0 .6-.5 1.1-1 1.1z" fill="#FFF"/><path class="st4" d="M39 80c-.6 0-1-.5-1-1.1v-2.8c0-.6.4-1.1 1-1.1s1 .5 1 1.1v2.8c0 .6-.5 1.1-1 1.1z" fill="#FFF"/><path class="st5" d="M18.4 52.7c0-.4-.4-.8-1-.9l-1.9-.3c-.5-.1-1.1-.6-1.1-1.1l-.3-1.9c-.1-.5-.5-1-.9-1s-.8.4-.9 1l-.3 1.9c-.1.5-.6 1.1-1.1 1.1l-1.9.3c-.5.1-1 .5-1 .9s.4.8 1 .9l1.9.3c.5.1 1.1.6 1.1 1.1l.3 1.9c.1.5.5 1 .9 1s.8-.4.8-1l.3-2.1c.1-.5.6-1 1.1-1.1l1.8-.1c.8-.1 1.2-.5 1.2-.9z" opacity=".5" fill="#FFF"/><path class="st5" d="M87.8 16c0-.4-.4-.8-1-.9l-1.9-.3c-.5-.1-1.1-.6-1.1-1.1l-.3-1.9c-.1-.5-.5-1-.9-1s-.8.4-.9 1l-.3 1.9c-.1.5-.6 1.1-1.1 1.1l-1.9.3c-.5.1-1 .5-1 .9s.4.8 1 .9l1.9.3c.5.1 1.1.6 1.1 1.1l.3 1.9c.1.5.5 1 .9 1s.8-.4.8-1l.3-2.1c.1-.5.6-1 1.1-1.1l1.8-.1c.7-.1 1.2-.5 1.2-.9z" opacity=".5" fill="#FFF"/><path class="st5" d="M118.1 73.7c0-.4-.4-.8-1-.9l-1.9-.3c-.5-.1-1.1-.6-1.1-1.1l-.3-1.9c-.1-.5-.5-1-.9-1s-.8.4-.9 1l-.3 1.9c-.1.5-.6 1.1-1.1 1.1l-1.9.3c-.5.1-1 .5-1 .9s.4.8 1 .9l1.9.3c.5.1 1.1.6 1.1 1.1l.3 1.9c.1.5.5 1 .9 1s.8-.4.8-1l.3-2.1c.1-.5.6-1 1.1-1.1l1.8-.1c.7-.1 1.2-.5 1.2-.9z" opacity=".5" fill="#FFF"/><path class="st5" d="M53 18c-2.2 0-4-1.8-4-4s1.8-4 4-4 4 1.8 4 4-1.8 4-4 4zm0-6c-1.1 0-2 .9-2 2s.9 2 2 2 2-.9 2-2-.9-2-2-2z" opacity=".5" fill="#FFF"/><path class="st5" d="M17 82c-2.2 0-4-1.8-4-4s1.8-4 4-4 4 1.8 4 4-1.8 4-4 4zm0-6.1c-1.2 0-2.1 1-2.1 2.1 0 1.2 1 2.1 2.1 2.1 1.2 0 2.1-1 2.1-2.1 0-1.2-.9-2.1-2.1-2.1z" opacity=".5" fill="#FFF"/></g></svg>