<svg xmlns="http://www.w3.org/2000/svg" x="0" y="0" viewBox="0 0 128 128" enable-background="new 0 0 128 128" width="128" height="128"><title>speech</title><g class="nc-icon-wrapper"><circle class="st0" cx="64" cy="64" r="64" fill="#3DB39E"/><path class="st1" d="M55 107H35c-.6 0-1-.4-1-1s.5-1 1-1h20c.6 0 1 .4 1 1s-.5 1-1 1z" fill="#0C508E"/><path class="st1" d="M93 107H65c-.6 0-1-.4-1-1s.5-1 1-1h28c.6 0 1 .4 1 1s-.5 1-1 1z" fill="#0C508E"/><path class="st2" d="M63.6 71.1c0-12.1-12.1-21.9-27.1-21.9-14.9-.1-27 9.8-27 21.9 0 12.1 12.1 21.9 27 21.9 1.3 0 2.6-.1 3.9-.2 5.6 4.4 11.3 5.5 11.4 5.3-2-2-3.2-4.6-3.9-7.1 9.2-3.5 15.7-11.1 15.7-19.9z" fill="#F99900"/><path class="st3" d="M63.6 71.1c0-1.8-.3-3.5-.8-5.2v.6c0 10.4-11.7 18.9-26.1 18.9-14.4 0-26.1-8.5-26.1-18.9 0-.9.1-1.7.2-2.6-1 2.3-1.5 4.7-1.5 7.2C9.5 83.2 21.6 93 36.5 93c1.3 0 2.6-.1 3.9-.2 5.6 4.4 11.3 5.5 11.4 5.3-2-2-3.2-4.6-3.9-7.1 9.2-3.5 15.7-11.1 15.7-19.9z" fill="#D6742B"/><path class="st4" d="M51.6 99c-1 0-6.4-1.3-11.7-5.3-1.3.1-3.8.3-4.9.3C19.4 94 8 83.6 8 71c0-12.7 12.7-23 28.3-23 15.6 0 28.3 10.3 28.3 23 0 8.7-6.1 16.6-15.6 20.5.8 2.4 2 4.3 3.4 5.8.3.3.4.8.2 1.2-.3.3-.7.5-1 .5zm-11.4-7.3c.2 0 .4.1.6.2 3.1 2.4 6.2 3.7 8.2 4.5-1-1.5-1.7-3.2-2.3-5.2-.2-.5.1-1 .6-1.2 9.3-3.4 15.2-10.9 15.2-19 0-11.6-11.8-21-26.3-21C21.8 50 10 59.4 10 71s11.5 21 26 21c1.1 0 2.6-.2 4.1-.3h.1z" fill="#6B3C1C"/><path class="st5" d="M127.7 58c-1.4-15.2-8.2-28.9-18.4-39.2-6-2.5-14.4-4.4-21.3-4.4-22.9 0-41.5 14.8-41.5 33 0 13.3 9.9 24.8 24.2 30-1.1 3.7-2.9 7.5-5.8 10.5.1.2 8.5-1.4 16.9-7.9 2.1.2 4.2.4 6.3.4 17.6.1 33.6-9.9 39.6-22.4z" fill="#3AD0F9"/><path class="st6" d="M24.5 68c-1.7 0-3.1 1.4-3.1 3.1 0 1.7 1.4 3.1 3.1 3.1 1.7 0 3.1-1.4 3.1-3.1 0-1.7-1.4-3.1-3.1-3.1zm11 0c-1.7 0-3.1 1.4-3.1 3.1 0 1.7 1.4 3.1 3.1 3.1s3.1-1.4 3.1-3.1c.1-1.7-1.3-3.1-3.1-3.1zm11 0c-1.7 0-3.1 1.4-3.1 3.1 0 1.7 1.4 3.1 3.1 3.1s3.1-1.4 3.1-3.1c.1-1.7-1.3-3.1-3.1-3.1z" fill="#FFF"/><path class="st6" d="M69.9 42.9c-2.8 0-5 2.3-5 5 0 2.8 2.3 5 5 5 2.8 0 5-2.3 5-5 0-2.8-2.2-5-5-5zm17.6 0c-2.8 0-5 2.3-5 5 0 2.8 2.3 5 5 5 2.8 0 5-2.3 5-5 0-2.8-2.2-5-5-5zm17.6 0c-2.8 0-5 2.3-5 5 0 2.8 2.3 5 5 5 2.8 0 5-2.3 5-5 0-2.8-2.2-5-5-5z" fill="#FFF"/><path class="st1" d="M113.7 13.2c-.3 0-.5-.1-.7-.3-.4-.4-.4-1 0-1.4l6.4-6.4c.4-.4 1-.4 1.4 0 .4.4.4 1 0 1.4l-6.4 6.4c-.2.2-.4.3-.7.3z" fill="#0C508E"/><path class="st1" d="M108.5 10.2h-.2c-.5-.1-.9-.6-.8-1.2l1.3-6.4c.1-.5.6-.9 1.2-.8.5.1.9.6.8 1.2l-1.3 6.4c-.2.5-.6.8-1 .8z" fill="#0C508E"/><path class="st1" d="M116.7 18.5c-.5 0-.9-.3-1-.8-.1-.5.2-1.1.8-1.2l6.4-1.3c.5-.1 1.1.2 1.2.8.1.5-.2 1.1-.8 1.2l-6.4 1.3h-.2z" fill="#0C508E"/><path class="st1" d="M104 54c-3.3 0-6-2.7-6-6s2.7-6 6-6 6 2.7 6 6-2.7 6-6 6zm0-10c-2.2 0-4 1.8-4 4s1.8 4 4 4 4-1.8 4-4-1.8-4-4-4zM87 54c-3.3 0-6-2.7-6-6s2.7-6 6-6 6 2.7 6 6-2.7 6-6 6zm0-10c-2.2 0-4 1.8-4 4s1.8 4 4 4 4-1.8 4-4-1.8-4-4-4zM70 54c-3.3 0-6-2.7-6-6s2.7-6 6-6 6 2.7 6 6-2.7 6-6 6zm0-10c-2.2 0-4 1.8-4 4s1.8 4 4 4 4-1.8 4-4-1.8-4-4-4z" fill="#0C508E"/><path class="st4" d="M46 75c-2.2 0-4-1.8-4-4s1.8-4 4-4 4 1.8 4 4-1.8 4-4 4zm0-6c-1.1 0-2 .9-2 2s.9 2 2 2 2-.9 2-2-.9-2-2-2zm-11 6c-2.2 0-4-1.8-4-4s1.8-4 4-4 4 1.8 4 4-1.8 4-4 4zm0-6c-1.1 0-2 .9-2 2s.9 2 2 2 2-.9 2-2-.9-2-2-2zm-11 6c-2.2 0-4-1.8-4-4s1.8-4 4-4 4 1.8 4 4-1.8 4-4 4zm0-6c-1.1 0-2 .9-2 2s.9 2 2 2 2-.9 2-2-.9-2-2-2z" fill="#6B3C1C"/><path class="st7" d="M87 99c-2.2 0-4-1.8-4-4s1.8-4 4-4 4 1.8 4 4-1.8 4-4 4zm0-6c-1.1 0-2 .9-2 2s.9 2 2 2 2-.9 2-2-.9-2-2-2z" opacity=".5" fill="#FFF"/><path class="st7" d="M39 30c-2.2 0-4-1.8-4-4s1.8-4 4-4 4 1.8 4 4-1.8 4-4 4zm0-6c-1.1 0-2 .9-2 2s.9 2 2 2 2-.9 2-2-.9-2-2-2z" opacity=".5" fill="#FFF"/><path class="st7" d="M27 42.4c0-.4-.4-.8-1-.9l-1.9-.3c-.5-.1-1.1-.6-1.1-1.1l-.3-1.9c-.1-.5-.5-1-.9-1s-.8.4-.9 1l-.3 1.9c-.1.5-.6 1.1-1.1 1.1l-1.9.3c-.5.1-1 .5-1 .9s.4.8 1 .9l1.9.3c.5.1 1.1.6 1.1 1.1l.3 1.9c.1.5.5 1 .9 1s.8-.4.9-1l.3-2.1c.1-.5.6-1 1.1-1.1l1.8-.1c.6-.1 1.1-.5 1.1-.9z" opacity=".5" fill="#FFF"/><path class="st7" d="M59.4 12.9c0-.4-.4-.8-1-.9l-1.9-.3c-.5-.1-1.1-.6-1.1-1.1l-.3-1.9c-.1-.5-.5-1-.9-1s-.8.4-.9 1l-.3 1.9c-.1.5-.6 1.1-1.1 1.1l-1.7.3c-.5.1-1 .5-1 .9s.4.8 1 .9l1.8.2c.5.1 1.1.6 1.1 1.1l.3 1.9c.1.5.5 1 .9 1s.8-.4.9-1l.3-2.1c.1-.5.6-1 1.1-1.1l1.8-.1c.6-.1 1-.4 1-.8z" opacity=".5" fill="#FFF"/><path class="st7" d="M110 90.7c0-.4-.4-.8-1-.9l-1.9-.3c-.5-.1-1.1-.6-1.1-1.1l-.3-1.9c-.1-.5-.5-1-.9-1s-.8.4-.9 1l-.3 1.9c-.1.5-.6 1.1-1.1 1.1l-1.9.3c-.5.1-1 .5-1 .9s.4.8 1 .9l1.9.3c.5.1 1.1.6 1.1 1.1l.3 1.9c.1.5.5 1 .9 1s.8-.4.9-1l.3-2.1c.1-.5.6-1 1.1-1.1l1.8-.1c.6-.2 1.1-.5 1.1-.9z" opacity=".5" fill="#FFF"/><path class="st6" d="M107 23c-.2 0-.4-.1-.6-.2 0 0-2.8-2-9.5-2.9-.6-.1-.9-.6-.9-1.1.1-.5.6-.9 1.2-.8 7.3.9 10.3 3.2 10.5 3.3.4.3.5.9.2 1.3-.3.3-.6.4-.9.4z" fill="#FFF"/><path class="st8" d="M127.8 58.6c-.3-4.2-1.1-8.3-2.2-12.2-6 12.2-21.4 20.9-38.3 20.9-19.9 0-36.5-11.2-40-26.1-.5 2-.7 4-.7 6.2 0 13.3 9.9 24.8 24.2 30-1.1 3.7-2.9 7.5-5.8 10.5.1.2 8.5-1.4 16.9-7.9 2.1.2 4.2.4 6.3.4 16.5.1 32.7-10.1 39.6-21.8z" fill="#00B3F9"/><path class="st6" d="M59.1 32c-.2 0-.5-.1-.7-.3-.4-.4-.4-1 0-1.4 4.7-5 13.2-11.2 27.7-12.1 2.1-.1 4.1-.2 6-.1.5 0 1 .5.9 1.1 0 .6-.5 1-1 1-1.8-.1-3.8 0-5.8.1-13.8.9-22 6.8-26.4 11.5-.2.1-.5.2-.7.2z" fill="#FFF"/><path class="st6" d="M16.7 64c-.2 0-.4-.1-.6-.2-.4-.4-.5-1-.2-1.5.3-.4 7.7-10 20-10.3.5 0 1 .5 1 1 0 .6-.4 1.1-1 1.1-11.4.3-18.4 9.4-18.5 9.5-.1.3-.4.4-.7.4z" fill="#FFF"/><path class="st1" d="M127.9 59.8c-.1-1.4-.2-2.8-.4-4.2C122 69.2 106 80 88 80c-2.1 0-4.4-.7-6.5-.9-.3 0-.5 0-.7.2-5.4 4.2-10.6 6.2-13.7 7.1 1.8-2.4 3.2-5.3 4.2-8.7.2-.5-.1-1.1-.6-1.2C56.3 71.2 47 59.7 47 47.2 47 29.5 65.3 15 87.8 15c7.9 0 16.8 2.1 23.8 5.8-1.2-1.3-2.5-2.6-3.8-3.9-6.6-2.7-13.8-4-20-4C64.2 13 45 28.4 45 47.2c0 13.1 9.4 25.1 24.1 30.8-1.3 3.8-3 6.9-5.3 9.3-.3.3-.4.8-.1 1.2.2.3.6.5 1 .5.9 0 8.9-1.6 17.2-7.9 2 .2 4.3.9 6.3.9 17 0 31.5-8.4 39.7-22.2z" fill="#0C508E"/></g></svg>