<svg xmlns="http://www.w3.org/2000/svg" x="0" y="0" viewBox="0 0 128 128" enable-background="new 0 0 128 128" width="128" height="128"><title>type</title><g class="nc-icon-wrapper"><circle class="st0" cx="64" cy="64" r="64" fill="#28A5C6"/><path class="st1" d="M34.4 23.8c0-.4-.4-.8-1-.9l-1.9-.3c-.5-.1-1.1-.6-1.1-1.1l-.3-1.9c-.1-.5-.5-1-.9-1s-.8.4-.9 1l-.3 1.9c-.1.5-.6 1.1-1.1 1.1l-1.9.3c-.5.1-1 .5-1 .9s.4.8 1 .9l1.9.3c.5.1 1.1.6 1.1 1.1l.3 1.9c.1.5.5 1 .9 1s.8-.4.9-1l.3-2.1c.1-.5.6-1 1.1-1.1l1.8-.1c.7-.2 1.1-.5 1.1-.9z" opacity=".5" fill="#FFF"/><path class="st1" d="M102.9 21.8c0-.4-.4-.8-1-.9l-1.9-.3c-.5-.1-1.1-.6-1.1-1.1l-.3-1.9c-.1-.5-.5-1-.9-1s-.8.4-.9 1l-.3 1.9c-.1.5-.6 1.1-1.1 1.1l-1.9.3c-.5.1-1 .5-1 .9s.4.8 1 .9l1.9.3c.5.1 1.1.6 1.1 1.1l.3 1.9c.1.5.5 1 .9 1s.8-.4.9-1l.3-2.1c.1-.5.6-1 1.1-1.1l1.8-.1c.7-.2 1.1-.5 1.1-.9z" opacity=".5" fill="#FFF"/><path class="st2" d="M27.3 42.5c0-.9-1.9-1.5-4.2-1.5H9.6c-1 0-1.6.3-1.6 1.2V55c0 2.2 1.1 4 2 4s2-1.8 2-4v-7c0-2.2 1.1-4 3.5-4h7.6c2.3 0 4.2-.6 4.2-1.5z" fill="#EAEAEA"/><path class="st3" d="M10 60c-1.4 0-3-1.3-3-3V43.6C7 41 9.1 39 11.9 39h13.4c1.7 0 2.7 1 2.7 2.6v.2c0 1.8-1.2 3.2-2.7 3.2H14.1c-.5 0-1.1.3-1.1.8V57c0 1.7-1.6 3-3 3zm1.9-19c-1.4 0-2.9.9-2.9 2.6V57c0 .5.6 1 1 1s1-.5 1-1V45.8c0-1.6 1.4-2.8 3.1-2.8h11.2c.5 0 .7-.7.7-1.2v-.2c0-.4 0-.6-.7-.6H11.9z" fill="#233E49"/><path class="st4" d="M109 44c0 2.2-1.8 4-4 4H24c-2.2 0-4-1.8-4-4v-3c0-2.2 1.8-4 4-4h81c2.2 0 4 1.8 4 4v3z" fill="#324D5B"/><path class="st3" d="M105 49H24c-2.8 0-5-2.2-5-5v-3c0-2.8 2.2-5 5-5h81c2.8 0 5 2.2 5 5v3c0 2.8-2.2 5-5 5zM24 38c-1.7 0-3 1.3-3 3v3c0 1.7 1.3 3 3 3h81c1.7 0 3-1.3 3-3v-3c0-1.7-1.3-3-3-3H24z" fill="#233E49"/><path class="st2" d="M86.7 73.5c0 2.2-1.7 4-3.9 4H45.3c-2.2 0-4-1.8-4-4V24.9c0-2.2 1.8-4 4-4H82c2.2 0 4 1.8 4.1 4l.6 48.6z" fill="#EAEAEA"/><path class="st3" d="M83 78.5H45c-2.8 0-5-2.2-5-5V24.9c0-2.8 2.2-4.9 5-4.9h38c2.8 0 5 2.1 5 4.9v48.6c0 2.8-2.2 5-5 5zM45 21.9c-1.7 0-3 1.3-3 3v48.6c0 1.7 1.3 3 3 3h38c1.7 0 3-1.3 3-3V24.9c0-1.7-1.3-3-3-3H45z" fill="#233E49"/><path class="st5" d="M81 26H59c-.6 0-1-.4-1-1s.4-1 1-1h22c.6 0 1 .4 1 1s-.4 1-1 1z" fill="#FFF"/><path class="st6" d="M62 33H48c-.6 0-1-.4-1-1s.5-1 1-1h14c.6 0 1 .4 1 1s-.5 1-1 1z" fill="#ADADAD"/><path class="st6" d="M80 33H66.1c-.6 0-1-.4-1-1s.5-1 1-1H80c.6 0 1 .4 1 1s-.5 1-1 1z" fill="#ADADAD"/><path class="st6" d="M63 38H48c-.6 0-1-.4-1-1s.5-1 1-1h15c.6 0 1 .4 1 1s-.5 1-1 1z" fill="#ADADAD"/><path class="st6" d="M81 38H66.9c-.5 0-1-.4-1-1s.4-1 1-1H81c.5 0 1 .4 1 1s-.4 1-1 1z" fill="#ADADAD"/><path class="st7" d="M36 97.1c1.8 0 3 1.8 3 4v2.4c0 2.2-1.2 4-3 4s-3-1.8-3-4v-2.4c0-2.2 1.2-4 3-4z" fill="#AD5114"/><path class="st3" d="M36 108.5c-2.3 0-4-2.1-4-5v-2.4c0-2.9 1.7-5 4-5s4 2.1 4 5v2.4c0 2.9-1.7 5-4 5zm0-10.4c-1.1 0-2 1.3-2 3v2.4c0 1.7.9 3 2 3s2-1.3 2-3v-2.4c0-1.7-.9-3-2-3z" fill="#233E49"/><path class="st7" d="M92 97.1c1.8 0 3 1.8 3 4v2.4c0 2.2-1.2 4-3 4s-3-1.8-3-4v-2.4c0-2.2 1.2-4 3-4z" fill="#AD5114"/><path class="st3" d="M92 108.5c-2.3 0-4-2.1-4-5v-2.4c0-2.9 1.7-5 4-5s4 2.1 4 5v2.4c0 2.9-1.7 5-4 5zm0-10.4c-1.1 0-2 1.3-2 3v2.4c0 1.7.9 3 2 3s2-1.3 2-3v-2.4c0-1.7-.9-3-2-3z" fill="#233E49"/><path class="st8" d="M109 98.1c.2 2.1-1.5 3.9-3.7 3.9H23.7c-2.2 0-3.8-1.8-3.7-3.9l2.6-33.3c.2-2.1 2.1-3.8 4.3-3.8h75.3c2.2 0 4.1 1.7 4.3 3.8l2.5 33.3z" fill="#FBD000"/><path class="st3" d="M105.4 103H22.6c-1.3 0-2.6-.5-3.4-1.5-.9-1-1.3-2.3-1.2-3.6l3.4-34.1c.3-2.7 2.6-4.8 5.4-4.8h74.3c2.8 0 5.1 2.1 5.4 4.8l3.4 34.1c.1 1.3-.3 2.7-1.2 3.6-.8 1-2 1.5-3.3 1.5zM26.8 61c-1.7 0-3.2 1.3-3.4 3L20 98.1c-.1.8.2 1.5.7 2.1.5.5 1.2.8 2 .8h82.7c.8 0 1.5-.3 2-.8.5-.6.7-1.3.7-2.1L104.6 64c-.2-1.7-1.7-3-3.4-3H26.8z" fill="#233E49"/><path class="st9" d="M103.5 93.1c.2 2.2-1.4 3.9-3.6 3.9H27.7c-2.2 0-3.8-1.8-3.6-3.9l2.1-23.8c.2-2.2 2.2-4.2 4.4-4.2H97c2.2 0 4.2 2 4.4 4.2l2.1 23.8z" fill="#415E6D"/><path class="st3" d="M101.2 98H26.8c-1.1 0-2.1-.4-2.8-1.2-.7-.8-1.1-1.8-1-2.8l2.3-25.8c.2-2.2 2.2-4.1 4.3-4.1h68.8c2.1 0 4.1 1.9 4.3 4.1L105 94c.1 1.1-.2 2.1-.9 2.8-.8.8-1.8 1.2-2.9 1.2zM29.6 66c-1.1 0-2.2 1.1-2.3 2.3L25 94.1c0 .5.1 1 .4 1.3.3.4.8.5 1.3.5h74.5c.5 0 1-.2 1.3-.5.3-.3.5-.8.4-1.3l-2.3-25.8c-.1-1.2-1.2-2.3-2.3-2.3H29.6z" fill="#233E49"/><circle class="st5" cx="37.9" cy="72.1" r="2.9" fill="#FFF"/><path class="st3" d="M38 76c-2.2 0-4-1.8-4-4s1.8-4 4-4 4 1.8 4 4-1.8 4-4 4zm0-6c-1.1 0-2 .9-2 2s.9 2 2 2 2-.9 2-2-.9-2-2-2z" fill="#233E49"/><circle class="st5" cx="48" cy="72.1" r="2.9" fill="#FFF"/><path class="st3" d="M48 76.1c-2.2 0-4-1.8-4-4s1.8-4 4-4 4 1.8 4 4-1.8 4-4 4zm0-6c-1.1 0-2 .9-2 2s.9 2 2 2 2-.9 2-2-.9-2-2-2z" fill="#233E49"/><circle class="st5" cx="58.2" cy="72.1" r="2.9" fill="#FFF"/><path class="st3" d="M58 76c-2.2 0-4-1.8-4-4s1.8-4 4-4 4 1.8 4 4-1.8 4-4 4zm0-6c-1.1 0-2 .9-2 2s.9 2 2 2 2-.9 2-2-.9-2-2-2z" fill="#233E49"/><circle class="st5" cx="68.3" cy="72.1" r="2.9" fill="#FFF"/><path class="st3" d="M68 76c-2.2 0-4-1.8-4-4s1.8-4 4-4 4 1.8 4 4-1.8 4-4 4zm0-6c-1.1 0-2 .9-2 2s.9 2 2 2 2-.9 2-2-.9-2-2-2z" fill="#233E49"/><circle class="st5" cx="78.4" cy="72.1" r="2.9" fill="#FFF"/><path class="st3" d="M78 76c-2.2 0-4-1.8-4-4s1.8-4 4-4 4 1.8 4 4-1.8 4-4 4zm0-6c-1.1 0-2 .9-2 2s.9 2 2 2 2-.9 2-2-.9-2-2-2z" fill="#233E49"/><circle class="st5" cx="43" cy="81" r="3" fill="#FFF"/><path class="st3" d="M43 85c-2.2 0-4-1.8-4-4s1.8-4 4-4 4 1.8 4 4-1.8 4-4 4zm0-5.9c-1.1 0-1.9.9-1.9 1.9s.9 1.9 1.9 1.9c1.1 0 1.9-.9 1.9-1.9s-.8-1.9-1.9-1.9z" fill="#233E49"/><circle class="st5" cx="88.5" cy="72.1" r="2.9" fill="#FFF"/><path class="st3" d="M88 76c-2.2 0-4-1.8-4-4s1.8-4 4-4 4 1.8 4 4-1.8 4-4 4zm0-6c-1.1 0-2 .9-2 2s.9 2 2 2 2-.9 2-2-.9-2-2-2z" fill="#233E49"/><path class="st5" d="M81 90.8c0 1.1-.6 2.2-2 2.2H48.9c-1.4 0-2.9-1.1-2.9-2.2V90c0-1.1 1.6-2 2.9-2H79c1.4 0 2 .9 2 2v.8z" fill="#FFF"/><path class="st3" d="M79 94H48.9c-1.8 0-3.9-1.4-3.9-3.2V90c0-1.8 2.1-3 3.9-3H79c1.8 0 3 1.2 3 3v.9c0 1.5-1 3.1-3 3.1zm-30.1-5c-1 0-1.9.7-1.9 1v.9c0 .4.9 1.2 1.9 1.2H79c.9 0 1-.8 1-1.2V90c0-.9-.6-1-1-1H48.9z" fill="#233E49"/><path class="st8" d="M104 57c0 2.2-1.8 4-4 4H28c-2.2 0-4-1.8-4-4v-9c0-2.2 1.8-4 4-4h72c2.2 0 4 1.8 4 4v9z" fill="#FBD000"/><path class="st3" d="M98 62H30c-3.9 0-7-3.1-7-7v-5c0-3.9 3.1-7 7-7h68c3.9 0 7 3.1 7 7v5c0 3.9-3.1 7-7 7zM30 45c-2.8 0-5 2.2-5 5v5c0 2.8 2.2 5 5 5h68c2.8 0 5-2.2 5-5v-5c0-2.8-2.2-5-5-5H30z" fill="#233E49"/><path class="st4" d="M48.6 45c1.8 6 8.2 12.4 15.8 12.4C72 57.4 78.5 51 80.2 45" fill="#324D5B"/><path class="st3" d="M64.4 58c-8.1 0-14.9-6.5-16.8-12.8-.2-.5.1-1.1.7-1.2.5-.2 1.1.1 1.2.7 1.6 5.5 7.8 11.4 14.9 11.4 7.1 0 13.2-5.9 14.9-11.4.2-.5.7-.8 1.2-.7.5.2.8.7.7 1.2C79.3 51.5 72.5 58 64.4 58z" fill="#233E49"/><path class="st5" d="M100 56.3c-.6 0-1-.4-1-1v-3.8c0-2-.9-2.5-2.3-2.5H84.6c-.6 0-1-.4-1-1s.5-1 1-1h12.1c2.8 0 4.3 1.6 4.3 4.5v3.8c0 .5-.5 1-1 1z" fill="#FFF"/><path class="st5" d="M45 49H30c-.5 0-1-.4-1-1s.4-1 1-1h15c.5 0 1 .4 1 1s-.4 1-1 1z" fill="#FFF"/><path class="st1" d="M99.5 93c-.5 0-.9-.4-1-.9l-2-22c0-.6.4-1 .9-1.1.5-.1 1 .4 1.1.9l2 22c0 .6-.4 1-1 1.1z" opacity=".5" fill="#FFF"/><path class="st1" d="M60 14c-2.2 0-4-1.8-4-4s1.8-4 4-4 4 1.8 4 4-1.8 4-4 4zm0-6c-1.1 0-2 .9-2 2s.9 2 2 2 2-.9 2-2-.9-2-2-2z" opacity=".5" fill="#FFF"/><path class="st1" d="M118 64c-2.2 0-4-1.8-4-4s1.8-4 4-4 4 1.8 4 4-1.8 4-4 4zm0-6c-1.1 0-2 .9-2 2s.9 2 2 2 2-.9 2-2-.9-2-2-2z" opacity=".5" fill="#FFF"/><path class="st3" d="M122 109H5c-.6 0-1-.4-1-1s.5-1 1-1h117c.6 0 1 .4 1 1s-.5 1-1 1z" fill="#233E49"/><circle class="st5" cx="53" cy="81" r="3" fill="#FFF"/><path class="st3" d="M53 85c-2.2 0-4-1.8-4-4s1.8-4 4-4 4 1.8 4 4-1.8 4-4 4zm0-5.9c-1.1 0-1.9.9-1.9 1.9s.9 1.9 1.9 1.9c1.1 0 1.9-.9 1.9-1.9s-.8-1.9-1.9-1.9z" fill="#233E49"/><circle class="st5" cx="63" cy="81" r="3" fill="#FFF"/><path class="st3" d="M63 85c-2.2 0-4-1.8-4-4s1.8-4 4-4 4 1.8 4 4-1.8 4-4 4zm0-5.9c-1.1 0-1.9.9-1.9 1.9s.9 1.9 1.9 1.9c1.1 0 1.9-.9 1.9-1.9s-.8-1.9-1.9-1.9z" fill="#233E49"/><circle class="st5" cx="73" cy="81" r="3" fill="#FFF"/><path class="st3" d="M73 85c-2.2 0-4-1.8-4-4s1.8-4 4-4 4 1.8 4 4-1.8 4-4 4zm0-5.9c-1.1 0-1.9.9-1.9 1.9s.9 1.9 1.9 1.9c1.1 0 1.9-.9 1.9-1.9s-.8-1.9-1.9-1.9z" fill="#233E49"/><circle class="st5" cx="83" cy="81" r="3" fill="#FFF"/><path class="st3" d="M83 85c-2.2 0-4-1.8-4-4s1.8-4 4-4 4 1.8 4 4-1.8 4-4 4zm0-5.9c-1.1 0-1.9.9-1.9 1.9s.9 1.9 1.9 1.9c1.1 0 1.9-.9 1.9-1.9s-.8-1.9-1.9-1.9z" fill="#233E49"/></g></svg>