<svg xmlns="http://www.w3.org/2000/svg" x="0" y="0" viewBox="0 0 128 128" enable-background="new 0 0 128 128" width="128" height="128"><title>workplace</title><g class="nc-icon-wrapper"><circle class="st0" cx="64" cy="64" r="64" fill="#3AD0F9"/><path class="st1" d="M126.5 89.6c0 2-1.8 3.6-4 3.6H6.3c-2.2 0-4-1.6-4-3.6s1.8-3.6 4-3.6h116.2c2.2 0 4 1.6 4 3.6z" fill="#AD5114"/><path class="st2" d="M77.4 67.2c0 4.4-3.6 8-8 8H19.6c-4.4 0-8-3.6-8-8v-31c0-4.4 3.6-8 8-8h49.8c4.4 0 8 3.6 8 8v31z" fill="#EAEAEA"/><path class="st3" d="M69.4 66H19.6c-4.4 0-8-3.6-8-8v9.3c0 4.4 3.6 8 8 8h49.8c4.4 0 8-3.6 8-8V58c0 4.4-3.6 8-8 8z" fill="#D4D6D6"/><path class="st4" d="M70 77H19c-5 0-9-4-9-9V37c0-5 4-9 9-9h51c5 0 9 4 9 9v31c0 5-4 9-9 9zM19 30c-3.9 0-7 3.1-7 7v31c0 3.9 3.1 7 7 7h51c3.9 0 7-3.1 7-7V37c0-3.9-3.1-7-7-7H19z" fill="#663210"/><path class="st3" d="M60.7 83.3c0 1.5-1.8 2.7-4 2.7H34.2c-2.2 0-4-1.2-4-2.7 0-1.5 1.8-2.7 4-2.7h22.5c2.2.1 4 1.2 4 2.7z" fill="#D4D6D6"/><path class="st4" d="M35 87c-2.8 0-5-1.5-5-3.5s2.2-3.5 5-3.5h21c2.8 0 5 1.5 5 3.5S58.8 87 56 87H35zm0-5c-1.7 0-3 .8-3 1.5s1.3 1.5 3 1.5v1-1h21c1.7 0 3-.8 3-1.5S57.7 82 56 82H35z" fill="#663210"/><circle class="st3" cx="44.5" cy="47.5" r="5.5" fill="#D4D6D6"/><path class="st2" d="M50.5 82c.2 2.2-1.5 4-3.7 4h-7.7c-2.2 0-3.7-1.8-3.4-4l2.6-16.5c.3-2.2 2.4-4 4.6-4h2c2.2 0 4.1 1.8 4.3 4L50.5 82z" fill="#EAEAEA"/><path class="st4" d="M109.2 82c-2.7 0-4.8-2.2-4.8-5v-2c0-2.8 2.2-5 4.8-5s4.8 2.2 4.8 5v2c0 2.8-2.2 5-4.8 5zm0-10c-1.6 0-2.8 1.3-2.8 3v2c0 1.7 1.3 3 2.8 3 1.6 0 2.8-1.3 2.8-3v-2c0-1.7-1.3-3-2.8-3z" fill="#663210"/><path class="st5" d="M108.6 82c0 2.2-1.8 4-4 4h-7.7c-2.2 0-4-1.8-4-4V69.4c0-2.2 1.8-4 4-4h7.7c2.2 0 4 1.8 4 4V82z" fill="#FBD000"/><path class="st6" d="M98.4 62.3c-.3 0-.5-.1-.7-.3-.4-.4-.4-1 0-1.4.3-.3.5-.8.5-1.2 0-.5-.2-.9-.5-1.2-.7-.7-1.1-1.6-1.1-2.7 0-1 .4-2 1.1-2.7.3-.3.5-.8.5-1.2 0-.5-.2-.9-.5-1.2-.4-.4-.4-1 0-1.4.4-.4 1-.4 1.4 0 .7.7 1.1 1.6 1.1 2.7 0 1-.4 2-1.1 2.7-.3.3-.5.8-.5 1.2 0 .5.2.9.5 1.2.7.7 1.1 1.6 1.1 2.7 0 1-.4 1.9-1.1 2.7-.2 0-.4.1-.7.1z" fill="#FFF"/><path class="st6" d="M102.5 55.4c-.3 0-.5-.1-.7-.3-.4-.4-.4-1 0-1.4.3-.3.5-.8.5-1.2 0-.5-.2-.9-.5-1.2-.7-.7-1.1-1.6-1.1-2.7 0-1 .4-2 1.1-2.7.3-.3.5-.8.5-1.2s-.2-.9-.5-1.2c-.4-.4-.4-1 0-1.4.4-.4 1-.4 1.4 0 .7.7 1.1 1.6 1.1 2.7 0 1-.4 2-1.1 2.7-.3.3-.5.8-.5 1.2 0 .5.2.9.5 1.2.7.7 1.1 1.6 1.1 2.7 0 1-.4 1.9-1.1 2.7-.2.1-.5.1-.7.1z" fill="#FFF"/><path class="st4" d="M104.2 69.9h-7.5c-.6 0-1-.4-1-1s.4-1 1-1h7.5c.6 0 1 .4 1 1s-.4 1-1 1z" fill="#663210"/><path class="st7" d="M125.6 88c-.7.7-1.8 1.1-3 1.1H6.3c-1.2 0-2.3-.4-3-1.1-.6.5-1 1.2-1 2 0 1.7 1.8 3 4 3h116.2c2.2 0 4-1.4 4-3 0-.8-.3-1.5-.9-2z" fill="#993F0D"/><path class="st1" d="M14.4 104c1.9 2.3 3.9 4.5 6 6.5l5.4-17.3h-9L14.4 104z" fill="#AD5114"/><path class="st4" d="M122 94H7c-2.8 0-5-2-5-4.5S4.2 85 7 85h115c2.8 0 5 2 5 4.5s-2.2 4.5-5 4.5zM7 87c-1.7 0-3 1.1-3 2.5S5.3 92 7 92h115c1.7 0 3-1.1 3-2.5s-1.3-2.5-3-2.5H7z" fill="#663210"/><path class="st7" fill="#993F0D" d="M16.8 94h8.9l-1.2 3.8h-8.6z"/><path class="st1" d="M113.1 93.3h-9l5.1 16.4c2.2-2.1 4.2-4.4 6-6.8l-2.1-9.6z" fill="#AD5114"/><path class="st4" d="M25.7 92.3h-9c-.5 0-.9.3-1 .8l-2.2 10c.5.7 1.1 1.4 1.6 2l2.4-11h6.8l-4.8 15.8c.5.5 1.1 1 1.6 1.5l5.5-17.7c.1-.3 0-.6-.1-.9-.1-.4-.4-.5-.8-.5z" fill="#663210"/><path class="st7" fill="#993F0D" d="M113.1 94h-9l1.2 3.8h8.6z"/><path class="st3" d="M46.8 80.2h-7.7c-1.3 0-2.3-.6-2.9-1.6l-.5 2.9c-.3 2.2 1.2 4 3.4 4h7.7c2.2 0 3.9-1.8 3.7-4l-.3-3.5c-.6 1.3-1.8 2.2-3.4 2.2z" fill="#D4D6D6"/><path class="st4" d="M113.1 92.3h-9c-.3 0-.6.2-.8.4-.2.3-.2.6-.1.9l5.2 16.8c.5-.5 1.1-1 1.6-1.6L105.4 94h6.8l2.1 9.8c.5-.7 1.1-1.4 1.6-2.1L114 93c0-.4-.5-.7-.9-.7z" fill="#663210"/><path class="st4" d="M46.8 87h-7.7c-1.4 0-2.6-.5-3.4-1.5-.8-1-1.2-2.3-1-3.6l2.6-16.5c.4-2.6 3-5.4 5.7-5.4h2c2.7 0 5 2.8 5.2 5.5l1.3 16.4c.1 1.3-.3 2.6-1.2 3.6-.9.9-2.2 1.5-3.5 1.5zM43 62c-1.7 0-3.5 2-3.7 3.7l-2.6 16.5c-.1.8.1 1.5.5 2s1.1.8 1.9.8h7.7c.8 0 1.5-.3 2-.8s.8-1.3.7-2.1l-1.3-16.4C48 64 46.7 62 45 62h-2z" fill="#663210"/><path class="st8" d="M104.6 82.1h-7.7c-2.2 0-4-1.8-4-4V82c0 2.2 1.8 4 4 4h7.7c2.2 0 4-1.8 4-4v-3.9c0 2.2-1.8 4-4 4z" fill="#F4B10B"/><path class="st4" d="M104 87h-7c-2.8 0-5-2.2-5-5V70c0-2.8 2.2-5 5-5h7c2.8 0 5 2.2 5 5v12c0 2.7-2.2 5-5 5zm-7-20c-1.7 0-3 1.3-3 3v12c0 1.7 1.3 3 3 3h7c1.7 0 3-1.4 3-3V70c0-1.7-1.3-3-3-3h-7z" fill="#663210"/><path class="st6" d="M65 119c-2.2 0-4-1.8-4-4s1.8-4 4-4 4 1.8 4 4-1.8 4-4 4zm0-6.1c-1.2 0-2.1 1-2.1 2.1 0 1.2 1 2.1 2.1 2.1 1.2 0 2.1-1 2.1-2.1 0-1.2-.9-2.1-2.1-2.1z" fill="#FFF"/><path class="st6" d="M60 19c-2.2 0-4-1.8-4-4s1.8-4 4-4 4 1.8 4 4-1.8 4-4 4zm0-6.1c-1.2 0-2.1 1-2.1 2.1 0 1.2 1 2.1 2.1 2.1 1.2 0 2.1-1 2.1-2.1 0-1.2-.9-2.1-2.1-2.1z" fill="#FFF"/><path class="st6" d="M91.3 21c0-.4-.4-.8-1-.9l-1.9-.3c-.5-.1-1.1-.6-1.1-1.1l-.3-1.9c-.1-.5-.5-1-.9-1s-.8.4-.9 1l-.3 1.9c-.1.5-.6 1.1-1.1 1.1l-1.9.3c-.5.1-1 .5-1 .9s.4.8 1 .9l1.9.3c.5.1 1.1.6 1.1 1.1l.3 1.9c.1.5.5 1 .9 1s.8-.4.8-1l.3-2.1c.1-.5.6-1 1.1-1.1l1.8-.1c.8-.2 1.2-.5 1.2-.9z" fill="#FFF"/><path class="st6" d="M47.3 108c0-.4-.4-.8-1-.9l-1.9-.3c-.5-.1-1.1-.6-1.1-1.1l-.3-1.9c-.1-.5-.5-1-.9-1s-.8.4-.9 1l-.3 1.9c-.1.5-.6 1.1-1.1 1.1l-1.9.3c-.5.1-1 .5-1 .9s.4.8 1 .9l1.9.3c.5.1 1.1.6 1.1 1.1l.3 1.9c.1.5.5 1 .9 1s.8-.4.8-1l.3-2.1c.1-.5.6-1 1.1-1.1l1.8-.1c.8-.2 1.2-.5 1.2-.9z" fill="#FFF"/><path class="st6" d="M121.1 56.8c0-.4-.4-.8-1-.9l-1.9-.3c-.5-.1-1.1-.6-1.1-1.1l-.3-1.9c-.1-.5-.5-1-.9-1s-.8.4-.9 1l-.3 1.9c-.1.5-.6 1.1-1.1 1.1l-1.9.3c-.5.1-1 .5-1 .9s.4.8 1 .9l1.9.3c.5.1 1.1.6 1.1 1.1l.3 1.9c.1.5.5 1 .9 1s.8-.4.8-1l.3-2.1c.1-.5.6-1 1.1-1.1l1.8-.1c.8-.1 1.2-.5 1.2-.9z" fill="#FFF"/><path class="st6" d="M87.7 104c0-.4-.4-.8-1-.9l-1.9-.3c-.5-.1-1.1-.6-1.1-1.1l-.3-1.9c-.1-.5-.5-1-.9-1s-.8.4-.9 1l-.3 1.9c-.1.5-.6 1.1-1.1 1.1l-1.9.3c-.5.1-1 .5-1 .9s.4.8 1 .9l1.9.3c.5.1 1.1.6 1.1 1.1l.3 1.9c.1.5.5 1 .9 1s.8-.4.8-1l.3-2.1c.1-.5.6-1 1.1-1.1l1.8-.1c.7-.1 1.2-.5 1.2-.9z" fill="#FFF"/><path class="st6" d="M73 60.5c-.6 0-1-.4-1-1V38.3c0-3.6-.1-4.3-4.3-4.3H39c-.6 0-1-.4-1-1s.4-1 1-1h28.7c5.5 0 6.3 1.9 6.3 6.3v21.2c0 .6-.4 1-1 1z" fill="#FFF"/><path class="st6" d="M32 34h-9.8c-.6 0-1-.4-1-1s.4-1 1-1H32c.6 0 1 .4 1 1s-.4 1-1 1z" fill="#FFF"/><path class="st6" d="M39.5 78.4h-.2c-.5-.1-.9-.6-.8-1.2l1.9-11.1c.1-.5.6-.9 1.2-.8.5.1.9.6.8 1.2l-1.9 11.1c-.1.4-.5.8-1 .8z" fill="#FFF"/><path class="st9" d="M118 90h-9.5c-.6 0-1-.4-1-1s.4-1 1-1h9.5c.6 0 1 .4 1 1s-.4 1-1 1z" opacity=".5" fill="#FFF"/><path class="st9" d="M101.6 90H38.5c-.6 0-1-.4-1-1s.4-1 1-1h63.1c.6 0 1 .4 1 1s-.4 1-1 1z" opacity=".5" fill="#FFF"/><path class="st6" d="M96 79.8c-.6 0-1-.4-1-1v-6.4c0-.6.4-1 1-1s1 .4 1 1v6.4c0 .5-.4 1-1 1z" fill="#FFF"/></g></svg>