<svg id="Layer_1" data-name="Layer 1" xmlns="http://www.w3.org/2000/svg" viewBox="0 0 350 121"><defs><style>.cls-1{fill:#fff;}.cls-2{fill:none;stroke:#fff;stroke-miterlimit:10;stroke-width:2px;}</style></defs><title>Download Button</title><path class="cls-1" d="M343.5,4.9a3.6,3.6,0,0,1,3.6,3.6v104a3.6,3.6,0,0,1-3.6,3.6H6.5a3.6,3.6,0,0,1-3.6-3.6V8.5A3.6,3.6,0,0,1,6.5,4.9h337m0-1.4H6.5a5,5,0,0,0-5,5v104a5,5,0,0,0,5,5h337a5,5,0,0,0,5-5V8.5a5,5,0,0,0-5-5Z"/><path class="cls-2" d="M66.92,33.77c2.89-3.1,4.85-7.39,4.31-11.68A19.53,19.53,0,0,0,59,27.63c-2.68,2.74-5,7.12-4.4,11.32A16.25,16.25,0,0,0,66.92,33.77Zm8.87,29.58c-.09-9.6,7.61-14.22,7.95-14.44A17,17,0,0,0,70.28,41.4c-5.74-.61-11.19,3.47-14.1,3.47S48.8,41.48,44,41.57a17.94,17.94,0,0,0-15.23,9.51c-6.49,11.61-1.66,28.81,4.67,38.23,3.09,4.61,6.78,9.78,11.61,9.59,4.67-.18,6.44-3.1,12.07-3.1s7.22,3.1,12.15,3,8.19-4.7,11.26-9.32a42.78,42.78,0,0,0,5.1-10.79A16.69,16.69,0,0,1,75.79,63.35Z"/><path class="cls-1" d="M216.81,47.11v1.17h-.27a4,4,0,0,1-1-.16,3.39,3.39,0,0,1-.41-.15,2.4,2.4,0,0,1-.38-.23,1.62,1.62,0,0,1-.32-.32,1.17,1.17,0,0,1-.22-.43,2.86,2.86,0,0,1-1.08,1,2.69,2.69,0,0,1-.65.24,3,3,0,0,1-.67.08l-.22,0a2.06,2.06,0,0,1-.34-.07l-.5-.16a6.84,6.84,0,0,1-.7-.27c-.19-.07-.42-.17-.7-.3l-.86-.4-.94-.46-.93-.47-.82-.43-.61-.32V55.53H204V44.72l1.08-.67.82.45,1.4.74a21.36,21.36,0,0,1,.49-2.09,6.94,6.94,0,0,1,.59-1.44,3.58,3.58,0,0,1,1.16-1.28,3,3,0,0,1,1.69-.48,2.82,2.82,0,0,1,1.51.41,3.9,3.9,0,0,1,1.11,1.07,5.16,5.16,0,0,1,.69,1.46,5.93,5.93,0,0,1,.23,1.59,3,3,0,0,0,.69,2.23,1.94,1.94,0,0,0,.29.21l.3.12.27.05.22,0ZM213,46.68a2.31,2.31,0,0,0,.46-.9,5,5,0,0,0,.16-1.3,4.65,4.65,0,0,0-.17-1.21,3.75,3.75,0,0,0-.46-1.08,2.8,2.8,0,0,0-.75-.78,1.7,1.7,0,0,0-1-.3,2,2,0,0,0-1,.24,2.23,2.23,0,0,0-.76.79,6.11,6.11,0,0,0-.59,1.45,20.41,20.41,0,0,0-.5,2.19c.68.33,1.23.59,1.66.78s.77.33,1,.42a4.14,4.14,0,0,0,.54.17l.19,0a1.91,1.91,0,0,0,.58-.1A1.38,1.38,0,0,0,213,46.68Z"/><path class="cls-1" d="M226.76,47.11v1.17h-1.57a3.74,3.74,0,0,1-1.21-.19,3.32,3.32,0,0,1-1-.54,3,3,0,0,1-.43-.44,2.77,2.77,0,0,1-1.22.88,5.2,5.2,0,0,1-1.79.29h-3.15V47.11h3.15a7.09,7.09,0,0,0,1-.11,2,2,0,0,0,.74-.29,1.43,1.43,0,0,0,.47-.56,2.23,2.23,0,0,0,.19-.9V41.83h1.17v3.42a1.87,1.87,0,0,0,.19.87,1.74,1.74,0,0,0,.49.58,2,2,0,0,0,.66.31,3.13,3.13,0,0,0,.73.1ZM218.87,53a1,1,0,0,1-.71-1.7,1,1,0,0,1,1.41,0,1,1,0,0,1-.7,1.7Zm3.88,0a1,1,0,0,1-.7-.29,1,1,0,0,1,0-1.41,1,1,0,0,1,1.4,0,1,1,0,0,1,0,1.41A1,1,0,0,1,222.75,53Z"/><path class="cls-1" d="M232.06,40a3.13,3.13,0,0,1,1.39.29,3.5,3.5,0,0,1,1.12.81,3.87,3.87,0,0,1,.75,1.19,3.7,3.7,0,0,1,.27,1.39,3.32,3.32,0,0,1-.5,1.75,4.75,4.75,0,0,1-1.46,1.43,13.6,13.6,0,0,0,2.58.25h.95v1.17h-.95a13.28,13.28,0,0,1-2.21-.17,10.84,10.84,0,0,1-2-.49,11.21,11.21,0,0,1-2.07.49,15.19,15.19,0,0,1-2.41.17h-1.17V47.11h1.17a15.6,15.6,0,0,0,2.83-.25,4.83,4.83,0,0,1-.8-.61,4.1,4.1,0,0,1-.64-.75,3.27,3.27,0,0,1-.42-.86,3,3,0,0,1-.16-1,4,4,0,0,1,.28-1.48,3.55,3.55,0,0,1,.77-1.18,3.43,3.43,0,0,1,1.17-.76A3.9,3.9,0,0,1,232.06,40Zm-2.34-2.83a1,1,0,0,1-.7-.29,1,1,0,1,1,1.4-1.41,1,1,0,0,1,0,1.41A1,1,0,0,1,229.72,37.17Zm2.28,9.2.39-.16.36-.19a5.9,5.9,0,0,0,.58-.39,4.3,4.3,0,0,0,.54-.51,2.5,2.5,0,0,0,.39-.65,2,2,0,0,0,.16-.79,2.62,2.62,0,0,0-.17-.91,2.65,2.65,0,0,0-.46-.8,2.57,2.57,0,0,0-.74-.57,2.12,2.12,0,0,0-1-.22,2.89,2.89,0,0,0-1.05.18,2.21,2.21,0,0,0-1.32,1.29,2.78,2.78,0,0,0-.18,1,1.87,1.87,0,0,0,.18.83,2.77,2.77,0,0,0,.45.68,3.87,3.87,0,0,0,.62.53,4.82,4.82,0,0,0,.68.4l.27.13Zm1.6-9.2a1,1,0,0,1-.7-1.7,1,1,0,0,1,1.41,0,1,1,0,0,1-.71,1.7Z"/><path class="cls-1" d="M247.22,47.11v1.17h-1.56a3.7,3.7,0,0,1-1.21-.19,3.2,3.2,0,0,1-1-.54,2.22,2.22,0,0,1-.43-.44,2.85,2.85,0,0,1-1.23.88,5.14,5.14,0,0,1-1.78.29h-3.15V47.11H240a6.94,6.94,0,0,0,1-.11,2.1,2.1,0,0,0,.75-.29,1.43,1.43,0,0,0,.47-.56,2.24,2.24,0,0,0,.18-.9V41.83h1.18v3.42a1.71,1.71,0,0,0,.68,1.45,1.83,1.83,0,0,0,.66.31,3.06,3.06,0,0,0,.73.1ZM240,38.65a1,1,0,0,1-.7-.29,1,1,0,1,1,1.4-1.41,1,1,0,0,1,0,1.41A1,1,0,0,1,240,38.65Zm3.89,0a1,1,0,0,1-.71-1.7,1,1,0,0,1,1.41,0,1,1,0,0,1-.7,1.7Z"/><path class="cls-1" d="M262.86,48.21a3.37,3.37,0,0,1-.8-.23,2.44,2.44,0,0,1-.68-.4,2,2,0,0,1-.5-.59l-.22.27-.22.22a3.09,3.09,0,0,1-2.13.8,4.94,4.94,0,0,1-.9-.08,2.72,2.72,0,0,1-1.3-.64,2.81,2.81,0,0,1-.51-.57A3.12,3.12,0,0,1,253,48.28a3.86,3.86,0,0,1-1.45-.24,3.17,3.17,0,0,1-1-.7,2.09,2.09,0,0,1-.14-.17,1.41,1.41,0,0,1-.14-.18,2,2,0,0,1-.22.27l-.22.22a3.07,3.07,0,0,1-1,.6,3.51,3.51,0,0,1-1.17.2h-.83V47.11h.94a2.21,2.21,0,0,0,.71-.12,1.94,1.94,0,0,0,.66-.36,2,2,0,0,0,.48-.65,2.48,2.48,0,0,0,.18-1V41.84H251V45a2.23,2.23,0,0,0,.49,1.58,2.49,2.49,0,0,0,2.33.43,1.68,1.68,0,0,0,.62-.36,1.72,1.72,0,0,0,.45-.65,2.49,2.49,0,0,0,.17-1V41.84h1.18V45a2.23,2.23,0,0,0,.49,1.58,2.18,2.18,0,0,0,1.64.55A2.15,2.15,0,0,0,259,47a1.77,1.77,0,0,0,.64-.36,2,2,0,0,0,.46-.65,2.68,2.68,0,0,0,.17-1V41.84h1.18V45c0,1.4.75,2.11,2.27,2.13h.5v1.17h-.51A4.94,4.94,0,0,1,262.86,48.21Z"/><path class="cls-1" d="M270.25,40.32a2.69,2.69,0,0,1,1.37.37,3.7,3.7,0,0,1,1.15,1.06,4.64,4.64,0,0,1,.69,1.37,5,5,0,0,1,.24,1.52,8.1,8.1,0,0,1-.06,1,6.94,6.94,0,0,1-.21.95,3.81,3.81,0,0,1-.36.85,2.79,2.79,0,0,1-.54.68,2.36,2.36,0,0,1-.73.45,2.45,2.45,0,0,1-.93.17,3.73,3.73,0,0,1-.94-.12,7.85,7.85,0,0,1-1-.33c-.33-.14-.68-.3-1.06-.5l-1.24-.63a2.29,2.29,0,0,1-2,1.13h-.85V47.11h.85a1.25,1.25,0,0,0,.63-.16,1.46,1.46,0,0,0,.47-.51,3.47,3.47,0,0,0,.39-.89c.11-.35.22-.72.33-1.1s.26-.94.41-1.4a5.15,5.15,0,0,1,.63-1.29A3.14,3.14,0,0,1,270.25,40.32Zm.62,7.24a1.31,1.31,0,0,0,.59-.16,1.39,1.39,0,0,0,.54-.49,2.86,2.86,0,0,0,.38-.91,5.27,5.27,0,0,0,.15-1.36,3.7,3.7,0,0,0-.19-1.16,3.28,3.28,0,0,0-.52-1,2.61,2.61,0,0,0-.24-.3,1.72,1.72,0,0,0-.35-.3,1.94,1.94,0,0,0-.45-.25,1.51,1.51,0,0,0-.53-.1,2.16,2.16,0,0,0-1,.23,2,2,0,0,0-.71.64,3.66,3.66,0,0,0-.5,1c-.14.4-.29.86-.42,1.37-.07.23-.13.46-.2.69s-.13.43-.21.64l1.14.59c.35.18.67.34,1,.47a5.15,5.15,0,0,0,.84.31A2.22,2.22,0,0,0,270.87,47.56Z"/><path class="cls-1" d="M284.25,48.36a9.11,9.11,0,0,1-1.47-.12,7.54,7.54,0,0,1-1.4-.33,5.64,5.64,0,0,1-1.13-.5l-.51-.29.6-1,.51.31a4.38,4.38,0,0,0,.95.41,7.13,7.13,0,0,0,1.17.26,8.52,8.52,0,0,0,1.24.1,7.09,7.09,0,0,0,1.16-.09,3,3,0,0,0,1.05-.37,1.45,1.45,0,0,0,.6-.66,1.38,1.38,0,0,0,.07-.76,2.29,2.29,0,0,0-.36-.85l-1.26-1.89-.89-1.34-.58-.88-.34-.52-.16-.24s0-.06,0-.07l-.32-.5,1-.63a3.23,3.23,0,0,0,.18.28l.25.39.4.61.61.92.89,1.35c.35.52.77,1.15,1.24,1.87a3.22,3.22,0,0,1,.56,1.39,2.38,2.38,0,0,1-.17,1.32,2.54,2.54,0,0,1-.93,1.13,4.06,4.06,0,0,1-1.59.6A6.74,6.74,0,0,1,284.25,48.36Z"/><path class="cls-1" d="M293.81,40a4.25,4.25,0,0,1,1.69.39,3.11,3.11,0,0,1,1.15,1,4.16,4.16,0,0,1,.66,1.46,7.81,7.81,0,0,1,.21,1.87v2.38h1.62v1.17h-1.62a5.39,5.39,0,0,1-.42,2.36,4.32,4.32,0,0,1-1.28,1.64,5.71,5.71,0,0,1-2,1,9.56,9.56,0,0,1-2.52.31h-.54V52.38h.54a11.6,11.6,0,0,0,2.08-.23,4.31,4.31,0,0,0,1.57-.67,3.11,3.11,0,0,0,1-1.25,4.81,4.81,0,0,0,.37-1.95h-2a5.49,5.49,0,0,1-1.65-.2,4,4,0,0,1-1.33-.66,3.19,3.19,0,0,1-.9-1.12,3.67,3.67,0,0,1-.32-1.57,8.35,8.35,0,0,1,.2-1.86,4.33,4.33,0,0,1,.65-1.46,3.19,3.19,0,0,1,1.15-1A4.09,4.09,0,0,1,293.81,40Zm2.53,7.07V44.73a8.62,8.62,0,0,0-.14-1.4,3.37,3.37,0,0,0-.4-1.12,2,2,0,0,0-.77-.73,2.43,2.43,0,0,0-1.22-.26,2.62,2.62,0,0,0-1.22.26,2.21,2.21,0,0,0-.78.74,3.38,3.38,0,0,0-.41,1.12,7.58,7.58,0,0,0-.12,1.39,2.46,2.46,0,0,0,.23,1.11,2.09,2.09,0,0,0,.64.74,3,3,0,0,0,1,.4,5.08,5.08,0,0,0,1.2.13Z"/><path class="cls-1" d="M305.27,47.11v1.17h-.21a3.24,3.24,0,0,1-1.49-.35,3.07,3.07,0,0,1-1.11-1,3.13,3.13,0,0,1-.63.63A2.94,2.94,0,0,1,301,48a5.09,5.09,0,0,1-1,.23,9.35,9.35,0,0,1-1.23.09V47.11a5.76,5.76,0,0,0,1.67-.2,2.21,2.21,0,0,0,.94-.52,1.47,1.47,0,0,0,.42-.73,3.37,3.37,0,0,0,.1-.83V34.66h1.17V44.93a2.81,2.81,0,0,0,.14.89,2.26,2.26,0,0,0,.41.69,1.79,1.79,0,0,0,.63.44,2.09,2.09,0,0,0,.81.16Z"/><path class="cls-1" d="M310,41.51c.08.33.15.68.21,1s.11.71.16,1.07.07.71.08,1a4.24,4.24,0,0,1-.19,1.33,3.81,3.81,0,0,1-.6,1.17,3,3,0,0,1-1,.82,2.57,2.57,0,0,1-1.27.31h-2.49V47.11h2.49a1.75,1.75,0,0,0,.8-.24,1.9,1.9,0,0,0,.58-.55,2.53,2.53,0,0,0,.36-.76,3.27,3.27,0,0,0,.11-.88c0-.3,0-.62-.07-1s-.1-.66-.16-1-.12-.64-.19-.94-.14-.59-.2-.85l1.13-.34Q309.87,41,310,41.51Zm-1.51-3.88a1.06,1.06,0,0,1-1.06-1.07,1,1,0,0,1,.31-.76,1,1,0,0,1,.75-.31,1,1,0,0,1,.75.31,1,1,0,0,1,.31.76,1,1,0,0,1-.31.76A1,1,0,0,1,308.46,37.63Z"/><path class="cls-1" d="M314.66,48.28h-1.19V34.66h1.19Z"/><path class="cls-1" d="M321.66,48.36a9.11,9.11,0,0,1-1.47-.12,7.54,7.54,0,0,1-1.4-.33,5.64,5.64,0,0,1-1.13-.5l-.51-.29.6-1,.51.31a4.18,4.18,0,0,0,.95.41,7.13,7.13,0,0,0,1.17.26,8.39,8.39,0,0,0,1.23.1,6.92,6.92,0,0,0,1.16-.09,3,3,0,0,0,1.06-.37,1.34,1.34,0,0,0,.67-1.42,2.29,2.29,0,0,0-.36-.85l-1.26-1.89L322,41.22l-.58-.88-.34-.52-.16-.24s-.05-.06-.05-.07l-.31-.5,1-.63a3.23,3.23,0,0,0,.18.28l.25.39.4.61.61.92.89,1.35,1.24,1.87a3.34,3.34,0,0,1,.56,1.39,2.38,2.38,0,0,1-.17,1.32,2.54,2.54,0,0,1-.93,1.13,4.17,4.17,0,0,1-1.6.6A6.71,6.71,0,0,1,321.66,48.36Z"/><path class="cls-1" d="M141.15,29.62a1.52,1.52,0,1,1,3,0,1.52,1.52,0,0,1-3,0Zm.64,5.89h1.67V53.75h-1.67Z"/><path class="cls-1" d="M148.93,41.13c0-7.9,4.3-12.88,10.34-12.88s10.3,5,10.3,12.88-4.3,13.07-10.3,13.07S148.93,49.07,148.93,41.13Zm18.81,0c0-6.91-3.42-11.28-8.47-11.28s-8.51,4.37-8.51,11.28,3.42,11.48,8.51,11.48S167.74,48.09,167.74,41.13Z"/><path class="cls-1" d="M174.24,49.23a9.89,9.89,0,0,0,7.37,3.38c3.8,0,6.23-2,6.23-5s-2.05-4.14-4.52-5.24l-3.8-1.71c-2.16-1-5.05-2.51-5.05-6.23s3.12-6.16,7.26-6.16a9.54,9.54,0,0,1,7,3l-1,1.18a7.92,7.92,0,0,0-6-2.58c-3.31,0-5.51,1.75-5.51,4.48,0,2.89,2.51,4,4.33,4.83l3.8,1.67c2.77,1.25,5.24,2.81,5.24,6.65s-3.15,6.72-8,6.72a11.06,11.06,0,0,1-8.44-3.76Z"/><path class="cls-1" d="M206.14,88.76h-.55a5.14,5.14,0,0,1-2.25-.49,9.58,9.58,0,0,1-.5,3.19,6.34,6.34,0,0,1-1.45,2.37A6.17,6.17,0,0,1,199,95.31a9.22,9.22,0,0,1-3.2.51h-1.75v-2.4h1.75a7.33,7.33,0,0,0,2.28-.32,3.66,3.66,0,0,0,1.59-1,3.92,3.92,0,0,0,.93-1.65,8.83,8.83,0,0,0,.29-2.39V80.15h2.41v4.22a1.74,1.74,0,0,0,1,1.7,2.46,2.46,0,0,0,.76.24,4.44,4.44,0,0,0,.5,0h.55Z"/><path class="cls-1" d="M219.29,86.35v2.41h-2.1a5.88,5.88,0,0,1-2.05-.33,3.11,3.11,0,0,1-1.41-1,5.3,5.3,0,0,1-3.92,1.33h-4.2V86.35h4.2a4.71,4.71,0,0,0,1.45-.18,2.22,2.22,0,0,0,.8-.46,1.21,1.21,0,0,0,.36-.61,2.49,2.49,0,0,0,.08-.64V80.15h2.4v4.22a2.12,2.12,0,0,0,.14.8,1.83,1.83,0,0,0,.37.55,1.42,1.42,0,0,0,.49.35,2.35,2.35,0,0,0,.52.19,2.23,2.23,0,0,0,.46.08h2.41ZM209,95.41a1.61,1.61,0,0,1-1.21-.5A1.71,1.71,0,0,1,209,92a1.7,1.7,0,0,1,1.19,2.91A1.58,1.58,0,0,1,209,95.41Zm4.89,0a1.61,1.61,0,0,1-1.21-.5,1.7,1.7,0,1,1,2.4,0A1.59,1.59,0,0,1,213.87,95.41Z"/><path class="cls-1" d="M218.82,88.76V86.35h7.45a4.75,4.75,0,0,0,1.53-.21,1.26,1.26,0,0,0,.78-.58,1.28,1.28,0,0,0,0-.91,4.94,4.94,0,0,0-.55-1.19,11.37,11.37,0,0,0-1-1.38c-.38-.49-.79-1-1.23-1.45s-.9-1-1.36-1.42-.92-.9-1.35-1.29-.83-.74-1.19-1-.64-.54-.87-.7l.24-2.71,11.64-5.11,1,2.18L223.72,75l1,1c.39.39.83.81,1.29,1.29s.95,1,1.43,1.5.94,1.06,1.37,1.6A17.05,17.05,0,0,1,230,81.92a7.21,7.21,0,0,1,.74,1.42,6.2,6.2,0,0,1,.3,1,4.71,4.71,0,0,1,.07.88,3.05,3.05,0,0,1-.1.72,2.73,2.73,0,0,1-.18.55,3.83,3.83,0,0,1-.43.71,3.09,3.09,0,0,1-.82.72,4.9,4.9,0,0,1-1.32.57,7.16,7.16,0,0,1-1.94.23Zm2.9-18.93,9.66-4.16.53,1.15L221.58,71.3Z"/><path class="cls-1" d="M251.67,95.81a7.49,7.49,0,0,1-3.58-.86,6.79,6.79,0,0,1-2.6-2.45,7.49,7.49,0,0,1-1-2.4,10,10,0,0,1-.21-2.82,14.34,14.34,0,0,1,.56-3.15,21.28,21.28,0,0,1,1.31-3.4l2.16,1a21.09,21.09,0,0,0-1.13,2.83,12.87,12.87,0,0,0-.51,2.56,7.8,7.8,0,0,0,.1,2.24,5.31,5.31,0,0,0,.73,1.85,4.51,4.51,0,0,0,1.73,1.6,5.17,5.17,0,0,0,2.42.56h3a7.51,7.51,0,0,0,2.38-.31,3.39,3.39,0,0,0,1.44-.87,3,3,0,0,0,.7-1.36,7.91,7.91,0,0,0,.19-1.76V80.15h2.4v4A2.53,2.53,0,0,0,262,85a2,2,0,0,0,.46.7,1.8,1.8,0,0,0,.71.45,2.43,2.43,0,0,0,.92.16h.49v2.41h-.49a4.74,4.74,0,0,1-2.28-.55v.89a6.6,6.6,0,0,1-1.78,5,7.57,7.57,0,0,1-5.33,1.67ZM253.93,81a1.71,1.71,0,0,1-1.28-.53,1.79,1.79,0,0,1-.53-1.29,1.77,1.77,0,0,1,.53-1.28,1.8,1.8,0,0,1,2.57,0,1.77,1.77,0,0,1,.53,1.28,1.79,1.79,0,0,1-.53,1.29A1.72,1.72,0,0,1,253.93,81Z"/><path class="cls-1" d="M277.88,86.35v2.41h-2.1a5.82,5.82,0,0,1-2-.33,3.2,3.2,0,0,1-1.42-1,5.29,5.29,0,0,1-3.92,1.33h-4.2V86.35h4.2a4.67,4.67,0,0,0,1.45-.18,2.19,2.19,0,0,0,.81-.46,1.37,1.37,0,0,0,.36-.61,3,3,0,0,0,.08-.64V80.15h2.39v4.22a1.94,1.94,0,0,0,.15.8,2,2,0,0,0,.36.55,1.64,1.64,0,0,0,.49.35,2.42,2.42,0,0,0,.53.19,2.12,2.12,0,0,0,.46.08h2.4Zm-10.31,9.06a1.7,1.7,0,0,1-1.2-2.91,1.7,1.7,0,0,1,2.4,2.41A1.6,1.6,0,0,1,267.57,95.41Zm4.89,0a1.71,1.71,0,0,1-1.21-2.91,1.66,1.66,0,0,1,1.21-.5,1.71,1.71,0,0,1,1.2,2.91A1.6,1.6,0,0,1,272.46,95.41Z"/><path class="cls-1" d="M287.38,88.73a5.88,5.88,0,0,1-2.13-.35,4.09,4.09,0,0,1-1.56-1,4,4,0,0,1-1.54,1,4.83,4.83,0,0,1-1.77.34h-2.8V86.35h2.8a3.48,3.48,0,0,0,.54-.06,1.52,1.52,0,0,0,.7-.29,2,2,0,0,0,.61-.7,2.76,2.76,0,0,0,.26-1.29V80.15h2.41V84a2.49,2.49,0,0,0,.57,1.81,2.66,2.66,0,0,0,1.91.57,2.81,2.81,0,0,0,.54-.07,2,2,0,0,0,.7-.31,2.17,2.17,0,0,0,.61-.71,2.76,2.76,0,0,0,.26-1.29V80.15h2.39V84a2.45,2.45,0,0,0,.6,1.82,2.67,2.67,0,0,0,1.92.59,2.29,2.29,0,0,0,.55-.09,1.86,1.86,0,0,0,.68-.33,2.06,2.06,0,0,0,.58-.73,2.77,2.77,0,0,0,.24-1.26,6.54,6.54,0,0,0,0-.7q0-.42-.12-.9c0-.33-.1-.65-.16-1s-.12-.65-.17-.94-.12-.56-.17-.79a4.8,4.8,0,0,0-.13-.52l2.28-.72s.05.18.1.4l.18.8c.07.32.14.67.21,1.06s.14.79.2,1.18.12.78.16,1.15a7.13,7.13,0,0,1,.07,1,5.09,5.09,0,0,1-.4,2.11,4.58,4.58,0,0,1-1,1.49,4.35,4.35,0,0,1-1.43.89,4.84,4.84,0,0,1-1.61.31,5.94,5.94,0,0,1-2.15-.36,4.42,4.42,0,0,1-1.59-1.05,4.29,4.29,0,0,1-1.53,1A4.73,4.73,0,0,1,287.38,88.73Zm1-12.44a1.56,1.56,0,0,1-1.15-.49,1.59,1.59,0,0,1-.48-1.16,1.6,1.6,0,0,1,.48-1.16,1.55,1.55,0,0,1,1.15-.48,1.57,1.57,0,0,1,1.16.48,1.6,1.6,0,0,1,.48,1.16,1.66,1.66,0,0,1-1.64,1.65Zm3.49-6.46a1.5,1.5,0,0,1,.44,1.08A1.46,1.46,0,0,1,291.9,72a1.52,1.52,0,0,1-2.16,0,1.46,1.46,0,0,1-.44-1.07,1.53,1.53,0,0,1,2.6-1.08Zm1.22,6.46A1.6,1.6,0,0,1,292,75.8a1.58,1.58,0,0,1-.47-1.16A1.62,1.62,0,0,1,293.12,73a1.56,1.56,0,0,1,1.15.48,1.6,1.6,0,0,1,.48,1.16,1.66,1.66,0,0,1-1.63,1.65Z"/><path class="cls-1" d="M308.49,88.76a11.19,11.19,0,0,1-2.08-.19,5.47,5.47,0,0,1-1.48-.49,2.87,2.87,0,0,1-1-.82,3.93,3.93,0,0,1-.57-1.14,7,7,0,0,1-.27-1.47c0-.55-.06-1.15-.06-1.81V70.6h2.41V82.84a17.21,17.21,0,0,0,.07,1.79,2,2,0,0,0,.36,1.07,1.57,1.57,0,0,0,.91.51,9.63,9.63,0,0,0,1.67.14Z"/><path class="cls-1" d="M316.4,78.13a4.66,4.66,0,0,1,2.17.48,4.52,4.52,0,0,1,1.53,1.28,5.47,5.47,0,0,1,.91,1.84,7.84,7.84,0,0,1,.3,2.17A9.32,9.32,0,0,1,321.1,86a5.67,5.67,0,0,1-.56,1.5,3.47,3.47,0,0,1-.77,1,3.33,3.33,0,0,1-.86.56,3.74,3.74,0,0,1-.85.26,4.83,4.83,0,0,1-.7.06,5.17,5.17,0,0,1-1.19-.13,6.55,6.55,0,0,1-1.17-.36,13.68,13.68,0,0,1-1.26-.58l-1.44-.78a3.35,3.35,0,0,1-2.69,1.24h-1.46V86.35h1.46a1,1,0,0,0,.8-.35,3.4,3.4,0,0,0,.54-.93,12,12,0,0,0,.42-1.31c.13-.5.27-1,.44-1.52a11.52,11.52,0,0,1,.59-1.51,5,5,0,0,1,.87-1.31,3.82,3.82,0,0,1,1.29-.93A4.22,4.22,0,0,1,316.4,78.13Zm1,8.83h.25a.93.93,0,0,0,.34-.1,1.29,1.29,0,0,0,.37-.27,1.5,1.5,0,0,0,.33-.53,4.08,4.08,0,0,0,.25-.86A7.8,7.8,0,0,0,319,83.9c0-.1,0-.25,0-.45a5.16,5.16,0,0,0-.12-.68,4.11,4.11,0,0,0-.26-.77,3,3,0,0,0-.46-.73,2.43,2.43,0,0,0-.72-.54,2.25,2.25,0,0,0-1-.21,2.09,2.09,0,0,0-.95.2,1.92,1.92,0,0,0-.66.54,2.86,2.86,0,0,0-.44.81,10,10,0,0,0-.33,1c-.11.36-.21.73-.31,1.13s-.22.79-.36,1.18l1.23.62c.37.19.72.36,1,.5a6.76,6.76,0,0,0,.91.33A3,3,0,0,0,317.36,87Z"/></svg>