<svg id="Layer_1" data-name="Layer 1" xmlns="http://www.w3.org/2000/svg" viewBox="0 0 350 121"><defs><style>.cls-1{fill:#fff;}</style></defs><title>Download Button</title><path class="cls-1" d="M344.5,4.9a3.6,3.6,0,0,1,3.6,3.6v104a3.6,3.6,0,0,1-3.6,3.6H7.5a3.6,3.6,0,0,1-3.6-3.6V8.5A3.6,3.6,0,0,1,7.5,4.9h337m0-1.4H7.5a5,5,0,0,0-5,5v104a5,5,0,0,0,5,5h337a5,5,0,0,0,5-5V8.5a5,5,0,0,0-5-5Z"/><path class="cls-1" d="M229.15,47.62v1.17h-.28a4,4,0,0,1-1-.16l-.41-.15-.38-.23a1.94,1.94,0,0,1-.32-.32,1.34,1.34,0,0,1-.22-.43,2.8,2.8,0,0,1-.49.62,2.9,2.9,0,0,1-.59.42,2.54,2.54,0,0,1-.65.24,3,3,0,0,1-.66.08l-.22,0a1.87,1.87,0,0,1-.34-.07l-.5-.16a6.13,6.13,0,0,1-.71-.27q-.28-.11-.69-.3l-.87-.4-.94-.46-.93-.47-.82-.43-.61-.32V56h-1.17V45.23l1.08-.67.81.45,1.4.74a21.36,21.36,0,0,1,.49-2.09,7.54,7.54,0,0,1,.59-1.44,3.7,3.7,0,0,1,1.17-1.28,3,3,0,0,1,1.68-.48,2.82,2.82,0,0,1,1.51.41,3.9,3.9,0,0,1,1.11,1.07,4.91,4.91,0,0,1,.69,1.46A5.56,5.56,0,0,1,227.1,45a3,3,0,0,0,.69,2.22,1.37,1.37,0,0,0,.3.21,1,1,0,0,0,.29.12l.28.06.21,0Zm-3.84-.43a2.19,2.19,0,0,0,.46-.9,4.58,4.58,0,0,0,.16-1.3,4.63,4.63,0,0,0-.16-1.21,4.06,4.06,0,0,0-.47-1.08,2.63,2.63,0,0,0-.74-.78,1.76,1.76,0,0,0-1-.3,2,2,0,0,0-1,.24,2.07,2.07,0,0,0-.76.79,6.09,6.09,0,0,0-.6,1.45,18.44,18.44,0,0,0-.49,2.19c.67.33,1.23.59,1.65.78s.77.33,1,.42a4.72,4.72,0,0,0,.53.17l.2,0a1.9,1.9,0,0,0,.57-.1A1.27,1.27,0,0,0,225.31,47.19Z"/><path class="cls-1" d="M239.09,47.62v1.17h-1.56a3.7,3.7,0,0,1-1.21-.19,3.25,3.25,0,0,1-1-.54,3,3,0,0,1-.43-.44,2.77,2.77,0,0,1-1.22.88,5.14,5.14,0,0,1-1.78.29h-3.15V47.62h3.15a6.94,6.94,0,0,0,1-.11,1.83,1.83,0,0,0,.74-.3,1.29,1.29,0,0,0,.48-.55,2.28,2.28,0,0,0,.18-.9V42.34h1.18v3.42a1.75,1.75,0,0,0,.19.87,1.84,1.84,0,0,0,.48.58,2,2,0,0,0,.67.31,3.06,3.06,0,0,0,.73.1Zm-7.89,5.84a1,1,0,0,1-.7-.29,1,1,0,0,1,0-1.41,1,1,0,0,1,1.69.7,1,1,0,0,1-.29.71A1,1,0,0,1,231.2,53.46Zm3.88,0a1,1,0,0,1-.7-1.7,1,1,0,0,1,1.41,0,1,1,0,0,1-.71,1.7Z"/><path class="cls-1" d="M244.39,40.51a3.17,3.17,0,0,1,1.4.29,3.61,3.61,0,0,1,1.12.81,4,4,0,0,1,.74,1.19,3.7,3.7,0,0,1,.27,1.39,3.23,3.23,0,0,1-.5,1.75A4.71,4.71,0,0,1,246,47.37a13.41,13.41,0,0,0,2.57.25h1v1.17h-1a14.45,14.45,0,0,1-2.21-.17,11,11,0,0,1-2-.49,11.1,11.1,0,0,1-2.06.49,16.57,16.57,0,0,1-2.41.17h-1.18V47.62h1.18a15.41,15.41,0,0,0,2.82-.25,5.83,5.83,0,0,1-.8-.61,4.1,4.1,0,0,1-.64-.75,3.27,3.27,0,0,1-.42-.86,3,3,0,0,1-.15-1,3.79,3.79,0,0,1,.28-1.48,3.53,3.53,0,0,1,.76-1.18,3.38,3.38,0,0,1,1.18-.76A3.82,3.82,0,0,1,244.39,40.51Zm-2.34-2.83a1,1,0,0,1-.7-1.7,1,1,0,0,1,.7-.3.92.92,0,0,1,.7.3,1,1,0,0,1-.7,1.7Zm2.28,9.2a3.52,3.52,0,0,0,.39-.16l.36-.19a5.9,5.9,0,0,0,.58-.39,3.26,3.26,0,0,0,.54-.51,2.83,2.83,0,0,0,.4-.65,2,2,0,0,0,.15-.79,2.86,2.86,0,0,0-.16-.91,2.68,2.68,0,0,0-.47-.8,2.33,2.33,0,0,0-.74-.57,2.12,2.12,0,0,0-1-.22,2.89,2.89,0,0,0-1,.18,2.13,2.13,0,0,0-.8.5,2.41,2.41,0,0,0-.52.79,2.78,2.78,0,0,0-.18,1A1.87,1.87,0,0,0,242,45a2.81,2.81,0,0,0,.46.68,3.48,3.48,0,0,0,.62.53,5.91,5.91,0,0,0,.67.4l.27.13Zm1.61-9.2a1,1,0,0,1-.7-1.7.92.92,0,0,1,.7-.3.94.94,0,0,1,.7.3,1,1,0,0,1,0,1.41A1,1,0,0,1,245.94,37.68Z"/><path class="cls-1" d="M259.56,47.62v1.17H258a3.74,3.74,0,0,1-1.21-.19,3.2,3.2,0,0,1-1-.54,2.53,2.53,0,0,1-.43-.44,2.82,2.82,0,0,1-1.22.88,5.2,5.2,0,0,1-1.79.29h-3.15V47.62h3.15a6.78,6.78,0,0,0,1-.11,1.82,1.82,0,0,0,.75-.3,1.33,1.33,0,0,0,.47-.55,2.46,2.46,0,0,0,.19-.9V42.34h1.17v3.42a1.87,1.87,0,0,0,.19.87,1.74,1.74,0,0,0,.49.58,2,2,0,0,0,.66.31,3.13,3.13,0,0,0,.73.1Zm-7.24-8.46a1,1,0,0,1-.7-1.7,1,1,0,0,1,.7-.3.92.92,0,0,1,.7.3,1,1,0,0,1-.7,1.7Zm3.89,0a1,1,0,0,1-.7-1.7.92.92,0,0,1,.7-.3.94.94,0,0,1,.7.3,1,1,0,0,1,0,1.41A1,1,0,0,1,256.21,39.16Z"/><path class="cls-1" d="M275.19,48.72a3.51,3.51,0,0,1-.8-.23,2.59,2.59,0,0,1-.68-.4,2,2,0,0,1-.5-.59,3.2,3.2,0,0,1-.22.27l-.22.22a3,3,0,0,1-1,.59,3.19,3.19,0,0,1-1.16.21,4.74,4.74,0,0,1-.89-.08,2.65,2.65,0,0,1-.72-.24,2.56,2.56,0,0,1-.59-.4,3.56,3.56,0,0,1-.51-.57,3.09,3.09,0,0,1-2.58,1.29,3.8,3.8,0,0,1-1.44-.24,3.11,3.11,0,0,1-1.06-.7,2.09,2.09,0,0,1-.14-.17,1.41,1.41,0,0,1-.14-.18,2,2,0,0,1-.22.27l-.21.22a3.07,3.07,0,0,1-1,.59,3.33,3.33,0,0,1-1.18.21h-.82V47.62h.93a2.16,2.16,0,0,0,.71-.12,2.12,2.12,0,0,0,.66-.36,1.78,1.78,0,0,0,.48-.65,2.51,2.51,0,0,0,.19-1V42.35h1.17v3.14a2.23,2.23,0,0,0,.49,1.58,2.16,2.16,0,0,0,1.63.55,2.1,2.1,0,0,0,.7-.12,1.71,1.71,0,0,0,1.08-1,2.72,2.72,0,0,0,.17-1V42.35h1.17v3.14a2.23,2.23,0,0,0,.5,1.58,2.16,2.16,0,0,0,1.63.55,2.21,2.21,0,0,0,.71-.12,2,2,0,0,0,.63-.36,1.86,1.86,0,0,0,.46-.65,2.52,2.52,0,0,0,.18-1V42.35h1.17v3.14c0,1.4.76,2.11,2.27,2.13h.51v1.17h-.52A4.94,4.94,0,0,1,275.19,48.72Z"/><path class="cls-1" d="M282.58,40.83a2.66,2.66,0,0,1,1.37.37,3.7,3.7,0,0,1,1.15,1.06,4.64,4.64,0,0,1,.69,1.37,4.7,4.7,0,0,1,.25,1.52,6.59,6.59,0,0,1-.07,1,5.71,5.71,0,0,1-.2,1,4.36,4.36,0,0,1-.37.85,2.79,2.79,0,0,1-.54.68,2.43,2.43,0,0,1-.72.45,2.54,2.54,0,0,1-.94.17,3.59,3.59,0,0,1-.93-.12,6.84,6.84,0,0,1-1-.33c-.34-.14-.69-.31-1.07-.5L279,47.66a2.29,2.29,0,0,1-2,1.13h-.85V47.62H277a1.23,1.23,0,0,0,.63-.16,1.48,1.48,0,0,0,.48-.51,4.33,4.33,0,0,0,.39-.89c.11-.35.21-.72.32-1.1s.27-.94.42-1.4a5.3,5.3,0,0,1,.62-1.29A3.16,3.16,0,0,1,282.58,40.83Zm.62,7.23a1.33,1.33,0,0,0,.6-.15,1.44,1.44,0,0,0,.53-.49,2.86,2.86,0,0,0,.39-.91,5.8,5.8,0,0,0,.14-1.36,4,4,0,0,0-.18-1.16,3.75,3.75,0,0,0-.52-1l-.25-.3a1.72,1.72,0,0,0-.35-.3,2.09,2.09,0,0,0-.44-.25,1.62,1.62,0,0,0-.54-.1,2.19,2.19,0,0,0-1,.23,2,2,0,0,0-.71.64,4.3,4.3,0,0,0-.5,1c-.14.4-.28.86-.42,1.37-.06.23-.13.46-.19.69l-.21.64,1.13.59c.35.18.68.34,1,.47a5.15,5.15,0,0,0,.84.31A2,2,0,0,0,283.2,48.06Z"/><path class="cls-1" d="M296.58,48.87a9.3,9.3,0,0,1-1.47-.12,7.43,7.43,0,0,1-1.39-.33,6,6,0,0,1-1.14-.5l-.5-.29.6-1,.5.31a4.78,4.78,0,0,0,1,.41,8.52,8.52,0,0,0,1.16.26,10.2,10.2,0,0,0,1.24.1,7,7,0,0,0,1.16-.09,2.89,2.89,0,0,0,1.06-.38,1.41,1.41,0,0,0,.59-.65,1.3,1.3,0,0,0,.07-.76,2.29,2.29,0,0,0-.36-.85l-1.26-1.89-.88-1.34c-.25-.36-.44-.66-.59-.88l-.33-.52-.17-.24a.28.28,0,0,1,0-.07l-.32-.5,1-.63.17.28c.07.1.16.23.26.39l.39.61c.17.24.37.55.61.92l.9,1.35L300,44.31a3.48,3.48,0,0,1,.56,1.39,2.47,2.47,0,0,1-.17,1.32,2.5,2.5,0,0,1-.94,1.13,4.06,4.06,0,0,1-1.59.6A6.74,6.74,0,0,1,296.58,48.87Z"/><path class="cls-1" d="M306.15,40.55a4.29,4.29,0,0,1,1.69.39,3.19,3.19,0,0,1,1.15,1,4.33,4.33,0,0,1,.65,1.46,7.81,7.81,0,0,1,.21,1.87v2.38h1.62v1.17h-1.62a5.39,5.39,0,0,1-.42,2.36,4.32,4.32,0,0,1-1.28,1.64,5.54,5.54,0,0,1-2,1,9.54,9.54,0,0,1-2.51.31h-.55V52.89h.55a11.38,11.38,0,0,0,2.07-.23A4.24,4.24,0,0,0,307.3,52a3,3,0,0,0,1-1.25,5,5,0,0,0,.38-2h-2a5.49,5.49,0,0,1-1.65-.2,4,4,0,0,1-1.33-.66,3.06,3.06,0,0,1-.89-1.12,3.52,3.52,0,0,1-.33-1.57,7.73,7.73,0,0,1,.21-1.86,4,4,0,0,1,.65-1.46,3.16,3.16,0,0,1,1.14-1A4.14,4.14,0,0,1,306.15,40.55Zm2.53,7.07V45.24a9.9,9.9,0,0,0-.14-1.4,3.38,3.38,0,0,0-.41-1.12,2,2,0,0,0-.76-.73,2.48,2.48,0,0,0-1.22-.26,2.67,2.67,0,0,0-1.23.26,2.1,2.1,0,0,0-.77.74,3.17,3.17,0,0,0-.41,1.12,7.58,7.58,0,0,0-.12,1.39,2.34,2.34,0,0,0,.23,1.11,1.91,1.91,0,0,0,.64.74,2.81,2.81,0,0,0,.95.4,5.08,5.08,0,0,0,1.2.13Z"/><path class="cls-1" d="M317.6,47.62v1.17h-.21a3.24,3.24,0,0,1-1.49-.35,3,3,0,0,1-1.11-1,2.69,2.69,0,0,1-.62.64,3,3,0,0,1-.82.41,4.79,4.79,0,0,1-1,.23,9.09,9.09,0,0,1-1.23.09V47.62a5.71,5.71,0,0,0,1.67-.2,2.31,2.31,0,0,0,1-.52,1.64,1.64,0,0,0,.42-.73,3.93,3.93,0,0,0,.09-.84V35.17h1.18V45.44a2.56,2.56,0,0,0,.14.89,2,2,0,0,0,.4.68,1.87,1.87,0,0,0,.63.45,2.09,2.09,0,0,0,.81.16Z"/><path class="cls-1" d="M322.31,42c.07.33.14.68.2,1s.11.71.16,1.07.07.71.09,1a4.25,4.25,0,0,1-.2,1.33,3.81,3.81,0,0,1-.6,1.17,3,3,0,0,1-1,.82,2.54,2.54,0,0,1-1.27.31h-2.48V47.62h2.48a1.82,1.82,0,0,0,.81-.24,2,2,0,0,0,.58-.55,2.78,2.78,0,0,0,.35-.76,2.91,2.91,0,0,0,.11-.88c0-.3,0-.62-.07-.95s-.09-.66-.15-1-.13-.64-.2-.94-.14-.59-.2-.85l1.14-.34Q322.19,41.53,322.31,42Zm-1.52-3.88a1.06,1.06,0,0,1-.75-.31,1,1,0,0,1-.31-.76,1,1,0,0,1,.31-.76,1.07,1.07,0,0,1,1.51,0,1.08,1.08,0,0,1,.31.76,1.06,1.06,0,0,1-1.07,1.07Z"/><path class="cls-1" d="M327,48.79H325.8V35.17H327Z"/><path class="cls-1" d="M334,48.87a9.3,9.3,0,0,1-1.47-.12,7.25,7.25,0,0,1-1.39-.33,5.5,5.5,0,0,1-1.14-.5l-.51-.29.61-1,.5.31a4.78,4.78,0,0,0,1,.41,8.2,8.2,0,0,0,1.16.26,10.2,10.2,0,0,0,1.24.1,7.09,7.09,0,0,0,1.16-.09,2.89,2.89,0,0,0,1.06-.38,1.41,1.41,0,0,0,.59-.65,1.38,1.38,0,0,0,.07-.76,2.29,2.29,0,0,0-.36-.85l-1.26-1.89-.89-1.34-.58-.88-.34-.52-.16-.24a.28.28,0,0,1,0-.07l-.32-.5,1-.63a3,3,0,0,0,.17.28l.25.39.4.61.61.92.89,1.35,1.25,1.87A3.32,3.32,0,0,1,338,45.7a2.47,2.47,0,0,1-.16,1.32,2.56,2.56,0,0,1-.94,1.13,4.06,4.06,0,0,1-1.59.6A6.74,6.74,0,0,1,334,48.87Z"/><path class="cls-1" d="M115.42,43.7h-8.87l-2.62,7.68h-1.6L110.25,29h1.57l7.88,22.4H118ZM115,42.37l-1.43-4.18c-.88-2.65-1.7-5-2.48-7.75h-.14c-.78,2.75-1.56,5.1-2.48,7.75L107,42.37Z"/><path class="cls-1" d="M123,35.06h1.29l.14,2.52h.1c1.66-1.67,3.36-2.93,5.61-2.93,3.36,0,4.93,2,4.93,6.26V51.38h-1.5V41.11c0-3.46-1.09-5.1-3.74-5.1-1.94,0-3.33,1-5.34,3.06V51.38H123Z"/><path class="cls-1" d="M146.94,34.65a7.53,7.53,0,0,1,4.93,2l-.07-3V26.94h1.5V51.38H152l-.13-2.11h-.1a7.64,7.64,0,0,1-5.31,2.52c-4.11,0-6.76-3-6.76-8.53C139.7,38,143.06,34.65,146.94,34.65Zm-.27,15.81c1.8,0,3.4-1,5.13-2.68V38.09A6.9,6.9,0,0,0,147,36c-3.26,0-5.75,3.16-5.75,7.28C141.29,47.57,143.2,50.46,146.67,50.46Z"/><path class="cls-1" d="M159.55,35.06h1.29l.14,3h.1c1.09-2,2.69-3.44,4.63-3.44a3.39,3.39,0,0,1,1.63.34L167,36.35a3.65,3.65,0,0,0-1.5-.27c-1.46,0-3.19,1.12-4.45,4.18V51.38h-1.5Z"/><path class="cls-1" d="M175.94,34.65c3.94,0,7.34,3.13,7.34,8.61s-3.4,8.53-7.34,8.53-7.31-3.13-7.31-8.53S172,34.65,175.94,34.65Zm0,15.81c3.3,0,5.78-2.92,5.78-7.2S179.24,36,175.94,36s-5.75,3-5.75,7.28S172.64,50.46,175.94,50.46Z"/><path class="cls-1" d="M187.6,29.79a1.36,1.36,0,1,1,2.72,0,1.36,1.36,0,0,1-2.72,0Zm.58,5.27h1.5V51.38h-1.5Z"/><path class="cls-1" d="M201.85,34.65a7.55,7.55,0,0,1,4.93,2l-.07-3V26.94h1.49V51.38h-1.29l-.13-2.11h-.11a7.6,7.6,0,0,1-5.3,2.52c-4.11,0-6.76-3-6.76-8.53C194.61,38,198,34.65,201.85,34.65Zm-.27,15.81c1.8,0,3.39-1,5.13-2.68V38.09A6.91,6.91,0,0,0,202,36c-3.26,0-5.75,3.16-5.75,7.28C196.2,47.57,198.11,50.46,201.58,50.46Z"/><path class="cls-1" d="M241,89.27a6.23,6.23,0,0,1-2.11-.35,5.34,5.34,0,0,1-1.66-1,4.37,4.37,0,0,1-1.1-1.46,4.23,4.23,0,0,1-.4-1.84A6.74,6.74,0,0,1,236,82.4a7.58,7.58,0,0,1,.86-1.76A11.54,11.54,0,0,1,238,79.21c.42-.43.82-.85,1.2-1.27l-.79-.88,1.78-1.61c.44.49.9,1,1.37,1.48s.93,1,1.38,1.5.87,1,1.27,1.51a15.23,15.23,0,0,1,1,1.52A8.5,8.5,0,0,1,246,83a4.22,4.22,0,0,1,.25,1.5,5,5,0,0,1-.41,1.93A4.72,4.72,0,0,1,244.65,88a5,5,0,0,1-1.66,1A5.89,5.89,0,0,1,241,89.27Zm-.16-9.61c-.33.36-.65.73-1,1.09a9.54,9.54,0,0,0-.87,1.14,6.23,6.23,0,0,0-.62,1.27,4.39,4.39,0,0,0-.24,1.49,1.81,1.81,0,0,0,.25,1,2.12,2.12,0,0,0,.64.69,3.07,3.07,0,0,0,.92.41,4.08,4.08,0,0,0,1.05.13,4,4,0,0,0,1.18-.17,2.6,2.6,0,0,0,.9-.49,2.19,2.19,0,0,0,.78-1.73,3,3,0,0,0-.26-1.25,6.28,6.28,0,0,0-.7-1.22,11.42,11.42,0,0,0-1-1.18Z"/><path class="cls-1" d="M263.64,86.86v2.41h-.47a4.93,4.93,0,0,1-3.5-1.58,4.81,4.81,0,0,1-3.35,1.63l-.94.1c-.33,0-.67,0-1,0s-.87,0-1.31-.06-.87-.1-1.29-.18a8.09,8.09,0,0,1-1.22-.32,5.63,5.63,0,0,1-1.05-.46l-1-.61,1.2-2.1,1.05.61a4.07,4.07,0,0,0,1.09.41,8.33,8.33,0,0,0,1.37.23,10.13,10.13,0,0,0,1.46,0,11.61,11.61,0,0,0,1.38-.1,5,5,0,0,0,1.21-.33,1.16,1.16,0,0,0,.61-.48.62.62,0,0,0,.06-.61,3.72,3.72,0,0,0-.43-.88l-4.77-7.26,2-1.33,4.94,7.54.77,1.13a9.78,9.78,0,0,0,.82,1.05,4.73,4.73,0,0,0,.91.79,1.87,1.87,0,0,0,1.05.31Z"/><path class="cls-1" d="M273.76,86.86v2.41h-1a5.84,5.84,0,0,1-2-.33,3.28,3.28,0,0,1-1.42-1,5.29,5.29,0,0,1-3.92,1.33h-2.44V86.86h2.44a4.67,4.67,0,0,0,1.45-.18,2.19,2.19,0,0,0,.81-.46,1.29,1.29,0,0,0,.36-.61,3,3,0,0,0,.08-.64V80.66h2.4v4.22a2.13,2.13,0,0,0,.13.8,1.83,1.83,0,0,0,.37.55,1.64,1.64,0,0,0,.49.35,2.62,2.62,0,0,0,.53.19,2.12,2.12,0,0,0,.46.08h1.3Zm-5.22-10.27a1.75,1.75,0,0,1-1.28-.53,1.79,1.79,0,0,1-.53-1.29,1.75,1.75,0,0,1,.53-1.28,1.8,1.8,0,0,1,2.57,0,1.75,1.75,0,0,1,.53,1.28,1.79,1.79,0,0,1-.53,1.29A1.76,1.76,0,0,1,268.54,76.59Z"/><path class="cls-1" d="M280.26,78.91s.05.18.1.4l.18.83q.09.48.21,1.08c.07.39.14.79.2,1.19s.11.8.15,1.17a9.57,9.57,0,0,1,.07,1,5.06,5.06,0,0,1-.41,2.11,4.35,4.35,0,0,1-1,1.46,4.41,4.41,0,0,1-1.44.86,5.11,5.11,0,0,1-1.62.28h-3.25V86.86h3.25a3.36,3.36,0,0,0,.54-.06,1.72,1.72,0,0,0,.7-.28,1.89,1.89,0,0,0,.61-.69,2.51,2.51,0,0,0,.26-1.27,6.85,6.85,0,0,0,0-.71c0-.28-.07-.59-.12-.91s-.1-.67-.16-1-.11-.67-.17-1-.12-.58-.17-.82a5.12,5.12,0,0,0-.13-.53Zm-2.09-3.46a1.7,1.7,0,0,1-1.27-.54,1.73,1.73,0,0,1-.53-1.28,1.75,1.75,0,0,1,.53-1.29,1.69,1.69,0,0,1,1.27-.53,1.76,1.76,0,0,1,1.3.53,1.78,1.78,0,0,1,.52,1.29,1.81,1.81,0,0,1-1.82,1.82Z"/><path class="cls-1" d="M287.29,89.25h-2.41V71.11h2.41Z"/><path class="cls-1" d="M286.17,96.33v-2.4h1.75a7.33,7.33,0,0,0,2.28-.32,3.66,3.66,0,0,0,1.59-1,3.92,3.92,0,0,0,.93-1.65,8.45,8.45,0,0,0,.29-2.39v-8h2.41v8a10.23,10.23,0,0,1-.48,3.25,6.28,6.28,0,0,1-1.42,2.42,6.13,6.13,0,0,1-2.34,1.52,9.32,9.32,0,0,1-3.26.53Z"/><path class="cls-1" d="M56.21,48.66l20.2,0V79.49a1.63,1.63,0,0,1-1.62,1.63H38.63A1.63,1.63,0,0,1,37,79.49V48.68l19.2,0m0-1.5c-8.06,0-16,0-20.7,0v32.3a3.13,3.13,0,0,0,3.12,3.13H74.79a3.12,3.12,0,0,0,3.12-3.13V47.19c-5.41,0-13.64,0-21.7,0Z"/><path class="cls-1" d="M43.7,21.33a.64.64,0,0,0-.33.08.72.72,0,0,0-.32,1l3.25,6.27L47.58,28l-3.24-6.27a.72.72,0,0,0-.64-.39Z"/><path class="cls-1" d="M69.93,21.25a.72.72,0,0,0-.62.36l-3.6,6.23,1.24.72,3.61-6.23a.71.71,0,0,0-.27-1,.65.65,0,0,0-.36-.1Z"/><path class="cls-1" d="M84.4,47.76a3.06,3.06,0,0,1,3,3.05V70.73a3.06,3.06,0,0,1-6.11,0V50.81a3.06,3.06,0,0,1,3.06-3.05m0-1.5a4.55,4.55,0,0,0-4.56,4.55V70.73a4.56,4.56,0,0,0,9.11,0V50.81a4.55,4.55,0,0,0-4.55-4.55Z"/><path class="cls-1" d="M29,47.76a3.06,3.06,0,0,1,3,3.05V70.73a3.06,3.06,0,0,1-6.11,0V50.81A3.06,3.06,0,0,1,29,47.76m0-1.5a4.55,4.55,0,0,0-4.56,4.55V70.73a4.56,4.56,0,0,0,9.11,0V50.81A4.55,4.55,0,0,0,29,46.26Z"/><path class="cls-1" d="M51.87,85.78V95.2a3.05,3.05,0,0,1-6.1,0V85.78h6.1m1.5-1.5h-9.1V95.2a4.55,4.55,0,0,0,9.1,0V84.28Z"/><path class="cls-1" d="M67.67,85.78V95.2a3.06,3.06,0,0,1-6.11,0V85.78h6.11m1.5-1.5H60.06V95.2a4.56,4.56,0,0,0,9.11,0V84.28Z"/><path class="cls-1" d="M56.71,27.4h0A20.06,20.06,0,0,1,76.37,43.66H37.05A20.07,20.07,0,0,1,56.71,27.4m9.7,11.68a3.28,3.28,0,1,0-3.28-3.28,3.28,3.28,0,0,0,3.28,3.28m-19.36,0a3.28,3.28,0,1,0-3.29-3.28,3.28,3.28,0,0,0,3.29,3.28M56.71,25.9A21.63,21.63,0,0,0,35.3,45.16H78.12A21.61,21.61,0,0,0,56.71,25.9Zm9.7,11.68a1.78,1.78,0,1,1,1.78-1.78,1.78,1.78,0,0,1-1.78,1.78Zm-19.36,0a1.78,1.78,0,1,1,1.78-1.78,1.79,1.79,0,0,1-1.78,1.78Z"/></svg>