<svg id="Layer_1" data-name="Layer 1" xmlns="http://www.w3.org/2000/svg" viewBox="0 0 350 121"><defs><style>.cls-1{fill:#fff;}.cls-2{fill:none;stroke:#fff;stroke-miterlimit:10;stroke-width:2px;}</style></defs><title>Download Button</title><path class="cls-1" d="M344.5,4.9a3.6,3.6,0,0,1,3.6,3.6v104a3.6,3.6,0,0,1-3.6,3.6H7.5a3.6,3.6,0,0,1-3.6-3.6V8.5A3.6,3.6,0,0,1,7.5,4.9h337m0-1.4H7.5a5,5,0,0,0-5,5v104a5,5,0,0,0,5,5h337a5,5,0,0,0,5-5V8.5a5,5,0,0,0-5-5Z"/><path class="cls-2" d="M67.92,33.77c2.89-3.1,4.85-7.39,4.31-11.68A19.53,19.53,0,0,0,60,27.63c-2.68,2.74-5,7.12-4.4,11.32A16.25,16.25,0,0,0,67.92,33.77Zm8.87,29.58c-.09-9.6,7.61-14.22,7.95-14.44A17,17,0,0,0,71.28,41.4c-5.74-.61-11.19,3.47-14.1,3.47S49.8,41.48,45,41.57a17.94,17.94,0,0,0-15.23,9.51c-6.49,11.61-1.66,28.81,4.67,38.23,3.09,4.61,6.78,9.78,11.61,9.59,4.67-.18,6.44-3.1,12.07-3.1s7.22,3.1,12.15,3,8.19-4.7,11.26-9.32a42.78,42.78,0,0,0,5.1-10.79A16.69,16.69,0,0,1,76.79,63.35Z"/><path class="cls-1" d="M215,47.11v1.17h-.28a4,4,0,0,1-1-.16,3.39,3.39,0,0,1-.41-.15,3,3,0,0,1-.38-.23,1.94,1.94,0,0,1-.32-.32,1.34,1.34,0,0,1-.22-.43,2.57,2.57,0,0,1-.5.62,2.84,2.84,0,0,1-.58.42,2.54,2.54,0,0,1-.65.24,3,3,0,0,1-.66.08l-.22,0a1.87,1.87,0,0,1-.34-.07l-.5-.16a6.13,6.13,0,0,1-.71-.27q-.28-.11-.69-.3l-.87-.4-.94-.46-.93-.47-.82-.43-.61-.32V55.53h-1.17V44.72l1.08-.67.81.45,1.4.74a21.36,21.36,0,0,1,.49-2.09,7.54,7.54,0,0,1,.59-1.44,3.7,3.7,0,0,1,1.17-1.28,3,3,0,0,1,1.68-.48,2.82,2.82,0,0,1,1.51.41A3.9,3.9,0,0,1,212,41.43a4.91,4.91,0,0,1,.69,1.46,5.56,5.56,0,0,1,.23,1.59,3,3,0,0,0,.69,2.23l.3.21.29.12.28.05.21,0Zm-3.84-.43a2.19,2.19,0,0,0,.46-.9,4.58,4.58,0,0,0,.16-1.3,4.63,4.63,0,0,0-.16-1.21,4.06,4.06,0,0,0-.47-1.08,2.63,2.63,0,0,0-.74-.78,1.76,1.76,0,0,0-1-.3,2,2,0,0,0-1,.24,2.07,2.07,0,0,0-.76.79,5.71,5.71,0,0,0-.6,1.45,18.44,18.44,0,0,0-.49,2.19q1,.49,1.65.78c.43.19.77.33,1,.42a4.14,4.14,0,0,0,.53.17l.2,0a1.9,1.9,0,0,0,.57-.1A1.38,1.38,0,0,0,211.13,46.68Z"/><path class="cls-1" d="M224.91,47.11v1.17h-1.56a3.7,3.7,0,0,1-1.21-.19,3.25,3.25,0,0,1-1-.54,3,3,0,0,1-.43-.44,2.77,2.77,0,0,1-1.22.88,5.14,5.14,0,0,1-1.78.29h-3.15V47.11h3.15a6.94,6.94,0,0,0,1-.11,2,2,0,0,0,.74-.29,1.45,1.45,0,0,0,.48-.56,2.24,2.24,0,0,0,.18-.9V41.83h1.18v3.42a1.75,1.75,0,0,0,.19.87,1.72,1.72,0,0,0,.48.58,2,2,0,0,0,.67.31,3.06,3.06,0,0,0,.73.1ZM217,53a1,1,0,0,1-.7-.29,1,1,0,1,1,1.4-1.41,1,1,0,0,1,0,1.41A1,1,0,0,1,217,53Zm3.88,0a1,1,0,0,1-.7-1.7,1,1,0,0,1,1.41,0,1,1,0,0,1-.71,1.7Z"/><path class="cls-1" d="M230.21,40a3.1,3.1,0,0,1,1.39.29,3.54,3.54,0,0,1,1.13.81,4,4,0,0,1,.74,1.19,3.7,3.7,0,0,1,.27,1.39,3.23,3.23,0,0,1-.5,1.75,4.71,4.71,0,0,1-1.45,1.43,13.41,13.41,0,0,0,2.57.25h.95v1.17h-.95a13.28,13.28,0,0,1-2.21-.17,11,11,0,0,1-2-.49,11.3,11.3,0,0,1-2.06.49,15.28,15.28,0,0,1-2.41.17H224.5V47.11h1.18a15.49,15.49,0,0,0,2.82-.25,5.83,5.83,0,0,1-.8-.61,4.1,4.1,0,0,1-.64-.75,3.27,3.27,0,0,1-.42-.86,3,3,0,0,1-.15-1,4,4,0,0,1,.27-1.48,3.71,3.71,0,0,1,.77-1.18,3.38,3.38,0,0,1,1.18-.76A3.82,3.82,0,0,1,230.21,40Zm-2.34-2.83a1,1,0,0,1-.7-.29,1,1,0,0,1,0-1.41.94.94,0,0,1,.7-.3.92.92,0,0,1,.7.3,1,1,0,0,1-.7,1.7Zm2.28,9.2a3.52,3.52,0,0,0,.39-.16l.36-.19a5.9,5.9,0,0,0,.58-.39,3.26,3.26,0,0,0,.54-.51,2.83,2.83,0,0,0,.4-.65,2,2,0,0,0,.15-.79,2.86,2.86,0,0,0-.16-.91,2.68,2.68,0,0,0-.47-.8,2.44,2.44,0,0,0-.74-.57,2.12,2.12,0,0,0-1-.22,2.89,2.89,0,0,0-1.05.18,2.13,2.13,0,0,0-.8.5,2.27,2.27,0,0,0-.52.79,2.78,2.78,0,0,0-.18,1,1.87,1.87,0,0,0,.18.83,2.81,2.81,0,0,0,.46.68,3.16,3.16,0,0,0,.62.53,4.73,4.73,0,0,0,.67.4l.27.13Zm1.61-9.2a1,1,0,0,1-.7-1.7.92.92,0,0,1,.7-.3,1,1,0,0,1,.7.3,1,1,0,0,1-.7,1.7Z"/><path class="cls-1" d="M245.38,47.11v1.17h-1.57a3.74,3.74,0,0,1-1.21-.19,3.2,3.2,0,0,1-1-.54,2.53,2.53,0,0,1-.43-.44A2.82,2.82,0,0,1,240,48a5.2,5.2,0,0,1-1.79.29H235V47.11h3.15a6.78,6.78,0,0,0,1-.11,2,2,0,0,0,.75-.29,1.43,1.43,0,0,0,.47-.56,2.41,2.41,0,0,0,.19-.9V41.83h1.17v3.42a1.71,1.71,0,0,0,.68,1.45,2,2,0,0,0,.66.31,3.13,3.13,0,0,0,.73.1Zm-7.24-8.46a1,1,0,0,1-.7-1.7,1,1,0,0,1,.7-.3.92.92,0,0,1,.7.3,1,1,0,0,1-.7,1.7Zm3.89,0a1,1,0,0,1-.7-1.7.92.92,0,0,1,.7-.3.94.94,0,0,1,.7.3,1,1,0,0,1,0,1.41A1,1,0,0,1,242,38.65Z"/><path class="cls-1" d="M261,48.21a3.51,3.51,0,0,1-.8-.23,2.59,2.59,0,0,1-.68-.4A2,2,0,0,1,259,47a3.2,3.2,0,0,1-.22.27c-.08.08-.15.16-.22.22a3.19,3.19,0,0,1-1,.6,3.31,3.31,0,0,1-1.15.2,4.74,4.74,0,0,1-.89-.08,2.69,2.69,0,0,1-1.31-.64,3.56,3.56,0,0,1-.51-.57,3.09,3.09,0,0,1-2.58,1.29,3.8,3.8,0,0,1-1.44-.24,3.11,3.11,0,0,1-1.06-.7,2.09,2.09,0,0,1-.14-.17,1.41,1.41,0,0,1-.14-.18,2,2,0,0,1-.22.27l-.21.22a3.29,3.29,0,0,1-1,.6,3.61,3.61,0,0,1-1.18.2H245V47.11h.93a2.16,2.16,0,0,0,.71-.12,1.94,1.94,0,0,0,.66-.36,1.78,1.78,0,0,0,.48-.65,2.48,2.48,0,0,0,.19-1V41.84h1.17V45a2.23,2.23,0,0,0,.49,1.58,2.49,2.49,0,0,0,2.33.43,1.81,1.81,0,0,0,.63-.36A2,2,0,0,0,253,46a2.68,2.68,0,0,0,.17-1V41.84h1.17V45a2.23,2.23,0,0,0,.5,1.58,2.16,2.16,0,0,0,1.63.55,2.25,2.25,0,0,0,.71-.12,1.81,1.81,0,0,0,.63-.36,1.86,1.86,0,0,0,.46-.65,2.48,2.48,0,0,0,.18-1V41.84h1.17V45c0,1.4.76,2.11,2.27,2.13h.51v1.17h-.52A4.94,4.94,0,0,1,261,48.21Z"/><path class="cls-1" d="M268.4,40.32a2.69,2.69,0,0,1,1.37.37,3.7,3.7,0,0,1,1.15,1.06,4.64,4.64,0,0,1,.69,1.37,4.7,4.7,0,0,1,.25,1.52,8.09,8.09,0,0,1-.07,1,4.86,4.86,0,0,1-.21.95,3.81,3.81,0,0,1-.36.85,2.79,2.79,0,0,1-.54.68,2.43,2.43,0,0,1-.72.45,2.54,2.54,0,0,1-.94.17,3.59,3.59,0,0,1-.93-.12,6.84,6.84,0,0,1-1-.33c-.34-.14-.69-.3-1.07-.5l-1.24-.63a2.29,2.29,0,0,1-2,1.13h-.85V47.11h.85a1.23,1.23,0,0,0,.63-.16,1.48,1.48,0,0,0,.48-.51,4.33,4.33,0,0,0,.39-.89c.11-.35.21-.72.32-1.1s.27-.94.42-1.4a5.48,5.48,0,0,1,.62-1.29A3.16,3.16,0,0,1,268.4,40.32Zm.62,7.24a1.35,1.35,0,0,0,.6-.16,1.36,1.36,0,0,0,.53-.49,2.65,2.65,0,0,0,.38-.91,5.27,5.27,0,0,0,.15-1.36,4,4,0,0,0-.18-1.16,3.75,3.75,0,0,0-.52-1l-.25-.3a1.72,1.72,0,0,0-.35-.3,2.09,2.09,0,0,0-.44-.25,1.62,1.62,0,0,0-.54-.1,2.19,2.19,0,0,0-1,.23,2,2,0,0,0-.71.64,4.3,4.3,0,0,0-.5,1c-.14.4-.28.86-.42,1.37-.07.23-.13.46-.19.69l-.21.64,1.13.59c.35.18.68.34,1,.47a5.15,5.15,0,0,0,.84.31A2.19,2.19,0,0,0,269,47.56Z"/><path class="cls-1" d="M285.25,48.36a9.2,9.2,0,0,1-1.47-.12,7.54,7.54,0,0,1-1.4-.33,5.64,5.64,0,0,1-1.13-.5l-.51-.29.6-1,.51.31a4.26,4.26,0,0,0,1,.41,6.79,6.79,0,0,0,1.16.26,8.52,8.52,0,0,0,1.24.1,7.09,7.09,0,0,0,1.16-.09,3,3,0,0,0,1.05-.37,1.45,1.45,0,0,0,.6-.66,1.38,1.38,0,0,0,.07-.76,2.29,2.29,0,0,0-.36-.85l-1.26-1.89-.89-1.34-.58-.88-.34-.52-.16-.24s0-.06,0-.07l-.32-.5,1-.63.18.28.25.39.4.61.61.92.89,1.35c.35.52.77,1.15,1.24,1.87a3.22,3.22,0,0,1,.56,1.39,2.47,2.47,0,0,1-.16,1.32,2.63,2.63,0,0,1-.94,1.13,4.06,4.06,0,0,1-1.59.6A6.74,6.74,0,0,1,285.25,48.36Z"/><path class="cls-1" d="M294.81,40a4.25,4.25,0,0,1,1.69.39,3.11,3.11,0,0,1,1.15,1,4.16,4.16,0,0,1,.66,1.46,7.81,7.81,0,0,1,.21,1.87v2.38h1.62v1.17h-1.62a5.39,5.39,0,0,1-.42,2.36,4.32,4.32,0,0,1-1.28,1.64,5.71,5.71,0,0,1-2,1,9.56,9.56,0,0,1-2.52.31h-.54V52.38h.54a11.6,11.6,0,0,0,2.08-.23,4.31,4.31,0,0,0,1.57-.67,3.11,3.11,0,0,0,1-1.25,4.81,4.81,0,0,0,.37-1.95h-2a5.49,5.49,0,0,1-1.65-.2,4,4,0,0,1-1.33-.66,3.19,3.19,0,0,1-.9-1.12,3.67,3.67,0,0,1-.32-1.57,8.35,8.35,0,0,1,.2-1.86,4.33,4.33,0,0,1,.65-1.46,3.19,3.19,0,0,1,1.15-1A4.13,4.13,0,0,1,294.81,40Zm2.53,7.07V44.73a8.62,8.62,0,0,0-.14-1.4,3.37,3.37,0,0,0-.4-1.12,2,2,0,0,0-.77-.73,2.43,2.43,0,0,0-1.22-.26,2.62,2.62,0,0,0-1.22.26,2.21,2.21,0,0,0-.78.74,3.38,3.38,0,0,0-.41,1.12,7.58,7.58,0,0,0-.12,1.39,2.46,2.46,0,0,0,.23,1.11,2.09,2.09,0,0,0,.64.74,3,3,0,0,0,1,.4,5.08,5.08,0,0,0,1.2.13Z"/><path class="cls-1" d="M306.27,47.11v1.17h-.21a3.24,3.24,0,0,1-1.49-.35,3.07,3.07,0,0,1-1.11-1,3.37,3.37,0,0,1-.62.63A3,3,0,0,1,302,48a5.09,5.09,0,0,1-1,.23,9.35,9.35,0,0,1-1.23.09V47.11a5.76,5.76,0,0,0,1.67-.2,2.21,2.21,0,0,0,.94-.52,1.47,1.47,0,0,0,.42-.73,3.37,3.37,0,0,0,.1-.83V34.66h1.17V44.93a2.56,2.56,0,0,0,.15.89,2.05,2.05,0,0,0,.4.69,1.88,1.88,0,0,0,.63.44,2.09,2.09,0,0,0,.81.16Z"/><path class="cls-1" d="M311,41.51c.08.33.15.68.21,1s.11.71.16,1.07.07.71.08,1a4.24,4.24,0,0,1-.19,1.33,3.81,3.81,0,0,1-.6,1.17,3,3,0,0,1-1,.82,2.57,2.57,0,0,1-1.27.31h-2.49V47.11h2.49a1.75,1.75,0,0,0,.8-.24,1.9,1.9,0,0,0,.58-.55,2.53,2.53,0,0,0,.36-.76,3.27,3.27,0,0,0,.11-.88c0-.3,0-.62-.07-1s-.1-.66-.16-1-.12-.64-.19-.94-.14-.59-.2-.85l1.13-.34Q310.87,41,311,41.51Zm-1.51-3.88a1.06,1.06,0,0,1-1.06-1.07,1,1,0,0,1,.31-.76,1,1,0,0,1,.75-.31,1,1,0,0,1,.75.31,1,1,0,0,1,.31.76,1,1,0,0,1-.31.76A1,1,0,0,1,309.46,37.63Z"/><path class="cls-1" d="M315.66,48.28h-1.19V34.66h1.19Z"/><path class="cls-1" d="M322.66,48.36a9.11,9.11,0,0,1-1.47-.12,7.54,7.54,0,0,1-1.4-.33,5.64,5.64,0,0,1-1.13-.5l-.51-.29.6-1,.51.31a4.18,4.18,0,0,0,.95.41,7.13,7.13,0,0,0,1.17.26,8.39,8.39,0,0,0,1.23.1,6.92,6.92,0,0,0,1.16-.09,3,3,0,0,0,1.06-.37,1.34,1.34,0,0,0,.67-1.42,2.29,2.29,0,0,0-.36-.85l-1.26-1.89L323,41.22l-.58-.88-.34-.52-.16-.24s-.05-.06-.05-.07l-.31-.5,1-.63a3.23,3.23,0,0,0,.18.28l.25.39.4.61.61.92.89,1.35,1.24,1.87a3.34,3.34,0,0,1,.56,1.39,2.38,2.38,0,0,1-.17,1.32,2.54,2.54,0,0,1-.93,1.13,4.17,4.17,0,0,1-1.6.6A6.71,6.71,0,0,1,322.66,48.36Z"/><path class="cls-1" d="M142.15,29.62a1.52,1.52,0,1,1,3,0,1.52,1.52,0,0,1-3,0Zm.64,5.89h1.67V53.75h-1.67Z"/><path class="cls-1" d="M149.93,41.13c0-7.9,4.3-12.88,10.34-12.88s10.3,5,10.3,12.88-4.3,13.07-10.3,13.07S149.93,49.07,149.93,41.13Zm18.81,0c0-6.91-3.42-11.28-8.47-11.28s-8.51,4.37-8.51,11.28,3.42,11.48,8.51,11.48S168.74,48.08,168.74,41.13Z"/><path class="cls-1" d="M175.24,49.22a9.86,9.86,0,0,0,7.37,3.39c3.8,0,6.23-2.06,6.23-5,0-3.11-2.05-4.14-4.52-5.24l-3.8-1.71c-2.16-1-5.05-2.51-5.05-6.23s3.12-6.16,7.26-6.16a9.54,9.54,0,0,1,7,3l-1,1.18a7.92,7.92,0,0,0-6-2.58c-3.31,0-5.51,1.75-5.51,4.48,0,2.89,2.51,4,4.33,4.83l3.8,1.67c2.77,1.25,5.24,2.81,5.24,6.65s-3.15,6.72-8,6.72a11.06,11.06,0,0,1-8.43-3.76Z"/><path class="cls-1" d="M241,88.76a6.23,6.23,0,0,1-2.11-.35,5.34,5.34,0,0,1-1.66-1,4.37,4.37,0,0,1-1.1-1.46,4.23,4.23,0,0,1-.4-1.84,6.74,6.74,0,0,1,.34-2.25,7.31,7.31,0,0,1,.86-1.75A10.94,10.94,0,0,1,238,78.7c.42-.43.82-.85,1.2-1.27l-.79-.88,1.78-1.61c.44.49.9,1,1.37,1.48s.93,1,1.38,1.5.87,1,1.27,1.52a14.05,14.05,0,0,1,1,1.51,8.5,8.5,0,0,1,.7,1.51,4.22,4.22,0,0,1,.25,1.5,5,5,0,0,1-.41,1.93,4.72,4.72,0,0,1-1.17,1.58,5,5,0,0,1-1.66,1A5.89,5.89,0,0,1,241,88.76Zm-.16-9.61c-.33.36-.65.73-1,1.09a9.54,9.54,0,0,0-.87,1.14,6.23,6.23,0,0,0-.62,1.27,4.39,4.39,0,0,0-.24,1.49,1.81,1.81,0,0,0,.25,1,2.12,2.12,0,0,0,.64.69,3.07,3.07,0,0,0,.92.41,4.08,4.08,0,0,0,1.05.13,4,4,0,0,0,1.18-.17,2.6,2.6,0,0,0,.9-.49,2.19,2.19,0,0,0,.78-1.73,3.08,3.08,0,0,0-.26-1.25,6.28,6.28,0,0,0-.7-1.22,11.42,11.42,0,0,0-1-1.18Z"/><path class="cls-1" d="M263.64,86.35v2.41h-.47a4.93,4.93,0,0,1-3.5-1.58,4.81,4.81,0,0,1-3.35,1.63c-.29,0-.61.08-.94.1s-.67,0-1,0-.87,0-1.31-.06-.87-.1-1.29-.18a9.47,9.47,0,0,1-1.22-.31,6.38,6.38,0,0,1-1.05-.47l-1-.61,1.2-2.1,1.05.61a4.07,4.07,0,0,0,1.09.41,8.33,8.33,0,0,0,1.37.23,10.13,10.13,0,0,0,1.46,0,11.61,11.61,0,0,0,1.38-.1,5,5,0,0,0,1.21-.33,1.16,1.16,0,0,0,.61-.48.62.62,0,0,0,.06-.61,3.49,3.49,0,0,0-.43-.87l-4.77-7.27,2-1.33,4.94,7.54.77,1.13a9.78,9.78,0,0,0,.82,1,4.73,4.73,0,0,0,.91.79,1.87,1.87,0,0,0,1.05.31Z"/><path class="cls-1" d="M273.76,86.35v2.41h-1a5.84,5.84,0,0,1-2-.33,3.2,3.2,0,0,1-1.42-1,5.29,5.29,0,0,1-3.92,1.33h-2.44V86.35h2.44a4.67,4.67,0,0,0,1.45-.18,2.19,2.19,0,0,0,.81-.46,1.29,1.29,0,0,0,.36-.61,3,3,0,0,0,.08-.64V80.15h2.4v4.22a2.13,2.13,0,0,0,.13.8,1.83,1.83,0,0,0,.37.55,1.64,1.64,0,0,0,.49.35,2.62,2.62,0,0,0,.53.19,2.12,2.12,0,0,0,.46.08h1.3Zm-5.22-10.27a1.75,1.75,0,0,1-1.28-.53,1.79,1.79,0,0,1-.53-1.29,1.75,1.75,0,0,1,.53-1.28,1.8,1.8,0,0,1,2.57,0,1.75,1.75,0,0,1,.53,1.28,1.79,1.79,0,0,1-.53,1.29A1.76,1.76,0,0,1,268.54,76.08Z"/><path class="cls-1" d="M280.26,78.4a3.94,3.94,0,0,1,.1.41c.05.22.11.49.18.82s.13.68.21,1.08.14.79.2,1.19.11.8.15,1.17a9.57,9.57,0,0,1,.07,1,5.06,5.06,0,0,1-.41,2.11,4.25,4.25,0,0,1-1,1.46,4.41,4.41,0,0,1-1.44.86,5.11,5.11,0,0,1-1.62.28h-3.25V86.35h3.25a3.36,3.36,0,0,0,.54-.06,1.72,1.72,0,0,0,.7-.28,1.89,1.89,0,0,0,.61-.69,2.51,2.51,0,0,0,.26-1.27,6.85,6.85,0,0,0,0-.71c0-.28-.07-.59-.12-.91s-.1-.67-.16-1-.11-.67-.17-1-.12-.58-.17-.82-.09-.41-.13-.53Zm-2.09-3.46a1.7,1.7,0,0,1-1.27-.54,1.73,1.73,0,0,1-.53-1.28,1.75,1.75,0,0,1,.53-1.29,1.69,1.69,0,0,1,1.27-.53,1.76,1.76,0,0,1,1.3.53,1.78,1.78,0,0,1,.52,1.29,1.81,1.81,0,0,1-1.82,1.82Z"/><path class="cls-1" d="M287.29,88.75h-2.41V70.6h2.41Z"/><path class="cls-1" d="M286.17,95.82v-2.4h1.75a7.33,7.33,0,0,0,2.28-.32,3.66,3.66,0,0,0,1.59-1,3.92,3.92,0,0,0,.93-1.65A8.45,8.45,0,0,0,293,88.1V80.15h2.41V88.1a10.23,10.23,0,0,1-.48,3.25,6.28,6.28,0,0,1-1.42,2.42,6.13,6.13,0,0,1-2.34,1.52,9.1,9.1,0,0,1-3.26.53Z"/></svg>