<svg id="Layer_1" data-name="Layer 1" xmlns="http://www.w3.org/2000/svg" viewBox="0 0 350 114"><defs><style>.cls-1{fill:#fff;}</style></defs><title>Download Button</title><path class="cls-1" d="M343.5,1.4A3.6,3.6,0,0,1,347.1,5V109a3.6,3.6,0,0,1-3.6,3.6H6.5A3.6,3.6,0,0,1,2.9,109V5A3.6,3.6,0,0,1,6.5,1.4h337m0-1.4H6.5a5,5,0,0,0-5,5V109a5,5,0,0,0,5,5h337a5,5,0,0,0,5-5V5a5,5,0,0,0-5-5Z"/><path class="cls-1" d="M228.15,44.12v1.17h-.28a4,4,0,0,1-1-.16l-.41-.15-.38-.23a1.94,1.94,0,0,1-.32-.32,1.34,1.34,0,0,1-.22-.43,2.8,2.8,0,0,1-.49.62,2.9,2.9,0,0,1-.59.42,2.54,2.54,0,0,1-.65.24,3,3,0,0,1-.66.08l-.22,0a1.87,1.87,0,0,1-.34-.07l-.5-.16a6.13,6.13,0,0,1-.71-.27q-.28-.11-.69-.3l-.87-.4-.94-.46-.93-.47-.82-.43-.61-.32V52.54h-1.17V41.73l1.08-.67.81.45,1.4.74a21.36,21.36,0,0,1,.49-2.09,7.54,7.54,0,0,1,.59-1.44,3.7,3.7,0,0,1,1.17-1.28,3,3,0,0,1,1.68-.48,2.82,2.82,0,0,1,1.51.41,3.9,3.9,0,0,1,1.11,1.07,4.91,4.91,0,0,1,.69,1.46,5.58,5.58,0,0,1,.24,1.59,3,3,0,0,0,.68,2.22,1.37,1.37,0,0,0,.3.21,1,1,0,0,0,.29.12l.28.06.21,0Zm-3.84-.43a2.19,2.19,0,0,0,.46-.9,4.58,4.58,0,0,0,.16-1.3,4.63,4.63,0,0,0-.16-1.21,4.06,4.06,0,0,0-.47-1.08,2.63,2.63,0,0,0-.74-.78,1.76,1.76,0,0,0-1-.3,2,2,0,0,0-1,.24,2.07,2.07,0,0,0-.76.79,6.09,6.09,0,0,0-.6,1.45,18.44,18.44,0,0,0-.49,2.19c.67.33,1.23.59,1.65.78s.78.33,1,.42a4.72,4.72,0,0,0,.53.17l.2,0a1.9,1.9,0,0,0,.57-.1A1.27,1.27,0,0,0,224.31,43.69Z"/><path class="cls-1" d="M238.09,44.12v1.17h-1.56a3.7,3.7,0,0,1-1.21-.19,3.25,3.25,0,0,1-1-.54,3,3,0,0,1-.43-.44,2.77,2.77,0,0,1-1.22.88,5.14,5.14,0,0,1-1.78.29h-3.15V44.12h3.15a6.94,6.94,0,0,0,1-.11,1.94,1.94,0,0,0,.75-.3,1.33,1.33,0,0,0,.47-.55,2.28,2.28,0,0,0,.18-.9V38.84h1.18v3.42a1.75,1.75,0,0,0,.19.87,1.84,1.84,0,0,0,.48.58,2,2,0,0,0,.67.31,3.06,3.06,0,0,0,.73.1ZM230.2,50a1,1,0,0,1-.7-.29,1,1,0,0,1,0-1.41,1,1,0,0,1,1.69.7,1,1,0,0,1-.29.71A1,1,0,0,1,230.2,50Zm3.88,0a1,1,0,0,1-.7-1.7,1,1,0,0,1,1.41,0,1,1,0,0,1-.71,1.7Z"/><path class="cls-1" d="M243.39,37a3.17,3.17,0,0,1,1.4.29,3.61,3.61,0,0,1,1.12.81,4,4,0,0,1,.74,1.19,3.7,3.7,0,0,1,.27,1.39,3.23,3.23,0,0,1-.5,1.75A4.71,4.71,0,0,1,245,43.87a13.41,13.41,0,0,0,2.57.25h1v1.17h-1a14.45,14.45,0,0,1-2.21-.17,11,11,0,0,1-2-.49,11.1,11.1,0,0,1-2.06.49,16.57,16.57,0,0,1-2.41.17h-1.18V44.12h1.18a15.41,15.41,0,0,0,2.82-.25,5.83,5.83,0,0,1-.8-.61,4.1,4.1,0,0,1-.64-.75,3.27,3.27,0,0,1-.42-.86,3,3,0,0,1-.15-1,3.79,3.79,0,0,1,.28-1.48,3.53,3.53,0,0,1,.76-1.18,3.38,3.38,0,0,1,1.18-.76A3.82,3.82,0,0,1,243.39,37Zm-2.34-2.83a1,1,0,0,1-.7-1.7,1,1,0,0,1,.7-.3.92.92,0,0,1,.7.3,1,1,0,0,1-.7,1.7Zm2.28,9.2a3.52,3.52,0,0,0,.39-.16l.36-.19a5.9,5.9,0,0,0,.58-.39,3.26,3.26,0,0,0,.54-.51,2.53,2.53,0,0,0,.4-.65,2,2,0,0,0,.15-.79,2.61,2.61,0,0,0-.16-.91,2.68,2.68,0,0,0-.47-.8,2.33,2.33,0,0,0-.74-.57,2.12,2.12,0,0,0-1-.22,2.89,2.89,0,0,0-1,.18,2.13,2.13,0,0,0-.8.5,2.41,2.41,0,0,0-.52.79,2.78,2.78,0,0,0-.18,1,1.87,1.87,0,0,0,.18.83,2.81,2.81,0,0,0,.46.68,3.48,3.48,0,0,0,.62.53,5.91,5.91,0,0,0,.67.4l.27.13Zm1.61-9.2a1,1,0,0,1-.7-1.7.92.92,0,0,1,.7-.3.94.94,0,0,1,.7.3,1,1,0,0,1,0,1.41A1,1,0,0,1,244.94,34.18Z"/><path class="cls-1" d="M258.56,44.12v1.17H257a3.74,3.74,0,0,1-1.21-.19,3.32,3.32,0,0,1-1-.54,2.53,2.53,0,0,1-.43-.44,2.77,2.77,0,0,1-1.22.88,5.2,5.2,0,0,1-1.79.29h-3.15V44.12h3.15a6.78,6.78,0,0,0,1-.11,1.82,1.82,0,0,0,.75-.3,1.33,1.33,0,0,0,.47-.55,2.27,2.27,0,0,0,.19-.9V38.84h1.17v3.42a1.87,1.87,0,0,0,.19.87,1.74,1.74,0,0,0,.49.58,2,2,0,0,0,.66.31,3.13,3.13,0,0,0,.73.1Zm-7.24-8.46a1,1,0,0,1-.7-1.7A1,1,0,0,1,252,34a1,1,0,0,1-.71,1.7Zm3.89,0a1,1,0,0,1-.7-1.7.92.92,0,0,1,.7-.3.94.94,0,0,1,.7.3,1,1,0,0,1,0,1.41A1,1,0,0,1,255.21,35.66Z"/><path class="cls-1" d="M274.19,45.22a3.51,3.51,0,0,1-.8-.23,2.59,2.59,0,0,1-.68-.4,2,2,0,0,1-.5-.59,2,2,0,0,1-.22.27l-.22.22a3,3,0,0,1-1,.59,3.19,3.19,0,0,1-1.16.21,4.74,4.74,0,0,1-.89-.08A2.65,2.65,0,0,1,268,45a2.56,2.56,0,0,1-.59-.4,3.56,3.56,0,0,1-.51-.57,3.09,3.09,0,0,1-2.58,1.29,3.8,3.8,0,0,1-1.44-.24,3.11,3.11,0,0,1-1.06-.7,2.09,2.09,0,0,1-.14-.17.83.83,0,0,1-.13-.18l-.22.27-.22.22a3.07,3.07,0,0,1-1,.59,3.33,3.33,0,0,1-1.18.21h-.82V44.12h.93a2.27,2.27,0,0,0,.72-.12,2.19,2.19,0,0,0,.65-.36,1.78,1.78,0,0,0,.48-.65,2.51,2.51,0,0,0,.19-1V38.85h1.17V42a2.28,2.28,0,0,0,.49,1.58,2.16,2.16,0,0,0,1.63.55,2.1,2.1,0,0,0,.7-.12,1.71,1.71,0,0,0,1.08-1,2.72,2.72,0,0,0,.17-1V38.85h1.17V42a2.23,2.23,0,0,0,.5,1.58,2.16,2.16,0,0,0,1.63.55,2.21,2.21,0,0,0,.71-.12,2,2,0,0,0,.63-.36,1.86,1.86,0,0,0,.46-.65,2.52,2.52,0,0,0,.18-1V38.85h1.17V42c0,1.4.76,2.11,2.27,2.13h.51v1.17h-.52A4.94,4.94,0,0,1,274.19,45.22Z"/><path class="cls-1" d="M281.58,37.33a2.66,2.66,0,0,1,1.37.37,3.7,3.7,0,0,1,1.15,1.06,4.64,4.64,0,0,1,.69,1.37,4.7,4.7,0,0,1,.25,1.52,6.59,6.59,0,0,1-.07,1,5.71,5.71,0,0,1-.2,1,4.36,4.36,0,0,1-.37.85,2.79,2.79,0,0,1-.54.68,2.43,2.43,0,0,1-.72.45,2.54,2.54,0,0,1-.94.17,3.59,3.59,0,0,1-.93-.12,6.84,6.84,0,0,1-1-.33c-.34-.14-.69-.31-1.07-.5L278,44.16a2.29,2.29,0,0,1-2,1.13h-.85V44.12H276a1.23,1.23,0,0,0,.63-.16,1.48,1.48,0,0,0,.48-.51,4.33,4.33,0,0,0,.39-.89c.11-.35.21-.72.32-1.1s.27-.94.42-1.4a5.3,5.3,0,0,1,.62-1.29A3.16,3.16,0,0,1,281.58,37.33Zm.62,7.23a1.33,1.33,0,0,0,.6-.15,1.44,1.44,0,0,0,.53-.49,2.86,2.86,0,0,0,.39-.91,5.8,5.8,0,0,0,.14-1.36,4,4,0,0,0-.18-1.16,3.75,3.75,0,0,0-.52-1l-.25-.3a2,2,0,0,0-.34-.3,2.46,2.46,0,0,0-.45-.25,1.62,1.62,0,0,0-.54-.1,2.19,2.19,0,0,0-1,.23,2,2,0,0,0-.71.64,4.3,4.3,0,0,0-.5,1c-.14.4-.28.86-.42,1.37-.06.23-.13.46-.19.69l-.21.64,1.13.59c.35.18.68.34,1,.47a5.15,5.15,0,0,0,.84.31A2,2,0,0,0,282.2,44.56Z"/><path class="cls-1" d="M295.58,45.37a9.3,9.3,0,0,1-1.47-.12,7.43,7.43,0,0,1-1.39-.33,6,6,0,0,1-1.14-.5l-.5-.29.6-1,.5.31a4.78,4.78,0,0,0,1,.41,8.52,8.52,0,0,0,1.16.26,10.2,10.2,0,0,0,1.24.1,7,7,0,0,0,1.16-.09,2.89,2.89,0,0,0,1.06-.38,1.41,1.41,0,0,0,.59-.65,1.3,1.3,0,0,0,.07-.76,2.29,2.29,0,0,0-.36-.85l-1.26-1.89-.88-1.34c-.25-.36-.44-.66-.59-.88l-.33-.52-.17-.24a.28.28,0,0,1,0-.07l-.32-.5,1-.63.17.28c.07.1.16.23.26.39l.39.61c.17.24.37.55.61.92l.9,1.35L299,40.81a3.48,3.48,0,0,1,.56,1.39,2.47,2.47,0,0,1-.17,1.32,2.5,2.5,0,0,1-.94,1.13,4.06,4.06,0,0,1-1.59.6A6.74,6.74,0,0,1,295.58,45.37Z"/><path class="cls-1" d="M305.15,37.05a4.29,4.29,0,0,1,1.69.39,3.19,3.19,0,0,1,1.15,1,4.33,4.33,0,0,1,.65,1.46,7.81,7.81,0,0,1,.21,1.87v2.38h1.62v1.17h-1.62a5.39,5.39,0,0,1-.42,2.36,4.23,4.23,0,0,1-1.28,1.64,5.54,5.54,0,0,1-2,1,9.48,9.48,0,0,1-2.51.31h-.55V49.39h.55a11.38,11.38,0,0,0,2.07-.23,4.24,4.24,0,0,0,1.57-.67,3,3,0,0,0,1-1.25,5,5,0,0,0,.38-2h-2a5.49,5.49,0,0,1-1.65-.2,4,4,0,0,1-1.33-.66,3.06,3.06,0,0,1-.89-1.12,3.52,3.52,0,0,1-.33-1.57,7.73,7.73,0,0,1,.21-1.86,4.14,4.14,0,0,1,.65-1.46,3.16,3.16,0,0,1,1.14-1A4.14,4.14,0,0,1,305.15,37.05Zm2.53,7.07V41.74a9.9,9.9,0,0,0-.14-1.4,3.38,3.38,0,0,0-.41-1.12,2,2,0,0,0-.76-.73,2.48,2.48,0,0,0-1.22-.26,2.67,2.67,0,0,0-1.23.26,2.1,2.1,0,0,0-.77.74,3.17,3.17,0,0,0-.41,1.12,7.58,7.58,0,0,0-.12,1.39,2.34,2.34,0,0,0,.23,1.11,1.91,1.91,0,0,0,.64.74,2.78,2.78,0,0,0,1,.4,4.93,4.93,0,0,0,1.19.13Z"/><path class="cls-1" d="M316.6,44.12v1.17h-.21a3.24,3.24,0,0,1-1.49-.35,3,3,0,0,1-1.11-1,2.69,2.69,0,0,1-.62.64,3,3,0,0,1-.82.41,4.79,4.79,0,0,1-1,.23,9.09,9.09,0,0,1-1.23.09V44.12a5.71,5.71,0,0,0,1.67-.2,2.31,2.31,0,0,0,1-.52,1.64,1.64,0,0,0,.42-.73,3.93,3.93,0,0,0,.09-.84V31.67h1.18V41.94a2.56,2.56,0,0,0,.14.89,2,2,0,0,0,.4.68,1.87,1.87,0,0,0,.63.45,2.09,2.09,0,0,0,.81.16Z"/><path class="cls-1" d="M321.31,38.52c.07.33.14.68.2,1s.12.71.16,1.07.07.71.09,1a4.25,4.25,0,0,1-.2,1.33,3.81,3.81,0,0,1-.6,1.17,3,3,0,0,1-1,.82,2.54,2.54,0,0,1-1.27.31h-2.48V44.12h2.48a1.79,1.79,0,0,0,.81-.24,2,2,0,0,0,.58-.55,2.78,2.78,0,0,0,.35-.76,2.91,2.91,0,0,0,.11-.88,8,8,0,0,0-.07-.95q-.06-.5-.15-1c-.06-.32-.13-.64-.2-.94s-.14-.59-.2-.85l1.14-.34Q321.19,38,321.31,38.52Zm-1.52-3.88a1.06,1.06,0,0,1-.75-.31,1,1,0,0,1-.31-.76,1,1,0,0,1,.31-.76,1.07,1.07,0,0,1,1.51,0,1.08,1.08,0,0,1,.31.76,1.06,1.06,0,0,1-1.07,1.07Z"/><path class="cls-1" d="M326,45.29H324.8V31.67H326Z"/><path class="cls-1" d="M333,45.37a9.3,9.3,0,0,1-1.47-.12,7.25,7.25,0,0,1-1.39-.33,5.74,5.74,0,0,1-1.14-.5l-.51-.29.61-1,.5.31a4.78,4.78,0,0,0,1,.41,8.2,8.2,0,0,0,1.16.26,10.2,10.2,0,0,0,1.24.1,7.09,7.09,0,0,0,1.16-.09,2.89,2.89,0,0,0,1.06-.38,1.41,1.41,0,0,0,.59-.65,1.38,1.38,0,0,0,.07-.76,2.29,2.29,0,0,0-.36-.85l-1.26-1.89-.89-1.34-.58-.88-.34-.52-.16-.24a.28.28,0,0,1,0-.07l-.32-.5,1-.63.17.28.25.39.4.61.61.92.9,1.35,1.24,1.87A3.32,3.32,0,0,1,337,42.2a2.47,2.47,0,0,1-.16,1.32,2.56,2.56,0,0,1-.94,1.13,4.06,4.06,0,0,1-1.59.6A6.74,6.74,0,0,1,333,45.37Z"/><path class="cls-1" d="M209.45,92.83v-2.4h1.76a7.31,7.31,0,0,0,2.27-.32,3.66,3.66,0,0,0,1.59-1A3.92,3.92,0,0,0,216,87.5a8.43,8.43,0,0,0,.3-2.39v-8h2.4v8a10.23,10.23,0,0,1-.48,3.25,6.28,6.28,0,0,1-1.42,2.42,6.13,6.13,0,0,1-2.34,1.52,9.27,9.27,0,0,1-3.25.53Z"/><path class="cls-1" d="M228.25,85.77a11.1,11.1,0,0,1-2.08-.19,5.24,5.24,0,0,1-1.48-.49,2.9,2.9,0,0,1-1-.82,3.68,3.68,0,0,1-.56-1.14,6.41,6.41,0,0,1-.27-1.47c0-.55-.07-1.15-.07-1.81V67.61h2.41V79.85a17.21,17.21,0,0,0,.07,1.79,2.05,2.05,0,0,0,.37,1.07,1.54,1.54,0,0,0,.9.51,9.76,9.76,0,0,0,1.68.14Z"/><path class="cls-1" d="M234.8,75.41s0,.18.1.4.11.5.17.83.14.68.21,1.08.15.79.21,1.19.11.8.15,1.17a9.29,9.29,0,0,1,.06,1,5.06,5.06,0,0,1-.4,2.11,4.35,4.35,0,0,1-1,1.46,4.41,4.41,0,0,1-1.44.86,5.11,5.11,0,0,1-1.62.28H228V83.36h3.25a3.36,3.36,0,0,0,.54-.06,1.72,1.72,0,0,0,.7-.28,1.89,1.89,0,0,0,.61-.69,2.62,2.62,0,0,0,.26-1.27,6.85,6.85,0,0,0,0-.71c0-.28-.07-.59-.12-.91s-.1-.67-.16-1-.12-.67-.17-1-.12-.58-.17-.82a5.12,5.12,0,0,0-.13-.53Zm-2.29,16.84a1.72,1.72,0,0,1-1.28-.54,1.82,1.82,0,0,1,0-2.57,1.82,1.82,0,0,1,2.57,0,1.82,1.82,0,0,1,0,2.57A1.73,1.73,0,0,1,232.51,92.25Z"/><path class="cls-1" d="M274.62,83.38v2.39H274a5.25,5.25,0,0,1-2-.38,4.54,4.54,0,0,1-1.63-1.14,4,4,0,0,1-1.47.91,8.49,8.49,0,0,1-1.54.37c-.59.08-1.26.14-2,.18s-1.62.06-2.58.07h-5.69c-.78,0-1.51,0-2.2-.06s-1.33-.09-1.92-.16a12.59,12.59,0,0,1-1.66-.31,5.28,5.28,0,0,1-2.73-1.57,4.46,4.46,0,0,1-1.05-3.1,9.63,9.63,0,0,1,.1-1.31c.06-.43.13-.83.21-1.19s.15-.66.21-.89a3.25,3.25,0,0,1,.11-.38l2.29.7c-.11.39-.2.73-.26,1s-.13.63-.18,1a6.35,6.35,0,0,0-.08,1,2.9,2.9,0,0,0,.11.88,1.62,1.62,0,0,0,.34.65,2,2,0,0,0,.62.47,4.55,4.55,0,0,0,.94.35,14.53,14.53,0,0,0,3.22.4c1.28,0,2.75.06,4.4.06h3.58c1,0,1.88,0,2.59-.1a10.56,10.56,0,0,0,1.75-.25,2.66,2.66,0,0,0,1.07-.47,1.58,1.58,0,0,0,.52-.77,4.25,4.25,0,0,0,.14-1.15V77.16h2.4v4a2.25,2.25,0,0,0,.21,1,2,2,0,0,0,.54.7,2.25,2.25,0,0,0,.76.41,2.85,2.85,0,0,0,.85.14Zm-14.95,8.85a1.75,1.75,0,0,1-1.28-.53,1.79,1.79,0,0,1-.53-1.29,1.75,1.75,0,0,1,.53-1.28,1.8,1.8,0,0,1,2.57,0,1.75,1.75,0,0,1,.53,1.28A1.79,1.79,0,0,1,261,91.7,1.76,1.76,0,0,1,259.67,92.23Z"/><path class="cls-1" d="M290.93,80.68l-.66.44c-.39.26-.91.59-1.56,1s-1.41.79-2.28,1.22a25.71,25.71,0,0,1-2.79,1.19,23.94,23.94,0,0,1-3.12.91,14.56,14.56,0,0,1-3.26.37h-2.85V83.36h2.85a12.44,12.44,0,0,0,2.88-.34,21.26,21.26,0,0,0,2.81-.84,25.66,25.66,0,0,0,2.53-1.09c.79-.39,1.48-.77,2.07-1.11-.82-.33-1.64-.66-2.46-1l-2.24-.83c-.68-.25-1.27-.44-1.75-.6a7.79,7.79,0,0,0-1-.26l-.45,0a1.05,1.05,0,0,0-.46.23,1.88,1.88,0,0,0-.45.6,5.5,5.5,0,0,0-.41,1.12L276,78.69c.66-2.51,2-3.77,4.13-3.77h.2a2.49,2.49,0,0,1,.37.06l.65.18,1,.34c.42.14.93.33,1.53.55l2.16.84,4.51,1.66Z"/><path class="cls-1" d="M300.24,85.77a11.19,11.19,0,0,1-2.08-.19,5.28,5.28,0,0,1-1.47-.49,2.81,2.81,0,0,1-1-.82,3.93,3.93,0,0,1-.57-1.14,7,7,0,0,1-.26-1.47c-.05-.55-.07-1.15-.07-1.81V67.61h2.41V79.85a17.21,17.21,0,0,0,.07,1.79,2,2,0,0,0,.37,1.07,1.54,1.54,0,0,0,.9.51,9.63,9.63,0,0,0,1.67.14Z"/><path class="cls-1" d="M300,85.77V83.36h2.08a4.54,4.54,0,0,0,1.42-.18,2,2,0,0,0,.82-.45,1.37,1.37,0,0,0,.37-.6,2.46,2.46,0,0,0,.08-.65v-4.3h2.4v4.2a1.78,1.78,0,0,0,.3,1.1,1.89,1.89,0,0,0,.68.59l.3-.49c.09-.17.19-.33.3-.5.33-.55.67-1.1,1-1.66s.74-1.12,1.14-1.66a18.82,18.82,0,0,1,1.26-1.52A8.47,8.47,0,0,1,313.57,76a6.93,6.93,0,0,1,1.56-.84,4.94,4.94,0,0,1,1.76-.31,5.28,5.28,0,0,1,1.83.33,4.41,4.41,0,0,1,1.59,1,5.08,5.08,0,0,1,1.13,1.8,7.07,7.07,0,0,1,.43,2.61A5.53,5.53,0,0,1,321.4,83a4.64,4.64,0,0,1-1.2,1.59,4.54,4.54,0,0,1-1.65.88,6.46,6.46,0,0,1-1.81.27h-7.28a5.19,5.19,0,0,1-1.73-.28,4.45,4.45,0,0,1-1.44-.78,3.47,3.47,0,0,1-.29-.25,4.22,4.22,0,0,1-1.61,1,7.38,7.38,0,0,1-2.22.35Zm16.74-2.41a3.67,3.67,0,0,0,1.13-.17,2.25,2.25,0,0,0,.87-.52,2.22,2.22,0,0,0,.56-.85,3.28,3.28,0,0,0,.2-1.18,3.91,3.91,0,0,0-.7-2.51,2.31,2.31,0,0,0-1.91-.89,3,3,0,0,0-1.72.57,8.39,8.39,0,0,0-1.61,1.47,18.35,18.35,0,0,0-1.47,2c-.46.72-.91,1.42-1.32,2.11Z"/><path class="cls-1" d="M114.42,40.2h-8.87l-2.62,7.68h-1.6l7.92-22.4h1.57l7.88,22.4H117ZM114,38.87l-1.43-4.18c-.88-2.65-1.7-5-2.48-7.75h-.14c-.78,2.75-1.56,5.1-2.48,7.75L106,38.87Z"/><path class="cls-1" d="M122,31.56h1.29l.14,2.52h.1c1.67-1.67,3.37-2.93,5.61-2.93,3.36,0,4.93,2,4.93,6.26V47.88h-1.5V37.61c0-3.46-1.09-5.1-3.74-5.1-1.93,0-3.33,1-5.34,3.06V47.88H122Z"/><path class="cls-1" d="M145.94,31.15a7.53,7.53,0,0,1,4.93,2l-.07-3V23.44h1.5V47.88H151l-.13-2.11h-.1a7.64,7.64,0,0,1-5.31,2.52c-4.11,0-6.76-3-6.76-8.53C138.7,34.49,142.06,31.15,145.94,31.15ZM145.67,47c1.8,0,3.4-1,5.13-2.68V34.59A6.9,6.9,0,0,0,146,32.48c-3.26,0-5.75,3.16-5.75,7.28C140.29,44.07,142.2,47,145.67,47Z"/><path class="cls-1" d="M158.55,31.56h1.29l.14,3h.1c1.09-2,2.69-3.44,4.63-3.44a3.39,3.39,0,0,1,1.63.34L166,32.85a3.65,3.65,0,0,0-1.5-.27c-1.46,0-3.19,1.12-4.45,4.18V47.88h-1.5Z"/><path class="cls-1" d="M174.94,31.15c3.94,0,7.34,3.13,7.34,8.61s-3.4,8.53-7.34,8.53-7.31-3.13-7.31-8.53S171,31.15,174.94,31.15Zm0,15.81c3.3,0,5.78-2.92,5.78-7.2s-2.48-7.28-5.78-7.28-5.75,3-5.75,7.28S171.64,47,174.94,47Z"/><path class="cls-1" d="M186.6,26.29a1.36,1.36,0,1,1,2.72,0,1.36,1.36,0,0,1-2.72,0Zm.58,5.27h1.5V47.88h-1.5Z"/><path class="cls-1" d="M200.85,31.15a7.55,7.55,0,0,1,4.93,2l-.07-3V23.44h1.5V47.88h-1.3l-.13-2.11h-.11a7.6,7.6,0,0,1-5.3,2.52c-4.11,0-6.76-3-6.76-8.53C193.61,34.49,197,31.15,200.85,31.15ZM200.58,47c1.8,0,3.39-1,5.13-2.68V34.59A6.91,6.91,0,0,0,201,32.48c-3.26,0-5.75,3.16-5.75,7.28C195.2,44.07,197.11,47,200.58,47Z"/><path class="cls-1" d="M55.21,45.16l20.2,0V76a1.63,1.63,0,0,1-1.62,1.63H37.63A1.63,1.63,0,0,1,36,76V45.18l19.2,0m0-1.5c-8.06,0-16,0-20.7,0V76a3.13,3.13,0,0,0,3.12,3.13H73.79A3.12,3.12,0,0,0,76.91,76V43.69c-5.41,0-13.64,0-21.7,0Z"/><path class="cls-1" d="M42.7,17.83a.64.64,0,0,0-.33.08.72.72,0,0,0-.32,1l3.25,6.27,1.28-.65-3.24-6.27a.72.72,0,0,0-.64-.39Z"/><path class="cls-1" d="M68.93,17.75a.72.72,0,0,0-.62.36l-3.6,6.23,1.24.72,3.61-6.23a.71.71,0,0,0-.27-1,.65.65,0,0,0-.36-.1Z"/><path class="cls-1" d="M83.4,44.26a3.06,3.06,0,0,1,3,3.05V67.23a3.06,3.06,0,0,1-6.11,0V47.31a3.06,3.06,0,0,1,3.06-3.05m0-1.5a4.55,4.55,0,0,0-4.56,4.55V67.23a4.56,4.56,0,0,0,9.11,0V47.31a4.55,4.55,0,0,0-4.55-4.55Z"/><path class="cls-1" d="M28,44.26a3.06,3.06,0,0,1,3.05,3.05V67.23a3.06,3.06,0,0,1-6.11,0V47.31A3.06,3.06,0,0,1,28,44.26m0-1.5a4.55,4.55,0,0,0-4.56,4.55V67.23a4.56,4.56,0,0,0,9.11,0V47.31A4.55,4.55,0,0,0,28,42.76Z"/><path class="cls-1" d="M50.87,82.28V91.7a3.05,3.05,0,0,1-6.1,0V82.28h6.1m1.5-1.5h-9.1V91.7a4.55,4.55,0,0,0,9.1,0V80.78Z"/><path class="cls-1" d="M66.67,82.28V91.7a3.06,3.06,0,0,1-6.11,0V82.28h6.11m1.5-1.5H59.06V91.7a4.56,4.56,0,0,0,9.11,0V80.78Z"/><path class="cls-1" d="M55.71,23.9h0A20.06,20.06,0,0,1,75.37,40.16H36.05A20.07,20.07,0,0,1,55.71,23.9m9.7,11.68a3.28,3.28,0,1,0-3.28-3.28,3.28,3.28,0,0,0,3.28,3.28m-19.36,0a3.28,3.28,0,1,0-3.29-3.28,3.28,3.28,0,0,0,3.29,3.28M55.71,22.4A21.63,21.63,0,0,0,34.3,41.66H77.12A21.61,21.61,0,0,0,55.71,22.4Zm9.7,11.68a1.78,1.78,0,1,1,1.78-1.78,1.78,1.78,0,0,1-1.78,1.78Zm-19.36,0a1.78,1.78,0,1,1,1.78-1.78,1.79,1.79,0,0,1-1.78,1.78Z"/></svg>