<svg xmlns="http://www.w3.org/2000/svg" x="0" y="0" viewBox="0 0 128 128" enable-background="new 0 0 128 128" width="128" height="128"><title>box</title><g class="nc-icon-wrapper"><circle class="st0" cx="64" cy="64" r="64" fill="#D3D1D1"/><path class="st1" fill="#F99900" d="M29.8 60.3h26.9L46.6 48.1H19.8z"/><path class="st2" fill="#D6742B" d="M101.4 60H74.6l10.1-12.1h26.8z"/><path class="st3" d="M101.1 61.1H74.6c-.4 0-.7-.2-.9-.6-.2-.4-.1-.8.1-1.1l9.9-12.1c.2-.2.5-.4.8-.4H111c.4 0 .7.2.9.6.2.4.1.8-.1 1.1l-9.9 12.1c-.3.3-.5.4-.8.4zm-24.4-2h23.9l8.3-10.1H85l-8.3 10.1z" fill="#6B3C1C"/><path class="st2" fill="#D6742B" d="M100.3 60.3H56.7l10.1 17.9h43.6z"/><path class="st3" d="M110 79H66.7c-.4 0-.7-.2-.9-.5l-10-17.9c-.2-.3-.2-.7 0-1 .2-.3.5-.5.9-.5H100c.4 0 .7.2.9.5l10 17.9c.2.3.2.7 0 1-.2.3-.5.5-.9.5zm-42.7-2h41.1l-8.9-15.9H58.4L67.3 77z" fill="#6B3C1C"/><path class="st1" fill="#F99900" d="M29.5 60.1h71v46h-71z"/><path class="st2" fill="#D6742B" d="M29.5 60h44v26h-44z"/><path class="st2" fill="#D6742B" d="M73.5 60h27v8h-27z"/><path class="st3" d="M56.7 59.9H30c-.3 0-.6 1.2-.8.9l-10-12.1c-.2-.3-.3-.7-.1-1.1.2-.4.5-.6.9-.6h26.7c.3 0 .6.1.8.4l10 12.1c.2.3.3.7.1 1.1-.2.3-.5-.7-.9-.7zm-26.2-.8h24.1L46.2 49H22.1l8.4 10.1z" fill="#6B3C1C"/><path class="st3" d="M74 107.1c-.6 0-1-.4-1-1V61.4c0-.6.4-1 1-1s1 .4 1 1v44.7c0 .6-.4 1-1 1z" fill="#6B3C1C"/><path class="st1" fill="#F99900" d="M25.5 106h79"/><path class="st3" d="M105 107H25c-.6 0-1-.4-1-1s.5-1 1-1h80c.6 0 1 .4 1 1s-.5 1-1 1z" fill="#6B3C1C"/><path class="st3" d="M82 76c-.6 0-1-.4-1-1v-6.9c0-.5.4-1 1-1s1 .4 1 1V75c0 .6-.4 1-1 1z" fill="#6B3C1C"/><path class="st3" d="M85 71c-.3 0-.6-.1-.8-.4L82 67.7l-2.2 2.9c-.3.5-1 .5-1.4.2-.4-.4-.5-1-.2-1.5l3-3.9c.4-.5 1.2-.5 1.6 0l3 3.9c.3.5.3 1.1-.2 1.5-.2.1-.4.2-.6.2z" fill="#6B3C1C"/><path class="st3" d="M91 76c-.6 0-1-.4-1-1v-6.9c0-.5.4-1 1-1s1 .4 1 1V75c0 .6-.4 1-1 1z" fill="#6B3C1C"/><path class="st3" d="M94 71c-.3 0-.6-.1-.8-.4L91 67.7l-2.2 2.9c-.3.5-1 .5-1.4.2-.4-.4-.5-1-.2-1.5l3-3.9c.4-.5 1.2-.5 1.6 0l3 3.9c.3.5.3 1.1-.2 1.5-.2.1-.4.2-.6.2z" fill="#6B3C1C"/><path class="st4" d="M70 47.1c-2.2 0-4-1.8-4-4s1.8-4 4-4 4 1.8 4 4-1.8 4-4 4zm0-6.1c-1.2 0-2.1 1-2.1 2.1 0 1.2 1 2.1 2.1 2.1 1.2 0 2.1-1 2.1-2.1 0-1.2-.9-2.1-2.1-2.1z" opacity=".5" fill="#FFF"/><path class="st4" d="M31 30.2c-2.2 0-4-1.8-4-4s1.8-4 4-4 4 1.8 4 4-1.8 4-4 4zm0-6.2c-1.2 0-2.1 1-2.1 2.1 0 1.2 1 2.1 2.1 2.1 1.2 0 2.1-1 2.1-2.1S32.2 24 31 24z" opacity=".5" fill="#FFF"/><path class="st4" d="M62 17c-2.2 0-4-1.8-4-4s1.8-4 4-4 4 1.8 4 4-1.8 4-4 4zm0-6.1c-1.2 0-2.1 1-2.1 2.1 0 1.2 1 2.1 2.1 2.1 1.2 0 2.1-1 2.1-2.1 0-1.2-.9-2.1-2.1-2.1z" opacity=".5" fill="#FFF"/><path class="st4" d="M55.5 27.3c0-.4-.4-.8-1-.9l-1.9-.3c-.5-.1-1.1-.6-1.1-1.1l-.3-1.9c-.1-.5-.5-1-.9-1s-.8.4-.9 1l-.2 1.9c-.1.5-.6 1.1-1.1 1.1l-1.9.3c-.5.1-1 .5-1 .9s.4.8 1 .9l1.9.3c.5.1 1.1.6 1.1 1.1l.3 1.9c.1.5.5 1 .9 1s.8-.4.9-1l.3-2.1c.1-.5.6-1 1.1-1.1l1.8-.1c.6-.2 1-.5 1-.9z" opacity=".5" fill="#FFF"/><path class="st4" d="M109.5 36.3c0-.4-.4-.8-1-.9l-1.9-.3c-.5-.1-1.1-.6-1.1-1.1l-.3-1.9c-.1-.5-.5-1-.9-1s-.8.4-.9 1l-.3 1.9c-.1.5-.6 1.1-1.1 1.1l-1.9.3c-.5.1-1 .5-1 .9s.4.8 1 .9l1.9.3c.5.1 1.1 1.6 1.1 2.1l.3.9c.1.5.5 1 .9 1s.8-.4.9-1l.3-2.1c.1-.5.6-1 1.1-1.1l1.8-.1c.7-.2 1.1-.5 1.1-.9z" opacity=".5" fill="#FFF"/><path class="st4" d="M84.5 23c0-.4-.4-.8-1-.9l-1.9-.3c-.5-.1-1.1-.6-1.1-1.1l-.3-1.9c-.1-.5-.5-1-.9-1s-.8.4-.9 1l-.3 1.9c-.1.5-.6 1.1-1.1 1.1l-1.9.3c-.5.1-1 .5-1 .9s.4.8 1 .9l1.9.3c.5.1 1.1.6 1.1 1.1l.3 1.9c.1.5.5 1 .9 1s.8-.4.9-1l.3-2.1c.1-.5.6-1 1.1-1.1l1.8-.1c.7-.1 1.1-.5 1.1-.9z" opacity=".5" fill="#FFF"/><path class="st4" d="M44.1 53H28.9c-.5 0-.9-.4-.9-1s.4-1 .9-1H44c.5 0 .9.4.9 1s-.3 1-.8 1z" opacity=".5" fill="#FFF"/><path class="st4" d="M96 102c-.6 0-1-.4-1-1V78c0-.6.4-1 1-1s1 .4 1 1v23c0 .6-.4 1-1 1z" opacity=".5" fill="#FFF"/><path class="st3" d="M100 107H29c-.6 0-1-.4-1-1V60c0-.6.4-1 1-1h71c.6 0 1 .4 1 1v46c0 .6-.4 1-1 1zm-70-2h69V61H30v44z" fill="#6B3C1C"/><path class="st1" fill="#F99900" d="M29.8 61h43.7L63.4 78H19.8z"/><path class="st3" d="M63.4 79H20c-.4 0-.7-.2-.9-.5-.2-.3-.2-.7 0-1l10-18c.2-.3.5.5.9.5h43.4c.4 0 .7-.3.9 0 .2.3.2.1 0 .5l-10 18c-.2.3-.5.5-.9.5zm-41.7-2h41.2l8.9-16H30.6l-8.9 16z" fill="#6B3C1C"/><path class="st4" d="M64 65H34c-.5 0-1-.4-1-1s.4-1 1-1h30c.5 0 1 .4 1 1s-.4 1-1 1z" opacity=".5" fill="#FFF"/></g></svg>