<svg xmlns="http://www.w3.org/2000/svg" x="0" y="0" viewBox="0 0 128 128" enable-background="new 0 0 128 128" width="128" height="128"><title>clock</title><g class="nc-icon-wrapper"><circle class="st0" cx="64" cy="64" r="64" fill="#3DB39E"/><path class="st1" d="M31 38.1c-3.6-5.5-2.1-13.2 3.5-16.9 5.6-3.7 13.3-2 16.9 3.5L31 38.1z" fill="#EAEAEA"/><path class="st2" d="M35.2 20.8c-.2.1-.5.3-.7.4-5.6 3.7-7.1 11.4-3.5 16.9l3.8-2.5c-2.5-4.7-2.3-10.4.4-14.8z" fill="#D4D6D6"/><path class="st3" d="M46.2 92.1c1.1 1.1 1 2.9-.2 4.1l-7.7 7.7c-1.2 1.2-3 1.2-4.1.2-1.1-1.1-1-2.9.2-4.1l7.7-7.7c1.2-1.2 3.1-1.3 4.1-.2z" fill="#FBD000"/><path class="st3" d="M82.3 92.1c-1.1 1.1-1 2.9.2 4.1l7.7 7.7c1.2 1.2 3 1.2 4.1.2 1.1-1.1 1-2.9-.2-4.1l-7.7-7.7c-1.2-1.2-3-1.3-4.1-.2z" fill="#FBD000"/><path class="st4" d="M35.8 106c-1 0-2-.4-2.7-1.1-1.5-1.5-1.4-4 .2-5.6l7.9-7.8c.8-.8 1.9-1.2 3-1.2 1 0 2 .4 2.7 1.1 1.5 1.5 1.4 4-.2 5.6l-7.9 7.8c-.8.7-1.9 1.2-3 1.2zm8.4-13.6c-.6 0-1.1.2-1.5.6l-7.9 7.8c-.8.8-.9 2-.2 2.7.7.7 2 .6 2.8-.2l7.9-7.8c.8-.8.9-2 .2-2.7-.4-.2-.8-.4-1.3-.4z" fill="#7C4119"/><path class="st4" d="M92.2 106c-1.1 0-2.2-.5-3-1.2L81.3 97c-1.6-1.6-1.7-4.1-.2-5.6.7-.7 1.7-1.1 2.7-1.1 1.1 0 2.2.5 3 1.2l7.9 7.8c1.6 1.6 1.7 4.1.2 5.6-.7.7-1.7 1.1-2.7 1.1zm-8.4-13.6c-.5 0-.9.2-1.2.5-.7.7-.6 1.9.2 2.7l7.9 7.8c.8.8 2.1.8 2.8.2.7-.7.6-1.9-.2-2.7l-8-7.9c-.4-.4-1-.6-1.5-.6z" fill="#7C4119"/><path class="st4" d="M30.9 39.1h-.2c-.3-.1-.5-.2-.6-.4-1.9-2.9-2.5-6.5-1.8-10s2.7-6.5 5.6-8.5c2.1-1.4 4.5-2.1 7.1-2.1 4.4 0 8.5 2.2 10.9 6 .3.5.2 1.1-.3 1.4L31.5 38.9c-.2.1-.4.2-.6.2zm10-19.1c-2.1 0-4.2.6-6 1.8-2.5 1.6-4.1 4.2-4.7 7.2-.5 2.6-.2 5.3 1 7.6l18.4-12.3c-2.1-2.7-5.3-4.3-8.7-4.3z" fill="#7C4119"/><path class="st1" d="M96.2 38.1c3.6-5.5 2.1-13.2-3.5-16.9-5.6-3.7-13.3-2-16.9 3.5l20.4 13.4z" fill="#EAEAEA"/><path class="st2" d="M90.6 20.1c-5.3-2.1-11.6-.3-14.8 4.6l3.3 2.1c2.9-3.7 7.1-6.1 11.5-6.7z" fill="#D4D6D6"/><path class="st4" d="M96.1 39.1c-.2 0-.4-.1-.5-.2L75.4 25.4c-.5-.3-.6-.9-.3-1.4 2.4-3.8 6.5-6 10.9-6 2.5 0 5 .7 7.1 2.2 2.9 1.9 4.9 5 5.6 8.5.7 3.5.1 7-1.8 10-.2.2-.5.4-.8.4zM77.4 24.3l18.4 12.3c1.2-2.3 1.6-5 1-7.6-.6-3-2.3-5.5-4.7-7.2-1.8-1.2-3.8-1.8-6-1.8-3.4 0-6.6 1.6-8.7 4.3z" fill="#7C4119"/><circle class="st3" cx="64" cy="65.2" r="40.1" fill="#FBD000"/><circle class="st5" cx="64" cy="65.2" r="31.8" fill="#FFF"/><path class="st1" d="M64 43.3c15.9 0 29 11.6 31.4 26.9.3-1.6.4-3.3.4-4.9 0-17.6-14.2-31.8-31.8-31.8S32.2 47.7 32.2 65.3c0 1.7.1 3.3.4 4.9C34.9 54.9 48.1 43.3 64 43.3z" fill="#EAEAEA"/><path class="st1" d="M65.3 67.8c-1 .4-2.2 0-2.6-1v-.1c-.4-1 0-2.2 1-2.6l16.5-7.2c1-.4 2.2 0 2.6 1v.1c.4 1 0 2.2-1 2.6l-16.5 7.2z" fill="#EAEAEA"/><circle class="st1" cx="64" cy="66.2" r="3.8" fill="#EAEAEA"/><path class="st5" fill="#FFF" d="M64 38v3"/><path class="st4" d="M64 42c-.6 0-1-.4-1-1v-3c0-.6.4-1 1-1s1 .4 1 1v3c0 .6-.4 1-1 1z" fill="#7C4119"/><path class="st5" fill="#FFF" d="M64 90v3"/><path class="st4" d="M64 94c-.6 0-1-.4-1-1v-3c0-.6.4-1 1-1s1 .4 1 1v3c0 .6-.4 1-1 1z" fill="#7C4119"/><path class="st5" fill="#FFF" d="M90 66h-3"/><path class="st4" d="M90 67h-3c-.6 0-1-.4-1-1s.4-1 1-1h3c.6 0 1 .4 1 1s-.4 1-1 1z" fill="#7C4119"/><path class="st5" fill="#FFF" d="M42 66h-3"/><path class="st4" d="M42 67h-3c-.6 0-1-.4-1-1s.4-1 1-1h3c.6 0 1 .4 1 1s-.4 1-1 1z" fill="#7C4119"/><path class="st4" d="M118.8 107H11.2c-.6 0-1-.4-1-1s.4-1 1-1h107.6c.6 0 1 .4 1 1s-.5 1-1 1z" fill="#7C4119"/><path class="st6" d="M64 99.3c-21.1 0-38.4-16.3-40-37.1-.1 1-.1 2-.1 3 0 22.1 17.9 40.1 40.1 40.1 22.1 0 40.1-17.9 40.1-40.1 0-1-.1-2-.1-3-1.6 20.7-18.9 37.1-40 37.1z" fill="#F4B10B"/><path class="st4" d="M65 69c-1.2 0-2.2-.7-2.7-1.8v-.1c-.3-.7-.3-1.5 0-2.2.3-.7.8-1.3 1.6-1.6l16.1-7c.4-.2.8-.2 1.2-.2 1.2 0 2.2.7 2.7 1.8v.1c.3.7.3 1.5 0 2.3-.3.7-.8 1.3-1.6 1.6l-16.1 7c-.4 0-.8.1-1.2.1zm16.1-11c-.1 0-.3 0-.4.1l-16.1 7c-.2.1-.4.3-.5.5-.1.2-.1.5 0 .7v.1c.2.5.8.7 1.3.5l16.1-7c.2-.1.4-.3.5-.5.1-.2.1-.5 0-.7v-.1c-.2-.4-.5-.6-.9-.6z" fill="#7C4119"/><path class="st4" d="M64 106c-22.6 0-41-18.4-41-41s18.4-41 41-41 41 18.4 41 41-18.4 41-41 41zm0-80c-21.5 0-39 17.5-39 39s17.5 39 39 39 39-17.5 39-39-17.5-39-39-39z" fill="#7C4119"/><circle class="st4" cx="64" cy="66" r="5" fill="#7C4119"/><path class="st4" d="M64 98c-18.2 0-33-14.8-33-33s14.8-33 33-33 33 14.8 33 33-14.8 33-33 33zm0-64c-17.1 0-31 13.9-31 31s13.9 31 31 31 31-13.9 31-31-13.9-31-31-31z" fill="#7C4119"/><path class="st5" d="M100.3 71.4h-.1c-.5-.1-.9-.6-.9-1.1.2-1.7.4-3.4.4-5 0-16-10.7-30.1-26.1-34.4-.5-.1-.8-.7-.7-1.2.1-.5.7-.8 1.2-.7 16.2 4.5 27.6 19.5 27.6 36.3 0 1.8-.1 3.6-.4 5.3-.1.4-.5.8-1 .8z" fill="#FFF"/><path class="st5" d="M42 36.8c-.3 0-.6-.1-.8-.4-.3-.4-.2-1.1.2-1.4 6.5-4.9 14.3-7.5 22.5-7.5.6 0 1 .4 1 1s-.4 1-1 1c-7.8 0-15.1 2.4-21.3 7.1-.2.1-.4.2-.6.2z" fill="#FFF"/><path class="st7" d="M113 58c-2.2 0-4-1.8-4-4s1.8-4 4-4 4 1.8 4 4-1.8 4-4 4zm0-6.1c-1.2 0-2.1 1-2.1 2.1 0 1.2 1 2.1 2.1 2.1 1.2 0 2.1-1 2.1-2.1 0-1.2-.9-2.1-2.1-2.1z" opacity=".5" fill="#FFF"/><path class="st7" d="M16 81c-2.2 0-4-1.8-4-4s1.8-4 4-4 4 1.8 4 4-1.8 4-4 4zm0-6.1c-1.2 0-2.1 1-2.1 2.1 0 1.2 1 2.1 2.1 2.1 1.2 0 2.1-1 2.1-2.1 0-1.2-.9-2.1-2.1-2.1z" opacity=".5" fill="#FFF"/><path class="st7" d="M71.9 12.2c0-.4-.4-.8-1-.9L69 11c-.5-.1-1.1-.6-1.1-1.1L67.6 8c-.1-.5-.5-1-.9-1s-.8.4-.9 1l-.3 1.9c-.1.5-.6 1.1-1.1 1.1l-1.9.3c-.5.1-1 .5-1 .9s.4.8 1 .9l1.9.3c.5.1 1.1.6 1.1 1.1l.3 1.9c.1.5.5 1 .9 1s.8-.4.9-1l.3-2.1c.1-.5.6-1 1.1-1.1l1.8-.1c.7-.1 1.1-.5 1.1-.9z" opacity=".5" fill="#FFF"/><path class="st5" fill="#FFF" d="M63.6 66.1L51.9 85.9"/><path class="st4" d="M51.9 86.9c-.2 0-.4 0-.5-.1-.5-.3-.6-.9-.3-1.4l11.8-19.8c.3-.5.9-.6 1.4-.3.5.3.6.9.3 1.4L52.7 86.4c-.2.3-.5.5-.8.5z" fill="#7C4119"/><path class="st5" d="M94.7 33.9h-.1c-.5-.1-.9-.6-.9-1.1.6-5.4-2.8-8.3-2.9-8.5-.4-.4-.5-1-.1-1.4.4-.4 1-.5 1.4-.1.2.1 4.4 3.7 3.7 10.2-.1.5-.6.9-1.1.9z" fill="#FFF"/><path class="st5" d="M47.3 25c-.2 0-.4-.1-.5-.2-4.5-2.9-9.7-1-9.7-1-.5.2-1.1-.1-1.3-.6-.2-.5.1-1.1.6-1.3.2-.1 6.2-2.2 11.5 1.2.5.3.6.9.3 1.4-.3.3-.6.5-.9.5z" fill="#FFF"/></g></svg>