<svg xmlns="http://www.w3.org/2000/svg" x="0" y="0" viewBox="0 0 128 128" enable-background="new 0 0 128 128" width="128" height="128"><title>delivery</title><g class="nc-icon-wrapper"><circle class="st0" cx="64" cy="64" r="64" fill="#3AD0F9"/><ellipse class="st1" cx="109.4" cy="66.5" rx="13.6" ry="20.8" fill="#84DB14"/><path class="st2" d="M109.5 88c-8 0-14.5-9.9-14.5-22s6.5-22 14.5-22S124 53.9 124 66s-6.5 22-14.5 22zm0-42C102.6 46 97 55 97 66s5.6 20 12.5 20S122 77 122 66s-5.6-20-12.5-20z" fill="#6B3C1C"/><path class="st2" d="M109 104.6c-.6 0-1-.4-1-1V62c0-.6.4-1 1-1s1 .4 1 1v41.7c0 .5-.4.9-1 .9z" fill="#6B3C1C"/><path class="st2" d="M110.1 76c-.3 0-.6-.1-.8-.3-.4-.4-.4-1.1 0-1.5l5.8-5.8c.4-.4 1.1-.4 1.5 0 .4.4.4 1.1 0 1.5l-5.8 5.8c-.2.2-.4.3-.7.3z" fill="#6B3C1C"/><path class="st3" d="M117.9 61c-.6 0-1.1-.4-1.1-1 0-4.4-5.4-8.2-5.4-8.2-.5-.3-.6-1-.2-1.4.4-.4 1-.5 1.5-.2.3.2 6.3 4.4 6.3 9.8 0 .6-.5 1-1.1 1z" fill="#FFF"/><path class="st4" d="M116.6 105H9.6c-.6 0-1-.4-1-1s.4-1 1-1h107.1c.6 0 1 .4 1 1s-.5 1-1.1 1z" fill="#663210"/><path class="st5" d="M80.5 86c0 4.4-3.6 8-8 8H25.8c-4.4 0-8-3.6-8-8V60.5c0-4.4 3.6-8 8-8h46.7c4.4 0 8 3.6 8 8V86z" fill="#EAEAEA"/><path class="st5" d="M111 90c0 2.2-1.8 4-4 4H84.5c-2.2 0-4-1.8-4-4V62c0-2.2 1.8-4 4-4h9.1c1.7 0 3.9 1 4.9 2.3 1 1.3 2.9 3.8 4.2 5.5l5.8 7.5c1.3 1.7 2.4 5 2.4 7.2V90z" fill="#EAEAEA"/><path class="st6" d="M72.5 86.7H25.8c-4.4 0-8-3.6-8-8V86c0 4.4 3.6 8 8 8h46.7c4.4 0 8-3.6 8-8v-7.3c0 4.4-3.6 8-8 8z" fill="#D4D6D6"/><path class="st7" fill="#FF4848" d="M18.5 76h62v6h-62z"/><path class="st7" fill="#FF4848" d="M18.5 85h62v5h-62z"/><path class="st6" d="M107 88H84.5c-2.2 0-4-1.6-4-3.8V90c0 2.2 1.8 4 4 4H107c2.2 0 4-1.8 4-4v-5.8c0 2.2-1.8 3.8-4 3.8z" fill="#D4D6D6"/><path class="st8" fill="#FBD000" d="M111 81.5h-4.2v5.2h4.2"/><path class="st4" d="M73 95H26c-5 0-9-4-9-9V60c0-5 4-9 9-9h47c5 0 9 4 9 9v26c0 5-4 9-9 9zM26 53c-3.9 0-7 3.1-7 7v26c0 3.9 3.1 7 7 7h47c3.9 0 7-3.1 7-7V60c0-3.9-3.1-7-7-7H26z" fill="#663210"/><path class="st4" d="M107 95H85c-2.8 0-5-2.2-5-5V62c0-2.8 2.2-5 5-5h8.8c2.1 0 4.6 1.2 5.7 2.7.9 1.3 2.7 3.8 4 5.5l5.9 7.9c1.4 1.9 2.6 5.4 2.6 7.8v9c0 2.9-2.2 5.1-5 5.1zM85 59c-1.7 0-3 1.3-3 3v28c0 1.7 1.3 3 3 3h22c1.7 0 3-1.3 3-3v-9c0-2-1-5-2.2-6.6l-5.9-7.9c-1.3-1.8-3.1-4.3-4.1-5.6-.7-1-2.6-1.9-4.1-1.9H85z" fill="#663210"/><circle class="st9" cx="34.9" cy="95.9" r="8.1" fill="#415E6D"/><circle class="st9" cx="95.8" cy="95.9" r="8.1" fill="#415E6D"/><path class="st3" d="M88.8 63.3c-1.1 0-2 .9-2 2v10c0 1.1.9 2 2 2H103c1.1 0 1.5-.7.9-1.6L96.5 65c-.6-.9-2-1.6-3.1-1.6h-4.6z" fill="#FFF"/><path class="st4" d="M12 76H6c-.6 0-1-.4-1-1s.5-1 1-1h6c.6 0 1 .4 1 1s-.5 1-1 1z" fill="#663210"/><path class="st4" d="M12 89H1c-.6 0-1-.4-1-1s.5-1 1-1h11c.6 0 1 .4 1 1s-.5 1-1 1z" fill="#663210"/><path class="st10" d="M34.9 100.7c-3.9 0-7.2-2.8-8-6.5-.1.5-.2 1.1-.2 1.7 0 4.5 3.6 8.1 8.1 8.1s8.1-3.6 8.1-8.1c0-.6-.1-1.1-.2-1.7-.6 3.7-3.9 6.5-7.8 6.5z" fill="#324D5B"/><path class="st10" d="M95.8 100.7c-3.9 0-7.2-2.8-8-6.5-.1.5-.2 1.1-.2 1.7 0 4.5 3.6 8.1 8.1 8.1s8.1-3.6 8.1-8.1c0-.6-.1-1.1-.2-1.7-.7 3.7-3.9 6.5-7.8 6.5z" fill="#324D5B"/><path class="st4" d="M24 83H4c-.6 0-1-.4-1-1s.5-1 1-1h20c.6 0 1 .4 1 1s-.5 1-1 1z" fill="#663210"/><path class="st3" d="M44 39.3c0-1.1-1.3-2.3-3-2.3H27.1c-1.7 0-3 1.2-3 2.3 0 1.1-1.1 1.7-2.5 1.7s-2.5 1.2-2.5 2.3c0 1.1 1.3 1.7 3 1.7h10c1.7 0 3-.6 3-1.7s1.3-2.3 3-2.3h3c1.6 0 2.9-.6 2.9-1.7z" fill="#FFF"/><path class="st3" d="M107 29.3c0-1.1-1.3-2.3-3-2.3H90.1c-1.7 0-3 1.2-3 2.3S85.9 31 84.5 31c-1.4 0-2.5 1.2-2.5 2.3 0 1.1 1.3 1.7 3 1.7h10c1.7 0 3-.6 3-1.7s1.3-2.3 3-2.3h3c1.7 0 3-.6 3-1.7z" fill="#FFF"/><path class="st8" d="M59 20.3c0 4.8-3.6 8.7-8.4 8.7-4.8 0-8.6-4.2-8.6-9s3.8-8 8.6-8 8.4 3.4 8.4 8.3z" fill="#FBD000"/><path class="st4" d="M35 105c-5 0-9-4-9-9s4-9 9-9 9 4 9 9-4 9-9 9zm0-16c-3.9 0-7 3.2-7 7s3.2 7 7 7c3.9 0 7-3.2 7-7s-3.1-7-7-7z" fill="#663210"/><path class="st4" d="M96 105c-5 0-9-4-9-9s4-9 9-9 9 4 9 9-4 9-9 9zm0-16c-3.9 0-7 3.2-7 7s3.2 7 7 7c3.9 0 7-3.2 7-7s-3.1-7-7-7z" fill="#663210"/><circle class="st5" cx="35" cy="96" r="4" fill="#EAEAEA"/><circle class="st5" cx="96" cy="96" r="4" fill="#EAEAEA"/><path class="st4" d="M103.9 79H89c-1.6 0-3-1.3-3-3V65c0-1.7 1.3-3 3-3h4c1.4 0 3.1.9 4 2l8.6 11.8c.5.7.7 1.5.3 2.2-.4.6-1.1 1-2 1zM89 64c-.5 0-1 .4-1 1v11c0 .6.4 1 1 1h14.9l-8.6-11.8c-.4-.6-1.6-1.2-2.3-1.2h-4z" fill="#663210"/><path class="st4" d="M111 88h-4c-.6 0-1-.4-1-1v-5c0-.6.4-1 1-1h4c.6 0 1 .4 1 1s-.4 1-1 1h-3v3h3c.6 0 1 .4 1 1s-.4 1-1 1z" fill="#663210"/><path class="st3" d="M76 73c-.6 0-1-.4-1-1V60.8c0-3.3-.8-3.8-3.3-3.8H38c-.6 0-1-.4-1-1s.4-1 1-1h33.7c3.9 0 5.3 1.6 5.3 5.8V72c0 .6-.4 1-1 1z" fill="#FFF"/><path class="st3" d="M34 57h-5.9c-.6 0-1-.4-1-1s.4-1 1-1H34c.6 0 1 .4 1 1s-.4 1-1 1z" fill="#FFF"/><path class="st3" d="M84 86c-.6 0-1-.4-1-1V63c0-.5.4-1 1-1s1 .4 1 1v22c0 .6-.4 1-1 1z" fill="#FFF"/><path class="st11" d="M75 80h-8c-.5 0-1-.4-1-1s.4-1 1-1h8c.5 0 1 .4 1 1s-.4 1-1 1z" opacity=".5" fill="#FFF"/><path class="st11" d="M61 80H30c-.6 0-1-.4-1-1s.4-1 1-1h31c.6 0 1 .4 1 1s-.4 1-1 1z" opacity=".5" fill="#FFF"/><path class="st11" d="M40.9 97c-.6 0-1.1-.5-1.1-1.1 0-2.6-2.2-4.8-4.8-4.8-.6 0-1.1-.5-1.1-1.1 0-.6.5-1.1 1.1-1.1 3.8 0 6.9 3.1 6.9 6.9.1.7-.4 1.2-1 1.2z" opacity=".5" fill="#FFF"/><path class="st11" d="M101.9 96.9c-.6 0-1.1-.5-1.1-1.1 0-2.6-2.2-4.7-5-4.7-.6 0-1.1-.5-1.1-1.1s.5-1.1 1.1-1.1c4 0 7.2 3.1 7.2 6.8 0 .7-.5 1.2-1.1 1.2z" opacity=".5" fill="#FFF"/><path class="st12" d="M91 70.4c-.3 0-.5-.1-.7-.3-.4-.4-.4-1 0-1.4l2.4-2.4c.4-.4 1-.4 1.4 0 .4.4.4 1 0 1.4l-2.4 2.4c-.2.2-.4.3-.7.3z" opacity=".5" fill="#074370"/><path class="st12" d="M91.1 75c-.3 0-.5-.1-.7-.3-.4-.4-.4-1 0-1.4l4.6-4.4c.4-.4 1.1-.4 1.5 0 .4.4.4 1 0 1.4l-4.6 4.4c-.3.2-.6.3-.8.3z" opacity=".5" fill="#074370"/><path class="st3" d="M63 45c-2.2 0-4-1.8-4-4s1.8-4 4-4 4 1.8 4 4-1.8 4-4 4zm0-6c-1.1 0-2 .9-2 2s.9 2 2 2 2-.9 2-2-.9-2-2-2z" fill="#FFF"/><path class="st3" d="M77.7 18.5c0-.4-.4-.8-1-.9l-1.9-.3c-.5-.1-1.1-.6-1.1-1.1l-.3-1.9c-.1-.5-.5-1-.9-1s-.8.4-.9 1l-.3 1.9c-.1.5-.6 1.1-1.1 1.1l-1.9.3c-.5.1-1 .5-1 .9s.4.8 1 .9l1.9.3c.5.1 1.1.6 1.1 1.1l.3 1.9c.1.5.5 1 .9 1s.8-.4.8-1l.3-2.1c.1-.5.6-1 1.1-1.1l1.8-.1c.8-.2 1.2-.5 1.2-.9z" fill="#FFF"/></g></svg>