<svg xmlns="http://www.w3.org/2000/svg" x="0" y="0" viewBox="0 0 128 128" enable-background="new 0 0 128 128" width="128" height="128"><title>document</title><g class="nc-icon-wrapper"><path class="st0" d="M128 64c0 35.3-28.7 64-64 64S0 99.3 0 64 28.7 0 64 0s64 28.7 64 64" fill="#28A5C6"/><path class="st1" d="M115.7 86.7c0-.4-.4-.8-1-.9l-1.9-.3c-.5-.1-1.1-.6-1.1-1.1l-.3-1.9c-.1-.5-.5-1-.9-1s-.8.4-.9 1l-.3 1.9c-.1.5-.6 1.1-1.1 1.1l-1.9.3c-.5.1-1 .5-1 .9s.4.8 1 .9l1.9.3c.5.1 1.1.6 1.1 1.1l.3 1.9c.1.5.5 1 .9 1s.8-.4.9-1l.3-2.1c.1-.5.6-1 1.1-1.1l1.8-.1c.6-.2 1.1-.5 1.1-.9z" opacity=".5" fill="#FFF"/><path class="st1" d="M24.7 52.4c0-.4-.4-.8-1-.9l-1.9-.3c-.5-.1-1.1-.6-1.1-1.1l-.3-1.9c-.1-.5-.5-1-.9-1s-.8.4-.9 1l-.3 1.9c-.1.5-.6 1.1-1.1 1.1l-1.9.3c-.5.1-1 .5-1 .9s.4.8 1 .9l1.9.3c.5.1 1.1.6 1.1 1.1l.3 1.9c.1.5.5 1 .9 1s.8-.4.9-1l.3-2.1c.1-.5.6-1 1.1-1.1l1.8-.1c.6-.1 1.1-.5 1.1-.9z" opacity=".5" fill="#FFF"/><path class="st1" d="M74 14.4c0-.4-.4-.8-1-.9l-1.9-.3c-.5-.1-1.1-.6-1.1-1.1l-.3-1.9c-.1-.5-.5-1-.9-1s-.8.4-.9 1l-.3 1.9c-.1.5-.6 1.1-1.1 1.1l-1.9.3c-.5.1-1 .5-1 .9s.4.8 1 .9l1.9.3c.5.1 1.1.6 1.1 1.1l.3 1.9c.1.5.5 1 .9 1s.8-.4.9-1l.3-2.1c.1-.5.6-1 1.1-1.1l1.8-.1c.6-.1 1.1-.5 1.1-.9z" opacity=".5" fill="#FFF"/><path class="st1" d="M20 82c-2.2 0-4-1.8-4-4s1.8-4 4-4 4 1.8 4 4-1.8 4-4 4zm0-6.1c-1.2 0-2.1 1-2.1 2.1 0 1.2 1 2.1 2.1 2.1 1.2 0 2.1-1 2.1-2.1 0-1.2-.9-2.1-2.1-2.1z" opacity=".5" fill="#FFF"/><path class="st1" d="M110 62c-2.2 0-4-1.8-4-4s1.8-4 4-4 4 1.8 4 4-1.8 4-4 4zm0-6.1c-1.2 0-2.1 1-2.1 2.1 0 1.2 1 2.1 2.1 2.1 1.2 0 2.1-1 2.1-2.1 0-1.2-.9-2.1-2.1-2.1z" opacity=".5" fill="#FFF"/><path class="st1" d="M58 120c-2.2 0-4-1.8-4-4s1.8-4 4-4 4 1.8 4 4-1.8 4-4 4zm0-6.1c-1.2 0-2.1 1-2.1 2.1 0 1.2 1 2.1 2.1 2.1 1.2 0 2.1-1 2.1-2.1 0-1.2-.9-2.1-2.1-2.1z" opacity=".5" fill="#FFF"/><path class="st2" d="M93.8 101.6c0 2.2-1.8 4-4 4H37.1c-2.2 0-4-1.8-4-4V33.9c0-2.2 1.8-4 4-4h52.7c2.2 0 4 1.8 4 4v67.7z" fill="#D4D6D6"/><path class="st3" d="M90 107H37c-2.8 0-5-2.3-5-5V34c0-2.8 2.3-5 5-5h53c2.8 0 5 2.3 5 5v68c0 2.7-2.3 5-5 5zM37 31c-1.7 0-3 1.4-3 3v68c0 1.7 1.4 3 3 3h53c1.7 0 3-1.4 3-3V34c0-1.7-1.4-3-3-3H37z" fill="#0C508E"/><path class="st4" d="M97.2 98.4c0 2.2-1.8 4-4 4H40.5c-2.2 0-4-1.8-4-4V30.7c0-2.2 1.8-4 4-4l52.5.1c2.2 0 4 1.8 4 4l.2 67.6z" fill="#EAEAEA"/><path class="st3" d="M93 103H41c-2.8 0-5-2.2-5-5V31c0-2.8 2.2-5 5-5h52c2.8 0 5 2.2 5 5v67c0 2.8-2.2 5-5 5zM41 28c-1.7 0-3 1.3-3 3v67c0 1.7 1.3 3 3 3h52c1.7 0 3-1.3 3-3V31c0-1.7-1.3-3-3-3H41z" fill="#0C508E"/><path class="st3" d="M48.1 40c-4.8 0-8.1-2.8-8.1-6.9V23c0-3.5 3.5-6 6.7-6s5.3 2.4 5.3 6v4c0 .6-.4 1-1 1s-1-.4-1-1v-4c0-2-.9-4-3.3-4-2.2 0-4.7 1.8-4.7 4v10.1c0 3.6 3.2 4.9 6.1 4.9 3.2 0 4.9-2.9 4.9-5.7V22.2c0-.6.4-1 1-1s1 .4 1 1v10.1c0 4.5-2.9 7.7-6.9 7.7z" fill="#0C508E"/><path class="st5" d="M63 53H45c-.6 0-1-.4-1-1s.4-1 1-1h18c.6 0 1 .4 1 1s-.4 1-1 1z" fill="#ADADAD"/><path class="st5" d="M86.5 53H68c-.6 0-1-.4-1-1s.5-1 1-1h18.4c.6 0 1 .4 1 1s-.4 1-.9 1z" fill="#ADADAD"/><path class="st5" d="M64.4 60H45c-.6 0-1-.4-1-1s.4-1 1-1h19.4c.6 0 1 .4 1 1s-.4 1-1 1z" fill="#ADADAD"/><path class="st5" d="M89 60H70c-.5 0-1-.4-1-1s.4-1 1-1h19c.5 0 1 .4 1 1s-.4 1-1 1z" fill="#ADADAD"/><path class="st5" d="M55 67H45c-.6 0-1-.4-1-1s.5-1 1-1h10c.6 0 1 .4 1 1s-.5 1-1 1z" fill="#ADADAD"/><path class="st5" d="M63 74H45c-.6 0-1-.4-1-1s.4-1 1-1h18c.6 0 1 .4 1 1s-.4 1-1 1z" fill="#ADADAD"/><path class="st5" d="M86.9 74H68.1c-.6 0-1.1-.4-1.1-1s.5-1 1.1-1H87c.6 0 1.1.4 1.1 1s-.6 1-1.2 1z" fill="#ADADAD"/><path class="st5" d="M69 67H59c-.6 0-1-.4-1-1s.5-1 1-1h10c.6 0 1 .4 1 1s-.5 1-1 1z" fill="#ADADAD"/><path class="st5" d="M83 67H73c-.6 0-1-.4-1-1s.5-1 1-1h10c.6 0 1 .4 1 1s-.5 1-1 1z" fill="#ADADAD"/><path class="st5" d="M55 81H45c-.6 0-1-.4-1-1s.5-1 1-1h10c.6 0 1 .4 1 1s-.5 1-1 1z" fill="#ADADAD"/><path class="st5" d="M63 88H45c-.6 0-1-.4-1-1s.4-1 1-1h18c.6 0 1 .4 1 1s-.4 1-1 1z" fill="#ADADAD"/><path class="st5" d="M86.9 88H68.1c-.6 0-1.1-.4-1.1-1s.5-1 1.1-1H87c.6 0 1.1.4 1.1 1s-.6 1-1.2 1z" fill="#ADADAD"/><path class="st5" d="M69 81h-9.8c-.6 0-1-.4-1-1s.5-1 1-1H69c.6 0 1 .4 1 1s-.5 1-1 1z" fill="#ADADAD"/><path class="st5" d="M83 81h-9.8c-.6 0-1-.4-1-1s.5-1 1-1H83c.6 0 1 .4 1 1s-.5 1-1 1z" fill="#ADADAD"/><ellipse class="st2" cx="84" cy="39" rx="4" ry="4" fill="#D4D6D6"/><ellipse class="st2" cx="72" cy="39" rx="4" ry="4" fill="#D4D6D6"/><path class="st6" d="M90.2 32H60.7c-.6 0-1-.4-1-1s.4-1 1-1h29.5c.6 0 1 .4 1 1s-.4 1-1 1z" fill="#FFF"/></g></svg>