<svg xmlns="http://www.w3.org/2000/svg" x="0" y="0" viewBox="0 0 128 128" enable-background="new 0 0 128 128" width="128" height="128"><title>flashlight</title><g class="nc-icon-wrapper"><circle class="st0" cx="64" cy="64" r="64" fill="#5D51F6"/><path class="st1" d="M82.6 2.7L67.7 58.4l57.1-15.3c-6.7-19.4-22.5-34.5-42.2-40.4z" fill="#BCECF7"/><path class="st2" d="M103.4 57.9c1.6-1.6 1.6-4.1 0-5.7l-28-27.9c-1.6-1.6-4.1-1.6-5.7 0L59.6 34.5c-1.6 1.6-3.1 4.6-3.4 6.8l-1.3 8.3c-.3 2.2-1.9 5.2-3.4 6.8L8.8 99c-1.6 1.6-1.6 4.1 0 5.7l14.1 14.1c1.6 1.6 4.1 1.6 5.7 0l42.7-42.7c1.6-1.6 4.6-3.1 6.8-3.4l8.3-1.3c2.2-.3 5.2-1.9 6.8-3.4l10.2-10.1z" fill="#FBD000"/><path class="st3" d="M91.9 70c-.3 0-.5-.1-.7-.3L58 36.6c-.4-.4-.4-1 0-1.4.4-.4 1-.4 1.4 0l33.1 33.1c.4.4.4 1 0 1.4-.1.2-.4.3-.6.3z" fill="#074370"/><path class="st4" fill="#F4B10B" d="M55.8 46.4l25 25-5.8 2.5-20.9-21.7z"/><path class="st3" d="M101.2 60.6c-.3 0-.5-.1-.7-.3L67.4 27.2c-.4-.4-.4-1 0-1.4.4-.4 1-.4 1.4 0l33.1 33.1c.4.4.4 1 0 1.4-.2.2-.4.3-.7.3z" fill="#074370"/><path class="st4" fill="#F4B10B" d="M50.695 57.222l3.394-3.394L74.1 73.838l-3.394 3.395z"/><ellipse transform="rotate(-45.004 53.497 73.495)" class="st4" cx="53.5" cy="73.5" rx="4.5" ry="4.5" fill="#F4B10B"/><path class="st3" d="M74.6 74.6c-.3 0-.5-.1-.7-.3L53.5 53.9c-.4-.4-.4-1 0-1.4.4-.4 1-.4 1.4 0l20.4 20.4c.4.4.4 1 0 1.4-.2.2-.5.3-.7.3z" fill="#074370"/><ellipse transform="rotate(-44.992 55.369 71.733)" class="st5" cx="55.4" cy="71.7" rx="4.2" ry="4.2" fill="#FF4848"/><path class="st3" d="M26.7 90.1c-.3 0-.5-.1-.7-.3-.4-.4-.4-1 0-1.4l14.5-14.5c.4-.4 1-.4 1.4 0 .4.4.4 1 0 1.4L27.4 89.8c-.2.2-.4.3-.7.3z" fill="#074370"/><path class="st3" d="M30.4 93.8c-.3 0-.5-.1-.7-.3-.4-.4-.4-1 0-1.4l14.5-14.5c.4-.4 1-.4 1.4 0 .4.4.4 1 0 1.4L31.1 93.5c-.1.2-.4.3-.7.3z" fill="#074370"/><path class="st3" d="M34.2 97.5c-.3 0-.5-.1-.7-.3-.4-.4-.4-1 0-1.4L48 81.3c.4-.4 1-.4 1.4 0 .4.4.4 1 0 1.4L34.9 97.2c-.2.2-.5.3-.7.3z" fill="#074370"/><path class="st3" d="M37.9 101.2c-.3 0-.5-.1-.7-.3-.4-.4-.4-1 0-1.4L51.7 85c.4-.4 1-.4 1.4 0 .4.4.4 1 0 1.4l-14.5 14.5c-.2.2-.5.3-.7.3z" fill="#074370"/><path class="st4" d="M27.3 114.4l-14.1-14.1c-1.6-1.6-1.6-4.1 0-5.7L8.8 99c-1.6 1.6-1.6 4.1 0 5.7l14.1 14.1c1.6 1.6 4.1 1.6 5.7 0l4.4-4.4c-1.6 1.6-4.1 1.6-5.7 0z" fill="#F4B10B"/><path class="st3" d="M25.4 121c-1.4 0-2.6-.5-3.6-1.5L7.5 105.4c-2-2-2-5.1 0-7.1l43.1-42.7c1.4-1.4 2.9-4.3 3.2-6.2l1.3-8.3c.4-2.4 2-5.6 3.7-7.3l10.3-10.2c1-.9 2.2-1.5 3.6-1.5s2.6.5 3.6 1.5l28.2 28c1 .9 1.5 2.2 1.5 3.5 0 1.3-.5 2.6-1.5 3.5L94.2 68.7c-1.7 1.7-5 3.3-7.4 3.7l-8.4 1.3c-2 .3-4.9 1.7-6.3 3.1L29 119.5c-1 1-2.3 1.5-3.6 1.5zm47.3-97c-.8 0-1.6.3-2.1.9L60.2 35.1c-1.4 1.4-2.9 4.3-3.2 6.2l-1.3 8.3c-.4 2.4-2 5.6-3.7 7.3L8.9 99.7c-1.2 1.2-1.2 3.1 0 4.2l14.3 14.2c1.1 1.1 3.1 1.1 4.3 0l43.1-42.7c1.7-1.7 5-3.3 7.4-3.7l8.4-1.3c2-.3 4.9-1.7 6.3-3.1L103 57.1c.6-.6.9-1.3.9-2.1s-.3-1.6-.9-2.1l-28.2-28c-.5-.6-1.3-.9-2.1-.9z" fill="#074370"/><path class="st3" d="M55.5 77c-1.5 0-2.8-.6-3.9-1.6-1-1-1.6-2.4-1.6-3.9s.6-2.9 1.6-3.9S54 66 55.5 66s2.8.6 3.9 1.6c1 1 1.6 2.4 1.6 3.9s-.6 2.8-1.6 3.9c-1.1 1-2.4 1.6-3.9 1.6zm0-9c-.9 0-1.8.4-2.5 1-.7.7-1 1.5-1 2.5 0 .9.4 1.8 1 2.5 1.3 1.3 3.6 1.3 4.9 0 .7-.7 1-1.5 1-2.5 0-.9-.4-1.8-1-2.5-.6-.6-1.5-1-2.4-1z" fill="#074370"/><path class="st6" d="M95.7 60.6c-.3 0-.5-.1-.7-.3l-5.9-5.9c-.4-.4-.4-1 0-1.4.4-.4 1-.4 1.4 0l5.9 5.9c.4.4.4 1 0 1.4-.2.2-.5.3-.7.3z" fill="#FFF"/><path class="st6" d="M85.9 50.8c-.3 0-.5-.1-.7-.3L67.5 32.8c-.4-.4-.4-1 0-1.4s1-.4 1.4 0l17.7 17.7c.4.4.4 1 0 1.4-.2.2-.5.3-.7.3z" fill="#FFF"/><path class="st6" d="M32 112c-.2 0-.5-.1-.7-.3-.4-.4-.4-1 0-1.4l33.1-34c.4-.4 1-.4 1.4 0 .4.4.4 1 0 1.4l-33.1 34c-.2.2-.5.3-.7.3z" fill="#FFF"/><path class="st7" d="M17 70c-2.2 0-4-1.8-4-4s1.8-4 4-4 4 1.8 4 4-1.8 4-4 4zm0-6c-1.1 0-2 .9-2 2s.9 2 2 2 2-.9 2-2-.9-2-2-2z" opacity=".5" fill="#FFF"/><path class="st7" d="M83 96c-2.2 0-4-1.8-4-4s1.8-4 4-4 4 1.8 4 4-1.8 4-4 4zm0-6c-1.1 0-2 .9-2 2s.9 2 2 2 2-.9 2-2-.9-2-2-2z" opacity=".5" fill="#FFF"/><path class="st7" d="M45 21c-2.2 0-4-1.8-4-4s1.8-4 4-4 4 1.8 4 4-1.8 4-4 4zm0-6c-1.1 0-2 .9-2 2s.9 2 2 2 2-.9 2-2-.9-2-2-2z" opacity=".5" fill="#FFF"/><path class="st7" d="M44.9 39.5c0-.4-.4-.8-1-.9l-1.9-.3c-.5-.1-1.1-.6-1.1-1.1l-.3-1.9c-.1-.5-.5-1-.9-1s-.8.4-.9 1l-.3 1.9c-.1.5-.6 1.1-1.1 1.1l-1.9.3c-.5.1-1 .5-1 .9s.4.8 1 .9l1.9.3c.5.1 1.1.6 1.1 1.1l.3 1.9c.1.5.5 1 .9 1s.8-.4.8-1l.3-2.1c.1-.5.6-1 1.1-1.1l1.8-.1c.8-.2 1.2-.6 1.2-.9z" opacity=".5" fill="#FFF"/><path class="st7" d="M116.4 80c0-.4-.4-.8-1-.9l-1.9-.3c-.5-.1-1.1-.6-1.1-1.1l-.3-1.9c-.1-.5-.5-1-.9-1s-.8.4-.9 1l-.3 1.9c-.1.5-.6 1.1-1.1 1.1l-1.9.3c-.5.1-1 .5-1 .9s.4.8 1 .9l1.9.3c.5.1 1.1.6 1.1 1.1l.3 1.9c.1.5.5 1 .9 1s.8-.4.8-1l.3-2.1c.1-.5.6-1 1.1-1.1l1.8-.1c.8-.2 1.2-.6 1.2-.9z" opacity=".5" fill="#FFF"/><path class="st7" d="M70.9 114.5c0-.4-.4-.8-1-.9l-1.9-.3c-.5-.1-1.1-.6-1.1-1.1l-.3-1.9c-.1-.5-.5-1-.9-1s-.8.4-.9 1l-.3 1.9c-.1.5-.6 1.1-1.1 1.1l-1.9.3c-.5.1-1 .5-1 .9s.4.8 1 .9l1.9.3c.5.1 1.1.6 1.1 1.1l.3 1.9c.1.5.5 1 .9 1s.8-.4.8-1l.3-2.1c.1-.5.6-1 1.1-1.1l1.8-.1c.8-.2 1.2-.6 1.2-.9z" opacity=".5" fill="#FFF"/></g></svg>