<svg xmlns="http://www.w3.org/2000/svg" x="0" y="0" viewBox="0 0 128 128" enable-background="new 0 0 128 128" width="128" height="128"><title>headphones</title><g class="nc-icon-wrapper"><circle class="st0" cx="64" cy="64" r="64" fill="#FBD000"/><path class="st1" d="M103.2 57.6l-6.7 1.7-2.9-11.8c-4.5-18.1-22.3-29.4-39.7-25.1-17.4 4.3-28 22.5-23.5 40.7l2.9 11.8-6.7 1.7-2.9-11.8c-5.5-21.9 7.3-44 28.5-49.2 21.1-5.2 42.7 8.3 48.1 30.1l2.9 11.9z" fill="#415E6D"/><path class="st2" d="M92 36c-.4 0-.7-.2-.9-.5-7.5-13.3-23-20.1-37.5-16.6-1.8.4-3.5 1-5.2 1.7-.5.2-1.1 0-1.3-.5-.2-.5 0-1.1.5-1.3 1.8-.8 3.6-1.4 5.5-1.8 15.4-3.8 31.8 3.5 39.8 17.5.3.5.1 1.1-.4 1.4-.2.1-.3.1-.5.1z" opacity=".5" fill="#FFF"/><path class="st2" d="M28 43c-.1 0-.2 0-.3-.1-.5-.2-.8-.8-.6-1.3 1.3-4.2 3.4-8 6.2-11.3.4-.4 1-.5 1.4-.1.4.4.5 1 .1 1.5-2.6 3.1-4.5 6.7-5.8 10.6-.2.4-.6.7-1 .7z" opacity=".5" fill="#FFF"/><path class="st3" d="M26.2 77c-.5 0-.9-.3-1-.8l-2.9-11.8C16.8 42 29.9 19.5 51.7 14.1c3.1-.8 6.3-1.1 9.4-1.1 18.9 0 35.3 13.2 40 32l2.9 11.8c.1.3 0 .5-.1.8-.1.2-.4.4-.6.5l-6.8 1.7c-.5.1-1.1-.2-1.2-.7l-2.9-11.8c-3.7-14.9-16.5-25.2-31.3-25.2-2.4 0-4.9.3-7.3.9-8.2 2-15.1 7.2-19.4 14.7-4.3 7.3-5.5 16.1-3.4 24.6l2.9 11.8c.1.3 0 .5-.1.8-.1.2-.4.4-.6.5L26.4 77h-.2zm34.9-62c-3 0-6 .4-9 1.1C31.5 21.2 18.9 42.7 24.2 64l2.7 10.8 4.8-1.2L29 62.8c-2.2-9-.9-18.3 3.6-26.3 4.6-7.9 11.9-13.5 20.6-15.6 2.5-.6 5.2-.9 7.8-.9 15.7 0 29.3 11 33.2 26.7L97 57.5l4.8-1.2-2.7-10.8C94.7 27.5 79 15 61.1 15z" fill="#284049"/><path class="st3" d="M78.7 117.1c-.3 0-.6-.1-.8-.4-.3-.4-.3-1.1.2-1.4 2-1.5 3.6-3.9 2.9-5.9-.5-1.4-3.5-4.2-18-3.4-23.7 1.3-28.4-7.5-28.6-7.9-.3-.5-.1-1.1.4-1.4.5-.3 1.1-.1 1.4.4.1.1 4.7 8.1 26.9 6.8 11.6-.7 18.4.7 19.9 4.7 1.2 3.1-1.2 6.3-3.6 8.2-.3.2-.5.3-.7.3z" fill="#284049"/><path class="st4" d="M43.8 96.8c-9.7 2.4-19.4-3.5-21.8-13.2-2.4-9.7 3.5-19.4 13.2-21.8" fill="#F74541"/><path class="st5" d="M22 75.8c0-.1 0-.3-.1-.4-.6 2.6-.6 5.4.1 8.2 2.4 9.7 12.1 15.5 21.8 13.2L42 89.3c-9 1.3-17.7-4.4-20-13.5z" fill="#D32020"/><path class="st6" d="M39.4 98.3c-3.5 0-6.9-.9-10-2.7-4.4-2.6-7.6-6.8-8.8-11.7-2.6-10.2 3.8-20.5 14.2-23 .5-.1 1.1.2 1.2.7.1.5-.2 1.1-.7 1.2-9.3 2.2-15 11.5-12.7 20.6 1.1 4.4 3.9 8.1 7.9 10.5 4 2.3 8.6 3 13.1 2 .5-.1 1.1.2 1.2.7.1.5-.2 1.1-.7 1.2-1.6.3-3.2.5-4.7.5z" fill="#A03513"/><path class="st1" d="M50.9 92c.8 3.2-.6 6.3-3.2 7-2.5.6-5.3-1.5-6.1-4.7l-7.1-28.8c-.8-3.2.6-6.3 3.2-7 2.5-.6 5.3 1.5 6.1 4.7L50.9 92z" fill="#415E6D"/><path class="st3" d="M46.6 100c-2.8 0-5.4-2.4-6.2-5.6l-7.2-29c-.4-1.8-.3-3.6.4-5.1.7-1.6 2-2.7 3.6-3.1.4-.2.8-.2 1.2-.2 2.8 0 5.4 2.4 6.2 5.6l7.2 29c.4 1.8.3 3.6-.4 5.1-.7 1.6-2 2.7-3.6 3.1-.4.2-.8.2-1.2.2zm-8.2-41c-.2 0-.5 0-.7.1-.9.2-1.7.9-2.2 2-.5 1.1-.6 2.5-.3 3.8l7.2 29c.6 2.6 2.9 4.5 4.9 4 .9-.2 1.7-.9 2.2-2 .5-1.1.6-2.5.3-3.8l-7.2-29c-.6-2.3-2.4-4.1-4.2-4.1z" fill="#284049"/><path class="st4" d="M98.2 83.4c9.7-2.4 15.5-12.1 13.2-21.8-2.4-9.7-12.1-15.5-21.8-13.2" fill="#F74541"/><path class="st5" d="M97.3 75.6l-6.8-27.5c-.6.1-1.2.2-1.8.4l8.6 35c9.5-2.3 15.4-11.9 13.2-21.4-1.4 6.3-6.4 11.8-13.2 13.5z" fill="#D32020"/><path class="st6" d="M98.2 84c-.5 0-.9-.3-1-.8-.1-.5.2-1.1.7-1.2 9.2-2.2 14.8-11.3 12.5-20.3-1.1-4.4-3.9-8-7.8-10.3-3.9-2.3-8.5-3-12.9-1.9-.5.1-1.1-.2-1.2-.7-.1-.5.2-1.1.7-1.2 5-1.2 10.1-.4 14.5 2.2s7.5 6.7 8.7 11.6c2.5 10-3.7 20.2-14 22.7 0-.1-.1-.1-.2-.1z" fill="#A03513"/><path class="st1" d="M89.7 82.4c.8 3.2 3.5 5.3 6.1 4.7 2.5-.6 4-3.8 3.2-7l-7.1-28.8c-.8-3.2-3.5-5.3-6.1-4.7-2.5.6-4 3.8-3.2 7l7.1 28.8z" fill="#415E6D"/><path class="st3" d="M94.6 88c-2.8 0-5.4-2.4-6.2-5.6l-7.2-29c-.9-3.8.8-7.5 4-8.2.4-.2.8-.2 1.2-.2 2.8 0 5.4 2.4 6.2 5.6l7.2 29c.9 3.8-.8 7.5-4 8.2-.4.2-.8.2-1.2.2zm-8.2-41c-.2 0-.5 0-.7.1-2 .5-3.1 3.2-2.5 5.8l7.2 29c.6 2.3 2.4 4.1 4.2 4.1.2 0 .5 0 .7-.1 2-.5 3.1-3.2 2.5-5.8l-7.2-29c-.6-2.3-2.4-4.1-4.2-4.1z" fill="#284049"/><path class="st3" d="M12.3 14.5c-.3 0-.5-.1-.7-.3L5.3 7.9c-.4-.4-.4-1 0-1.4.4-.4 1-.4 1.4 0l6.4 6.4c.4.4.4 1 0 1.4-.3.1-.5.2-.8.2z" fill="#284049"/><path class="st3" d="M9.3 19.8h-.2l-6.4-1.3c-.5-.1-.9-.6-.8-1.2.1-.5.6-.9 1.2-.8l6.4 1.3c.5.1.9.6.8 1.2-.1.4-.5.8-1 .8z" fill="#284049"/><path class="st3" d="M17.6 11.5c-.5 0-.9-.3-1-.8l-1.3-6.4c-.1-.5.2-1.1.8-1.2.5-.1 1.1.2 1.2.8l1.3 6.4c.1.5-.2 1.1-.8 1.2h-.2z" fill="#284049"/><path class="st2" d="M45.4 85.8c-.5 0-.9-.3-1-.8l-2.9-12c-.1-.5.2-1.1.7-1.2.5-.1 1.1.2 1.2.7l2.9 12c.1.5-.2 1.1-.7 1.2-.1.1-.1.1-.2.1z" opacity=".5" fill="#FFF"/><path class="st2" d="M41.1 69.4c-.5 0-.9-.3-1-.8l-1.5-6.1c-.1-.5.2-1.1.7-1.2.5-.1 1.1.2 1.2.7l1.5 6.1c.1.5-.2 1.1-.7 1.2-.1.1-.2.1-.2.1z" opacity=".5" fill="#FFF"/><path class="st2" d="M93.4 72.9c-.5 0-.9-.3-1-.8l-5.2-21.4c-.1-.5.2-1.1.7-1.2.5-.1 1.1.2 1.2.7l5.2 21.4c.1.5-.2 1.1-.7 1.2-.1.1-.1.1-.2.1z" opacity=".5" fill="#FFF"/><path class="st2" d="M106.4 61.1c-.4 0-.7-.2-.9-.6-2.8-5.7-9-7.3-9.1-7.3-.5-.1-.9-.7-.7-1.2.1-.5.7-.9 1.2-.7.3.1 7.3 1.9 10.4 8.4.2.5 0 1.1-.5 1.3-.1.1-.2.1-.4.1z" opacity=".5" fill="#FFF"/><path class="st7" d="M65 72c-2.2 0-4-1.8-4-4s1.8-4 4-4 4 1.8 4 4-1.8 4-4 4zm0-6.1c-1.2 0-2.1 1-2.1 2.1 0 1.2 1 2.1 2.1 2.1 1.2 0 2.1-1 2.1-2.1 0-1.2-.9-2.1-2.1-2.1z" fill="#FFF"/><path class="st7" d="M70.3 42.3c0-.4-.4-.8-1-.9l-1.9-.3c-.5-.1-1.1-.6-1.1-1.1l-.3-1.9c-.1-.5-.5-1-.9-1s-.8.4-.9 1l-.1 1.9c-.1.5-.6 1.1-1.1 1.1l-1.9.3c-.5.1-1 .5-1 .9s.4.8 1 .9l1.9.3c.5.1 1.1.6 1.1 1.1l.3 1.9c.1.5.5 1 .9 1s.8-.4.8-1l.3-2.1c.1-.5.6-1 1.1-1.1l1.8-.1c.6-.2 1-.5 1-.9z" fill="#FFF"/><path class="st7" d="M85.9 87.6c0-.4-.4-.8-1-.9l-1.9-.3c-.5-.1-1.1-.6-1.1-1.1l-.3-1.9c-.1-.5-.5-1-.9-1s-.8.4-.9 1l-.3 1.9c-.1.5-.6 1.1-1.1 1.1l-1.9.3c-.5.1-1 .5-1 .9s.4.8 1 .9l1.9.3c.5.1 1.1.6 1.1 1.1l.3 1.9c.1.5.5 1 .9 1s.8-.4.8-1l.3-2.1c.1-.5.6-1 1.1-1.1l1.8-.1c.8-.2 1.2-.5 1.2-.9z" fill="#FFF"/><path class="st7" d="M16.2 60.5c0-.4-.4-.8-1-.9l-1.9-.3c-.5-.1-1.1-.6-1.1-1.1l-.2-1.9c-.1-.5-.5-1-.9-1s-.8.4-.9 1l-.2 1.9c-.1.5-.6 1.1-1.1 1.1l-1.9.3c-.5.1-1 .5-1 .9s.4.8 1 .9l1.9.3c.5.1 1.1.6 1.1 1.1l.3 1.9c.1.5.5 1 .9 1s.8-.4.8-1l.3-2.1c.1-.5.6-1 1.1-1.1l1.8-.1c.6-.2 1-.6 1-.9z" fill="#FFF"/><path class="st7" d="M111.3 51.8c0-.4-.4-.8-1-.9l-4.8-.8c-.5-.1-1.1-.6-1.2-1.2l-.8-4.8c-.1-.5-.5-1-.9-1s-.8.4-.9 1l-.8 4.8c-.1.5-.6 1.1-1.2 1.2l-4.8.8c-.5.1-1 .5-1 .9s.4.8 1 .9l4.7.6c.5.1 1.1.6 1.2 1.1l.9 5c.1.5.5 1 .9 1s.8-.4.9-1l.9-5.1c.1-.5.6-1 1.2-1.1l4.7-.6c.6.1 1-.4 1-.8z" fill="#FFF"/><path class="st3" d="M106.6 79.5c-.3-.5-.9-.7-1.4-.4-.5.3-.7.9-.4 1.4.4.6 8.6 15.8-8.8 27.5-21.6 14.6-70.5 15-80.7 6.4-2.8-2.3-4.2-4.9-4.3-7.5-.1-2 .6-3.7 1.4-5-.4-.6-.8-1.2-1.3-1.8-1 1.5-2.2 3.9-2.2 6.8.1 3.2 1.8 6.3 5 9 4.5 3.8 16 6.1 30.1 6.1 2.3 0 4.8-.1 7.2-.2 19.1-1 35.8-5.4 45.8-12.2 19.1-12.7 9.7-29.9 9.6-30.1z" fill="#284049"/></g></svg>