<?xml version="1.0" encoding="utf-8"?>
<!-- Generator: Adobe Illustrator 22.0.1, SVG Export Plug-In . SVG Version: 6.00 Build 0)  -->
<svg version="1.1" id="Layer_1" xmlns="http://www.w3.org/2000/svg" xmlns:xlink="http://www.w3.org/1999/xlink" x="0px" y="0px"
	 viewBox="0 0 217.8 95.1" style="enable-background:new 0 0 217.8 95.1;" xml:space="preserve">
<style type="text/css">
	.st0{fill:#EDF0F4;}
	.st1{fill:#FFFFFF;}
	.st2{fill:#BCBEC0;}
	.st3{fill:#414042;}
	.st4{fill:#F1F2F2;}
	.st5{fill:#58595B;}
	.st6{opacity:0.3;}
	.st7{fill:#FFB936;}
	.st8{fill:#00D4FF;}
	.st9{fill:#6D6E71;}
	.st10{fill:#E6E7E8;}
</style>
<g id="XMLID_324_">
	<g id="XMLID_10_">
		<path class="st0" d="M27.2,9.3h137c4.6,0,8.3,3.7,8.3,8.3l0,0c0,4.6-3.7,8.3-8.3,8.3h-15.6c-4,0-7.2,3.2-7.2,7.2l0,0
			c0,4,3.2,7.2,7.2,7.2h41.9c4.4,0,8,3.6,8,8v0c0,4.4-3.6,8-8,8h-21l0,0c0,8-6.5,14.5-14.5,14.5l0,0c-3.5,0-6.4,2.9-6.4,6.4v17.1
			h-92v-1.4c0-8.5-6.9-15.4-15.4-15.5L9.5,77.1c-4.9,0-8.8-4-8.8-8.9l0,0c0-4.9,4-8.9,8.9-8.9h31.7l0,0c0-8.1,6.5-14.6,14.6-14.6
			h1.2c4.9,0,8.9-4,8.9-8.9l0,0c0-4.9-4-8.9-8.9-8.9H27.2c-4.9,0-8.8-3.9-8.8-8.8l0,0C18.4,13.3,22.4,9.3,27.2,9.3z"/>
	</g>
	<g id="XMLID_7_">
		<g id="XMLID_751_">
			<path class="st1" d="M102.8,93.8V36.6c0-1.7-1.4-3.1-3.1-3.1H53.5c-1.7,0-3.1,1.4-3.1,3.1v57.2L102.8,93.8z"/>
		</g>
		<g id="XMLID_739_">
			<path class="st2" d="M50.3,41.6v-5.5c0-1.5,1.2-2.6,2.6-2.6h47.2c1.5,0,2.6,1.2,2.6,2.6v5.5H50.3z"/>
		</g>
		<g id="XMLID_123_">
			<path id="XMLID_1014_" class="st3" d="M51.1,66.3h-1.5V36.1c0-1.9,1.5-3.4,3.4-3.4h31.2v1.5H53c-1,0-1.9,0.8-1.9,1.9V66.3z"/>
		</g>
		<g id="XMLID_735_">
			<rect id="XMLID_1013_" x="50.3" y="41" class="st3" width="52.4" height="1.5"/>
		</g>
		<g id="XMLID_734_">
			<rect id="XMLID_1012_" x="56.4" y="37.2" class="st3" width="2.1" height="1.5"/>
		</g>
		<g id="XMLID_727_">
			<rect id="XMLID_1011_" x="61.2" y="37.2" class="st3" width="2.1" height="1.5"/>
		</g>
		<g id="XMLID_726_">
			<rect id="XMLID_1010_" x="66.1" y="37.2" class="st3" width="2.1" height="1.5"/>
		</g>
		<g id="XMLID_725_">
			<rect x="57.4" y="47.7" class="st4" width="38.4" height="15.1"/>
		</g>
		<g id="XMLID_724_">
			<rect x="57.4" y="72.5" class="st4" width="11.7" height="15.1"/>
		</g>
		<g id="XMLID_723_">
			<rect x="73.2" y="72.5" class="st4" width="11.7" height="15.1"/>
		</g>
	</g>
	<g id="XMLID_9_">
		<rect id="XMLID_1009_" x="15.7" y="93.6" class="st3" width="2.7" height="1.5"/>
	</g>
	<g id="XMLID_15_">
		<rect id="XMLID_1008_" x="185.6" y="93.6" class="st3" width="6" height="1.5"/>
	</g>
	<g id="XMLID_29_">
		<g id="XMLID_31_">
			<path id="XMLID_1007_" class="st3" d="M113.2,4.2h-4.3c-0.4,0-0.8-0.3-0.8-0.8c0-0.4,0.3-0.8,0.8-0.8h4.3c0.4,0,0.8,0.3,0.8,0.8
				C113.9,3.9,113.6,4.2,113.2,4.2z"/>
		</g>
		<g id="XMLID_30_">
			<path id="XMLID_1006_" class="st3" d="M111,6.4c-0.4,0-0.8-0.3-0.8-0.8V1.3c0-0.4,0.3-0.7,0.8-0.7c0.4,0,0.8,0.3,0.8,0.7v4.3
				C111.8,6,111.5,6.4,111,6.4z"/>
		</g>
	</g>
	<g id="XMLID_21_">
		<g id="XMLID_23_">
			<path id="XMLID_1005_" class="st3" d="M194.5,34.7c-0.2,0-0.4-0.1-0.5-0.2c-0.3-0.3-0.3-0.8,0-1.1l3-3c0.3-0.3,0.8-0.3,1.1,0
				c0.3,0.3,0.3,0.8,0,1.1l-3,3C194.9,34.6,194.7,34.7,194.5,34.7z"/>
		</g>
		<g id="XMLID_22_">
			<path id="XMLID_1004_" class="st3" d="M197.5,34.7c-0.2,0-0.4-0.1-0.5-0.2l-3-3c-0.3-0.3-0.3-0.8,0-1.1c0.3-0.3,0.8-0.3,1.1,0
				l3,3c0.3,0.3,0.3,0.8,0,1.1C197.9,34.6,197.7,34.7,197.5,34.7z"/>
		</g>
	</g>
	<g id="XMLID_119_">
		<g id="XMLID_121_">
			<path id="XMLID_1003_" class="st3" d="M36.2,22.8c-0.2,0-0.4-0.1-0.5-0.2c-0.3-0.3-0.3-0.8,0-1.1l3-3c0.3-0.3,0.8-0.3,1.1,0
				c0.3,0.3,0.3,0.8,0,1.1l-3,3C36.5,22.7,36.4,22.8,36.2,22.8z"/>
		</g>
		<g id="XMLID_120_">
			<path id="XMLID_1002_" class="st3" d="M39.2,22.8c-0.2,0-0.4-0.1-0.5-0.2l-3-3c-0.3-0.3-0.3-0.8,0-1.1c0.3-0.3,0.8-0.3,1.1,0l3,3
				c0.3,0.3,0.3,0.8,0,1.1C39.6,22.7,39.4,22.8,39.2,22.8z"/>
		</g>
	</g>
	<g id="XMLID_24_">
		<rect id="XMLID_1001_" x="14.5" y="34.3" class="st3" width="17.4" height="1.5"/>
	</g>
	<g id="XMLID_35_">
		<rect id="XMLID_1000_" x="56.6" y="3" class="st3" width="46.2" height="1.5"/>
	</g>
	<g id="XMLID_25_">
		<rect id="XMLID_999_" x="33.4" y="34.3" class="st3" width="3.6" height="1.5"/>
	</g>
	<g id="XMLID_26_">
		<rect id="XMLID_998_" x="175.1" y="59.6" class="st3" width="17.4" height="1.5"/>
	</g>
	<g id="XMLID_36_">
		<rect id="XMLID_997_" x="194" y="59.6" class="st3" width="3.6" height="1.5"/>
	</g>
	<g id="XMLID_40_">
		<path class="st3" d="M69.2,17.3c0,0.6-0.5,1.1-1.1,1.1c-0.6,0-1.1-0.5-1.1-1.1c0-0.6,0.5-1.1,1.1-1.1
			C68.8,16.3,69.2,16.7,69.2,17.3z"/>
	</g>
	<g id="XMLID_118_">
		<path class="st3" d="M173.5,46.9c0,0.7-0.6,1.3-1.3,1.3c-0.7,0-1.3-0.6-1.3-1.3c0-0.7,0.6-1.3,1.3-1.3
			C172.9,45.6,173.5,46.2,173.5,46.9z"/>
	</g>
	<g id="XMLID_48_">
		<path class="st3" d="M40.1,48.6c0,0.6-0.5,1.1-1.1,1.1c-0.6,0-1.1-0.5-1.1-1.1c0-0.6,0.5-1.1,1.1-1.1C39.7,47.5,40.1,48,40.1,48.6
			z"/>
	</g>
	<g id="XMLID_5_">
		<g id="XMLID_802_">
			<path class="st5" d="M157,91.8H95c-0.6,0-1-0.4-1-1v-44c0-0.5,0.4-1,1-1h62c0.6,0,1,0.5,1,1v44C158,91.3,157.6,91.8,157,91.8z"/>
		</g>
		<g id="XMLID_319_">
			<path id="XMLID_996_" class="st3" d="M95.6,92.5c-1.3,0-2.3-1.1-2.3-2.3V47.3c0-1.3,1.1-2.3,2.3-2.3h10.1v1.5H95.6
				c-0.5,0-0.8,0.4-0.8,0.8v42.8c0,0.5,0.4,0.8,0.8,0.8V92.5z"/>
		</g>
		<g id="XMLID_316_">
			<path id="XMLID_995_" class="st3" d="M158.8,64.7h-1.5V47.3c0-0.5-0.4-0.8-0.8-0.8h-26V45h26c1.3,0,2.3,1.1,2.3,2.3V64.7z"/>
		</g>
		<g id="XMLID_799_">
			<rect x="97.1" y="49.4" class="st1" width="57.5" height="37.3"/>
		</g>
		<g id="XMLID_798_">
			<path class="st1" d="M156.9,94.3H94.4c-1.5,0-2.8-1.1-3-2.6L91,89h29l1.1,1.6h8l1.2-1.6h30.5l-0.4,2.4
				C160.1,93.1,158.6,94.3,156.9,94.3z"/>
		</g>
		<g id="XMLID_122_">
			<path id="XMLID_994_" class="st3" d="M156.9,95.1H94.4c-1.9,0-3.5-1.3-3.8-3.2l-0.4-2.7l1.5-0.2l0.4,2.7c0.2,1.1,1.1,1.9,2.3,1.9
				h62.5c1.3,0,2.5-1,2.7-2.3l0.2-1.5h-29.3l-1.2,1.6H127v-1.5h1.6l1.2-1.6h31.8l-0.5,3.2C160.8,93.6,159,95.1,156.9,95.1z"/>
		</g>
	</g>
	<g id="XMLID_327_" class="st6">
		<path id="XMLID_992_" class="st3" d="M86,93.8l16.8,0V41.6v-5v-0.5c0-1.5-1.2-2.6-2.6-2.6h-0.5H88.2c-0.1,0.6-0.1,1.2-0.1,1.9v2.9
			h-2.8v-1.6c0-1.1,0.1-2.2,0.3-3.2h-1.4v-0.5c-0.2,1.2-0.4,2.5-0.4,3.8v1.6h-0.2c-1.4,0-2.6,1.2-2.6,2.6v7.5c0,1.4,1.2,2.6,2.6,2.6
			H88v17.9c0,1.4-0.4,2.8-1.2,3.5c-0.4,0.5-1,0.7-1.6,0.7v1.5h3.5C87,77.5,86,80.8,86,84.4V93.8z"/>
	</g>
	<g id="XMLID_345_" class="st6">
		<path id="XMLID_34_" class="st3" d="M127.2,94.3h0.7v-9.9c0-3.6-1-6.9-2.8-9.8h2.1v-1.5c-0.6,0-1.2-0.2-1.6-0.7
			c-0.8-0.8-1.2-2.1-1.2-3.6v-11h1.2l2.4-2.5V51h1c1.4,0,2.6-1.2,2.6-2.6V45h-1.2v0.7h-24.8V45H95.6c-1.3,0-2.3,1.1-2.3,2.3V89h-1.5
			l0-0.1l-1.5,0.2l0.4,2.7c0.2,1,0.7,1.9,1.5,2.4L127.2,94.3L127.2,94.3z M124.5,52.5c0.1-0.5,0.1-1,0.2-1.6h1.9v3.8l-1.5,1.6h-0.5
			V52.5z"/>
	</g>
	<g id="XMLID_19_">
		<g id="XMLID_20_">
			<g id="XMLID_53_">
				<path class="st7" d="M125.3,73.8h-5.8h-12.2V35.3c0-5.7,3.2-10.3,7.2-10.3l0,0c4,0,7.2,4.6,7.2,10.3v33.5
					C121.7,71.2,122.9,73.8,125.3,73.8z"/>
			</g>
			<g id="XMLID_51_">
				<path id="XMLID_989_" class="st3" d="M125.3,74.6h-18.8V35.3c0-6.1,3.6-11.1,8-11.1c4.4,0,8,5,8,11.1v33.5
					c0,1.4,0.4,2.8,1.2,3.6c0.4,0.5,1,0.7,1.6,0.7V74.6z M108.1,73.1h14.3c-0.8-1.1-1.3-2.6-1.3-4.2V35.3c0-5.3-2.9-9.6-6.5-9.6
					c-3.6,0-6.5,4.3-6.5,9.6V73.1z"/>
			</g>
			<g id="XMLID_565_">
				<path class="st7" d="M87.7,73.8h5.8h12.2V35.3c0-5.7-3.2-10.3-7.2-10.3l0,0c-4,0-7.2,4.6-7.2,10.3v33.5
					C91.3,71.2,90.2,73.8,87.7,73.8z"/>
			</g>
			<g id="XMLID_563_">
				<path id="XMLID_986_" class="st3" d="M106.5,74.6H87.7v-1.5c0.6,0,1.2-0.2,1.6-0.7c0.8-0.8,1.2-2.1,1.2-3.5V35.3
					c0-6.1,3.6-11.1,8-11.1c4.4,0,8,5,8,11.1V74.6z M90.7,73.1H105V35.3c0-5.3-2.9-9.6-6.5-9.6c-3.6,0-6.5,4.3-6.5,9.6v33.5
					C92,70.5,91.6,72,90.7,73.1z"/>
			</g>
			<g id="XMLID_77_">
				<g id="XMLID_300_">
					<path class="st7" d="M122.1,43.9v-9.1c0-7.8-6.4-14.1-14.1-14.1h-2.5c-7.8,0-14.1,6.4-14.1,14.1v9.1H122.1z"/>
				</g>
				<g id="XMLID_83_">
					<path class="st7" d="M122.1,43.9v-9.1c0-7.8-6.4-14.1-14.1-14.1h-2.5c-7.8,0-14.1,6.4-14.1,14.1v9.1H122.1z"/>
				</g>
			</g>
			<g id="XMLID_45_">
				<g id="XMLID_50_">
					<path id="XMLID_983_" class="st3" d="M122.8,44.7H90.5v-9.8c0-8.2,6.7-14.9,14.9-14.9h2.5c8.2,0,14.9,6.7,14.9,14.9V44.7z
						 M92,43.2h29.3v-8.3c0-7.4-6-13.4-13.4-13.4h-2.5c-7.4,0-13.4,6-13.4,13.4V43.2z"/>
				</g>
				<g id="XMLID_49_">
					<path id="XMLID_980_" class="st3" d="M122.8,44.7H90.5v-9.8c0-8.2,6.7-14.9,14.9-14.9h2.5c8.2,0,14.9,6.7,14.9,14.9V44.7z
						 M92,43.2h29.3v-8.3c0-7.4-6-13.4-13.4-13.4h-2.5c-7.4,0-13.4,6-13.4,13.4V43.2z"/>
				</g>
			</g>
			<g id="XMLID_574_">
				<path class="st8" d="M125.2,94.3v-9.9c0-10-8.2-18.3-18.3-18.3l0,0c-10,0-18.3,8.2-18.3,18.3v9.9H125.2z"/>
			</g>
			<g id="XMLID_573_">
				<path id="XMLID_979_" class="st3" d="M126,94.3h-1.5v-9.9c0-9.7-7.9-17.5-17.5-17.5c-9.7,0-17.5,7.9-17.5,17.5v9.9H88v-9.9
					c0-10.5,8.5-19,19-19c10.5,0,19,8.5,19,19V94.3z"/>
			</g>
			<g id="XMLID_572_">
				<rect id="XMLID_978_" x="97.4" y="83.1" class="st3" width="1.5" height="11.2"/>
			</g>
			<g id="XMLID_571_">
				<rect id="XMLID_977_" x="116.1" y="83.1" class="st3" width="1.5" height="11.2"/>
			</g>
			<g id="XMLID_570_">
				<path class="st1" d="M106.6,73.5L106.6,73.5c-2.2,0-4-1.8-4-4v-8.4c0-2.2,1.8-4,4-4l0,0c2.2,0,4,1.8,4,4v8.4
					C110.6,71.7,108.8,73.5,106.6,73.5z"/>
			</g>
			<g id="XMLID_569_">
				<path id="XMLID_974_" class="st3" d="M106.6,74.3c-2.6,0-4.7-2.1-4.7-4.7v-8.4c0-2.6,2.1-4.7,4.7-4.7c2.6,0,4.7,2.1,4.7,4.7v8.4
					C111.4,72.1,109.2,74.3,106.6,74.3z M106.6,57.9c-1.8,0-3.2,1.4-3.2,3.2v8.4c0,1.8,1.4,3.2,3.2,3.2c1.8,0,3.2-1.4,3.2-3.2v-8.4
					C109.9,59.3,108.4,57.9,106.6,57.9z"/>
			</g>
			<g id="XMLID_568_">
				<path class="st1" d="M122,39.8v10.1c0,8.4-6.9,15.4-15.4,15.4h0c-8.4,0-15.4-6.9-15.4-15.4V39.8c7.6,0,13.6-6.4,15.2-8.4
					c0.2-0.3,0.7-0.3,0.9,0C109.1,33.3,115.1,39.8,122,39.8z"/>
			</g>
			<g id="XMLID_567_">
				<path id="XMLID_971_" class="st3" d="M106.6,66c-8.9,0-16.1-7.2-16.1-16.1V39h0.8c7.3,0,13.1-6.2,14.6-8.2
					c0.3-0.3,0.6-0.5,1-0.5c0,0,0,0,0,0c0.4,0,0.8,0.2,1,0.5c1.6,1.9,7.4,8.2,14,8.2h0.8v10.8C122.8,58.8,115.5,66,106.6,66z
					 M92,40.5v9.4c0,8.1,6.6,14.6,14.6,14.6c8.1,0,14.6-6.6,14.6-14.6v-9.4c-6.8-0.4-12.5-6.5-14.3-8.6
					C105.2,34.1,99.4,40.1,92,40.5z"/>
			</g>
			<g id="XMLID_44_">
				<path id="XMLID_970_" class="st3" d="M87.3,47.9h-1.5V36.7c0-11.5,9.3-20.8,20.8-20.8c2.8,0,5.5,0.6,8.1,1.6l-0.6,1.4
					c-2.4-1-4.9-1.5-7.5-1.5c-10.7,0-19.3,8.7-19.3,19.3V47.9z"/>
			</g>
			<g id="XMLID_33_">
				<path id="XMLID_969_" class="st3" d="M121.9,24.9c-1.4-1.9-3.2-3.4-5.2-4.7l0.8-1.3c2.1,1.3,4,3,5.6,5L121.9,24.9z"/>
			</g>
			<g id="XMLID_566_">
				<path id="XMLID_968_" class="st3" d="M127.4,47.9h-1.5V36.7c0-3.1-0.8-6.3-2.3-9l1.3-0.7c1.6,3,2.4,6.3,2.4,9.7V47.9z"/>
			</g>
			<g id="XMLID_562_">
				<path class="st5" d="M89.8,50.2h-3.7c-1,0-1.8-0.8-1.8-1.8v-7.5c0-1,0.8-1.8,1.8-1.8h3.7V50.2z"/>
			</g>
			<g id="XMLID_564_">
				<path id="XMLID_965_" class="st3" d="M90.6,51h-4.5c-1.4,0-2.6-1.2-2.6-2.6v-7.5c0-1.4,1.2-2.6,2.6-2.6h4.5V51z M86.1,39.7
					c-0.6,0-1.1,0.5-1.1,1.1v7.5c0,0.6,0.5,1.1,1.1,1.1h3v-9.7H86.1z"/>
			</g>
			<g id="XMLID_32_">
				<path class="st5" d="M123.4,50.2h3.7c1,0,1.8-0.8,1.8-1.8v-7.5c0-1-0.8-1.8-1.8-1.8h-3.7V50.2z"/>
			</g>
			<g id="XMLID_28_">
				<path id="XMLID_962_" class="st3" d="M127.1,51h-4.5V38.2h4.5c1.4,0,2.6,1.2,2.6,2.6v7.5C129.7,49.8,128.5,51,127.1,51z
					 M124.1,49.5h3c0.6,0,1.1-0.5,1.1-1.1v-7.5c0-0.6-0.5-1.1-1.1-1.1h-3V49.5z"/>
			</g>
			<g id="XMLID_583_">
				<polygon id="XMLID_956_" class="st3" points="123.7,57.9 114.4,57.9 114.4,56.4 123,56.4 124.6,54.8 124.6,50.2 126.1,50.2 
					126.1,55.4 				"/>
			</g>
			<g id="XMLID_584_">
				<path class="st5" d="M113.3,59.3h-4.5c-1.1,0-2-0.9-2-2l0,0c0-1.1,0.9-2,2-2h4.5c1.1,0,2,0.9,2,2l0,0
					C115.3,58.5,114.4,59.3,113.3,59.3z"/>
			</g>
			<g id="XMLID_27_">
				<path id="XMLID_129_" class="st3" d="M113.3,60.1h-4.5c-1.5,0-2.7-1.2-2.7-2.7c0-1.5,1.2-2.7,2.7-2.7h4.5c1.5,0,2.7,1.2,2.7,2.7
					C116,58.9,114.8,60.1,113.3,60.1z M108.8,56.1c-0.7,0-1.2,0.6-1.2,1.2s0.6,1.2,1.2,1.2h4.5c0.7,0,1.2-0.6,1.2-1.2
					s-0.6-1.2-1.2-1.2H108.8z"/>
			</g>
		</g>
	</g>
	<g id="XMLID_369_">
		<g id="XMLID_363_">
			<path class="st1" d="M171.1,77.7l-2.2,0c-0.3-1.2-0.7-2.2-1.3-3.2l1.6-1.6c0.6-0.6,0.6-1.5,0-2l-1.2-1.2c-0.6-0.6-1.5-0.6-2,0
				l-1.6,1.6c-1-0.6-2.1-1.1-3.2-1.3v-2.2c0-0.8-0.6-1.4-1.4-1.4H158c-0.8,0-1.4,0.6-1.4,1.4V70c-1.1,0.3-2.2,0.7-3.2,1.3l-1.6-1.6
				c-0.6-0.6-1.5-0.6-2,0l-1.2,1.2c-0.6,0.6-0.6,1.5,0,2l1.6,1.6c-0.6,1-1.1,2-1.3,3.2l-2.2,0c-0.8,0-1.4,0.6-1.4,1.4l0,1.7
				c0,0.8,0.6,1.4,1.4,1.4l2.2,0c0.3,1.2,0.7,2.2,1.3,3.2l-1.6,1.6c-0.6,0.6-0.6,1.5,0,2l1.2,1.2c0.6,0.6,1.5,0.6,2,0l1.6-1.6
				c1,0.6,2,1.1,3.2,1.3l0,2.2c0,0.8,0.6,1.4,1.4,1.4l1.7,0c0.8,0,1.4-0.6,1.4-1.4l0-2.2c1.2-0.3,2.2-0.7,3.2-1.3l1.6,1.6
				c0.6,0.6,1.5,0.6,2,0l1.2-1.2c0.6-0.6,0.6-1.5,0-2l-1.6-1.6c0.6-1,1.1-2,1.3-3.2l2.2,0c0.8,0,1.4-0.6,1.4-1.4v-1.7
				C172.5,78.4,171.9,77.7,171.1,77.7z M158.9,84.6c-2.5,0-4.6-2-4.6-4.6c0-2.5,2-4.6,4.6-4.6c2.5,0,4.6,2,4.6,4.6
				C163.4,82.5,161.4,84.6,158.9,84.6z"/>
		</g>
		<g id="XMLID_128_">
			<path id="XMLID_957_" class="st3" d="M159.7,94.4l-1.7,0c-0.6,0-1.1-0.2-1.5-0.6c-0.4-0.4-0.6-1-0.6-1.6l0-1.6
				c-0.8-0.2-1.6-0.6-2.3-1l-1.2,1.2c-0.4,0.4-1,0.6-1.5,0.6c0,0,0,0,0,0c-0.6,0-1.1-0.2-1.6-0.7l-1.2-1.2c-0.4-0.4-0.6-1-0.6-1.5
				c0-0.6,0.2-1.1,0.6-1.5l1.2-1.2c-0.4-0.7-0.7-1.5-1-2.3l-1.6,0c-1.2,0-2.2-1-2.2-2.2l0-1.7c0-0.6,0.2-1.1,0.6-1.6
				c0.4-0.4,1-0.6,1.6-0.6l1.6,0c0.2-0.8,0.6-1.6,1-2.3l-1.2-1.2c-0.4-0.4-0.6-1-0.6-1.6c0-0.6,0.2-1.1,0.6-1.5l1.2-1.2
				c0.4-0.4,1-0.6,1.5-0.6c0,0,0,0,0,0c0.6,0,1.1,0.2,1.6,0.6l1.2,1.2c0.7-0.4,1.5-0.7,2.3-0.9v-1.6c0-1.2,1-2.2,2.2-2.2h1.7
				c1.2,0,2.2,1,2.2,2.2v1.6c0.8,0.2,1.6,0.6,2.3,1l1.2-1.2c0.9-0.9,2.2-0.8,3.1,0l1.2,1.2c0.4,0.4,0.6,1,0.6,1.5
				c0,0.6-0.2,1.1-0.6,1.6l-1.2,1.2c0.4,0.7,0.7,1.5,1,2.3l1.6,0c1.2,0,2.2,1,2.2,2.2v1.7c0,1.2-1,2.2-2.2,2.2l-1.6,0
				c-0.2,0.8-0.6,1.6-1,2.3l1.2,1.2c0.4,0.4,0.6,1,0.6,1.5c0,0.6-0.2,1.1-0.6,1.6l-1.2,1.2c-0.9,0.9-2.3,0.9-3.1,0l-1.2-1.2
				c-0.7,0.4-1.5,0.7-2.3,1l0,1.6C161.8,93.5,160.9,94.4,159.7,94.4z M153.2,87.7l0.5,0.3c0.9,0.6,1.9,1,3,1.2l0.6,0.1l0,2.8
				c0,0.2,0.1,0.4,0.2,0.5c0.1,0.1,0.3,0.2,0.5,0.2l1.7,0c0.4,0,0.7-0.3,0.7-0.7l0-2.8l0.6-0.1c1.1-0.2,2.1-0.7,3-1.2l0.5-0.3l2,2
				c0.3,0.3,0.7,0.3,1,0l1.2-1.2c0.1-0.1,0.2-0.3,0.2-0.5c0-0.2-0.1-0.4-0.2-0.5l-2-2l0.3-0.5c0.6-0.9,1-1.9,1.2-3l0.1-0.6l2.8,0
				c0.4,0,0.7-0.3,0.7-0.7v-1.7c0-0.4-0.3-0.7-0.7-0.7l-2.8,0l-0.1-0.6c-0.2-1.1-0.7-2.1-1.2-3l-0.3-0.5l2-2
				c0.1-0.1,0.2-0.3,0.2-0.5c0-0.2-0.1-0.4-0.2-0.5l-1.2-1.2c-0.3-0.3-0.7-0.3-1,0l-2,2l-0.5-0.3c-0.9-0.6-1.9-1-3-1.2l-0.6-0.1
				v-2.8c0-0.4-0.3-0.7-0.7-0.7H158c-0.4,0-0.7,0.3-0.7,0.7v2.8l-0.6,0.1c-1,0.2-2,0.6-2.9,1.2l-0.5,0.3l-2-2
				c-0.1-0.1-0.3-0.2-0.5-0.2l0,0c-0.2,0-0.4,0.1-0.5,0.2l-1.2,1.2c-0.1,0.1-0.2,0.3-0.2,0.5c0,0.2,0.1,0.4,0.2,0.5l2,2l-0.3,0.5
				c-0.6,0.9-1,1.9-1.2,3l-0.1,0.6l-2.8,0c-0.2,0-0.4,0.1-0.5,0.2c-0.1,0.1-0.2,0.3-0.2,0.5l0,1.7c0,0.4,0.3,0.7,0.7,0.7l2.8,0
				l0.1,0.6c0.2,1.1,0.7,2.1,1.2,3l0.3,0.5l-2,2c-0.1,0.1-0.2,0.3-0.2,0.5c0,0.2,0.1,0.4,0.2,0.5l1.2,1.2c0.1,0.1,0.3,0.2,0.5,0.2
				c0,0,0,0,0,0c0.2,0,0.4-0.1,0.5-0.2L153.2,87.7z M158.9,85.3c-2.9,0-5.3-2.4-5.3-5.3c0-2.9,2.4-5.3,5.3-5.3
				c2.9,0,5.3,2.4,5.3,5.3C164.2,82.9,161.8,85.3,158.9,85.3z M158.9,76.2c-2.1,0-3.8,1.7-3.8,3.8c0,2.1,1.7,3.8,3.8,3.8
				c2.1,0,3.8-1.7,3.8-3.8C162.7,77.9,161,76.2,158.9,76.2z"/>
		</g>
	</g>
	<g id="XMLID_8_">
		<g id="XMLID_283_">
			<path class="st9" d="M73.6,94.1h-0.8c-0.6,0-1-0.4-1-1v-2.3c0-0.6,0.4-1,1-1h0.8c0.6,0,1,0.4,1,1v2.3
				C74.6,93.6,74.1,94.1,73.6,94.1z"/>
		</g>
		<g id="XMLID_280_">
			<path id="XMLID_952_" class="st3" d="M73.6,94.8h-0.8c-1,0-1.8-0.8-1.8-1.8v-2.3c0-1,0.8-1.8,1.8-1.8h0.8c1,0,1.8,0.8,1.8,1.8
				v2.3C75.3,94,74.5,94.8,73.6,94.8z M72.7,90.5c-0.1,0-0.2,0.1-0.2,0.2v2.3c0,0.1,0.1,0.2,0.2,0.2h0.8c0.1,0,0.2-0.1,0.2-0.2v-2.3
				c0-0.1-0.1-0.2-0.2-0.2H72.7z"/>
		</g>
		<g id="XMLID_228_">
			<path class="st1" d="M82.7,72.1c0-5.2-4.2-9.5-9.5-9.5c-5.2,0-9.5,4.2-9.5,9.5c0,3.5,1.9,6.6,4.7,8.2v9.3l1.3,2.5h6.5l1.6-2.5
				v-9.3C80.8,78.7,82.7,75.6,82.7,72.1z"/>
		</g>
		<g id="XMLID_225_">
			<polygon class="st2" points="68.5,80.3 68.5,89.6 69.8,92.2 76.3,92.2 77.9,89.6 77.9,80.3 			"/>
		</g>
		<g id="XMLID_198_">
			<polygon class="st9" points="77.9,89.6 76.3,92.2 69.8,92.2 68.5,89.6 			"/>
		</g>
		<g id="XMLID_197_">
			<path id="XMLID_951_" class="st3" d="M76.8,92.9h-7.4l-1.6-3.1v-9.1c-2.9-1.9-4.7-5.1-4.7-8.6c0-2.4,0.9-4.7,2.4-6.6l1.1,1
				c-1.3,1.6-2,3.6-2,5.6c0,3.1,1.7,6,4.4,7.5l0.4,0.2v9.6l1,2h5.6l1.3-2v-9.5l0.4-0.2c2.7-1.6,4.4-4.4,4.4-7.5
				c0-4.8-3.9-8.7-8.7-8.7c-1.1,0-2.2,0.2-3.3,0.6l-0.6-1.4c1.2-0.5,2.5-0.7,3.8-0.7c5.6,0,10.2,4.6,10.2,10.2
				c0,3.5-1.8,6.7-4.7,8.6v9.1L76.8,92.9z"/>
		</g>
		<g id="XMLID_196_">
			<path id="XMLID_950_" class="st3" d="M67.5,65.6l-1.1-1.1c0.6-0.6,0.9-0.8,1.6-1.2l0.2-0.1l0.7,1.3l-0.2,0.1
				C68.1,65,67.9,65.1,67.5,65.6z"/>
		</g>
		<g id="XMLID_195_">
			<rect id="XMLID_949_" x="67.1" y="82.4" class="st3" width="12.3" height="1.5"/>
		</g>
		<g id="XMLID_153_">
			<rect id="XMLID_948_" x="67.1" y="84.6" class="st3" width="12.3" height="1.5"/>
		</g>
		<g id="XMLID_152_">
			<rect id="XMLID_947_" x="67.1" y="86.7" class="st3" width="12.3" height="1.5"/>
		</g>
		<g id="XMLID_132_">
			<rect id="XMLID_946_" x="67.1" y="88.9" class="st3" width="12.3" height="1.5"/>
		</g>
		<g id="XMLID_131_">
			<circle class="st7" cx="73.2" cy="71.8" r="7.6"/>
		</g>
		<g id="XMLID_127_">
			<path class="st5" d="M75.2,70.4c0-1.1-0.9-2-2-2c-1.1,0-2,0.9-2,2c0,0.5,0.2,1,0.6,1.4l-0.6,3.5h3.9l-0.6-3.4
				C74.9,71.5,75.2,71,75.2,70.4z"/>
		</g>
		<g id="XMLID_126_">
			<path id="XMLID_943_" class="st3" d="M76,76h-5.6l0.7-4c-0.3-0.5-0.5-1-0.5-1.6c0-1.5,1.2-2.7,2.7-2.7s2.7,1.2,2.7,2.7
				c0,0.6-0.2,1.3-0.6,1.8L76,76z M72.1,74.5h2.1l-0.5-3l0.3-0.3c0.3-0.2,0.4-0.6,0.4-0.9c0-0.7-0.6-1.2-1.2-1.2
				c-0.7,0-1.2,0.6-1.2,1.2c0,0.3,0.1,0.6,0.4,0.9l0.3,0.3L72.1,74.5z"/>
		</g>
	</g>
	<g id="XMLID_295_">
		<g id="XMLID_125_">
			<path class="st10" d="M134.2,18.1v16.5h2.1v2.8v5.3c0,0.3,0.4,0.4,0.5,0.2l6.9-8.3h20.8V18.1H134.2z"/>
		</g>
		<g id="XMLID_372_">
			<polygon id="XMLID_942_" class="st3" points="165.4,20.1 163.9,20.1 163.9,18.9 156.8,18.9 156.8,17.4 165.4,17.4 			"/>
		</g>
		<g id="XMLID_371_">
			<path id="XMLID_941_" class="st3" d="M136.6,43.8c-0.1,0-0.2,0-0.4-0.1c-0.4-0.2-0.7-0.5-0.7-1v-7.3h-2.1v-5.6h1.5v4.1h2.1v7.6
				l6.4-7.6h20.4v-1.5h1.5v3h-21.2l-6.7,8C137.2,43.7,136.9,43.8,136.6,43.8z"/>
		</g>
		<g id="XMLID_803_">
			<rect id="XMLID_940_" x="155.2" y="21.1" class="st3" width="27.7" height="1.5"/>
		</g>
		<g id="XMLID_124_">
			<rect id="XMLID_939_" x="152.7" y="25.5" class="st3" width="30.2" height="1.5"/>
		</g>
		<g id="XMLID_801_">
			<rect id="XMLID_938_" x="147.8" y="29.9" class="st3" width="35" height="1.5"/>
		</g>
		<g id="XMLID_455_">
			<path class="st1" d="M128.8,29l7.1-1.3c1.7,0.7,3.5,1.2,5.5,1.2c7.4,0,13.4-6,13.4-13.4c0-7.4-6-13.4-13.4-13.4
				c-7.4,0-13.4,6-13.4,13.4c0,2.6,0.8,5.1,2.1,7.1L128.8,29z"/>
		</g>
		<g id="XMLID_443_">
			<path id="XMLID_935_" class="st3" d="M127.9,30l1.3-7.2c-1.3-2.2-2-4.7-2-7.3c0-7.8,6.4-14.2,14.2-14.2c7.8,0,14.2,6.4,14.2,14.2
				s-6.4,14.2-14.2,14.2c-1.9,0-3.8-0.4-5.6-1.1L127.9,30z M136,27l0.2,0.1c1.6,0.7,3.4,1.1,5.2,1.1c7,0,12.7-5.7,12.7-12.7
				s-5.7-12.7-12.7-12.7s-12.7,5.7-12.7,12.7c0,2.4,0.7,4.7,1.9,6.7l0.2,0.2l-1,5.7L136,27z"/>
		</g>
		<g id="XMLID_452_">
			<ellipse class="st7" cx="141.4" cy="15.5" rx="10.1" ry="10.4"/>
		</g>
		<g id="XMLID_346_">
			<g id="XMLID_361_">
				<path class="st3" d="M135.5,15c0.1-0.2,0.2-0.3,0.2-0.5c0-0.2-0.1-0.3-0.2-0.4s-0.2-0.2-0.4-0.2c-0.3,0-0.6,0.2-0.9,0.6
					l-0.9-0.5c0.2-0.3,0.5-0.6,0.7-0.8c0.3-0.2,0.6-0.3,1-0.3c0.4,0,0.8,0.1,1.1,0.4c0.3,0.3,0.5,0.6,0.5,1.1c0,0.2-0.1,0.5-0.2,0.7
					c-0.1,0.2-0.4,0.5-0.7,0.9L135,17h1.9v1h-3.4v-0.8l1.4-1.4C135.2,15.5,135.4,15.2,135.5,15z"/>
			</g>
			<g id="XMLID_354_">
				<path class="st3" d="M139.5,15.9v-0.8h1v0.8h0.5v0.9h-0.5V18h-1v-1.2h-1.9V16l1.7-2.8h1.2l-1.6,2.7H139.5z"/>
			</g>
			<g id="XMLID_352_">
				<path class="st3" d="M144.4,12.4h1l-2.9,6.3h-1L144.4,12.4z"/>
			</g>
			<g id="XMLID_347_">
				<path class="st3" d="M145.9,14.7v-1.5h3.5V14l-2,4h-1.2l1.9-3.9h-1.2v0.6H145.9z"/>
			</g>
		</g>
	</g>
	<g id="XMLID_205_">
		<g id="XMLID_4_">
			<g id="XMLID_117_">
				<path class="st8" d="M34.8,70.5l-2.3,2.3l-0.8-0.8c-0.4-0.4-0.4-1.1,0-1.5l0.8-0.8c0.4-0.4,1.1-0.4,1.5,0L34.8,70.5z"/>
			</g>
			<g id="XMLID_110_">
				<path id="XMLID_932_" class="st3" d="M32.4,73.9l-1.3-1.3c-0.7-0.7-0.7-1.9,0-2.6l0.8-0.8c0.7-0.7,1.9-0.7,2.6,0l1.3,1.3
					L32.4,73.9z M33.2,70.2c-0.1,0-0.1,0-0.2,0.1l-0.8,0.8c-0.1,0.1-0.1,0.2-0.1,0.2c0,0.1,0,0.1,0.1,0.2l0.2,0.2l1.3-1.3l-0.2-0.2
					C33.4,70.2,33.3,70.2,33.2,70.2z"/>
			</g>
			<g id="XMLID_62_">
				<path class="st8" d="M53.7,72.6l-2.3-2.3l0.8-0.8c0.4-0.4,1.1-0.4,1.5,0l0.8,0.8c0.4,0.4,0.4,1.1,0,1.5L53.7,72.6z"/>
			</g>
			<g id="XMLID_61_">
				<path id="XMLID_929_" class="st3" d="M53.7,73.7l-3.4-3.4l1.3-1.3c0.7-0.7,1.9-0.7,2.6,0l0.8,0.8c0.3,0.3,0.5,0.8,0.5,1.3
					c0,0.5-0.2,0.9-0.5,1.3L53.7,73.7z M52.4,70.3l1.3,1.3l0.2-0.2c0.1-0.1,0.1-0.2,0.1-0.2c0-0.1,0-0.1-0.1-0.2l-0.8-0.8
					c-0.1-0.1-0.3-0.1-0.5,0L52.4,70.3z"/>
			</g>
			<g id="XMLID_60_">
				<path class="st8" d="M51.6,91.6l2.3-2.3l0.8,0.8c0.4,0.4,0.4,1.1,0,1.5l-0.8,0.8c-0.4,0.4-1.1,0.4-1.5,0L51.6,91.6z"/>
			</g>
			<g id="XMLID_59_">
				<path id="XMLID_921_" class="st3" d="M53.1,93.4C53.1,93.4,53.1,93.4,53.1,93.4c-0.5,0-1-0.2-1.3-0.5l-1.3-1.3l3.4-3.4l1.3,1.3
					c0.3,0.3,0.5,0.8,0.5,1.3c0,0.5-0.2,0.9-0.5,1.3l-0.8,0.8C54.1,93.2,53.6,93.4,53.1,93.4z M52.7,91.6l0.2,0.2
					c0.1,0.1,0.2,0.1,0.2,0.1c0.1,0,0.1,0,0.2-0.1l0.8-0.8c0.1-0.1,0.1-0.2,0.1-0.2c0-0.1,0-0.1-0.1-0.2l-0.2-0.2L52.7,91.6z"/>
			</g>
			<g id="XMLID_57_">
				<path class="st8" d="M32.7,89.4l2.3,2.3l-0.8,0.8c-0.4,0.4-1.1,0.4-1.5,0l-0.8-0.8c-0.4-0.4-0.4-1.1,0-1.5L32.7,89.4z"/>
			</g>
			<g id="XMLID_56_">
				<path id="XMLID_37_" class="st3" d="M33.4,93.6C33.4,93.6,33.4,93.6,33.4,93.6c-0.5,0-1-0.2-1.3-0.5l-0.8-0.8
					c-0.3-0.3-0.5-0.8-0.5-1.3c0-0.5,0.2-0.9,0.5-1.3l1.3-1.3l3.4,3.4l-1.3,1.3C34.4,93.4,33.9,93.6,33.4,93.6z M32.7,90.5l-0.2,0.2
					c-0.1,0.1-0.1,0.2-0.1,0.2c0,0.1,0,0.1,0.1,0.2l0.8,0.8c0.1,0.1,0.2,0.1,0.2,0.1c0,0,0.1,0,0.2-0.1l0.2-0.2L32.7,90.5z"/>
			</g>
			<g id="XMLID_39_">
				<path class="st1" d="M43.2,67.1c-7.5,0-13.6,6.1-13.6,13.6c0,7.5,6.1,13.6,13.6,13.6c7.5,0,13.6-6.1,13.6-13.6
					C56.8,73.2,50.7,67.1,43.2,67.1z M43.2,88.6c-4.4,0-7.9-3.5-7.9-7.9c0-4.4,3.5-7.9,7.9-7.9s7.9,3.5,7.9,7.9
					C51.1,85.1,47.6,88.6,43.2,88.6z"/>
			</g>
			<g id="XMLID_18_">
				<path id="XMLID_922_" class="st3" d="M43.2,95.1c-7.9,0-14.4-6.4-14.4-14.4c0-7.9,6.4-14.4,14.4-14.4c7.9,0,14.4,6.4,14.4,14.4
					C57.6,88.6,51.1,95.1,43.2,95.1z M43.2,67.8c-7.1,0-12.9,5.8-12.9,12.9c0,7.1,5.8,12.9,12.9,12.9s12.9-5.8,12.9-12.9
					C56.1,73.6,50.3,67.8,43.2,67.8z M43.2,89.4c-4.8,0-8.7-3.9-8.7-8.7c0-4.8,3.9-8.7,8.7-8.7c4.8,0,8.7,3.9,8.7,8.7
					C51.8,85.5,48,89.4,43.2,89.4z M43.2,73.5c-3.9,0-7.2,3.2-7.2,7.2c0,3.9,3.2,7.2,7.2,7.2c3.9,0,7.2-3.2,7.2-7.2
					C50.3,76.8,47.1,73.5,43.2,73.5z"/>
			</g>
			<g id="XMLID_17_">
				<path class="st8" d="M30.9,74.8l5.1,2.6c0.7-1.6,1.9-2.9,3.4-3.7l-2.6-5.1C34.3,70,32.2,72.2,30.9,74.8z"/>
			</g>
			<g id="XMLID_16_">
				<path class="st8" d="M49.5,68.6l-2.6,5.1c1.5,0.8,2.7,2.1,3.4,3.7l5.1-2.6C54.2,72.2,52.1,70,49.5,68.6z"/>
			</g>
			<g id="XMLID_14_">
				<path class="st8" d="M55.2,87.1l-5.1-2.6c-0.8,1.4-2,2.5-3.4,3.2l2.6,5.1C51.8,91.6,53.8,89.6,55.2,87.1z"/>
			</g>
			<g id="XMLID_13_">
				<path class="st8" d="M37.2,92.9l2.6-5.1c-1.5-0.7-2.7-1.8-3.5-3.2l-5.1,2.6C32.5,89.6,34.6,91.7,37.2,92.9z"/>
			</g>
			<g id="XMLID_12_">
				<path id="XMLID_917_" class="st3" d="M36.4,78.4l-6.4-3.3l0.3-0.7c1.3-2.8,3.6-5.1,6.3-6.5l0.7-0.4l3.3,6.4l-0.6,0.3
					c-1.4,0.7-2.5,1.9-3.1,3.3L36.4,78.4z M31.9,74.5l3.8,1.9c0.7-1.2,1.6-2.2,2.8-2.9l-1.9-3.8C34.6,70.9,33,72.5,31.9,74.5z"/>
			</g>
			<g id="XMLID_11_">
				<path id="XMLID_914_" class="st3" d="M50,78.4l-0.3-0.7c-0.7-1.4-1.8-2.6-3.1-3.3L45.9,74l3.3-6.4l0.7,0.4
					c2.7,1.4,4.9,3.7,6.3,6.5l0.3,0.7L50,78.4z M47.9,73.4c1.1,0.7,2.1,1.8,2.8,2.9l3.7-1.9c-1.1-2-2.7-3.6-4.6-4.8L47.9,73.4z"/>
			</g>
			<g id="XMLID_168_">
				<path id="XMLID_911_" class="st3" d="M48.9,93.9l-3.3-6.4l0.7-0.3c1.3-0.6,2.4-1.7,3.1-2.9l0.4-0.6l6.4,3.3l-0.4,0.7
					c-1.4,2.6-3.6,4.7-6.3,6.1L48.9,93.9z M47.6,88.1l1.9,3.8c1.9-1.1,3.4-2.6,4.6-4.4l-3.8-1.9C49.7,86.6,48.7,87.5,47.6,88.1z"/>
			</g>
			<g id="XMLID_194_">
				<path id="XMLID_908_" class="st3" d="M37.5,93.9l-0.7-0.3c-2.7-1.3-4.9-3.4-6.3-6l-0.4-0.7l6.4-3.3l0.4,0.6
					c0.7,1.3,1.8,2.3,3.1,2.9l0.7,0.3L37.5,93.9z M32.2,87.5c1.1,1.8,2.7,3.3,4.6,4.4l1.9-3.8c-1.1-0.6-2-1.5-2.7-2.6L32.2,87.5z"/>
			</g>
		</g>
	</g>
	<g id="XMLID_370_">
		<path class="st0" d="M208,82.4h-23.9c-4.9,0-8.9-4-8.9-8.9v0c0-4.9,4-8.9,8.9-8.9H208c4.9,0,8.9,4,8.9,8.9v0
			C216.9,78.4,212.9,82.4,208,82.4z"/>
	</g>
	<g id="XMLID_3_">
		<rect id="XMLID_907_" x="20.2" y="93.6" class="st3" width="163.8" height="1.5"/>
	</g>
</g>
</svg>
