<svg xmlns="http://www.w3.org/2000/svg" x="0" y="0" viewBox="0 0 128 128" enable-background="new 0 0 128 128" width="128" height="128"><title>iphone</title><g class="nc-icon-wrapper"><circle class="st0" cx="64" cy="64" r="64" fill="#FBD000"/><path class="st1" d="M89 121c0 3.3-2.7 6-6 6H36c-3.3 0-6-2.7-6-6V23c0-3.3 2.7-6 6-6h47c3.3 0 6 2.7 6 6v98z" fill="#EAEAEA"/><path class="st2" d="M33 121V23c0-3.3 3.1-6 6.4-6h-3c-3.3 0-6 2.7-6 6v98c0 3.3 2.7 6 6 6h3c-3.3 0-6.4-2.7-6.4-6z" fill="#D4D6D6"/><path class="st3" d="M83 128H36c-3.9 0-7-3.1-7-7V23c0-3.9 3.1-7 7-7h47c3.9 0 7 3.1 7 7v98c0 3.9-3.1 7-7 7zM36 18c-2.8 0-5 2.2-5 5v98c0 2.8 2.2 5 5 5h47c2.8 0 5-2.2 5-5V23c0-2.8-2.2-5-5-5H36z" fill="#7C4119"/><path class="st4" d="M96 121c0 3.3-2.7 6-6 6H43c-3.3 0-6-2.7-6-6V23c0-3.3 2.7-6 6-6h47c3.3 0 6 2.7 6 6v98z" fill="#FFF"/><path class="st5" d="M89 107c0 2.2-1.8 4-4 4H48c-2.2 0-4-1.8-4-4V33c0-2.2 1.8-4 4-4h37c2.2 0 4 1.8 4 4v74z" fill="#3AD0F9"/><circle class="st1" cx="67" cy="118" r="4" fill="#EAEAEA"/><path class="st1" d="M33 43c0 1.1-.9 2-2 2s-2-.9-2-2V33c0-1.1.9-2 2-2s2 .9 2 2v10z" fill="#EAEAEA"/><path class="st6" d="M72.2 67.1c0-2.7 2.2-3.9 2.3-4-1.2-1.8-3.1-2.1-3.8-2.1-1.6-.2-3.2 1-4 1-.8 0-2.1-.9-3.4-.9-1.8 0-3.4 1-4.3 2.6-1.8 3.2-.5 8 1.3 10.6.9 1.3 1.9 2.7 3.3 2.7 1.3-.1 1.8-.9 3.4-.9 1.6 0 2 .9 3.4.8 1.4 0 2.3-1.3 3.2-2.6 1-1.5 1.4-2.9 1.4-3 0 0-2.8-1-2.8-4.2z" fill="#00B3F9"/><path class="st1" d="M33 62c0 1.1-.9 2-2 2s-2-.9-2-2V52c0-1.1.9-2 2-2s2 .9 2 2v10z" fill="#EAEAEA"/><path class="st3" d="M72 24H61c-.6 0-1-.4-1-1s.4-1 1-1h11c.6 0 1 .4 1 1s-.4 1-1 1z" fill="#7C4119"/><path class="st3" d="M31 46c-1.7 0-3-1.3-3-3V33c0-1.7 1.3-3 3-3s3 1.3 3 3v10c0 1.7-1.3 3-3 3zm0-14c-.6 0-1 .4-1 1v10c0 .6.4 1 1 1s1-.4 1-1V33c0-.6-.4-1-1-1z" fill="#7C4119"/><path class="st3" d="M31 65c-1.7 0-3-1.3-3-3V52c0-1.7 1.3-3 3-3s3 1.3 3 3v10c0 1.7-1.3 3-3 3zm0-14c-.6 0-1 .4-1 1v10c0 .6.4 1 1 1s1-.4 1-1V52c0-.6-.4-1-1-1z" fill="#7C4119"/><path class="st6" d="M70 59.5c.7-.9 1.2-2.2 1-3.5-1 0-2.2.7-2.9 1.6-.6.8-1.2 2.1-1 3.4 1 .1 2.2-.6 2.9-1.5z" fill="#00B3F9"/><path class="st4" d="M75.3 97.6c-.3 0-.5-.1-.7-.3-.4-.4-.4-1 0-1.4l3.8-3.8c.4-.4 1-.4 1.4 0 .4.4.4 1 0 1.4L76 97.3c-.2.2-.4.3-.7.3z" fill="#FFF"/><path class="st4" d="M52.7 47c-.3 0-.5-.1-.7-.3-.4-.4-.4-1 0-1.4L62.3 35c.4-.4 1-.4 1.4 0 .4.4.4 1 0 1.4L53.5 46.7c-.2.2-.5.3-.8.3z" fill="#FFF"/><path class="st4" d="M51.7 61c-.3 0-.5-.1-.7-.3-.4-.4-.4-1 0-1.4l22.3-22c.4-.4 1-.4 1.4 0 .4.4.4 1 0 1.4l-22.3 22c-.2.2-.4.3-.7.3z" fill="#FFF"/><path class="st4" d="M75.1 54c-.3 0-.5-.1-.8-.3-.4-.4-.4-1.1 0-1.5l9.9-9.9c.4-.4 1.1-.4 1.5 0 .4.4.4 1.1 0 1.5l-9.9 9.9c-.2.2-.5.3-.7.3z" fill="#FFF"/><path class="st4" d="M52.1 92.3c-.3 0-.5-.1-.7-.3-.4-.4-.4-1 0-1.4l9.3-9.3c.4-.4 1-.4 1.4 0 .4.4.4 1 0 1.4L52.9 92c-.2.2-.5.3-.8.3z" fill="#FFF"/><path class="st3" d="M90 128H43c-3.9 0-7-3.1-7-7V23c0-3.9 3.1-7 7-7h47c3.9 0 7 3.1 7 7v98c0 3.9-3.1 7-7 7zM43 18c-2.8 0-5 2.2-5 5v98c0 2.8 2.2 5 5 5h47c2.8 0 5-2.2 5-5V23c0-2.8-2.2-5-5-5H43z" fill="#7C4119"/><path class="st4" d="M62.6 97.9c-.3 0-.5-.1-.7-.3-.4-.4-.4-1 0-1.4l19.6-19.6c.4-.4 1-.4 1.4 0 .4.4.4 1 0 1.4L63.3 97.6c-.2.2-.4.3-.7.3z" fill="#FFF"/><path class="st6" d="M85 101H48c-2.2 0-4-1.8-4-4v10c0 2.2 1.8 4 4 4h37c2.2 0 4-1.8 4-4V97c0 2.2-1.8 4-4 4z" fill="#00B3F9"/><path class="st2" d="M67 116.2c1.9 0 3.4 1.4 3.9 3.4.1-.3.1-.7.1-1.1 0-2.5-1.8-4.5-4-4.5s-4 2-4 4.5c0 .4.1.7.1 1.1.5-2 2-3.4 3.9-3.4z" fill="#D4D6D6"/><path class="st4" d="M119.1 65.6c0-.4-.4-.8-1-.9l-1.9-.3c-.5-.1-1.1-.6-1.1-1.1l-.3-1.9c-.1-.5-.5-1-.9-1s-.8.4-.9 1l-.3 1.9c-.1.5-.6 1.1-1.1 1.1l-1.9.3c-.5.1-1 .5-1 .9s.4.8 1 .9l1.9.3c.5.1 1.1.6 1.1 1.1l.3 1.9c.1.5.5 1 .9 1s.8-.4.9-1l.3-2.1c.1-.5.6-1 1.1-1.1l1.8-.1c.7-.1 1.1-.5 1.1-.9z" fill="#FFF"/><path class="st4" d="M22.9 84.3c0-.4-.4-.8-1-.9l-1.9-.3c-.5-.1-1-.6-1.1-1.1l-.3-1.9c-.1-.5-.5-1-.9-1s-.8.4-.9 1l-.2 1.9c-.1.5-.6 1.1-1.1 1.1l-1.9.3c-.5.1-1 .5-1 .9s.4.8 1 .9l1.9.3c.5.1 1.1.6 1.1 1.1l.3 1.9c.1.5.5 1 .9 1s.8-.4.9-1l.3-2.1c.1-.5.6-1 1.1-1.1l1.8-.1c.6-.2 1-.6 1-.9z" fill="#FFF"/><path class="st4" d="M16 62c-2.2 0-4-1.8-4-4s1.8-4 4-4 4 1.8 4 4-1.8 4-4 4zm0-6.1c-1.2 0-2.1 1-2.1 2.1 0 1.2 1 2.1 2.1 2.1 1.2 0 2.1-1 2.1-2.1 0-1.2-.9-2.1-2.1-2.1z" fill="#FFF"/><path class="st4" d="M109 92c-2.2 0-4-1.8-4-4s1.8-4 4-4 4 1.8 4 4-1.8 4-4 4zm0-6.1c-1.2 0-2.1 1-2.1 2.1 0 1.2 1 2.1 2.1 2.1 1.2 0 2.1-1 2.1-2.1 0-1.2-.9-2.1-2.1-2.1z" fill="#FFF"/><path class="st4" d="M107 47c-2.2 0-4-1.8-4-4s1.8-4 4-4 4 1.8 4 4-1.8 4-4 4zm0-6.1c-1.2 0-2.1 1-2.1 2.1 0 1.2 1 2.1 2.1 2.1 1.2 0 2.1-1 2.1-2.1 0-1.2-.9-2.1-2.1-2.1z" fill="#FFF"/></g></svg>