<svg xmlns="http://www.w3.org/2000/svg" x="0" y="0" viewBox="0 0 128 128" enable-background="new 0 0 128 128" width="128" height="128"><title>keys</title><g class="nc-icon-wrapper"><circle class="st0" cx="64" cy="64" r="64" fill="#FF4747"/><path class="st1" d="M65.9 22.5c-12.1 4.3-18.4 17.7-14.1 29.8 3.4 9.5 12.3 15.4 21.8 15.4 0 0 11.6 32.1 12.6 35 1 2.9 3.2 4.9 5.2 5.6 2 .7 5.7 2.1 7.5-1.6.9-1.8 1.8-3.7 2.4-5.2.7-1.5.7-3.7.1-5.4-.6-1.7-1.2-3.7-1.2-3.7s1-2.1 1.6-3.6c.6-1.6.1-3.7-1.5-4.6-.5-.3-1.1-.6-1.7-.9-1.3-.6-2.1-2.3-1.5-3.5.3-.6.6-1.3.8-1.9.7-1.8-.2-3.2-2-3.9-.8-.3-1.6-.6-2.3-1-1.3-.7-1.9-1.6-2.5-3.7-.6-2.1-2.6-6.9-2.6-6.9 7.3-6.1 10.4-16.3 7-25.8C91.4 24.4 78 18.1 65.9 22.5zm11.4 14.2c1.3 3.5-.6 7.4-4.1 8.6-3.5 1.3-7.4-.6-8.6-4.1-1.3-3.5.6-7.4 4.1-8.6 3.5-1.3 7.4.6 8.6 4.1z" fill="#FBD000"/><path class="st2" d="M94.4 102.7c-2-.7-4.2-2.6-5.2-5.6-1-2.9-12.6-35-12.6-35-9.5 0-18.4-6-21.8-15.4-1.9-5.3-1.8-10.9 0-15.8-4.3 6-5.7 14-3 21.5 3.4 9.5 12.3 15.4 21.8 15.4 0 0 11.6 32.1 12.6 35 1 2.9 3.2 4.9 5.2 5.6 2 .7 5.7 2.1 7.5-1.6.7-1.5 1.5-3 2.1-4.4-2 1.9-4.9.8-6.6.3z" fill="#F4B10B"/><path class="st2" d="M91 41.5c0-8.1-4.2-15.3-10.5-19.4-4.6-1.4-9.7-1.4-14.6.4-12.1 4.3-18.4 17.7-14.1 29.8 1.7 4.7 4.7 8.4 8.4 11.1 2.4.8 4.9 1.3 7.6 1.3C80.6 64.7 91 54.3 91 41.5zm-17.7 3.8c-3.5 1.3-7.4-.6-8.6-4.1-1.3-3.5.6-7.4 4.1-8.6 3.5-1.3 7.4.6 8.6 4.1 1.2 3.5-.6 7.3-4.1 8.6z" fill="#F4B10B"/><path class="st3" d="M95.1 110c-1.4 0-2.8-.5-3.8-.8l-.2-.1c-2-.7-4.6-2.7-5.8-6.2-.9-2.7-10.7-29.7-12.3-34.3-9.9-.3-18.7-6.7-22-16.1-2.3-6-2-12.6.8-18.5s7.6-10.3 13.7-12.5c2.6-1 5.4-1.4 8.2-1.4 10.2 0 19.4 6.5 22.8 16.1 3.4 9.3.6 19.8-6.8 26.4.6 1.4 1.8 4.6 2.3 6.3.6 2.1 1.1 2.6 2 3.1.4.2 1 .5 1.6.7l.5.2c2.4 1 3.4 3 2.5 5.2-.2.6-.5 1.3-.8 1.9-.3.7.2 1.8 1 2.2.7.4 1.3.7 1.8.9 1.9 1.1 2.7 3.7 1.9 5.8-.5 1.2-1.2 2.7-1.5 3.3.2.7.7 2.1 1.1 3.3.7 1.9.6 4.4-.1 6.1-.9 2-1.7 3.7-2.5 5.2-.7 2.2-2.3 3.2-4.4 3.2zM73.7 22.1c-2.6 0-5.1.4-7.5 1.3-5.6 2-10.1 6.1-12.6 11.5s-2.8 11.4-.8 17c3.2 8.8 11.5 14.7 20.9 14.8.4 0 .8.3.9.7.5 1.3 11.6 32.1 12.6 35 .9 2.8 3 4.4 4.5 4.9l.3.1c.9.3 2.1.7 3.2.7 1.3 0 2.2-.6 2.9-1.9.7-1.5 1.5-3.2 2.4-5.2.5-1.2.6-3.2.1-4.7-.6-1.7-1.2-3.8-1.2-3.8-.1-.2-.1-.5.1-.7 0 0 1-2.1 1.6-3.6.4-1.1.1-2.7-1.1-3.4-.4-.2-.9-.5-1.6-.9-1.8-.9-2.8-3.1-2-4.8.3-.6.5-1.2.8-1.8.5-1.2 0-2.1-1.4-2.7l-.8-.1c-.6-.3-1.3-.5-1.8-.8-1.7-.9-2.3-2.2-3-4.3-.6-2.1-2.5-6.7-2.5-6.8-.2-.4 0-.9.3-1.1 7.2-6 9.9-15.9 6.7-24.7-3.2-8.8-11.6-14.7-21-14.7zM71 47c-3.4 0-6.4-2.1-7.5-5.3-.7-2-.6-4.2.3-6.1.9-1.9 2.5-3.4 4.5-4.1.8-.4 1.7-.5 2.7-.5 3.4 0 6.4 2.1 7.5 5.3.7 2 .6 4.2-.3 6.1-.9 1.9-2.5 3.4-4.5 4.1-.9.3-1.8.5-2.7.5zm0-14c-.7 0-1.4.1-2 .4-1.5.5-2.7 1.6-3.4 3.1-.7 1.4-.8 3.1-.2 4.6.9 2.4 3.1 4 5.6 4 .7 0 1.4-.1 2-.4 1.5-.5 2.7-1.6 3.4-3.1.7-1.4.8-3.1.2-4.6-.9-2.4-3.1-4-5.6-4z" fill="#6B3C1C"/><path class="st1" d="M73.9 20.7c-10.8-7.1-25.2-4.1-32.3 6.7-5.5 8.4-4.9 19.1.8 26.7 0 0-18.6 28.5-20.4 31.1-1.8 2.5-2 5.5-1.3 7.5s1.8 5.8 5.8 5.1c2-.4 4.1-.8 5.6-1.2 1.6-.4 3.4-1.7 4.4-3.2 1-1.5 2.2-3.2 2.2-3.2s2.3-.5 3.9-.9 3-2.1 2.8-3.9c-.1-.6-.2-1.2-.3-1.9-.3-1.4.6-3 1.9-3.3.7-.2 1.4-.3 2-.5 1.9-.5 2.4-2.1 2-3.9-.2-.8-.5-1.7-.6-2.4-.2-1.4.2-2.4 1.5-4.2 1.3-1.8 4-6.2 4-6.2 9.3 2.2 19.3-1.5 24.8-9.9 7-10.8 4-25.3-6.8-32.4zm-4.4 17.7c-2 3.1-6.2 4-9.3 1.9-3.1-2-4-6.2-1.9-9.3 2-3.1 6.2-4 9.3-1.9 3.1 2 3.9 6.2 1.9 9.3z" fill="#FBD000"/><path class="st2" d="M40.1 49.8c-.2-.3-.4-.5-.5-.8.1.3.3.6.4 1 .1-.1.1-.2.1-.2z" fill="#F4B10B"/><path class="st2" d="M80.4 27c2.8 6.9 2.3 15-2.1 21.6-5.5 8.5-16 12.6-25.3 10.4 0 0-2.2 4-3.5 5.8-1.3 1.8-1.7 2.8-1.5 4.2.1.7.4 1.6.6 2.4.5 1.8-.1 3.4-2 3.9-.6.2-1.3.3-2 .5-1.3.3-2.2 1.9-1.9 3.3.1.7.2 1.3.3 1.9.2 1.8-1.2 3.5-2.8 3.9-1.6.4-3.9.9-3.9.9S35 87.6 34.1 89c-1 1.5-2.8 2.8-4.4 3.2-1.6.4-3.6.8-5.6 1.2-1.5.3-2.6-.1-3.5-.8v.1c.7 2 1.8 5.8 5.8 5.1 2-.4 4.1-.8 5.6-1.2 1.6-.4 3.4-1.7 4.4-3.2 1-1.5 2.2-3.2 2.2-3.2s2.3-.5 3.9-.9 3-2.1 2.8-3.9c-.1-.6-.2-1.2-.3-1.9-.3-1.4.6-3 1.9-3.3.7-.2 1.4-.3 2-.5 1.9-.5 2.4-2.1 2-3.9-.2-.8-.5-1.7-.6-2.4-.2-1.4.2-2.4 1.5-4.2 1.3-1.8 4-6.2 4-6.2 9.3 2.2 19.3-1.5 24.8-9.9 5.4-8.2 5-18.5-.2-26.1z" fill="#F4B10B"/><path class="st3" d="M25.5 98.9c-3.8 0-5-3.6-5.7-5.6l-.1-.3c-.7-2-.7-5.3 1.5-8.4 1.6-2.3 17.5-26.4 20.2-30.5-5.7-8.1-5.9-19-.4-27.3 4.5-6.9 12.2-11 20.5-11 4.8 0 9.4 1.4 13.4 4 5.5 3.6 9.2 9 10.5 15.4 1.3 6.4.1 12.8-3.5 18.3-4.5 6.9-12.2 11-20.5 11-1.6 0-3.3-.2-4.9-.5-.8 1.3-2.6 4.3-3.7 5.7-1.3 1.7-1.5 2.5-1.3 3.5.1.5.2 1.1.4 1.7l.2.6c.7 2.5-.4 4.5-2.7 5.1-.6.2-1.4.4-2 .5-.8.2-1.4 1.2-1.2 2.2.2.8.3 1.4.3 2 .3 2.2-1.3 4.4-3.5 5-1.3.3-2.8.7-3.6.8-.4.6-1.3 1.8-2 2.9-1.2 1.7-3.2 3.2-5 3.6-2.1.5-4 .9-5.7 1.2-.4.1-.8.1-1.2.1zm36-81c-7.6 0-14.6 3.8-18.8 10.1-5.2 7.8-4.9 18.1.8 25.6.3.3.3.8 0 1.1-.8 1.2-18.8 28.6-20.6 31.1-1.7 2.5-1.7 5.1-1.2 6.6l.1.3c.7 2.2 1.6 4.2 3.8 4.2.3 0 .5 0 .8-.1 1.6-.3 3.5-.7 5.6-1.2 1.3-.3 2.9-1.5 3.8-2.7 1-1.5 2.3-3.3 2.3-3.3.1-.2.4-.4.6-.4 0 0 2.3-.5 3.8-.9 1.1-.3 2.2-1.5 2.1-2.9-.1-.5-.2-1.1-.3-1.8-.4-2 .8-4.1 2.7-4.5.6-.1 1.3-.3 2-.5 1.2-.3 1.7-1.3 1.3-2.7l-.1-.6c-.2-.7-.4-1.3-.4-1.9-.3-1.9.4-3.2 1.7-5 1.3-1.7 3.9-6.1 3.9-6.1.2-.4.7-.6 1.1-.5 1.7.4 3.4.6 5.2.6 7.6 0 14.6-3.8 18.8-10.1 3.3-5 4.4-10.9 3.2-16.8-1.2-5.8-4.7-10.9-9.7-14.1-3.8-2.2-8.1-3.5-12.5-3.5zM64 43c-1.6 0-3.1-.5-4.4-1.3-1.8-1.2-3-3-3.4-5.1-.4-2.1 0-4.2 1.1-6 1.5-2.3 4-3.6 6.7-3.6 1.6 0 3.1.5 4.4 1.3 1.8 1.2 3 3 3.4 5.1.4 2.1 0 4.2-1.1 6-1.5 2.3-4 3.6-6.7 3.6zm0-14c-2 0-3.9 1-5 2.7-.9 1.3-1.2 2.9-.9 4.5.3 1.6 1.2 2.9 2.6 3.8 1 .6 2.1 1 3.3 1 2 0 3.9-1 5-2.7.9-1.3 1.2-2.9.9-4.5-.3-1.6-1.2-2.9-2.6-3.8-1-.7-2.1-1-3.3-1z" fill="#6B3C1C"/><path class="st4" d="M42.1 41c-.6 0-1.1-.4-1.1-1 0-3 .7-5.8 2-8.5.2-.5.9-.7 1.4-.5.5.2.8.8.5 1.3-1.2 2.4-1.8 5-1.8 7.7 0 .6-.5 1-1 1z" fill="#FFF"/><path class="st4" d="M79.1 34c-.4 0-.7-.2-.9-.6-.5-1.4-1.2-2.7-2.1-3.9-.3-.4-.2-1 .2-1.3.4-.3 1-.2 1.3.2 1 1.4 1.7 2.8 2.3 4.4.2.5-.1 1-.6 1.2h-.2z" fill="#FFF"/><path class="st4" d="M48 27c-.3 0-.6-.1-.8-.4-.4-.4-.3-1.1.1-1.5C51.1 21.8 56 20 61 20c.6 0 1 .5 1 1 0 .6-.5 1-1 1-4.5 0-8.9 1.7-12.3 4.7-.2.2-.4.3-.7.3z" fill="#FFF"/><path class="st4" d="M25.2 87.8c-.2 0-.4-.1-.5-.2-.5-.3-.6-.9-.3-1.4l3.8-5.9c.3-.5.9-.6 1.4-.3.5.3.6.9.3 1.4l-3.9 6c-.2.3-.5.4-.8.4z" fill="#FFF"/><path class="st4" d="M32.6 76.3c-.2 0-.4-.1-.5-.2-.5-.3-.6-.9-.3-1.4l11.3-17.3c.3-.5.9-.6 1.4-.3.5.3.6.9.3 1.4L33.5 75.9c-.2.2-.5.4-.9.4z" fill="#FFF"/><path class="st4" d="M92.1 77h-.2c-.1 0-3.4-.8-4.3-3.4-.8-2.2-2.5-6.8-2.5-6.8l1.8-.7s1.7 4.7 2.5 6.8c.5 1.3 2.3 2.1 3 2.2.5.1.8.7.7 1.2-.2.4-.6.7-1 .7z" fill="#FFF"/><path class="st4" d="M97 88c-.2 0-.3 0-.5-.1l-2.1-1.3c-.5-.3-.6-.9-.3-1.4.3-.5.9-.6 1.3-.3l2.1 1.3c.5.3.6.9.3 1.4-.1.2-.4.4-.8.4z" fill="#FFF"/><path class="st3" d="M70.2 34.6c-1.7.2-3.5.4-5.2.4-16 0-29.2-11.8-31.6-27.2-.6.3-1.2.7-1.8 1.1C34.4 24.8 48.3 37 65 37c1.8 0 3.7-.2 5.5-.4.5-.1.9-.6.8-1.2-.1-.6-.6-.9-1.1-.8z" fill="#6B3C1C"/><path class="st3" d="M96.6 9c-1.1 6.3-4.2 12.1-9.1 16.7-.4.4 1.2 1.5 1.4 1.4 5-4.7 8.3-10.6 9.6-17-.7-.4-1.3-.8-1.9-1.1z" fill="#6B3C1C"/><path class="st4" d="M81.4 21.3c0-.4-.4-.8-1-.9l-4.8-.8c-.5-.1-1.1-.6-1.2-1.2l-.8-4.8c-.1-.5-.5-1-.9-1s-.8.4-.9 1l-.8 4.8c-.1.5-.6 1.1-1.2 1.2l-4.8.8c-.5.1-1 .5-1 .9s.4.8 1 .9l4.7.6c.5.1 1.1.6 1.2 1.1l.9 5c.1.5.5 1 .9 1s.8-.4.9-1l.9-5.1c.1-.5.6-1 1.2-1.1l4.7-.6c.5.1 1-.4 1-.8z" fill="#FFF"/><path class="st4" d="M108 43c-2.2 0-4-1.8-4-4s1.8-4 4-4 4 1.8 4 4-1.8 4-4 4zm0-6c-1.1 0-2 .9-2 2s.9 2 2 2 2-.9 2-2-.9-2-2-2z" fill="#FFF"/><path class="st4" d="M51 108c-2.2 0-4-1.8-4-4s1.8-4 4-4 4 1.8 4 4-1.8 4-4 4zm0-6c-1.1 0-2 .9-2 2s.9 2 2 2 2-.9 2-2-.9-2-2-2z" fill="#FFF"/><path class="st4" d="M19.1 49.2c0-.4.4-.8 1-.9L22 48c.5-.1 1.1-.6 1.1-1.1l.3-1.9c.1-.5.5-1 .9-1s.8.4.9 1l.3 1.9c.1.5.6 1.1 1.1 1.1l1.9.3c.5.1 1 .5 1 .9s-.4.8-1 .9l-1.9.3c-.5.1-1.1.6-1.1 1.1l-.3 1.9c-.1.5-.5 1-.9 1s-.8-.4-.9-1l-.3-2.1c-.1-.5-.6-1-1.1-1.1l-1.9-.2c-.6 0-1-.4-1-.8z" fill="#FFF"/><path class="st4" d="M107.4 71.6c0-.4.4-.8 1-.9l1.9-.3c.5-.1 1.1-.6 1.1-1.1l.3-1.9c.1-.5.5-1 .9-1s.8.4.9 1l.3 1.9c.1.5.6 1.1 1.1 1.1l1.9.3c.5.1 1 .5 1 .9s-.4.8-1 .9l-1.9.3c-.5.1-1.1.6-1.1 1.1l-.3 1.9c-.1.5-.5 1-.9 1s-.8-.4-.9-1l-.3-2.1c-.1-.5-.6-1-1.1-1.1l-1.8-.1c-.6-.2-1.1-.5-1.1-.9z" fill="#FFF"/><path class="st4" d="M60.8 87.9c0-.4.4-.8 1-.9l1.9-.3c.5-.1 1.1-.6 1.1-1.1l.3-1.9c.1-.5.5-1 .9-1s.8.4.9 1l.3 1.9c.1.5.6 1.1 1.1 1.1l1.7.3c.5.1 1 .5 1 .9s-.4.8-1 .9l-1.8.2c-.5.1-1.1.6-1.1 1.1l-.3 1.9c-.1.5-.5 1-.9 1s-.8-.4-.9-1l-.3-2.1c-.1-.5-.6-1-1.1-1.1l-1.8-.1c-.6-.1-1-.4-1-.8z" fill="#FFF"/></g></svg>