<svg xmlns="http://www.w3.org/2000/svg" x="0" y="0" viewBox="0 0 128 128" enable-background="new 0 0 128 128" width="128" height="128"><title>lock</title><g class="nc-icon-wrapper"><circle class="st0" cx="64" cy="64" r="64" fill="#3AD0F9"/><path class="st1" d="M63.7 21.4C48.4 21.4 36 33.7 36 49s12.4 27.7 27.7 27.7C79 76.7 91.4 64.3 91.4 49c-.1-15.3-12.5-27.6-27.7-27.6zm0 48.3C52.2 69.7 43 60.4 43 49c0-11.4 9.3-20.7 20.7-20.7 11.4 0 20.7 9.3 20.7 20.7-.1 11.4-9.3 20.7-20.7 20.7z" fill="#FFF"/><path class="st2" d="M43.3 49c0-2.2.3-4.4.9-6.4h-7.4c-.5 2-.7 4.2-.7 6.4 0 4.6 1.1 8.9 3.1 12.6h8.1c-2.6-3.5-4-7.9-4-12.6z" fill="#EAEAEA"/><path class="st2" d="M84.3 49c0 4.7-1.5 9.1-3.9 12.6h7.9A27 27 0 0 0 91.4 49c0-2.2-.3-4.3-.7-6.4h-7.2c.5 2.1.8 4.2.8 6.4z" fill="#EAEAEA"/><path class="st3" d="M63.5 77.7c-15.7 0-28.5-13-28.5-28.9C35 32.9 47.8 20 63.5 20S92 32.9 92 48.8 79.2 77.7 63.5 77.7zm0-55.7C48.9 22 37 34 37 48.8s11.9 26.8 26.5 26.8S90 63.6 90 48.8 78.1 22 63.5 22zm0 48C51.6 70 42 60.4 42 48.5S51.6 27 63.5 27 85 36.6 85 48.5 75.4 70 63.5 70zm0-41C52.7 29 44 37.7 44 48.5S52.7 68 63.5 68 83 59.3 83 48.5 74.3 29 63.5 29z" fill="#0C508E"/><path class="st4" d="M97.4 57.5c0-4-3.3-7.4-7.4-7.4H37.7c-4 0-7.4 3.3-7.4 7.4v19.7c0 11.9 9.8 27.9 33.7 27.9 23.9 0 33.4-13 33.4-27.9V57.5z" fill="#FBD000"/><path class="st1" d="M70 70.8c0-3.4-2.6-5.8-6-5.8-3.5 0-6 2.5-6 5.8 0 2.3 1.1 4.4 4 5.4V81c0 1.4.8 2.9 2.4 2.9 1.6 0 2.5-1.5 2.5-2.9v-4.8c1.9-1 3.1-3 3.1-5.4z" fill="#FFF"/><path class="st3" d="M64.4 85c-2.2 0-3.4-2-3.4-3.9v-4.2c-2.6-1.1-4-3.2-4-6.1 0-4 2.9-6.8 7-6.8 4 0 7 2.9 7 6.8 0 2.5-1.2 4.7-3.1 5.9V81c0 2-1.4 4-3.5 4zM64 65.9c-2.9 0-5 2-5 4.9 0 2.3.8 3.4 3 4.2.4.1 1 .8 1 1.2v4.9c0 .8.4 2 1.4 2 1 0 1.6-1.3 1.6-2.1v-5c0-.3.7-.8 1-1 1.6-.9 2-2.2 2-4.2 0-2.8-2.1-4.9-5-4.9z" fill="#0C508E"/><path class="st5" d="M48 31c-.3 0-.6-.1-.8-.4-.4-.4-.3-1 .1-1.4 2.2-1.8 4.6-3.2 7.3-4.2.5-.2 1.1.1 1.3.6.2.5-.1 1.1-.6 1.3-2.4.9-4.7 2.2-6.7 3.9-.1.1-.4.2-.6.2z" opacity=".5" fill="#0C508E"/><path class="st5" d="M86 41c-.4 0-.7-.2-.9-.6-3.5-9.3-11.8-15.3-21.1-15.3-.5 0-1-.5-1-1 0-.6.4-1 1-1 10.1 0 19.1 6.5 23 16.5.2.5 0 1.1-.5 1.3-.2.1-.3.1-.5.1z" opacity=".5" fill="#0C508E"/><path class="st1" d="M32.9 29c0-.4-.4-.8-1-.9l-1.9-.3c-.5-.1-1.1-.6-1.1-1.1l-.3-1.9c-.1-.5-.5-1-.9-1s-.8.4-.9 1l-.3 1.9c-.1.5-.6 1.1-1.1 1.1l-1.9.3c-.5.1-1 .5-1 .9s.4.8 1 .9l1.9.3c.5.1 1.1.6 1.1 1.1l.3 1.9c.1.5.5 1 .9 1s.8-.4.9-1l.3-2.1c.1-.5.6-1 1.1-1.1l1.8-.1c.7-.1 1.1-.5 1.1-.9z" fill="#FFF"/><path class="st1" d="M117.2 75.8c0-.4-.4-.8-1-.9l-1.9-.3c-.5-.1-1.1-.6-1.1-1.1l-.3-1.9c-.1-.5-.5-1-.9-1s-.8.4-.9 1l-.3 1.9c-.1.5-.6 1.1-1.1 1.1l-1.9.3c-.5.1-1 .5-1 .9s.4.8 1 .9l1.9.3c.5.1 1.1.6 1.1 1.1l.3 1.9c.1.5.5 1 .9 1s.8-.4.9-1l.3-2.1c.1-.5.6-1 1.1-1.1l1.8-.1c.6-.2 1.1-.5 1.1-.9z" fill="#FFF"/><path class="st1" d="M94.2 108.8c0-.4-.4-.8-1-.9l-1.9-.3c-.5-.1-1.1-.6-1.1-1.1l-.3-1.9c-.1-.5-.5-1-.9-1s-.8.4-.9 1l-.3 1.9c-.1.5-.6 1.1-1.1 1.1l-1.9.3c-.5.1-1 .5-1 .9s.4.8 1 .9l1.9.3c.5.1 1.1.6 1.1 1.1l.3 1.9c.1.5.5 1 .9 1s.8-.4.9-1l.3-2.1c.1-.5.6-1 1.1-1.1l1.8-.1c.6-.2 1.1-.5 1.1-.9z" fill="#FFF"/><path class="st1" d="M105 43c-2.2 0-4-1.8-4-4s1.8-4 4-4 4 1.8 4 4-1.8 4-4 4zm0-6.1c-1.2 0-2.1 1-2.1 2.1 0 1.2 1 2.1 2.1 2.1 1.2 0 2.1-1 2.1-2.1 0-1.2-.9-2.1-2.1-2.1z" fill="#FFF"/><path class="st1" d="M17 77c-2.2 0-4-1.8-4-4s1.8-4 4-4 4 1.8 4 4-1.8 4-4 4zm0-6.1c-1.2 0-2.1 1-2.1 2.1 0 1.2 1 2.1 2.1 2.1 1.2 0 2.1-1 2.1-2.1 0-1.2-.9-2.1-2.1-2.1z" fill="#FFF"/><path class="st1" d="M46 117c-2.2 0-4-1.8-4-4s1.8-4 4-4 4 1.8 4 4-1.8 4-4 4zm0-6.1c-1.2 0-2.1 1-2.1 2.1 0 1.2 1 2.1 2.1 2.1 1.2 0 2.1-1 2.1-2.1 0-1.2-.9-2.1-2.1-2.1z" fill="#FFF"/><path class="st6" d="M64.1 96C40.6 96 31 80 31 68.2v9C31 89 40.6 105 64.1 105 87.7 105 97 92 97 77.2v-9C97 83.1 87.7 96 64.1 96z" fill="#F4B10B"/><path class="st1" d="M92 63.7c0-.4-.4-.8-1-.9l-4.8-.8c-.5-.1-1.1-.6-1.2-1.2l-.8-4.8c-.1-.5-.5-1-.9-1s-.8.4-.9 1l-.8 4.8c-.1.5-.6 1.1-1.2 1.2l-4.8.8c-.5.1-1 .5-1 .9s.4.8 1 .9l4.7.6c.5.1 1.1.6 1.2 1.1l.9 5c.1.5.5 1 .9 1s.8-.4.9-1l.9-5.1c.1-.5.6-1 1.2-1.1l4.7-.6c.5 0 1-.4 1-.8z" fill="#FFF"/><path class="st3" d="M64 106c-23.4 0-34-14.9-34-28.8V57.5c0-4.8 3.3-8.5 7.7-8.5H90c4.5 0 8 3.7 8 8.5v19.7c0 8.7-3.3 28.8-34 28.8zM37.7 51C34 51 32 54.3 32 57.5v19.7c0 9.3 6.7 26.8 32 26.8 20.3 0 32-9.8 32-26.8V57.5c0-3.6-2.6-6.5-6-6.5H37.7z" fill="#0C508E"/><path class="st1" d="M75 56H43c-.5 0-1-.4-1-1s.4-1 1-1h32c.5 0 1 .4 1 1s-.4 1-1 1z" fill="#FFF"/><path class="st1" d="M92 77c-.6 0-1-.4-1-1v-5c0-.6.4-1 1-1s1 .4 1 1v5c0 .6-.4 1-1 1z" fill="#FFF"/></g></svg>