<svg xmlns="http://www.w3.org/2000/svg" x="0" y="0" viewBox="0 0 128 128" enable-background="new 0 0 128 128" width="128" height="128"><title>megaphone</title><g class="nc-icon-wrapper"><circle class="st0" cx="64" cy="64" r="64" fill="#FF4848"/><ellipse transform="rotate(-19.1 89.357 51.11)" class="st1" cx="89.3" cy="51.1" rx="10.4" ry="10.4" fill="#FBD000"/><path class="st2" d="M89.5 63c-4.9 0-9.3-3.1-10.9-7.7-1-2.9-.8-6 .5-8.8 1.3-2.8 3.7-4.8 6.6-5.8 1.2-.4 2.5-.6 3.8-.6 4.9 0 9.3 3.1 10.9 7.7 1 2.9.8 6-.5 8.8-1.3 2.8-3.7 4.8-6.6 5.8-1.3.4-2.5.6-3.8.6zm0-21c-1.1 0-2.1.2-3.1.5-2.4.8-4.3 2.5-5.4 4.8-1.1 2.3-1.3 4.9-.4 7.2 1.3 3.8 4.9 6.4 9 6.4 1.1 0 2.1-.2 3.1-.5 2.4-.8 4.3-2.5 5.4-4.8 1.1-2.3 1.3-4.9.4-7.2-1.4-3.8-5-6.4-9-6.4z" fill="#663210"/><path class="st3" d="M59 98.3c2.4 3.7 1.6 8.5-1.8 10.6-3.3 2.1-8 .8-10.4-2.9L33.5 85.1c-2.4-3.7-1.6-8.5 1.8-10.6 3.3-2.1 8-.8 10.4 2.9L59 98.3z" fill="#FFF"/><path class="st3" d="M16.2 77.5c1.9 5.5 9.5 10 19.9 6.4 8.7-3 26-7.2 36.7-4.8 10.7 2.4 17.7 7.4 21.8 8.2 3.1.6 5.9-.5 5.9-.5L76.7 17.9s-2.8.9-4.9 3.3c-2.8 3.2-5.2 11.4-12.1 19.9C52.6 49.6 36.5 57 27.8 60c-10.4 3.6-13.5 12-11.6 17.5z" fill="#FFF"/><path class="st4" d="M94.9 79.2c-4.1-.8-11.1-5.8-21.8-8.2-10.7-2.4-28 1.8-36.7 4.8-10.2 3.5-17.8-.8-19.8-6.2-1.1 2.7-1.2 5.5-.4 7.8 1.9 5.5 9.5 10 19.9 6.4 8.7-3 26-7.2 36.7-4.8 10.7 2.4 17.7 7.4 21.8 8.2 3.1.6 5.9-.5 5.9-.5L98 79.4c-.9.1-2 .1-3.1-.2z" fill="#EAEAEA"/><path class="st1" d="M46.6 51.3c.7 10.3 4.3 19.8 9.9 27.8 5.7-.8 11.4-1 16 0-8.6-7.8-14-19-14-31.5 0-1.9.1-3.8.4-5.6-3.1 3.3-7.5 6.5-12.3 9.3z" fill="#FBD000"/><path class="st5" d="M65.2 70.4s-8.7.6-13 1.4c1 1.9 2 3.8 3.2 5.6.3.4.6.8.8 1.2.4.6.6.4 1.3.3l3.3-.3c3.8-.3 7.9-.4 11.7.5-2.8-2.6-5.2-5.5-7.3-8.7-4.2.1 0 0 0 0z" fill="#F4B10B"/><path class="st2" d="M96.6 89c-.7 0-1.5-.1-2.2-.2-1.8-.3-3.9-1.3-6.5-2.6-4-1.9-8.9-4.2-15.3-5.6-2-.5-4.4-.7-7.1-.7-9.8 0-21.7 3-28.9 5.5-2.6.9-5.1 1.3-7.5 1.3-7.4 0-12.1-4.2-13.6-8.4-2.2-6.4 1.8-15.2 12.2-18.9C35.5 56.7 52 49.3 59 40.7c4.1-5.1 6.6-10 8.5-14 1.3-2.6 2.4-4.7 3.5-6.1 2.3-2.6 5.3-3.6 5.4-3.6.5-.2 1.1.1 1.2.6L101.5 87c.2.5-.1 1.1-.6 1.3-.1 0-1.9.7-4.3.7zm-31-11.1c2.8 0 5.4.2 7.5.7 6.6 1.5 11.8 4 15.7 5.8 2.5 1.2 4.5 2.1 6 2.4.6.1 1.2.2 1.8.2 1.1 0 2-.2 2.6-.3l-23-67.4c-.9.4-2.4 1.3-3.6 2.6-1 1.2-2 3.2-3.3 5.7-1.9 3.8-4.5 9.1-8.8 14.3-7.3 9-24.2 16.6-32.1 19.4C18.2 64.9 15.9 73 17.5 77.7c1.2 3.5 5.3 7.1 11.7 7.1 2.2 0 4.5-.4 6.8-1.2 7.4-2.7 19.5-5.7 29.6-5.7z" fill="#663210"/><path class="st4" d="M49.2 82.9l-3.6-5.6c-2.4-3.7-7-5-10.4-2.9-3.3 2.1-4.1 6.9-1.8 10.6l3.4 5.4c1.6.5 3.3.5 5-.1l2-.7c3.1-1 5-3.7 5.4-6.7z" fill="#EAEAEA"/><path class="st2" d="M53.4 111c-3 0-5.9-1.7-7.6-4.4L32.5 85.4c-2.7-4.2-1.7-9.7 2-12.2 1.2-.8 2.6-1.2 4.1-1.2 3 0 5.9 1.7 7.6 4.4l13.3 21.2c1.3 2 1.8 4.4 1.4 6.7-.4 2.3-1.6 4.3-3.4 5.5-1.3.8-2.7 1.2-4.1 1.2zM38.6 74c-1.1 0-2.1.3-3 .9-2.9 1.9-3.5 6.1-1.4 9.4l13.3 21.2c1.3 2.1 3.6 3.5 5.9 3.5 1.1 0 2.1-.3 3-.9 1.4-.9 2.3-2.3 2.5-4.1.3-1.8-.1-3.7-1.1-5.3L44.5 77.5c-1.3-2.1-3.6-3.5-5.9-3.5z" fill="#663210"/><path class="st3" d="M106.2 83.4c.7 2.1-.4 4.4-2.5 5.1l-1.3.5c-2.1.7-4.4-.4-5.1-2.5L74.4 20.3c-.7-2.1.4-4.4 2.5-5.1l1.3-.5c2.1-.7 4.4.4 5.1 2.5l22.9 66.2z" fill="#FFF"/><path class="st3" d="M46.8 74.2c1.4 4.2-.8 8.7-4.9 10.2l-2 .7c-4.2 1.4-8.7-.8-10.2-4.9l-4.8-13.8c-1.4-4.2.8-8.7 4.9-10.2l2-.7c4.2-1.5 8.7.7 10.2 4.8l4.8 13.9z" fill="#FFF"/><path class="st4" d="M106.4 84.8l-1.3.5c-2.1.7-4.4-.4-5.1-2.5L77.1 16.6c-.2-.5-.2-.9-.2-1.4-2.1.7-3.2 3-2.5 5.1l22.9 66.1c.7 2.1 3 3.2 5.1 2.5l1.3-.5c1.6-.5 2.7-2 2.7-3.6z" fill="#EAEAEA"/><path class="st6" d="M117.1 15.8c-.3 0-.5-.1-.7-.3-.4-.4-.4-1 0-1.4l6.4-6.4c.4-.4 1-.4 1.4 0 .4.4.4 1 0 1.4l-6.4 6.4c-.2.2-.4.3-.7.3z" fill="#233E49"/><path class="st6" d="M111.9 12.8h-.2c-.5-.1-.9-.6-.8-1.2l1.3-6.4c.1-.5.6-.9 1.2-.8.5.1.9.6.8 1.2l-1.3 6.4c-.2.4-.6.8-1 .8z" fill="#233E49"/><path class="st4" d="M44.2 79.3l-2 .7c-4.2 1.4-8.7-.8-10.2-4.9l-4.8-13.8c-.4-1.1-.5-2.2-.4-3.3-2.1 2.1-3 5.3-1.9 8.3l4.8 13.8c1.4 4.2 6 6.4 10.2 4.9l2-.7c3.1-1.1 5.1-3.8 5.3-6.9-.8.9-1.9 1.5-3 1.9z" fill="#EAEAEA"/><path class="st6" d="M120.1 21c-.5 0-.9-.3-1-.8-.1-.5.2-1.1.8-1.2l6.4-1.3c.5-.1 1.1.2 1.2.8.1.5-.2 1.1-.8 1.2l-6.4 1.3h-.2z" fill="#233E49"/><path class="st2" d="M100.7 90c-2.1 0-4-1.3-4.7-3.3L73.3 21c-.4-1.2-.4-2.6.2-3.8.6-1.2 1.6-2.1 2.8-2.5l1.3-.5c.5-.2 1.1-.3 1.6-.3 2.1 0 4 1.3 4.7 3.3L106.7 83c.4 1.2.4 2.6-.2 3.8-.6 1.2-1.6 2.1-2.8 2.5l-1.3.5c-.6.1-1.1.2-1.7.2zM79.3 16c-.3 0-.7.1-1 .2l-1.3.4c-.7.3-1.4.8-1.7 1.5-.3.7-.4 1.5-.1 2.3L97.9 86c.4 1.2 1.5 2 2.8 2 .3 0 .7-.1 1-.2l1.3-.5c.7-.3 1.4-.8 1.7-1.5.3-.7.4-1.5.1-2.3L82.1 18c-.4-1.2-1.6-2-2.8-2z" fill="#663210"/><path class="st2" d="M36.9 87c-3.9 0-7.3-2.5-8.6-6.1l-4.8-14c-1.6-4.8.9-10 5.6-11.6l2-.7c1-.3 1.9-.5 3-.5 3.9 0 7.3 2.5 8.6 6.1l4.8 14c.8 2.3.6 4.8-.4 7-1.1 2.2-2.9 3.8-5.2 4.6l-2 .7c-1 .3-2 .5-3 .5zm-2.8-31c-.8 0-1.6.1-2.3.4l-2 .7c-3.7 1.3-5.6 5.3-4.4 9l4.8 14c1 2.9 3.7 4.8 6.7 4.8.8 0 1.6-.1 2.3-.4l2-.7c1.8-.6 3.2-1.9 4-3.6.8-1.7.9-3.6.3-5.4l-4.8-14c-.9-2.9-3.6-4.8-6.6-4.8z" fill="#663210"/><path class="st7" d="M63.3 46.7c-.2 0-.5-.1-.6-.2-.4-.4-.5-1-.1-1.4.1-.1 5.3-6.3 8.2-14.7.2-.5.7-.8 1.3-.6.5.2.8.8.6 1.3-3 8.7-8.3 15.1-8.5 15.3-.3.1-.6.3-.9.3z" opacity=".5" fill="#0C508E"/><path class="st7" d="M55.1 101c-.3 0-.6-.1-.8-.4l-5.2-8.1c-.3-.4-.2-1 .2-1.3.4-.3 1-.2 1.3.3l5.2 8.1c.3.4.2 1-.2 1.3-.2 0-.3.1-.5.1z" opacity=".5" fill="#0C508E"/><path class="st7" d="M42.7 76.3c-.4 0-.9-.3-1-.8 0 0-1-4-3.3-10.2-2-5.4-5.6-4.4-5.8-4.4-.5.2-1.1-.2-1.2-.7-.2-.5.2-1.1.7-1.2.1 0 5.6-1.5 8.2 5.6 2.3 6.3 3.3 10.3 3.4 10.4.1.5-.2 1.1-.7 1.2-.2.1-.3.1-.3.1z" opacity=".5" fill="#0C508E"/><path class="st8" d="M32.8 43.6c0-.4-.4-.8-1-.9l-1.8-.2c-.5-.1-1.1-.6-1.1-1.1l-.3-1.9c-.1-.5-.5-1-.9-1s-.8.4-.9 1l-.3 1.9c-.1.5-.6 1.1-1.1 1.1l-1.9.3c-.5.1-1 .5-1 .9s.4.8 1 .9l1.9.3c.5.1 1.1.6 1.1 1.1l.3 1.9c.1.5.5 1 .9 1s.8-.4.8-1l.3-2.1c.1-.5.6-1 1.1-1.1l1.8-.1c.7-.2 1.1-.6 1.1-1z" opacity=".5" fill="#FFF"/><path class="st8" d="M83.5 102.7c0-.4-.4-.8-1-.9l-1.9-.3c-.5-.1-1.1-.6-1.1-1.1l-.3-1.9c-.1-.5-.5-1-.9-1s-.8.4-.9 1l-.3 1.9c-.1.5-.6 1.1-1.1 1.1l-1.9.3c-.5.1-1 .5-1 .9s.4.8 1 .9l1.9.3c.5.1 1.1.6 1.1 1.1l.3 1.9c.1.5.5 1 .9 1s.8-.4.8-1l.3-2.1c.1-.5.6-1 1.1-1.1l1.8-.1c.8-.2 1.2-.5 1.2-.9z" opacity=".5" fill="#FFF"/><path class="st8" d="M106.8 30.7c0-.4-.4-.8-1-.9l-1.9-.3c-.5-.1-1.1-.6-1.1-1.1l-.3-1.9c-.1-.5-.5-1-.9-1s-.8.4-.9 1l-.3 1.9c-.1.5-.6 1.1-1.1 1.1l-1.9.3c-.5.1-1 .5-1 .9s.4.8 1 .9l1.9.3c.5.1 1.1.6 1.1 1.1l.3 1.9c.1.5.5 1 .9 1s.8-.4.8-1l.3-2.1c.1-.5.6-1 1.1-1.1l1.8-.1c.8-.2 1.2-.5 1.2-.9z" opacity=".5" fill="#FFF"/><path class="st8" d="M42 25c-2.2 0-4-1.8-4-4s1.8-4 4-4 4 1.8 4 4-1.8 4-4 4zm0-6c-1.1 0-2 .9-2 2s.9 2 2 2 2-.9 2-2-.9-2-2-2z" opacity=".5" fill="#FFF"/><path class="st8" d="M112 63c-2.2 0-4-1.8-4-4s1.8-4 4-4 4 1.8 4 4-1.8 4-4 4zm0-6c-1.1 0-2 .9-2 2s.9 2 2 2 2-.9 2-2-.9-2-2-2z" opacity=".5" fill="#FFF"/></g></svg>