<svg xmlns="http://www.w3.org/2000/svg" x="0" y="0" viewBox="0 0 128 128" enable-background="new 0 0 128 128" width="128" height="128"><title>pencil</title><g class="nc-icon-wrapper"><path class="st0" d="M128 64c0 35.3-28.7 64-64 64S0 99.3 0 64 30.1 0 64 0c35.3 0 64 28.7 64 64z" fill="#28A5C6"/><path class="st1" d="M25 73c-2.2 0-4-1.8-4-4s1.8-4 4-4 4 1.8 4 4-1.8 4-4 4zm0-6c-1.1 0-2 .9-2 2s.9 2 2 2 2-.9 2-2-.9-2-2-2z" opacity=".5" fill="#FFF"/><path class="st1" d="M48 31c-2.2 0-4-1.8-4-4s1.8-4 4-4 4 1.8 4 4-1.8 4-4 4zm0-6c-1.1 0-2 .9-2 2s.9 2 2 2 2-.9 2-2-.9-2-2-2z" opacity=".5" fill="#FFF"/><path class="st1" d="M107 66c-2.2 0-4-1.8-4-4s1.8-4 4-4 4 1.8 4 4-1.8 4-4 4zm0-6c-1.1 0-2 .9-2 2s.9 2 2 2 2-.9 2-2-.9-2-2-2z" opacity=".5" fill="#FFF"/><path class="st1" d="M29.9 40c0-.4-.4-.8-1-.9l-1.9-.2c-.5-.1-1.1-.6-1.1-1.1l-.3-1.9c-.1-.5-.5-1-.9-1s-.8.4-.9 1l-.3 1.9c-.1.5-.6 1.1-1.1 1.1l-1.9.3c-.5.1-1 .5-1 .9s.4.8 1 .9l1.9.3c.5.1 1.1.6 1.1 1.1l.3 1.9c.1.5.5 1 .9 1s.8-.4.9-1l.3-2.1c.1-.5.6-1 1.1-1.1l1.8-.1c.6-.2 1.1-.6 1.1-1z" opacity=".5" fill="#FFF"/><path class="st1" d="M93.9 83.7c0-.4-.4-.8-1-.9l-1.9-.2c-.5-.1-1.1-.6-1.1-1.1l-.3-1.9c-.1-.5-.5-1-.9-1s-.8.4-.9 1l-.3 1.9c-.1.5-.6 1.1-1.1 1.1l-1.9.3c-.5.1-1 .5-1 .9s.4.8 1 .9l1.9.3c.5.1 1.1.6 1.1 1.1l.3 1.9c.1.5.5 1 .9 1s.8-.4.9-1l.3-2.1c.1-.5.6-1 1.1-1.1l1.8-.1c.6-.2 1.1-.6 1.1-1z" opacity=".5" fill="#FFF"/><path class="st2" d="M87 107H32c-.5 0-1-.4-1-1s.4-1 1-1h55c.5 0 1 .4 1 1s-.4 1-1 1z" fill="#0C508E"/><path class="st3" d="M39.4 73.1L82 7.3c2.6-4.2 8.1-5.4 12.3-2.8l11.3 7.1c4.2 2.6 5.4 8.1 2.8 12.3L66.1 89" fill="#FBD000"/><path class="st4" d="M105.6 11.5l-5.5-3.4c2.1 2.9 2.3 6.9.3 10.1L57.7 84l8.4 5 42.3-65.2c2.6-4.2 1.3-9.7-2.8-12.3z" fill="#F4B10B"/><path class="st5" d="M105.3 28.6l3.1-4.8c2.6-4.2 1.3-9.7-2.8-12.3l-11.4-7C90.1 1.9 84.6 3.2 82 7.3l-3.3 5.2 26.6 16.1z" fill="#F74541"/><path class="st6" d="M105.6 11.5l-5.5-3.4c2.1 2.9 2.3 6.9.3 10.1L97 23.5l8.4 5 3.1-4.8c2.5-4.1 1.2-9.6-2.9-12.2z" fill="#EA291C"/><path class="st2" d="M65.9 90c-.2 0-.4-.1-.5-.2-.5-.3-.6-.9-.3-1.4l42.7-65.3c1.1-1.8 1.5-3.9 1-6s-1.7-3.8-3.5-4.9l-11.5-7c-1.8-1.1-3.9-1.5-6-1s-3.8 1.7-5 3.5l-43 65.8c-.3.5-.9.6-1.4.3-.5-.3-.6-.9-.3-1.4l43-65.7c2.9-4.6 9.1-6 13.8-3.2l11.4 7.1c2.3 1.4 3.8 3.6 4.4 6.2.6 2.6.2 5.2-1.2 7.5L66.8 89.5c-.2.3-.5.5-.9.5z" fill="#0C508E"/><path class="st7" d="M104.3 34.6c-.6.9-1.8 1.2-2.8.6L74.7 18.5c-.9-.6-1.2-1.8-.6-2.8l2-3.2c.6-.9 1.8-1.2 2.8-.6l26.8 16.7c.9.6 1.2 1.8.6 2.8l-2 3.2z" fill="#EAEAEA"/><path class="st7" d="M65.5 90c1.4-2.5.7-5.9-1.8-7.4-2-1.3-4.5-1-6.2.4.5-2.2-.3-4.5-2.3-5.8-2-1.3-4.5-1-6.2.4.5-2.2-.3-4.5-2.3-5.8-2.4-1.5-5.9-.7-7.5 1.6l1.7 26.6 24.6-10z" fill="#EAEAEA"/><path class="st8" d="M105.7 28.6L99 24.5c.4.7.5 1.5 0 2.3l-2.1 3.4c-.5.7-1.3 1.1-2.1 1l6.7 4.2c.9.6 2.2.3 2.8-.6l2-3.2c.6-1.1.3-2.4-.6-3z" fill="#C1C1C1"/><path class="st8" d="M65.5 90c1.4-2.5.7-5.9-1.8-7.4-1.4-.9-3.1-1-4.5-.5-.3.2-.4.3-.4.3l-18 17.8L65.5 90z" fill="#C1C1C1"/><path class="st5" d="M40.2 90.2l.6 10 9-3.7c-.2-.3-.3-.5-.3-.5l-8.9-5.7-.4-.1z" fill="#F74541"/><path class="st2" d="M49.5 96.9c-.2 0-.4-.1-.5-.2L40.1 91c-.5-.3-.6-.9-.3-1.4.3-.5.9-.6 1.4-.3l8.9 5.7c.5.3.6.9.3 1.4-.2.3-.5.5-.9.5z" fill="#0C508E"/><path class="st2" d="M102.8 37c-.6 0-1.1-.2-1.6-.5L73.5 19.1c-.7-.4-1.2-1.1-1.4-1.9-.2-.8-.1-1.7.4-2.4l2.1-3.3c.6-.9 1.6-1.5 2.6-1.5.6 0 1.1.2 1.6.5l27.7 17.4c.7.4 1.2 1.1 1.4 1.9.2.8.1 1.7-.4 2.4l-2.1 3.3c-.5 1-1.5 1.5-2.6 1.5zM77.2 12.1c-.4 0-.7.2-.9.5l-2.1 3.3c-.1.2-.2.5-.1.8.1.3.2.5.5.6l27.7 17.4c.5.3 1.1.1 1.4-.3l2.1-3.3c.1-.2.2-.5.1-.8-.1-.3-.2-.5-.5-.6L77.7 12.2c-.1-.1-.3-.1-.5-.1z" fill="#0C508E"/><path class="st2" d="M40.7 101c-.2 0-.4-.1-.5-.2-.3-.2-.4-.5-.5-.8L38 73.6c0-.2 0-.4.2-.6 1.2-1.7 3.3-2.8 5.6-2.8 1.2 0 2.3.3 3.3.9 1.7 1.1 2.8 2.9 2.9 4.8 1.8-.7 3.9-.5 5.6.5 1.7 1.1 2.8 2.9 2.9 4.8 1.8-.7 3.9-.5 5.6.5 2.9 1.8 3.8 5.8 2.1 8.8-.1.2-.3.3-.5.4L41.1 101h-.4zM40 73.8l1.6 24.7 23-9.4c1-2 .3-4.6-1.6-5.8-1.5-1-3.6-.8-5 .4-.3.3-.8.3-1.2.1-.4-.2-.5-.7-.4-1.1.4-1.8-.3-3.7-1.9-4.7-1.5-1-3.6-.8-5 .4-.3.3-.8.3-1.2.1-.4-.2-.5-.7-.4-1.1.4-1.8-.3-3.7-1.9-4.7-.6-.4-1.4-.6-2.2-.6-1.5 0-2.9.7-3.8 1.7z" fill="#0C508E"/><path class="st2" d="M49 79c-.2 0-.4-.1-.5-.2-.5-.3-.6-.9-.3-1.4l35-53c.3-.5.9-.6 1.4-.3.5.3.6.9.3 1.4l-35 53c-.3.3-.6.5-.9.5z" fill="#0C508E"/><path class="st2" d="M92.9 29.4c-.5-.3-1.1-.2-1.4.3L56.2 82.4c-.3.5-.2 1.1.3 1.4.2.1.4.2.5.2.3 0 .6-.1.8-.4l35.4-52.7c.3-.5.2-1.2-.3-1.5z" fill="#0C508E"/><path class="st9" d="M47.7 67.8c-.2 0-.4-.1-.5-.2-.5-.3-.6-.9-.3-1.4L66 36.4c.3-.5.9-.6 1.4-.3.5.3.6.9.3 1.4L48.6 67.3c-.2.3-.6.5-.9.5z" fill="#FFF"/><path class="st9" d="M70.1 32.9c-.2 0-.4-.1-.5-.2-.5-.3-.6-.9-.3-1.4l5.1-7.9c.3-.5.9-.6 1.4-.3.5.3.6.9.3 1.4l-5.1 8c-.2.3-.6.4-.9.4z" fill="#FFF"/></g></svg>