<svg xmlns="http://www.w3.org/2000/svg" x="0" y="0" viewBox="0 0 128 128" enable-background="new 0 0 128 128" width="128" height="128"><title>windowsphone</title><g class="nc-icon-wrapper"><circle class="st0" cx="64" cy="64" r="64" fill="#3AD0F9"/><path class="st1" d="M90 121c0 3.3-2.7 6-6 6H37c-3.3 0-6-2.7-6-6V23c0-3.3 2.7-6 6-6h47c3.3 0 6 2.7 6 6v98z" fill="#324D5B"/><path class="st2" d="M84 128H37c-3.9 0-7-3.1-7-7V23c0-3.9 3.1-7 7-7h47c3.9 0 7 3.1 7 7v98c0 3.9-3.1 7-7 7zM37 18c-2.8 0-5 2.2-5 5v98c0 2.8 2.2 5 5 5h47c2.8 0 5-2.2 5-5V23c0-2.8-2.2-5-5-5H37z" fill="#233E49"/><path class="st3" d="M96 121c0 3.3-2.7 6-6 6H43c-3.3 0-6-2.7-6-6V23c0-3.3 2.7-6 6-6h47c3.3 0 6 2.7 6 6v98z" fill="#415E6D"/><path class="st4" d="M89 107c0 2.2-1.8 4-4 4H49c-2.2 0-4-1.8-4-4V33c0-2.2 1.8-4 4-4h36c2.2 0 4 1.8 4 4v74z" fill="#EAEAEA"/><path class="st2" d="M73 25H62c-.6 0-1-.4-1-1s.4-1 1-1h11c.6 0 1 .4 1 1s-.4 1-1 1z" fill="#233E49"/><path class="st2" d="M53 25h-8c-.6 0-1-.4-1-1s.4-1 1-1h8c.6 0 1 .4 1 1s-.4 1-1 1z" fill="#233E49"/><path class="st2" d="M90 128H43c-3.9 0-7-3.1-7-7V23c0-3.9 3.1-7 7-7h47c3.9 0 7 3.1 7 7v98c0 3.9-3.1 7-7 7zM43 18c-2.8 0-5 2.2-5 5v98c0 2.8 2.2 5 5 5h47c2.8 0 5-2.2 5-5V23c0-2.8-2.2-5-5-5H43z" fill="#233E49"/><path class="st2" d="M70 123h-7c-.6 0-1-.4-1-1v-7c0-.6.4-1 1-1h7c.6 0 1 .4 1 1v7c0 .6-.4 1-1 1zm-6-2h5v-5h-5v5z" fill="#233E49"/><path class="st0" d="M80 71v12l-13-1.9V71h13zM67 60l13-2v12H67V60zm-1 11v9.9l-10-1.4V71h10zm-10-9.5l10-1.4V70H56v-8.5z" fill="#3AD0F9"/><path class="st5" d="M50.5 52.4c-.3 0-.5-.1-.7-.3-.4-.4-.4-1 0-1.4l12.5-12.5c.4-.4 1-.4 1.4 0 .4.4.4 1 0 1.4L51.2 52.1c-.2.2-.4.3-.7.3z" fill="#FFF"/><path class="st5" d="M60.8 54.6c-.3 0-.5-.1-.7-.3-.4-.4-.4-1 0-1.4l15.2-15.2c.4-.4 1-.4 1.4 0 .4.4.4 1 0 1.4L61.5 54.3c-.2.2-.5.3-.7.3z" fill="#FFF"/><path class="st5" d="M60.1 97.7c-.3 0-.5-.1-.7-.3-.4-.4-.4-1 0-1.4l8.4-8.4c.4-.4 1-.4 1.4 0 .4.4.4 1 0 1.4l-8.4 8.4c-.1.2-.4.3-.7.3z" fill="#FFF"/><path class="st5" d="M69.4 97c-.3 0-.5-.1-.7-.3-.4-.4-.4-1 0-1.4l6.9-6.9c.4-.4 1-.4 1.4 0 .4.4.4 1 0 1.4l-6.9 6.9c-.2.2-.4.3-.7.3z" fill="#FFF"/><path class="st6" d="M93 96c-.6 0-1-.4-1-1V76.9c0-.5.4-1 1-1s1 .4 1 1V95c0 .6-.4 1-1 1z" opacity=".5" fill="#FFF"/><path class="st5" d="M113 80c-2.2 0-4-1.8-4-4s1.8-4 4-4 4 1.8 4 4-1.8 4-4 4zm0-6.1c-1.2 0-2.1 1-2.1 2.1 0 1.2 1 2.1 2.1 2.1 1.2 0 2.1-1 2.1-2.1 0-1.2-.9-2.1-2.1-2.1z" fill="#FFF"/><path class="st6" d="M93 71c-.6 0-1-.4-1-1V28.5c0-4.7-1.4-5.5-5.6-5.5-.6 0-1-.4-1-1s.4-1 1-1c4.8 0 7.6 1.2 7.6 7.5V70c0 .6-.4 1-1 1z" opacity=".5" fill="#FFF"/><path class="st5" d="M20 52c-2.2 0-4-1.8-4-4s1.8-4 4-4 4 1.8 4 4-1.8 4-4 4zm0-6.1c-1.2 0-2.1 1-2.1 2.1 0 1.2 1 2.1 2.1 2.1 1.2 0 2.1-1 2.1-2.1 0-1.2-.9-2.1-2.1-2.1z" fill="#FFF"/><path class="st5" d="M21.6 70.6c0-.4-.4-.8-1-.9l-1.9-.3c-.5-.1-1.1-.6-1.1-1.1l-.3-1.9c-.1-.5-.5-1-.9-1s-.8.4-.9 1l-.3 1.9c-.1.5-.6 1.1-1.1 1.1l-1.9.3c-.5.1-1 .5-1 .9s.4.8 1 .9l1.9.3c.5.1 1.1.6 1.1 1.1l.3 1.9c.1.5.5 1 .9 1s.8-.4.9-1l.3-2.1c.1-.5.6-1 1.1-1.1l1.8-.1c.6-.1 1.1-.5 1.1-.9z" fill="#FFF"/><path class="st5" d="M115.1 49.1c0-.4-.4-.8-1-.9l-1.9-.3c-.5-.1-1.1-.6-1.1-1.1l-.3-1.9c-.1-.5-.5-1-.9-1s-.8.4-.9 1l-.3 1.9c-.1.5-.6 1.1-1.1 1.1l-1.9.3c-.5.1-1 .5-1 .9s.4.8 1 .9l1.9.3c.5.1 1.1.6 1.1 1.1l.3 1.9c.1.5.5 1 .9 1s.8-.4.9-1l.3-2.1c.1-.5.6-1 1.1-1.1l1.8-.1c.6-.1 1.1-.5 1.1-.9z" fill="#FFF"/><path class="st7" d="M85 101H49c-2.2 0-4-1.8-4-4v10c0 2.2 1.8 4 4 4h36c2.2 0 4-1.8 4-4V97c0 2.2-1.8 4-4 4z" fill="#D4D6D6"/></g></svg>