<svg xmlns="http://www.w3.org/2000/svg" x="0" y="0" viewBox="0 0 128 128" enable-background="new 0 0 128 128" width="128" height="128"><title>scales</title><g class="nc-icon-wrapper"><circle class="st0" cx="64" cy="64" r="64" fill="#3DB39E"/><path class="st1" d="M19.3 53.3c0-.4-.4-.8-1-.9l-1.9-.3c-.5-.1-1.1-.6-1.1-1.1l-.3-1.9c-.1-.5-.5-1-.9-1s-.8.4-.9 1l-.1 1.9c-.1.5-.6 1.1-1.1 1.1l-1.9.3c-.5.1-1 .5-1 .9s.4.8 1 .9l1.9.3c.5.1 1.1.6 1.1 1.1l.3 1.9c.1.5.5 1 .9 1s.8-.4.9-1l.3-2.1c.1-.5.6-1 1.1-1.1l1.8-.1c.5-.2.9-.6.9-.9z" opacity=".5" fill="#FFF"/><path class="st1" d="M85.1 16.3c0-.4-.4-.8-1-.9l-1.9-.3c-.5-.1-1.1-.6-1.1-1.1l-.3-1.9c-.1-.5-.5-1-.9-1s-.8.4-.9 1l-.1 1.9c-.1.5-.6 1.1-1.1 1.1l-1.9.3c-.5.1-1 .5-1 .9s.4.8 1 .9l1.9.3c.5.1 1.1.6 1.1 1.1l.3 1.9c.1.5.5 1 .9 1s.8-.4.8-1l.3-2.1c.1-.5.6-1 1.1-1.1l1.8-.1c.6-.1 1-.5 1-.9z" opacity=".5" fill="#FFF"/><path class="st1" d="M118.8 52.8c0-.4-.4-.8-1-.9l-1.9-.3c-.5-.1-1.1-.6-1.1-1.1l-.3-1.9c-.1-.5-.5-1-.9-1s-.8.4-.9 1l-.3 1.9c-.1.5-.6 1.1-1.1 1.1l-1.9.3c-.5.1-1 .5-1 .9s.4.8 1 .9l1.9.3c.5.1 1.1.6 1.1 1.1l.3 1.9c.1.5.5 1 .9 1s.8-.4.8-1l.3-2.1c.1-.5.6-1 1.1-1.1l1.8-.1c.7-.1 1.2-.5 1.2-.9z" opacity=".5" fill="#FFF"/><path class="st1" d="M61 114.5c0-.4-.4-.8-1-.9l-1.9-.3c-.5-.1-1.1-.6-1.1-1.1l-.3-1.9c-.1-.5-.5-1-.9-1s-.8.4-.9 1l-.3 1.9c-.1.5-.6 1.1-1.1 1.1l-1.9.3c-.5.1-1 .5-1 .9s.4.8 1 .9l1.9.3c.5.1 1.1.6 1.1 1.1l.3 1.9c.1.5.5 1 .9 1s.8-.4.9-1l.3-2.1c.1-.5.6-1 1.1-1.1l1.8-.1c.6-.2 1.1-.5 1.1-.9z" opacity=".5" fill="#FFF"/><path class="st1" d="M52 19c-2.2 0-4-1.8-4-4s1.8-4 4-4 4 1.8 4 4-1.8 4-4 4zm0-6.1c-1.2 0-2.1 1-2.1 2.1 0 1.2 1 2.1 2.1 2.1 1.2 0 2.1-1 2.1-2.1 0-1.2-.9-2.1-2.1-2.1z" opacity=".5" fill="#FFF"/><path class="st1" d="M16 81c-2.2 0-4-1.8-4-4s1.8-4 4-4 4 1.8 4 4-1.8 4-4 4zm0-6.1c-1.2 0-2.1 1-2.1 2.1 0 1.2 1 2.1 2.1 2.1 1.2 0 2.1-1 2.1-2.1 0-1.2-.9-2.1-2.1-2.1z" opacity=".5" fill="#FFF"/><path class="st1" d="M111 87.9c-2.2 0-4-1.8-4-3.9 0-2.2 1.8-3.9 4-3.9s4 1.8 4 3.9c0 2.1-1.8 3.9-4 3.9zm0-6.1c-1.2 0-2.1.9-2.1 2.1 0 1.2 1 2.1 2.1 2.1 1.2 0 2.1-.9 2.1-2.1 0-1.1-.9-2.1-2.1-2.1z" opacity=".5" fill="#FFF"/><path class="st1" d="M78 116c-2.2 0-4-1.8-4-4s1.8-4 4-4 4 1.8 4 4-1.8 4-4 4zm0-6.1c-1.2 0-2.1 1-2.1 2.1 0 1.2 1 2.1 2.1 2.1 1.2 0 2.1-1 2.1-2.1 0-1.2-.9-2.1-2.1-2.1z" opacity=".5" fill="#FFF"/><path class="st2" d="M100 96c0 4.4-3.6 8-8 8H36.5c-4.4 0-8-3.6-8-8V40.5c0-4.4 3.6-8 8-8H92c4.4 0 8 3.6 8 8V96z" fill="#289E87"/><path class="st3" d="M100 91.5c0 4.4-3.6 8-8 8H36.5c-4.4 0-8-3.6-8-8V36c0-4.4 3.6-8 8-8H92c4.4 0 8 3.6 8 8v55.5z" fill="#FFF"/><path class="st4" d="M88.4 52.5c0 2.2-1.8 4-4 4H44c-2.2 0-4-1.8-4-4V41c0-2.2 1.8-4 4-4h40.4c2.2 0 4 1.8 4 4v11.5z" fill="#415E6D"/><path class="st5" d="M45.1 56.5h38.1c-2.4-8.2-10-14.2-19.1-14.2-8.9-.1-16.5 6-19 14.2z" fill="#EAEAEA"/><path class="st6" d="M45.1 56.5h38.1c-.3-1.2-.8-2.3-1.4-3.4H46.5c-.5 1.1-1 2.2-1.4 3.4z" fill="#D4D6D6"/><path class="st7" d="M83 58H45c-.3 0-.6-.2-.8-.4-.2-.3-.2-.6-.2-.9C46.7 47.5 54.9 41 64 41s17.3 6.5 20 15.7c.1.3 0 .6-.2.9-.2.2-.5.4-.8.4zm-36.6-2h35.2c-2.8-7.7-9.8-13-17.6-13-7.8 0-14.8 5.3-17.6 13z" fill="#105B4C"/><path class="st8" d="M84.4 37H44c-2.2 0-4 1.8-4 4v3c0-2.2 1.8-4 4-4h40.4c2.2 0 4 1.8 4 4v-3c0-2.2-1.8-4-4-4z" fill="#2D4552"/><path class="st9" d="M64 50c-.6 0-1-.4-1-1V37.5c0-.6.4-1 1-1s1 .4 1 1V49c0 .6-.4 1-1 1z" fill="#FF4848"/><path class="st7" d="M51.7 54.5c-.2 0-.4-.1-.6-.2l-3.4-2.2c-.5-.3-.6-.9-.3-1.4.3-.5.9-.6 1.4-.3l3.4 2.2c.5.3.6.9.3 1.4-.1.3-.4.5-.8.5z" fill="#105B4C"/><path class="st7" d="M55.9 50.4c-.3 0-.6-.1-.8-.4l-2.3-3.1c-.3-.4-.2-1.1.2-1.4.4-.3 1.1-.2 1.4.2l2.3 3.1c.3.4.2 1.1-.2 1.4-.2.1-.4.2-.6.2z" fill="#105B4C"/><path class="st7" d="M68.8 48.3c-.1 0-.2 0-.3-.1-.5-.2-.8-.7-.6-1.3l1.2-3.8c.2-.5.7-.8 1.3-.6.5.2.8.7.6 1.3l-1.2 3.8c-.1.4-.5.7-1 .7z" fill="#105B4C"/><path class="st7" d="M61.3 48.1c-.5 0-.9-.3-1-.8l-.9-3.8c-.1-.5.2-1.1.8-1.2.5-.1 1.1.2 1.2.8l.9 3.8c.1.5-.2 1.1-.8 1.2h-.2z" fill="#105B4C"/><path class="st7" d="M73.4 51c-.3 0-.5-.1-.7-.3-.4-.4-.4-1 0-1.4l3-2.9c.4-.4 1-.4 1.4 0 .4.4.4 1 0 1.4l-3 2.9c-.2.2-.5.3-.7.3z" fill="#105B4C"/><path class="st5" d="M92 95H36.5c-4.4 0-8-3.6-8-8v4c0 4.4 3.6 8 8 8H92c4.4 0 8-3.6 8-8v-4c0 4.4-3.6 8-8 8z" fill="#EAEAEA"/><path class="st7" d="M76.5 54.8c-.4 0-.8-.3-1-.7-.2-.5.1-1.1.7-1.2l4.4-1.4c.5-.2 1.1.1 1.2.7.2.5-.1 1.1-.7 1.2l-4.4 1.4h-.2z" fill="#105B4C"/><path class="st7" d="M92 100H36c-5 0-9-4-9-9V36c0-5 4-9 9-9h56c5 0 9 4 9 9v55c0 5-4 9-9 9zM36 29c-3.9 0-7 3.1-7 7v55c0 3.9 3.1 7 7 7h56c3.9 0 7-3.1 7-7V36c0-3.9-3.1-7-7-7H36z" fill="#105B4C"/><path class="st7" d="M84 58H44c-2.8 0-5-2.2-5-5V41c0-2.8 2.2-5 5-5h40c2.8 0 5 2.2 5 5v12c0 2.8-2.2 5-5 5zM44 38c-1.7 0-3 1.3-3 3v12c0 1.7 1.3 3 3 3h40c1.7 0 3-1.3 3-3V41c0-1.7-1.3-3-3-3H44z" fill="#105B4C"/><path class="st10" d="M95 91c-.6 0-1-.4-1-1V75.2c0-.6.4-1 1-1s1 .4 1 1V90c0 .6-.4 1-1 1z" opacity=".5" fill="#0C508E"/><path class="st10" d="M95 69.5c-.6 0-1-.4-1-1v-30c0-4.2-.9-5.5-3.8-5.5h-53c-.6 0-1-.4-1-1s.4-1 1-1h53c5.1 0 5.8 3.6 5.8 7.5v30c0 .6-.4 1-1 1z" opacity=".5" fill="#0C508E"/></g></svg>