<svg xmlns="http://www.w3.org/2000/svg" x="0" y="0" viewBox="0 0 128 128" enable-background="new 0 0 128 128" width="128" height="128"><title>scaner</title><g class="nc-icon-wrapper"><circle class="st0" cx="64" cy="64" r="64" fill="#28A5C6"/><path class="st1" d="M1.4 77.4C7.6 106.3 33.3 128 64 128c30.7 0 56.4-21.7 62.6-50.6H1.4z" fill="#FF4848"/><path class="st2" d="M126.3 80H2c-1.1 0-2-.9-2-2s.9-2 2-2h124.3c1.1 0 1.7.9 1.7 2s-.5 2-1.7 2z" fill="#E02020"/><path class="st3" d="M84.1 105c-.3 0-.7-.1-1-.2-1-.5-1.4-1.7-.8-2.7 3.1-5.1 5.1-10.5 6.5-17.5.2-1.1 1.3-1.8 2.5-1.6 1.2.2 1.9 1.2 1.7 2.3-1.5 7.4-3.7 13.1-7 18.6-.4.7-1.1 1.1-1.9 1.1z" opacity=".5" fill="#FFF"/><path class="st4" d="M92.6 71h-.2c-1.1-.1-1.9-1-1.8-2.1.3-4.6.5-9.4.4-14.2C90.7 34.5 78.2 24 66 24c-30.1 0-31.9 26-32 31.2-.1 4.4.2 8.4 1 13.2.2 1.1-.6 2.1-1.7 2.3-1.1.2-2.1-.6-2.3-1.7-.8-5.1-1.1-9.3-1-13.9C30.3 29.2 49.6 20 66 20c14.2 0 28.7 11.9 29 34.6.1 4.9-.1 9.8-.4 14.5-.1 1.1-1 1.9-2 1.9z" fill="#FFF"/><path class="st3" d="M44.3 104c-.7 0-1.3-.3-1.7-.9-.2-.3-4.2-6.8-7.7-17.4-.3-1 .2-2.1 1.3-2.5 1.1-.3 2.2.2 2.5 1.3C42 94.5 46 100.9 46 101c.6.9.3 2.1-.7 2.7-.2.2-.6.3-1 .3z" opacity=".5" fill="#FFF"/><path class="st3" d="M65.1 96c-.3 0-.6-.1-.8-.2-1.1-.4-1.6-1.6-1.1-2.7 0 0 1.8-4.2 3.7-9.4.4-1.1 1.6-1.6 2.7-1.3 1.1.4 1.7 1.5 1.3 2.6-1.9 5.4-3.7 9.5-3.8 9.6-.4.9-1.2 1.4-2 1.4z" opacity=".5" fill="#FFF"/><path class="st4" d="M72.8 70.5h-.1c-1.1-.1-1.8-1-1.8-2.1.8-10.8-.1-19-2.4-21.6-.4-.6-.9-.8-1.5-.8-.9 0-1.7.4-2.3 1.1-1 1.2-2.6 4.6-1.5 13.2l.1.6c.3 2.2.6 4.9.5 7.3 0 1.1-.9 1.9-2 1.9-1.1-.1-1.9-1-1.8-2.1.1-2-.2-4.6-.5-6.6l-.1-.6c-1-7.8-.2-13.3 2.4-16.4C63.2 42.9 65 42 67 42c1.6 0 3.1.7 4.3 2 4 4.5 4 15.8 3.4 24.6-.1 1.1-.9 1.9-1.9 1.9z" fill="#FFF"/><path class="st3" d="M56.9 95c-.2 0-.4 0-.6-.1-1-.3-1.6-1.4-1.2-2.5 0 0 1.1-3.3 2.1-7.9.2-1.1 1.3-1.7 2.3-1.5 1 .2 1.7 1.3 1.4 2.3-1.1 4.8-2.2 8.1-2.2 8.3-.2.9-1 1.4-1.8 1.4z" opacity=".5" fill="#FFF"/><path class="st3" d="M71 104c-.3 0-.6-.1-.9-.2-1-.5-1.3-1.7-.8-2.7 1.2-2.2 4.7-9.1 7.9-17.7.4-1 1.5-1.6 2.6-1.2 1 .4 1.6 1.5 1.2 2.6-3.2 8.9-6.9 15.9-8.1 18.2-.5.6-1.2 1-1.9 1z" opacity=".5" fill="#FFF"/><path class="st4" d="M51.7 70.7c-1.1 0-2-.9-2-2s-.2-2.4-.3-3.8c-.1-1.1-.3-2.3-.3-3.4-.8-10.3 1.6-20 6.2-25.2 2.4-2.7 5.3-4.2 8.6-4.3 5.8-.2 11.5 2.1 15.6 6.5 3.4 3.6 7.4 10.3 6.5 21.7-.2 3.3-.7 5.9-1.3 8.7-.2 1.1-1.3 1.8-2.3 1.6-1.1-.2-1.8-1.3-1.6-2.4.5-2.7 1-5.2 1.2-8.2.6-7.9-1.3-14.3-5.4-18.6-3.3-3.4-8-5.4-12.6-5.2-2.2.1-4.1 1.1-5.8 3-3.9 4.4-5.9 13.1-5.2 22.2l.3 3.3c.2 1.5.3 3 .4 4.2 0 1-.9 1.9-2 1.9z" fill="#FFF"/><path class="st3" d="M47.9 92c-.2 0-.3 0-.5-.1-1-.3-1.6-1.4-1.4-2.5 0 0 .5-2 1.1-5.1.2-1.1 1.2-1.8 2.3-1.6s1.7 1.3 1.5 2.4c-.6 3.3-1.1 5.4-1.2 5.5-.1.8-.9 1.4-1.8 1.4z" opacity=".5" fill="#FFF"/><path class="st4" d="M40.3 71c-.9 0-1.7-.6-2-1.5-.3-1-6.9-25.9 11.8-45.9.8-.8 2.1-.9 2.9-.1.8.7.9 2 .1 2.8C36 44.7 42.2 68.2 42.3 68.5c.3 1.1-.4 2.2-1.4 2.5h-.6z" fill="#FFF"/><path class="st1" d="M126.3 78H2c-1.1 0-2-.9-2-2s.9-2 2-2h124.3c1.1 0 1.7.9 1.7 2s-.5 2-1.7 2z" fill="#FF4848"/><path class="st4" d="M127 77H1c-.6 0-1-.4-1-1s.4-1 1-1h126c.6 0 1 .4 1 1s-.4 1-1 1z" fill="#FFF"/><path class="st4" d="M111 71H17c-.6 0-1-.4-1-1s.4-1 1-1h94c.6 0 1 .4 1 1s-.4 1-1 1z" fill="#FFF"/><path class="st4" d="M111 84H17c-.6 0-1-.4-1-1s.4-1 1-1h94c.6 0 1 .4 1 1s-.4 1-1 1z" fill="#FFF"/><path class="st4" d="M121 84c-.6 0-1-.5-1-1V70c0-.6.4-1 1-1s1 .5 1 1v13c0 .5-.4 1-1 1z" fill="#FFF"/><path class="st4" d="M7 84c-.6 0-1-.5-1-1V70c0-.6.4-1 1-1s1 .5 1 1v13c0 .5-.4 1-1 1z" fill="#FFF"/><path class="st3" d="M104 33c-2.2 0-4-1.8-4-4s1.8-4 4-4 4 1.8 4 4-1.8 4-4 4zm0-6c-1.1 0-2 .9-2 2s.9 2 2 2 2-.9 2-2-.9-2-2-2z" opacity=".5" fill="#FFF"/><path class="st3" d="M29 106c-2.2 0-4-1.8-4-4s1.8-4 4-4 4 1.8 4 4-1.8 4-4 4zm0-6c-1.1 0-2 .9-2 2s.9 2 2 2 2-.9 2-2-.9-2-2-2z" opacity=".5" fill="#FFF"/><path class="st3" d="M54 15c-2.2 0-4-1.8-4-4s1.8-4 4-4 4 1.8 4 4-1.8 4-4 4zm0-6c-1.1 0-2 .9-2 2s.9 2 2 2 2-.9 2-2-.9-2-2-2z" opacity=".5" fill="#FFF"/><path class="st3" d="M20.1 46.6c0-.4-.4-.8-1-.9l-1.9-.3c-.5-.1-1.1-.6-1.1-1.1l-.3-1.9c-.1-.5-.5-1-.9-1s-.8.4-.9 1l-.3 1.9c-.1.5-.6 1.1-1.1 1.1l-1.9.3c-.5.1-1 .5-1 .9s.4.8 1 .9l1.9.3c.5.1 1.1.6 1.1 1.1l.3 1.9c.1.5.5 1 .9 1s.8-.4.8-1l.3-2.1c.1-.5.6-1 1.1-1.1l1.8-.1c.7-.1 1.2-.5 1.2-.9z" opacity=".5" fill="#FFF"/><path class="st3" d="M114.1 53.2c0-.4-.4-.8-1-.9l-1.9-.3c-.5-.1-1.1-.6-1.1-1.1l-.3-1.9c-.1-.5-.5-1-.9-1s-.8.4-.9 1l-.3 1.9c-.1.5-.6 1.1-1.1 1.1l-1.9.3c-.5.1-1 .5-1 .9s.4.8 1 .9l1.9.3c.5.1 1.1.6 1.1 1.1l.3 1.9c.1.5.5 1 .9 1s.8-.4.8-1l.3-2.1c.1-.5.6-1 1.1-1.1l1.8-.1c.7-.1 1.2-.5 1.2-.9z" opacity=".5" fill="#FFF"/><path class="st3" d="M86 15.8c0-.4-.4-.8-1-.9l-1.9-.3c-.5-.1-1.1-.6-1.1-1.1l-.3-1.9c-.1-.5-.5-1-.9-1s-.8.4-.9 1l-.3 1.9c-.1.5-.6 1.1-1.1 1.1l-1.9.3c-.5.1-1 .5-1 .9s.4.8 1 .9l1.9.3c.5.1 1.1.6 1.1 1.1l.3 1.9c.1.5.5 1 .9 1s.8-.4.8-1l.3-2.1c.1-.5.6-1 1.1-1.1l1.8-.1c.8-.2 1.2-.5 1.2-.9z" opacity=".5" fill="#FFF"/><path class="st3" d="M72.8 114.7c0-.4-.4-.8-1-.9l-1.9-.3c-.5-.1-1.1-.6-1.1-1.1l-.3-1.9c-.1-.5-.5-1-.9-1s-.8.4-.9 1l-.3 1.9c-.1.5-.6 1.1-1.1 1.1l-1.9.3c-.5.1-1 .5-1 .9s.4.8 1 .9l1.9.3c.5.1 1.1.6 1.1 1.1l.3 1.9c.1.5.5 1 .9 1s.8-.4.8-1l.3-2.1c.1-.5.6-1 1.1-1.1l1.8-.1c.7-.1 1.2-.5 1.2-.9z" opacity=".5" fill="#FFF"/></g></svg>