<svg xmlns="http://www.w3.org/2000/svg" x="0" y="0" viewBox="0 0 128 128" enable-background="new 0 0 128 128" width="128" height="128"><title>lifebuoy</title><g class="nc-icon-wrapper"><circle class="st0" cx="64" cy="64" r="64" fill="#3AD0F9"/><path class="st1" d="M12.8 66c-.6 0-1-.4-1-1 0-2.1-.6-5.5-1.3-9.4-2.3-12.5-5.8-31.3 4.7-41.5 10.4-10 28-7.2 40.9-5.1 4 .7 7.5 1.2 9.9 1.2.6 0 1 .4 1 1 0 .5-.4 1-1 1-2.6 0-6.1-.6-10.2-1.2-12.5-2-29.5-4.8-39.3 4.6-9.7 9.4-6.3 27.6-4.1 39.7.7 4 1.4 7.4 1.4 9.7 0 .6-.4 1-1 1z" fill="#663210"/><path class="st1" d="M36.9 121c-8.1 0-16-1.6-21.8-7.2-10.5-10.2-7-29.1-4.7-41.6.7-3.9 1.3-7.3 1.3-9.4 0-.6.4-1 1-1s1 .4 1 1c0 2.3-.6 5.8-1.4 9.8-2.2 12.1-5.6 30.4 4.1 39.8 9.7 9.4 26.8 6.7 39.3 4.6 4.1-.7 7.6-1.2 10.2-1.2.6 0 1 .4 1 1s-.4 1-1 1c-2.4 0-5.9.6-9.9 1.2-5.7.9-12.5 2-19.1 2z" fill="#663210"/><path class="st1" d="M118.2 66c-.6 0-1-.4-1-1 0-2.3.6-5.7 1.4-9.7 2.2-12.1 5.6-30.3-4.1-39.7C104.7 6.2 87.6 9 75.1 11c-4.1.7-7.7 1.2-10.2 1.2-.6 0-1-.4-1-1 0-.5.5-1 1-1 2.4 0 5.9-.6 9.9-1.2 12.9-2.1 30.6-5 41.1 5.1s7 29 4.7 41.5c-.7 3.9-1.4 7.3-1.4 9.4 0 .6-.5 1-1 1z" fill="#663210"/><path class="st1" d="M94 121c-6.7 0-13.4-1.1-19.3-2-4-.7-7.5-1.2-9.9-1.2-.6 0-1-.4-1-1s.5-1 1-1c2.6 0 6.1.6 10.2 1.2 12.5 2 29.6 4.8 39.4-4.6 9.7-9.4 6.3-27.7 4.1-39.8-.7-4-1.4-7.5-1.4-9.8 0-.6.4-1 1-1s1 .4 1 1c0 2.1.6 5.5 1.4 9.4 2.3 12.5 5.8 31.4-4.7 41.6-5.7 5.6-13.6 7.2-21.8 7.2z" fill="#663210"/><path class="st2" d="M65.2 15c-27.1 0-49 21.9-49 49s21.9 49 49 49 49-21.9 49-49-22-49-49-49zm0 78c-16 0-29-13-29-29s13-29 29-29 29 13 29 29-13 29-29 29z" fill="#EAEAEA"/><path class="st2" d="M70 15.7c0 2.2-1.8 4-4 4h-.3c-2.2 0-4-1.8-4-4v-5.3c0-2.2 1.8-4 4-4h.3c2.2 0 4 1.8 4 4v5.3z" fill="#EAEAEA"/><path class="st2" d="M70 118.2c0 2.2-1.8 4-4 4h-.3c-2.2 0-4-1.8-4-4v-5.3c0-2.2 1.8-4 4-4h.3c2.2 0 4 1.8 4 4v5.3z" fill="#EAEAEA"/><path class="st3" d="M65.2 27.3c-16 0-29 13-29 29 0 1.3.1 2.6.3 3.8C38.3 46 50.5 35 65.2 35S92 46 93.9 60.2c.2-1.3.3-2.5.3-3.8 0-16.1-13-29.1-29-29.1z" fill="#D4D6D6"/><path class="st3" d="M65.2 105.3c-25.8 0-46.9-19.9-48.8-45.2-.1 1.3-.2 2.5-.2 3.8 0 27.1 21.9 49 49 49s49-21.9 49-49c0-1.3-.1-2.6-.2-3.8-1.9 25.3-23.1 45.2-48.8 45.2z" fill="#D4D6D6"/><path class="st1" d="M65 114c-27.6 0-50-22.4-50-50s22.4-50 50-50 50 22.4 50 50-22.4 50-50 50zm0-98c-26.5 0-48 21.5-48 48s21.5 48 48 48 48-21.5 48-48-21.5-48-48-48zm0 78c-16.5 0-30-13.5-30-30s13.5-30 30-30 30 13.5 30 30-13.5 30-30 30zm0-58c-15.4 0-28 12.6-28 28s12.6 28 28 28 28-12.6 28-28-12.6-28-28-28z" fill="#663210"/><path class="st1" d="M66 20.7h-.3c-2.8 0-5-2.2-4.7-5v-5.3C60.7 7.6 62.9 5 65.7 5h.3c2.8 0 5 2.6 5 5.3v5.3c0 2.8-2.2 5.1-5 5.1zm-.3-13.4c-1.7 0-3 1.3-2.7 3v5.3c-.3 1.7 1 3 2.7 3h.3c1.7 0 3-1.3 3-3v-5.3c0-1.7-1.3-3-3-3h-.3z" fill="#663210"/><path class="st2" d="M114.4 68.4c-2.2 0-4-1.8-4-4v-.3c0-2.2 1.8-4 4-4h5.3c2.2 0 4 1.8 4 4v.3c0 2.2-1.8 4-4 4h-5.3z" fill="#EAEAEA"/><path class="st2" d="M11.9 68.4c-2.2 0-4-1.8-4-4v-.3c0-2.2 1.8-4 4-4h5.3c2.2 0 4 1.8 4 4v.3c0 2.2-1.8 4-4 4h-5.3z" fill="#EAEAEA"/><path class="st1" d="M66.2 123h-.3c-2.7 0-4.8-2.1-4.8-4.8v-5.3c0-2.8 2.2-5 4.8-5h.3c2.7 0 4.8 2.2 4.8 5v5.3c0 2.7-2.2 4.8-4.8 4.8zm-.5-13.1c-1.6 0-3 1.3-2.6 3v5.3c-.3 1.7 1 3 2.6 3h.3c1.6 0 3-1.3 3-3v-5.3c0-1.7-1.3-3-3-3h-.3z" fill="#663210"/><path class="st1" d="M119.8 69h-5.3c-2.8 0-5-2.2-5-4.8v-.3c0-2.7 2.2-4.8 5-4.8h5.3c2.8 0 5.2 2.2 5.2 4.8v.3c0 2.6-2.5 4.8-5.2 4.8zm-5.4-8c-1.7.1-3 1.4-3 3.1v.3c0 1.7 1.3 2.6 3 2.6h5.3c1.7 0 3-.9 3-2.6v-.3c0-1.7-1.3-3-3-3.1h-5.3z" fill="#663210"/><path class="st1" d="M17.1 69h-5.2C9.1 69 7 66.8 7 64.2v-.3c0-2.7 2.1-4.8 4.8-4.8H17c2.7 0 4.9 2.2 4.9 4.8v.3c.1 2.6-2.1 4.8-4.8 4.8zm-5.2-8.1C10.3 60.9 9 62.3 9 64v.3c0 1.7 1.4 2.6 3 2.6h5.8c1.6 0 2.2-.9 2.2-2.6V64c0-1.7-1.3-3.1-2.9-3.1h-5.2z" fill="#663210"/><path class="st4" d="M65.2 12.7c-10.3 0-19.8 3.1-27.7 8.4L51 41.8c4-2.8 9-4.5 14.3-4.5 5.3 0 10.2 1.7 14.3 4.5l13.5-20.7c-8.1-5.3-17.7-8.4-27.9-8.4z" fill="#FF4848"/><path class="st4" d="M65.2 115.8c-10.3 0-19.8-3.1-27.7-8.4L51 86.7c4 2.8 9 4.5 14.3 4.5 5.3 0 10.2-1.7 14.3-4.5l13.5 20.7c-8.1 5.3-17.7 8.4-27.9 8.4z" fill="#FF4848"/><path class="st5" d="M65.2 30c-6.8 0-13.1 2.1-18.3 5.6l4.1 6.3c4-2.8 9-4.5 14.3-4.5 5.3 0 10.2 1.7 14.3 4.5l4.1-6.3C78.3 32.1 72 30 65.2 30z" opacity=".5" fill="#A81000"/><path class="st4" d="M116.7 64.2c0-10.3-3.1-19.8-8.4-27.7L87.6 50c2.8 4 4.5 9 4.5 14.3 0 5.3-1.7 10.2-4.5 14.3l20.7 13.5c5.3-8.1 8.4-17.6 8.4-27.9z" fill="#FF4848"/><path class="st5" d="M65.2 108.1c-8.8 0-17-2.3-24.2-6.3l-3.6 5.5c7.9 5.3 17.5 8.4 27.7 8.4s19.8-3.1 27.7-8.4l-3.6-5.5c-7 4-15.3 6.3-24 6.3z" opacity=".5" fill="#A81000"/><path class="st4" d="M13.6 64.2c0-10.3 3.1-19.8 8.4-27.7L42.8 50c-2.8 4-4.5 9-4.5 14.3 0 5.3 1.7 10.2 4.5 14.3L22 91.9c-5.3-7.9-8.4-17.4-8.4-27.7z" fill="#FF4848"/><path class="st5" d="M42.8 50l-5.5-3.6c-3.4 5.1-5.4 11.2-5.4 17.8 0 6.6 2 12.7 5.4 17.8l5.5-3.6c-2.8-4-4.5-9-4.5-14.3 0-5.2 1.7-10.1 4.5-14.1z" opacity=".5" fill="#A81000"/><path class="st5" d="M87.6 50l5.5-3.6c3.4 5.1 5.4 11.2 5.4 17.8 0 6.6-2 12.7-5.4 17.8l-5.5-3.6c2.8-4 4.5-9 4.5-14.3C92 58.9 90.4 54 87.6 50z" opacity=".5" fill="#A81000"/><path class="st1" d="M79.4 42.8c-.2 0-.4-.1-.6-.2-4-2.8-8.8-4.7-13.7-4.7-4.9 0-9.7 1.9-13.7 4.7-.2.2-.5.2-.8.2-.3-.1-.5-.2-.6-.4L36.6 21.6c-.3-.5-.2-1.1.3-1.4C45.3 14.6 55 12 65.2 12c10.1 0 19.9 2.6 28.3 8.3.5.3.6.9.3 1.4L80.3 42.4c-.1.2-.4.4-.6.4h-.3zM65.2 36c5 0 9.8 1.8 14 4.4l12.4-19.1C83.7 16.3 74.4 14 65 14c-9.4 0-18.3 2.3-26.2 7.4l12.4 19.1c4.2-2.7 9-4.5 14-4.5z" fill="#663210"/><path class="st1" d="M65.2 117c-10.1 0-19.9-3.2-28.3-8.8-.5-.3-.6-.9-.3-1.4l13.5-20.7c.1-.2.4-.4.6-.4.3-.1.5 0 .8.2 4 2.8 8.8 4.2 13.7 4.2 4.9 0 9.7-1.4 13.7-4.2.2-.2.5-.2.8-.2.3.1.5.2.6.4l13.5 20.7c.3.5.2 1.1-.3 1.4-8.4 5.6-18.2 8.8-28.3 8.8zm-26.4-9.9c7.9 5.1 16.9 7.9 26.3 7.9 9.4 0 18.5-2.9 26.3-7.9L79.2 88c-4.2 2.7-9 4-14 4s-9.8-1.3-14-4l-12.4 19.1z" fill="#663210"/><path class="st1" d="M108.3 92.9c-.2 0-.4-.1-.5-.2L87 79.3c-.2-.1-.4-.4-.4-.6-.1-.3 0-.5.2-.8 2.8-4 4.3-8.8 4.3-13.7 0-4.9-1.5-9.7-4.3-13.7-.2-.2-.2-.5-.2-.8.1-.3.2-.5.4-.6l20.7-13.5c.5-.3 1.1-.2 1.4.3 5.6 8.4 8.9 18.1 8.9 28.3 0 10.1-3.2 19.9-8.9 28.3-.2.3-.5.4-.8.4zM89 78.2l19 12.4c5.1-7.9 8-16.9 8-26.3 0-9.4-2.9-18.5-8-26.3L89 50.2c2.7 4.2 4 9 4 14s-1.4 9.8-4 14z" fill="#663210"/><path class="st1" d="M22.1 92.9c-.3 0-.6-.2-.8-.4-5.7-8.4-8.3-18.1-8.3-28.3 0-10.1 2.6-19.9 8.2-28.3.3-.5.9-.6 1.4-.3l20.7 13.5c.2.1.4.4.4.6.1.3 0 .5-.2.8-2.8 4-4.6 8.8-4.6 13.7 0 4.9 1.8 9.7 4.6 13.7.2.2.2.5.2.8-.1.3-.2.5-.4.6L22.6 92.8c-.2.1-.4.1-.5.1zm.2-55c-5 7.8-7.3 16.9-7.3 26.3 0 9.4 2.3 18.5 7.3 26.3l19.1-12.4c-2.7-4.2-4.4-9-4.4-14s1.7-9.8 4.4-14L22.3 37.9z" fill="#663210"/><path class="st6" d="M23.1 83.6c-.4 0-.7-.2-.9-.6-2.7-6-4-12.4-4-19 0-7.1 1.6-14 4.6-20.4.2-.5.8-.7 1.3-.5.5.2.7.8.5 1.3-2.9 6.1-4.4 12.7-4.4 19.5 0 6.3 1.3 12.5 3.8 18.2.2.5 0 1.1-.5 1.3-.1.2-.3.2-.4.2z" opacity=".5" fill="#FFF"/><path class="st6" d="M47.3 22.6c-.4 0-.8-.2-.9-.6-.2-.5 0-1.1.5-1.3 2.4-1 4.9-1.8 7.5-2.4.5-.1 1.1.2 1.2.7.1.5-.2 1.1-.7 1.2-2.4.6-4.8 1.4-7.1 2.3-.3.1-.4.1-.5.1z" opacity=".5" fill="#FFF"/><path class="st6" d="M84.8 23.4c-.1 0-.3 0-.4-.1-6-2.8-12.5-4.3-19.2-4.3-1.5 0-3 .1-4.4.2-.6.1-1-.3-1.1-.9-.1-.5.3-1 .9-1.1 1.5-.1 3.1-.2 4.6-.2 7 0 13.8 1.5 20.1 4.5.5.2.7.8.5 1.3-.3.4-.6.6-1 .6z" opacity=".5" fill="#FFF"/><path class="st6" d="M111.2 65c-.6 0-1-.4-1-1 0-6.8-1.5-13.3-4.4-19.4-.2-.5 0-1.1.5-1.3.5-.2 1.1 0 1.3.5 3 6.4 4.6 13.2 4.6 20.3 0 .5-.5.9-1 .9z" opacity=".5" fill="#FFF"/><path class="st6" d="M65.2 97c-4.5 0-8.8-.9-12.9-2.6-.5-.2-.7-.8-.5-1.3.2-.5.8-.7 1.3-.5C56.9 94.2 61 95 65.2 95c4.4 0 8.7-.9 12.6-2.7.5-.2 1.1 0 1.3.5.2.5 0 1.1-.5 1.3C74.4 96 69.9 97 65.2 97z" opacity=".5" fill="#FFF"/><path class="st7" d="M76 69c-2.2 0-4-1.8-4-4s1.8-4 4-4 4 1.8 4 4-1.8 4-4 4zm0-6.1c-1.2 0-2.1 1-2.1 2.1 0 1.2 1 2.1 2.1 2.1 1.2 0 2.1-1 2.1-2.1 0-1.2-.9-2.1-2.1-2.1z" fill="#FFF"/><path class="st7" d="M61.8 58.8c0-.4-.4-.8-1-.9l-1.8-.3c-.5-.1-1.1-.6-1.1-1.1l-.3-1.9c-.1-.5-.5-1-.9-1s-.8.4-.9 1l-.3 1.9c-.1.5-.6 1.1-1.1 1.1l-1.9.3c-.5.1-1 .5-1 .9s.4.8 1 .9l1.9.3c.5.1 1.1.6 1.1 1.1l.3 1.9c.1.5.5 1 .9 1s.8-.4.8-1l.3-2.1c.1-.5.6-1 1.1-1.1l1.8-.1c.7-.2 1.1-.5 1.1-.9z" fill="#FFF"/><path class="st7" d="M115.6 43.3c0-.4-.4-.8-1-.9l-4.8-.8c-.5-.1-1.1-.6-1.2-1.2l-.8-4.8c-.1-.5-.5-1-.9-1s-.8.4-.9 1l-.8 4.8c-.1.5-.6 1.1-1.2 1.2l-4.8.8c-.5.1-1 .5-1 .9s.4.8 1 .9l4.7.6c.5.1 1.1.6 1.2 1.1l.9 5c.1.5.5 1 .9 1s.8-.4.9-1l.9-5.1c.1-.5.6-1 1.2-1.1l4.7-.6c.6.1 1-.3 1-.8z" fill="#FFF"/></g></svg>