<svg xmlns="http://www.w3.org/2000/svg" x="0" y="0" viewBox="0 0 128 128" enable-background="new 0 0 128 128" width="128" height="128"><title>timer</title><g class="nc-icon-wrapper"><circle class="st0" cx="64" cy="64" r="64" fill="#3CB29D"/><path class="st1" fill="#EAEAEA" d="M60.2 15.6h6.7v12.2h-6.7z"/><path class="st2" fill="#D4D6D6" d="M60 21h8v3h-8z"/><path class="st3" d="M68 28.9h-8c-.6 0-1-.4-1-1V15.6c0-.6.4-1 1-1h8c.6 0 1 .4 1 1v12.2c0 .6-.4 1.1-1 1.1zm-7-2h6V16.6h-6v10.3z" fill="#6A3B1B"/><path class="st1" d="M72 15c0 3.3-2.9 6-6.5 6h-2.7c-3.6 0-6.5-2.7-6.5-6v-1c0-3.3 2.9-6 6.5-6h2.7c3.6 0 6.5 2.7 6.5 6v1z" fill="#EAEAEA"/><path class="st3" d="M66 22h-4c-3.9 0-7-3.1-7-7v-1c0-3.9 3.1-7 7-7h4c3.9 0 7 3.1 7 7v1c0 3.9-3.1 7-7 7zM62 9c-2.8 0-5 2.2-5 5v1c0 2.8 2.2 5 5 5h4c2.8 0 5-2.2 5-5v-1c0-2.8-2.2-5-5-5h-4z" fill="#6A3B1B"/><path class="st1" d="M88.3 33.6c-.6.9-1.7 1.2-2.3.8-.6-.5-.7-1.6 0-2.5l1.6-2.2c.6-.9 1.7-1.2 2.3-.8.6.5.7 1.6 0 2.5l-1.6 2.2z" fill="#EAEAEA"/><path class="st3" d="M86.8 36c-.5 0-1-.1-1.4-.4-.5-.3-.8-.9-1-1.5-.1-.8.1-1.8.7-2.5l1.7-2.3c1-1.4 2.9-1.9 4.1-1 1.2.8 1.3 2.6.3 4.1l-1.7 2.3c-.6.7-1.7 1.3-2.7 1.3zm2.9-6.1c-.3 0-.7.2-1 .6L87 32.8c-.3.4-.3.7-.3 1 0 .1 0 .1.1.2h.1c.2 0 .6-.2.9-.6l1.7-2.3c.4-.6.3-1.1.2-1.2z" fill="#6A3B1B"/><circle class="st1" cx="63.5" cy="65.1" r="39.1" fill="#EAEAEA"/><path class="st2" d="M63.5 100.1c-20.9 0-38-16.4-39-37 0 .7-.1 1.4-.1 2 0 21.6 17.5 39.1 39.1 39.1s39.1-17.5 39.1-39.1c0-.7 0-1.4-.1-2-1 20.6-18.1 37-39 37z" fill="#D4D6D6"/><path class="st3" d="M63.5 106C41.2 106 23 87.8 23 65.5S41.2 25 63.5 25 104 43.2 104 65.5 85.8 106 63.5 106zm0-79C42.3 27 25 44.3 25 65.5S42.3 104 63.5 104 102 86.7 102 65.5 84.7 27 63.5 27z" fill="#6A3B1B"/><circle class="st4" cx="63.5" cy="65.1" r="32" fill="#FFF"/><path class="st1" d="M63.5 38c16.8 0 30.6 13 31.9 29.5.1-.8.1-1.6.1-2.5 0-17.7-14.3-32-32-32s-32 14.3-32 32c0 .8 0 1.6.1 2.5C32.9 51 46.7 38 63.5 38z" fill="#EAEAEA"/><path class="st3" d="M64 38.1c-.6 0-1-.4-1-1v-3.5c0-.6.4-1 1-1s1 .4 1 1v3.5c0 .6-.4 1-1 1z" fill="#6A3B1B"/><path class="st3" d="M64 97.3c-.6 0-1-.4-1-1v-3.5c0-.6.4-1 1-1s1 .4 1 1v3.5c0 .6-.4 1-1 1z" fill="#6A3B1B"/><path class="st3" d="M94.9 66h-3.4c-.6 0-1-.4-1-1s.4-1 1-1h3.4c.6 0 1 .4 1 1s-.5 1-1 1z" fill="#6A3B1B"/><path class="st3" d="M35.6 66h-3.4c-.6 0-1-.4-1-1s.4-1 1-1h3.4c.6 0 1 .4 1 1s-.4 1-1 1z" fill="#6A3B1B"/><path class="st3" d="M87.3 51.4c-.3 0-.7-.2-.9-.5-.3-.5-.1-1.1.3-1.4l2.9-1.8c.5-.3 1.1-.1 1.4.3.3.5.1 1.1-.3 1.4l-2.9 1.8c-.1.2-.3.2-.5.2z" fill="#6A3B1B"/><path class="st3" d="M36.8 82.4c-.3 0-.7-.2-.9-.5-.3-.5-.1-1.1.3-1.4l2.9-1.8c.5-.3 1.1-.1 1.4.3.3.5.1 1.1-.3 1.4l-2.9 1.8c-.1.1-.3.2-.5.2z" fill="#6A3B1B"/><path class="st3" d="M79.9 92.7c-.3 0-.7-.2-.9-.5l-1.8-2.9c-.3-.5-.1-1.1.3-1.4.5-.3 1.1-.1 1.4.3l1.8 2.9c.3.5.1 1.1-.3 1.4-.1.2-.3.2-.5.2z" fill="#6A3B1B"/><path class="st3" d="M49 42.2c-.3 0-.7-.2-.9-.5l-1.8-2.9c-.3-.5-.1-1.1.3-1.4.5-.3 1.1-.1 1.4.3l1.8 2.9c.3.5.1 1.1-.3 1.4-.2.2-.4.2-.5.2z" fill="#6A3B1B"/><path class="st3" d="M39.5 51.8c-.2 0-.3 0-.5-.1l-3-1.8c-.5-.3-.6-.9-.4-1.4.3-.5.9-.6 1.4-.4l3 1.8c.5.3.6.9.4 1.4-.2.3-.5.5-.9.5z" fill="#6A3B1B"/><path class="st3" d="M90.5 82c-.2 0-.3 0-.5-.1l-3-1.8c-.5-.3-.6-.9-.4-1.4.3-.5.9-.6 1.4-.4l3 1.8c.5.3.6.9.4 1.4-.2.3-.6.5-.9.5z" fill="#6A3B1B"/><path class="st3" d="M47.6 93c-.2 0-.3 0-.5-.1-.5-.3-.6-.9-.4-1.4l1.8-3c.3-.5.9-.6 1.4-.4.5.3.6.9.4 1.4l-1.8 3c-.3.3-.6.5-.9.5z" fill="#6A3B1B"/><path class="st3" d="M77.7 42c-.2 0-.3 0-.5-.1-.5-.3-.6-.9-.4-1.4l1.8-3c.3-.5.9-.6 1.4-.4.5.3.6.9.4 1.4l-1.8 3c-.2.3-.5.5-.9.5z" fill="#6A3B1B"/><path class="st3" d="M63.5 98C45 98 30 83.2 30 65s15-33 33.5-33S97 46.8 97 65 82 98 63.5 98zm0-64C46.1 34 32 47.9 32 65s14.1 31 31.5 31S95 82.1 95 65 80.9 34 63.5 34z" fill="#6A3B1B"/><path class="st1" d="M92.5 30.3c-.6.9-1.9 1.1-2.8.5l-1.5-1.1c-.9-.6-1.1-1.9-.4-2.8l1.6-2.2c.6-.9 1.9-1.1 2.8-.5l1.5 1.1c.9.6 1.1 1.9.5 2.8l-1.7 2.2z" fill="#EAEAEA"/><path class="st3" d="M91 33c-.7 0-1.4-.2-1.9-.6l-1.6-1.2c-.7-.5-1.2-1.3-1.3-2.1-.1-.9.1-1.7.6-2.4l1.7-2.3c1-1.4 3.2-1.7 4.6-.7l1.6 1.2c.7.5 1.2 1.3 1.3 2.1.1.9-.1 1.7-.6 2.4l-1.7 2.3C93 32.5 92 33 91 33zm0-7.9c-.4 0-.7.2-.9.4l-1.7 2.3c-.2.2-.2.5-.2.8 0 .3.2.5.4.7l1.6 1.2c.5.3 1.2.2 1.5-.2l1.7-2.3c.2-.2.2-.5.2-.8 0-.3-.2-.5-.4-.7l-1.6-1.2c-.1-.1-.3-.2-.6-.2z" fill="#6A3B1B"/><path class="st5" d="M60 18.7c-.6 0-1-.4-1-1v-5.4c0-.6.4-1 1-1s1 .4 1 1v5.4c0 .5-.4 1-1 1z" fill="#A99282"/><path class="st5" d="M64 18.7c-.6 0-1-.4-1-1V12c0-.6.4-1 1-1s1 .4 1 1v5.7c0 .5-.4 1-1 1z" fill="#A99282"/><path class="st5" d="M68 18.7c-.6 0-1-.4-1-1v-5.4c0-.6.4-1 1-1s1 .4 1 1v5.4c0 .5-.4 1-1 1z" fill="#A99282"/><path class="st1" d="M61.5 75.2c-.1 0-.2 0-.3-.1-.5-.2-.8-.8-.6-1.3l10.6-30.3c.2-.5.8-.8 1.3-.6.5.2.8.8.6 1.3L62.4 74.5c-.1.4-.5.7-.9.7z" fill="#EAEAEA"/><path class="st1" d="M53.8 69.7c-.5 0-.9-.3-1-.8-.1-.5.3-1.1.8-1.2l37-6.8c.5-.1 1.1.3 1.2.8.1.5-.3 1.1-.8 1.2l-37 6.8h-.2z" fill="#EAEAEA"/><path class="st3" d="M61.3 72.5c-.1 0-.2 0-.3-.1-.5-.2-.8-.8-.6-1.3L71 40.8c.2-.5.8-.8 1.3-.6.5.2.8.8.6 1.3L62.2 71.8c-.1.4-.5.7-.9.7z" fill="#6A3B1B"/><path class="st6" d="M53 68c-.5 0-.9-.3-1-.8-.1-.5.3-1.1.8-1.2l37.5-6.8c.5-.1 1.1.3 1.2.8.1.5-.3 1.1-.8 1.2L53.2 68H53z" fill="#F74541"/><circle class="st4" cx="63.5" cy="65.1" r="2.5" fill="#FFF"/><path class="st3" d="M63.5 69c-1.9 0-3.5-1.6-3.5-3.5s1.6-3.5 3.5-3.5 3.5 1.6 3.5 3.5-1.5 3.5-3.5 3.5zm0-5c-.8 0-1.5.7-1.5 1.5s.7 1.5 1.5 1.5 1.5-.7 1.5-1.5-.6-1.5-1.5-1.5z" fill="#6A3B1B"/><path class="st4" d="M97.5 78.1c-.1 0-.2 0-.3-.1-.5-.2-.8-.8-.6-1.3 1.3-3.8 2-7.7 2-11.7 0-11-5-21.2-13.8-27.9-.4-.3-.5-1-.2-1.4.3-.4 1-.5 1.4-.2 9.3 7.1 14.6 17.8 14.6 29.5 0 4.2-.7 8.4-2.1 12.4-.2.5-.6.7-1 .7z" fill="#FFF"/><path class="st4" d="M48.6 33.4c-.4 0-.7-.2-.9-.6-.2-.5 0-1.1.5-1.3 4.8-2.2 10-3.3 15.4-3.3 4 0 7.9.6 11.6 1.9.5.2.8.7.6 1.3-.2.5-.7.8-1.3.6-3.5-1.2-7.2-1.8-11-1.8-5.1 0-10 1.1-14.6 3.2-.1-.1-.2 0-.3 0z" fill="#FFF"/><path class="st4" d="M28.8 75.8c-.4 0-.8-.3-1-.7-.9-3.2-1.3-6.6-1.3-9.9 0-10.2 4.1-19.8 11.5-26.8.4-.4 1-.4 1.4 0 .4.4.4 1 0 1.4-7 6.7-10.9 15.7-10.9 25.4 0 3.2.4 6.3 1.3 9.4.1.5-.2 1.1-.7 1.2h-.3z" fill="#FFF"/><path class="st4" d="M90.8 29.3c-.2 0-.4-.1-.6-.2-.4-.3-.6-.9-.2-1.4l.9-1.2c.3-.4.9-.6 1.4-.2.4.3.6.9.2 1.4l-.9 1.2c-.2.3-.5.4-.8.4z" fill="#FFF"/><path class="st4" d="M34.2 28.7c0-.4-.4-.8-1-.9l-1.9-.3c-.5-.1-1.1-.6-1.1-1.1l-.3-1.9c-.1-.5-.5-1-.9-1s-.8.4-.9 1l-.3 1.9c-.1.5-.6 1.1-1.1 1.1l-1.9.3c-.5.1-1 .5-1 .9s.4.8 1 .9l1.9.3c.5.1 1.1.6 1.1 1.1l.3 1.9c.1.5.5 1 .9 1s.8-.4.9-1l.3-2.1c.1-.5.6-1 1.1-1.1l1.8-.1c.6-.1 1.1-.5 1.1-.9z" fill="#FFF"/><path class="st4" d="M18 61.1c0-.4-.4-.8-1-.9l-1.9-.2c-.5-.1-1.1-.6-1.1-1.1l-.3-1.9c-.1-.5-.5-1-.9-1s-.8.4-.9 1l-.3 1.9c-.1.5-.6 1.1-1.1 1.1l-1.9.3c-.5.1-1 .5-1 .9s.4.8 1 .9l1.9.3c.5.1 1.1.6 1.1 1.1l.3 1.9c.1.5.5 1 .9 1s.8-.4.9-1l.3-2.1c.1-.5.6-1 1.1-1.1l1.8-.1c.6-.3 1.1-.6 1.1-1z" fill="#FFF"/><path class="st4" d="M116.1 87c0-.4-.4-.8-1-.9l-1.9-.3c-.5-.1-1.1-.6-1.1-1.1l-.3-1.9c-.1-.5-.5-1-.9-1s-.8.4-.9 1l-.3 1.9c-.1.5-.6 1.1-1.1 1.1l-1.9.3c-.5.1-1 .5-1 .9s.4.8 1 .9l1.9.3c.5.1 1.1.6 1.1 1.1l.3 1.9c.1.5.5 1 .9 1s.8-.4.9-1l.3-2.1c.1-.5.6-1 1.1-1.1l1.8-.1c.7-.1 1.1-.5 1.1-.9z" fill="#FFF"/><path class="st4" d="M34 108c-2.2 0-4-1.8-4-4s1.8-4 4-4 4 1.8 4 4-1.8 4-4 4zm0-6.1c-1.2 0-2.1 1-2.1 2.1 0 1.2 1 2.1 2.1 2.1 1.2 0 2.1-1 2.1-2.1 0-1.2-.9-2.1-2.1-2.1z" fill="#FFF"/><path class="st4" d="M109 46c-2.2 0-4-1.8-4-4s1.8-4 4-4 4 1.8 4 4-1.8 4-4 4zm0-6.1c-1.2 0-2.1 1-2.1 2.1 0 1.2 1 2.1 2.1 2.1 1.2 0 2.1-1 2.1-2.1 0-1.2-.9-2.1-2.1-2.1z" fill="#FFF"/><path class="st4" d="M81 117c-2.2 0-4-1.8-4-4s1.8-4 4-4 4 1.8 4 4-1.8 4-4 4zm0-6.1c-1.2 0-2.1 1-2.1 2.1 0 1.2 1 2.1 2.1 2.1s2.1-1 2.1-2.1c0-1.2-.9-2.1-2.1-2.1z" fill="#FFF"/></g></svg>