<svg id="Layer_1" data-name="Layer 1" xmlns="http://www.w3.org/2000/svg" viewBox="0 0 350 121"><defs><style>.cls-1{fill:#fff;}</style></defs><title>Download Button</title><path class="cls-1" d="M343.5,4.9a3.6,3.6,0,0,1,3.6,3.6v104a3.6,3.6,0,0,1-3.6,3.6H6.5a3.6,3.6,0,0,1-3.6-3.6V8.5A3.6,3.6,0,0,1,6.5,4.9h337m0-1.4H6.5a5,5,0,0,0-5,5v104a5,5,0,0,0,5,5h337a5,5,0,0,0,5-5V8.5a5,5,0,0,0-5-5Z"/><path class="cls-1" d="M228.15,47.62v1.17h-.28a4,4,0,0,1-1-.16l-.41-.15-.38-.23a1.94,1.94,0,0,1-.32-.32,1.34,1.34,0,0,1-.22-.43,2.8,2.8,0,0,1-.49.62,2.9,2.9,0,0,1-.59.42,2.54,2.54,0,0,1-.65.24,3,3,0,0,1-.66.08l-.22,0a1.87,1.87,0,0,1-.34-.07l-.5-.16a6.13,6.13,0,0,1-.71-.27q-.28-.11-.69-.3l-.87-.4-.94-.46-.93-.47-.82-.43-.61-.32V56h-1.17V45.23l1.08-.67.81.45,1.4.74a21.36,21.36,0,0,1,.49-2.09,7.54,7.54,0,0,1,.59-1.44,3.7,3.7,0,0,1,1.17-1.28,3,3,0,0,1,1.68-.48,2.82,2.82,0,0,1,1.51.41,3.9,3.9,0,0,1,1.11,1.07,4.91,4.91,0,0,1,.69,1.46,5.58,5.58,0,0,1,.24,1.59,3,3,0,0,0,.68,2.22,1.37,1.37,0,0,0,.3.21,1,1,0,0,0,.29.12l.28.06.21,0Zm-3.84-.43a2.19,2.19,0,0,0,.46-.9,4.58,4.58,0,0,0,.16-1.3,4.63,4.63,0,0,0-.16-1.21,4.06,4.06,0,0,0-.47-1.08,2.63,2.63,0,0,0-.74-.78,1.76,1.76,0,0,0-1-.3,2,2,0,0,0-1,.24,2.07,2.07,0,0,0-.76.79,6.09,6.09,0,0,0-.6,1.45,18.44,18.44,0,0,0-.49,2.19c.67.33,1.23.59,1.65.78s.78.33,1,.42a4.72,4.72,0,0,0,.53.17l.2,0a1.9,1.9,0,0,0,.57-.1A1.27,1.27,0,0,0,224.31,47.19Z"/><path class="cls-1" d="M238.09,47.62v1.17h-1.56a3.7,3.7,0,0,1-1.21-.19,3.25,3.25,0,0,1-1-.54,3,3,0,0,1-.43-.44,2.77,2.77,0,0,1-1.22.88,5.14,5.14,0,0,1-1.78.29h-3.15V47.62h3.15a6.94,6.94,0,0,0,1-.11,1.94,1.94,0,0,0,.75-.3,1.33,1.33,0,0,0,.47-.55,2.28,2.28,0,0,0,.18-.9V42.34h1.18v3.42a1.75,1.75,0,0,0,.19.87,1.84,1.84,0,0,0,.48.58,2,2,0,0,0,.67.31,3.06,3.06,0,0,0,.73.1Zm-7.89,5.84a1,1,0,0,1-.7-.29,1,1,0,0,1,0-1.41,1,1,0,0,1,1.69.7,1,1,0,0,1-.29.71A1,1,0,0,1,230.2,53.46Zm3.88,0a1,1,0,0,1-.7-1.7,1,1,0,0,1,1.41,0,1,1,0,0,1-.71,1.7Z"/><path class="cls-1" d="M243.39,40.51a3.17,3.17,0,0,1,1.4.29,3.61,3.61,0,0,1,1.12.81,4,4,0,0,1,.74,1.19,3.7,3.7,0,0,1,.27,1.39,3.23,3.23,0,0,1-.5,1.75A4.71,4.71,0,0,1,245,47.37a13.41,13.41,0,0,0,2.57.25h1v1.17h-1a14.45,14.45,0,0,1-2.21-.17,11,11,0,0,1-2-.49,11.1,11.1,0,0,1-2.06.49,16.57,16.57,0,0,1-2.41.17h-1.18V47.62h1.18a15.41,15.41,0,0,0,2.82-.25,5.83,5.83,0,0,1-.8-.61,4.1,4.1,0,0,1-.64-.75,3.27,3.27,0,0,1-.42-.86,3,3,0,0,1-.15-1,3.79,3.79,0,0,1,.28-1.48,3.53,3.53,0,0,1,.76-1.18,3.38,3.38,0,0,1,1.18-.76A3.82,3.82,0,0,1,243.39,40.51Zm-2.34-2.83a1,1,0,0,1-.7-1.7,1,1,0,0,1,.7-.3.92.92,0,0,1,.7.3,1,1,0,0,1-.7,1.7Zm2.28,9.2a3.52,3.52,0,0,0,.39-.16l.36-.19a5.9,5.9,0,0,0,.58-.39,3.26,3.26,0,0,0,.54-.51,2.53,2.53,0,0,0,.4-.65,2,2,0,0,0,.15-.79,2.61,2.61,0,0,0-.16-.91,2.68,2.68,0,0,0-.47-.8,2.33,2.33,0,0,0-.74-.57,2.12,2.12,0,0,0-1-.22,2.89,2.89,0,0,0-1,.18,2.13,2.13,0,0,0-.8.5,2.41,2.41,0,0,0-.52.79,2.78,2.78,0,0,0-.18,1A1.87,1.87,0,0,0,241,45a2.81,2.81,0,0,0,.46.68,3.48,3.48,0,0,0,.62.53,5.91,5.91,0,0,0,.67.4l.27.13Zm1.61-9.2a1,1,0,0,1-.7-1.7.92.92,0,0,1,.7-.3.94.94,0,0,1,.7.3,1,1,0,0,1,0,1.41A1,1,0,0,1,244.94,37.68Z"/><path class="cls-1" d="M258.56,47.62v1.17H257a3.74,3.74,0,0,1-1.21-.19,3.32,3.32,0,0,1-1-.54,2.53,2.53,0,0,1-.43-.44,2.77,2.77,0,0,1-1.22.88,5.2,5.2,0,0,1-1.79.29h-3.15V47.62h3.15a6.78,6.78,0,0,0,1-.11,1.82,1.82,0,0,0,.75-.3,1.33,1.33,0,0,0,.47-.55,2.27,2.27,0,0,0,.19-.9V42.34h1.17v3.42a1.87,1.87,0,0,0,.19.87,1.74,1.74,0,0,0,.49.58,2,2,0,0,0,.66.31,3.13,3.13,0,0,0,.73.1Zm-7.24-8.46a1,1,0,0,1-.7-1.7,1,1,0,0,1,1.41,0,1,1,0,0,1-.71,1.7Zm3.89,0a1,1,0,0,1-.7-1.7.92.92,0,0,1,.7-.3.94.94,0,0,1,.7.3,1,1,0,0,1,0,1.41A1,1,0,0,1,255.21,39.16Z"/><path class="cls-1" d="M274.19,48.72a3.51,3.51,0,0,1-.8-.23,2.59,2.59,0,0,1-.68-.4,2,2,0,0,1-.5-.59,2,2,0,0,1-.22.27l-.22.22a3,3,0,0,1-1,.59,3.19,3.19,0,0,1-1.16.21,4.74,4.74,0,0,1-.89-.08,2.65,2.65,0,0,1-.72-.24,2.56,2.56,0,0,1-.59-.4,3.56,3.56,0,0,1-.51-.57,3.09,3.09,0,0,1-2.58,1.29,3.8,3.8,0,0,1-1.44-.24,3.11,3.11,0,0,1-1.06-.7,2.09,2.09,0,0,1-.14-.17.83.83,0,0,1-.13-.18l-.22.27-.22.22a3.07,3.07,0,0,1-1,.59,3.33,3.33,0,0,1-1.18.21h-.82V47.62h.93a2.27,2.27,0,0,0,.72-.12,2.19,2.19,0,0,0,.65-.36,1.78,1.78,0,0,0,.48-.65,2.51,2.51,0,0,0,.19-1V42.35h1.17v3.14a2.28,2.28,0,0,0,.49,1.58,2.16,2.16,0,0,0,1.63.55,2.1,2.1,0,0,0,.7-.12,1.71,1.71,0,0,0,1.08-1,2.72,2.72,0,0,0,.17-1V42.35h1.17v3.14a2.23,2.23,0,0,0,.5,1.58,2.16,2.16,0,0,0,1.63.55,2.21,2.21,0,0,0,.71-.12,2,2,0,0,0,.63-.36,1.86,1.86,0,0,0,.46-.65,2.52,2.52,0,0,0,.18-1V42.35h1.17v3.14c0,1.4.76,2.11,2.27,2.13h.51v1.17h-.52A4.94,4.94,0,0,1,274.19,48.72Z"/><path class="cls-1" d="M281.58,40.83a2.66,2.66,0,0,1,1.37.37,3.7,3.7,0,0,1,1.15,1.06,4.64,4.64,0,0,1,.69,1.37,4.7,4.7,0,0,1,.25,1.52,6.59,6.59,0,0,1-.07,1,5.71,5.71,0,0,1-.2,1,4.36,4.36,0,0,1-.37.85,2.79,2.79,0,0,1-.54.68,2.43,2.43,0,0,1-.72.45,2.54,2.54,0,0,1-.94.17,3.59,3.59,0,0,1-.93-.12,6.84,6.84,0,0,1-1-.33c-.34-.14-.69-.31-1.07-.5L278,47.66a2.29,2.29,0,0,1-2,1.13h-.85V47.62H276a1.23,1.23,0,0,0,.63-.16,1.48,1.48,0,0,0,.48-.51,4.33,4.33,0,0,0,.39-.89c.11-.35.21-.72.32-1.1s.27-.94.42-1.4a5.3,5.3,0,0,1,.62-1.29A3.16,3.16,0,0,1,281.58,40.83Zm.62,7.23a1.33,1.33,0,0,0,.6-.15,1.44,1.44,0,0,0,.53-.49,2.86,2.86,0,0,0,.39-.91,5.8,5.8,0,0,0,.14-1.36,4,4,0,0,0-.18-1.16,3.75,3.75,0,0,0-.52-1l-.25-.3a2,2,0,0,0-.34-.3,2.46,2.46,0,0,0-.45-.25,1.62,1.62,0,0,0-.54-.1,2.19,2.19,0,0,0-1,.23,2,2,0,0,0-.71.64,4.3,4.3,0,0,0-.5,1c-.14.4-.28.86-.42,1.37-.06.23-.13.46-.19.69l-.21.64,1.13.59c.35.18.68.34,1,.47a5.15,5.15,0,0,0,.84.31A2,2,0,0,0,282.2,48.06Z"/><path class="cls-1" d="M295.58,48.87a9.3,9.3,0,0,1-1.47-.12,7.43,7.43,0,0,1-1.39-.33,6,6,0,0,1-1.14-.5l-.5-.29.6-1,.5.31a4.78,4.78,0,0,0,1,.41,8.52,8.52,0,0,0,1.16.26,10.2,10.2,0,0,0,1.24.1,7,7,0,0,0,1.16-.09,2.89,2.89,0,0,0,1.06-.38,1.41,1.41,0,0,0,.59-.65,1.3,1.3,0,0,0,.07-.76,2.29,2.29,0,0,0-.36-.85l-1.26-1.89-.88-1.34c-.25-.36-.44-.66-.59-.88l-.33-.52-.17-.24a.28.28,0,0,1,0-.07l-.32-.5,1-.63.17.28c.07.1.16.23.26.39l.39.61c.17.24.37.55.61.92l.9,1.35L299,44.31a3.48,3.48,0,0,1,.56,1.39,2.47,2.47,0,0,1-.17,1.32,2.5,2.5,0,0,1-.94,1.13,4.06,4.06,0,0,1-1.59.6A6.74,6.74,0,0,1,295.58,48.87Z"/><path class="cls-1" d="M305.15,40.55a4.29,4.29,0,0,1,1.69.39,3.19,3.19,0,0,1,1.15,1,4.33,4.33,0,0,1,.65,1.46,7.81,7.81,0,0,1,.21,1.87v2.38h1.62v1.17h-1.62a5.39,5.39,0,0,1-.42,2.36,4.23,4.23,0,0,1-1.28,1.64,5.54,5.54,0,0,1-2,1,9.48,9.48,0,0,1-2.51.31h-.55V52.89h.55a11.38,11.38,0,0,0,2.07-.23A4.24,4.24,0,0,0,306.3,52a3,3,0,0,0,1-1.25,5,5,0,0,0,.38-2h-2a5.49,5.49,0,0,1-1.65-.2,4,4,0,0,1-1.33-.66,3.06,3.06,0,0,1-.89-1.12,3.52,3.52,0,0,1-.33-1.57,7.73,7.73,0,0,1,.21-1.86,4.14,4.14,0,0,1,.65-1.46,3.16,3.16,0,0,1,1.14-1A4.14,4.14,0,0,1,305.15,40.55Zm2.53,7.07V45.24a9.9,9.9,0,0,0-.14-1.4,3.38,3.38,0,0,0-.41-1.12,2,2,0,0,0-.76-.73,2.48,2.48,0,0,0-1.22-.26,2.67,2.67,0,0,0-1.23.26,2.1,2.1,0,0,0-.77.74,3.17,3.17,0,0,0-.41,1.12,7.58,7.58,0,0,0-.12,1.39,2.34,2.34,0,0,0,.23,1.11,1.91,1.91,0,0,0,.64.74,2.78,2.78,0,0,0,1,.4,4.93,4.93,0,0,0,1.19.13Z"/><path class="cls-1" d="M316.6,47.62v1.17h-.21a3.24,3.24,0,0,1-1.49-.35,3,3,0,0,1-1.11-1,2.69,2.69,0,0,1-.62.64,3,3,0,0,1-.82.41,4.79,4.79,0,0,1-1,.23,9.09,9.09,0,0,1-1.23.09V47.62a5.71,5.71,0,0,0,1.67-.2,2.31,2.31,0,0,0,1-.52,1.64,1.64,0,0,0,.42-.73,3.93,3.93,0,0,0,.09-.84V35.17h1.18V45.44a2.56,2.56,0,0,0,.14.89,2,2,0,0,0,.4.68,1.87,1.87,0,0,0,.63.45,2.09,2.09,0,0,0,.81.16Z"/><path class="cls-1" d="M321.31,42c.07.33.14.68.2,1s.12.71.16,1.07.07.71.09,1a4.25,4.25,0,0,1-.2,1.33,3.81,3.81,0,0,1-.6,1.17,3,3,0,0,1-1,.82,2.54,2.54,0,0,1-1.27.31h-2.48V47.62h2.48a1.79,1.79,0,0,0,.81-.24,2,2,0,0,0,.58-.55,2.78,2.78,0,0,0,.35-.76,2.91,2.91,0,0,0,.11-.88,8,8,0,0,0-.07-.95q-.06-.5-.15-1c-.06-.32-.13-.64-.2-.94s-.14-.59-.2-.85l1.14-.34Q321.19,41.53,321.31,42Zm-1.52-3.88a1.06,1.06,0,0,1-.75-.31,1,1,0,0,1-.31-.76,1,1,0,0,1,.31-.76,1.07,1.07,0,0,1,1.51,0,1.08,1.08,0,0,1,.31.76,1.06,1.06,0,0,1-1.07,1.07Z"/><path class="cls-1" d="M326,48.79H324.8V35.17H326Z"/><path class="cls-1" d="M333,48.87a9.3,9.3,0,0,1-1.47-.12,7.25,7.25,0,0,1-1.39-.33,5.74,5.74,0,0,1-1.14-.5l-.51-.29.61-1,.5.31a4.78,4.78,0,0,0,1,.41,8.2,8.2,0,0,0,1.16.26,10.2,10.2,0,0,0,1.24.1,7.09,7.09,0,0,0,1.16-.09,2.89,2.89,0,0,0,1.06-.38,1.41,1.41,0,0,0,.59-.65,1.38,1.38,0,0,0,.07-.76,2.29,2.29,0,0,0-.36-.85l-1.26-1.89-.89-1.34-.58-.88-.34-.52-.16-.24a.28.28,0,0,1,0-.07l-.32-.5,1-.63.17.28.25.39.4.61.61.92.9,1.35,1.24,1.87A3.32,3.32,0,0,1,337,45.7a2.47,2.47,0,0,1-.16,1.32,2.56,2.56,0,0,1-.94,1.13,4.06,4.06,0,0,1-1.59.6A6.74,6.74,0,0,1,333,48.87Z"/><path class="cls-1" d="M114.42,43.7h-8.87l-2.62,7.68h-1.6L109.25,29h1.57l7.88,22.4H117ZM114,42.37l-1.43-4.18c-.88-2.65-1.7-5-2.48-7.75h-.14c-.78,2.75-1.56,5.1-2.48,7.75L106,42.37Z"/><path class="cls-1" d="M122,35.06h1.29l.14,2.52h.1c1.66-1.67,3.36-2.93,5.61-2.93,3.36,0,4.93,2,4.93,6.26V51.38h-1.5V41.11c0-3.46-1.09-5.1-3.74-5.1-1.94,0-3.33,1-5.34,3.06V51.38H122Z"/><path class="cls-1" d="M145.94,34.65a7.53,7.53,0,0,1,4.93,2l-.07-3V26.94h1.5V51.38H151l-.13-2.11h-.1a7.64,7.64,0,0,1-5.31,2.52c-4.11,0-6.76-3-6.76-8.53C138.7,38,142.06,34.65,145.94,34.65Zm-.27,15.81c1.8,0,3.4-1,5.13-2.68V38.09A6.9,6.9,0,0,0,146,36c-3.26,0-5.75,3.16-5.75,7.28C140.29,47.57,142.2,50.46,145.67,50.46Z"/><path class="cls-1" d="M158.55,35.06h1.29l.14,3h.1c1.09-2,2.69-3.44,4.63-3.44a3.39,3.39,0,0,1,1.63.34L166,36.35a3.65,3.65,0,0,0-1.5-.27c-1.46,0-3.19,1.12-4.45,4.18V51.38h-1.5Z"/><path class="cls-1" d="M174.94,34.65c3.94,0,7.34,3.13,7.34,8.61s-3.4,8.53-7.34,8.53-7.31-3.13-7.31-8.53S171,34.65,174.94,34.65Zm0,15.81c3.3,0,5.78-2.92,5.78-7.2S178.24,36,174.94,36s-5.75,3-5.75,7.28S171.64,50.46,174.94,50.46Z"/><path class="cls-1" d="M186.6,29.79a1.36,1.36,0,1,1,2.72,0,1.36,1.36,0,0,1-2.72,0Zm.58,5.27h1.5V51.38h-1.5Z"/><path class="cls-1" d="M200.85,34.65a7.55,7.55,0,0,1,4.93,2l-.07-3V26.94h1.5V51.38h-1.3l-.13-2.11h-.11a7.6,7.6,0,0,1-5.3,2.52c-4.11,0-6.76-3-6.76-8.53C193.61,38,197,34.65,200.85,34.65Zm-.27,15.81c1.8,0,3.39-1,5.13-2.68V38.09A6.91,6.91,0,0,0,201,36c-3.26,0-5.75,3.16-5.75,7.28C195.2,47.57,197.11,50.46,200.58,50.46Z"/><path class="cls-1" d="M206.14,89.27h-.55a5.14,5.14,0,0,1-2.25-.49,9.58,9.58,0,0,1-.5,3.19,6.34,6.34,0,0,1-1.45,2.37A6.17,6.17,0,0,1,199,95.82a9.22,9.22,0,0,1-3.2.51h-1.75v-2.4h1.75a7.38,7.38,0,0,0,2.28-.32,3.66,3.66,0,0,0,1.59-1,3.92,3.92,0,0,0,.93-1.65,8.83,8.83,0,0,0,.29-2.39v-8h2.41v4.22a1.74,1.74,0,0,0,1,1.7,2.46,2.46,0,0,0,.76.24,4.44,4.44,0,0,0,.5,0h.55Z"/><path class="cls-1" d="M219.29,86.86v2.41h-2.1a5.88,5.88,0,0,1-2.05-.33,3.19,3.19,0,0,1-1.41-1,5.3,5.3,0,0,1-3.92,1.33h-4.2V86.86h4.2a4.71,4.71,0,0,0,1.45-.18,2.22,2.22,0,0,0,.8-.46,1.21,1.21,0,0,0,.36-.61,2.49,2.49,0,0,0,.08-.64V80.66h2.4v4.22a2.12,2.12,0,0,0,.14.8,1.83,1.83,0,0,0,.37.55,1.42,1.42,0,0,0,.49.35,2.35,2.35,0,0,0,.52.19,2.23,2.23,0,0,0,.46.08h2.41ZM209,95.92a1.61,1.61,0,0,1-1.21-.5A1.71,1.71,0,0,1,209,92.51a1.71,1.71,0,0,1,1.69,1.71,1.66,1.66,0,0,1-.5,1.2A1.59,1.59,0,0,1,209,95.92Zm4.89,0a1.61,1.61,0,0,1-1.21-.5,1.71,1.71,0,0,1,1.21-2.91,1.71,1.71,0,0,1,1.69,1.71,1.66,1.66,0,0,1-.5,1.2A1.59,1.59,0,0,1,213.87,95.92Z"/><path class="cls-1" d="M218.82,89.27V86.86h7.45a4.68,4.68,0,0,0,1.52-.21,1.26,1.26,0,0,0,.79-.58,1.28,1.28,0,0,0,0-.91A4.94,4.94,0,0,0,228,84a11.37,11.37,0,0,0-1-1.38c-.38-.49-.79-1-1.23-1.46s-.9-.95-1.36-1.41-.92-.9-1.35-1.29-.83-.74-1.19-1a9.83,9.83,0,0,0-.87-.7L221.3,74l11.64-5.11,1,2.18-10.19,4.46,1,1c.39.39.83.81,1.29,1.29s.95,1,1.43,1.5.94,1.06,1.37,1.59A18.62,18.62,0,0,1,230,82.43a7.21,7.21,0,0,1,.74,1.42,6.2,6.2,0,0,1,.3,1,4.71,4.71,0,0,1,.07.88,3.05,3.05,0,0,1-.1.72,2.73,2.73,0,0,1-.18.55,3.83,3.83,0,0,1-.43.71,3.28,3.28,0,0,1-.82.72,5,5,0,0,1-1.32.57,7.16,7.16,0,0,1-1.94.23Zm2.9-18.93,9.66-4.16.53,1.15-10.33,4.48Z"/><path class="cls-1" d="M251.67,96.32a7.49,7.49,0,0,1-3.58-.86,6.79,6.79,0,0,1-2.6-2.45,7.49,7.49,0,0,1-1-2.4,10,10,0,0,1-.21-2.82,13.77,13.77,0,0,1,.56-3.15,21.28,21.28,0,0,1,1.31-3.4l2.16,1a19.83,19.83,0,0,0-1.13,2.83,12.87,12.87,0,0,0-.51,2.56,7.8,7.8,0,0,0,.1,2.24,5.31,5.31,0,0,0,.73,1.85,4.51,4.51,0,0,0,1.73,1.6,5.17,5.17,0,0,0,2.42.56h3A7.51,7.51,0,0,0,257,93.6a3.39,3.39,0,0,0,1.44-.87,3,3,0,0,0,.7-1.36,7.94,7.94,0,0,0,.18-1.76v-9h2.41v4a2.43,2.43,0,0,0,.19.92,1.94,1.94,0,0,0,.46.71,1.8,1.8,0,0,0,.71.45,2.43,2.43,0,0,0,.92.16h.49v2.41h-.49a4.86,4.86,0,0,1-2.28-.55v.89a6.56,6.56,0,0,1-1.78,5,7.52,7.52,0,0,1-5.33,1.68Zm2.26-14.82a1.71,1.71,0,0,1-1.28-.53,1.79,1.79,0,0,1-.53-1.29,1.75,1.75,0,0,1,.53-1.28,1.8,1.8,0,0,1,2.57,0,1.75,1.75,0,0,1,.53,1.28,1.79,1.79,0,0,1-.53,1.29A1.72,1.72,0,0,1,253.93,81.5Z"/><path class="cls-1" d="M277.88,86.86v2.41h-2.1a5.82,5.82,0,0,1-2-.33,3.28,3.28,0,0,1-1.42-1,5.29,5.29,0,0,1-3.92,1.33h-4.2V86.86h4.2a4.67,4.67,0,0,0,1.45-.18,2.19,2.19,0,0,0,.81-.46,1.37,1.37,0,0,0,.36-.61,3,3,0,0,0,.08-.64V80.66h2.39v4.22a1.94,1.94,0,0,0,.15.8,2,2,0,0,0,.36.55,1.64,1.64,0,0,0,.49.35,2.42,2.42,0,0,0,.53.19,2.12,2.12,0,0,0,.46.08h2.4Zm-10.31,9.06A1.71,1.71,0,0,1,266.36,93a1.68,1.68,0,0,1,1.21-.5,1.7,1.7,0,0,1,1.2,2.91A1.6,1.6,0,0,1,267.57,95.92Zm4.89,0a1.62,1.62,0,0,1-1.21-.5,1.7,1.7,0,1,1,2.41,0A1.6,1.6,0,0,1,272.46,95.92Z"/><path class="cls-1" d="M287.38,89.24a5.88,5.88,0,0,1-2.13-.35,4.09,4.09,0,0,1-1.56-1,4.07,4.07,0,0,1-1.54,1.05,4.83,4.83,0,0,1-1.77.34h-2.8V86.86h2.8a3.48,3.48,0,0,0,.54-.06,1.56,1.56,0,0,0,.7-.29,2.13,2.13,0,0,0,.61-.7,2.76,2.76,0,0,0,.26-1.29V80.66h2.4v3.81a2.5,2.5,0,0,0,.58,1.81,2.66,2.66,0,0,0,1.91.57,2.81,2.81,0,0,0,.54-.07,2,2,0,0,0,.7-.31,2.11,2.11,0,0,0,.61-.72,2.69,2.69,0,0,0,.26-1.28V80.66h2.39v3.81a2.45,2.45,0,0,0,.6,1.82,2.67,2.67,0,0,0,1.92.59,2.29,2.29,0,0,0,.55-.09,1.86,1.86,0,0,0,.68-.33,2.18,2.18,0,0,0,.58-.73,2.77,2.77,0,0,0,.24-1.26,6.54,6.54,0,0,0,0-.7q0-.42-.12-.9c0-.33-.1-.66-.16-1s-.12-.65-.17-.94-.12-.56-.17-.79a4.8,4.8,0,0,0-.13-.52l2.28-.72s.05.18.1.4.11.48.18.8.14.67.21,1.06.14.79.2,1.18.12.78.16,1.15a9.2,9.2,0,0,1,.07,1,5.26,5.26,0,0,1-.4,2.11,4.43,4.43,0,0,1-1,1.48A4.22,4.22,0,0,1,296,89a4.84,4.84,0,0,1-1.61.31,5.73,5.73,0,0,1-2.15-.37,4.17,4.17,0,0,1-1.59-1.05,4.19,4.19,0,0,1-1.53,1.05A4.77,4.77,0,0,1,287.38,89.24Zm1-12.45a1.55,1.55,0,0,1-1.15-.48,1.59,1.59,0,0,1-.48-1.16,1.6,1.6,0,0,1,.48-1.16,1.55,1.55,0,0,1,1.15-.48,1.57,1.57,0,0,1,1.16.48,1.6,1.6,0,0,1,.48,1.16,1.59,1.59,0,0,1-.48,1.16A1.57,1.57,0,0,1,288.41,76.79Zm3.48-6.45a1.47,1.47,0,0,1,.45,1.08,1.54,1.54,0,0,1-1.53,1.52,1.52,1.52,0,0,1-1.51-1.52,1.5,1.5,0,0,1,.44-1.08,1.46,1.46,0,0,1,1.07-.44A1.43,1.43,0,0,1,291.89,70.34Zm1.23,6.45a1.64,1.64,0,1,1,0-3.28,1.56,1.56,0,0,1,1.15.48,1.6,1.6,0,0,1,.48,1.16,1.59,1.59,0,0,1-.48,1.16A1.56,1.56,0,0,1,293.12,76.79Z"/><path class="cls-1" d="M308.49,89.27a11.19,11.19,0,0,1-2.08-.19,5.47,5.47,0,0,1-1.48-.49,2.87,2.87,0,0,1-1-.82,3.69,3.69,0,0,1-.57-1.14,7,7,0,0,1-.27-1.47c0-.55-.06-1.15-.06-1.81V71.11h2.4V83.35c0,.74,0,1.34.07,1.79a2.05,2.05,0,0,0,.37,1.07,1.57,1.57,0,0,0,.91.51,9.63,9.63,0,0,0,1.67.14Z"/><path class="cls-1" d="M316.39,78.64a4.6,4.6,0,0,1,2.17.48,4.46,4.46,0,0,1,1.54,1.28,5.47,5.47,0,0,1,.91,1.84,7.84,7.84,0,0,1,.3,2.17,9.32,9.32,0,0,1-.21,2.12,5.67,5.67,0,0,1-.56,1.5,3.66,3.66,0,0,1-.77,1,3.33,3.33,0,0,1-.86.56,3.25,3.25,0,0,1-.85.25,3.84,3.84,0,0,1-.7.07,5.17,5.17,0,0,1-1.19-.13,7.48,7.48,0,0,1-1.17-.36,13.68,13.68,0,0,1-1.26-.58L312.3,88a3.35,3.35,0,0,1-2.69,1.24h-1.46V86.86h1.46a1,1,0,0,0,.8-.35,3.68,3.68,0,0,0,.54-.93,12.7,12.7,0,0,0,.42-1.31c.13-.5.27-1,.44-1.52a11.52,11.52,0,0,1,.59-1.51,5,5,0,0,1,.87-1.31,3.82,3.82,0,0,1,1.29-.93A4.2,4.2,0,0,1,316.39,78.64Zm1,8.83h.25a.93.93,0,0,0,.34-.1,1.17,1.17,0,0,0,.37-.28,1.37,1.37,0,0,0,.33-.52,4.08,4.08,0,0,0,.25-.86,7.8,7.8,0,0,0,.09-1.29c0-.1,0-.25,0-.45a5.16,5.16,0,0,0-.12-.68,4.11,4.11,0,0,0-.26-.77,2.8,2.8,0,0,0-.46-.73,2.43,2.43,0,0,0-.72-.54,2.26,2.26,0,0,0-1-.21,2.07,2.07,0,0,0-.94.2,1.92,1.92,0,0,0-.66.54,2.86,2.86,0,0,0-.44.81c-.12.31-.23.64-.34,1s-.2.74-.3,1.14-.22.78-.36,1.17l1.23.63c.37.19.72.36,1,.5a6.76,6.76,0,0,0,.91.33A3,3,0,0,0,317.36,87.47Z"/><path class="cls-1" d="M55.21,48.66l20.2,0V79.49a1.63,1.63,0,0,1-1.62,1.63H37.63A1.63,1.63,0,0,1,36,79.49V48.68l19.2,0m0-1.5c-8.06,0-16,0-20.7,0v32.3a3.13,3.13,0,0,0,3.12,3.13H73.79a3.12,3.12,0,0,0,3.12-3.13V47.19c-5.41,0-13.64,0-21.7,0Z"/><path class="cls-1" d="M42.7,21.33a.64.64,0,0,0-.33.08.72.72,0,0,0-.32,1l3.25,6.27L46.58,28l-3.24-6.27a.72.72,0,0,0-.64-.39Z"/><path class="cls-1" d="M68.93,21.25a.72.72,0,0,0-.62.36l-3.6,6.23,1.24.72,3.61-6.23a.71.71,0,0,0-.27-1,.65.65,0,0,0-.36-.1Z"/><path class="cls-1" d="M83.4,47.76a3.06,3.06,0,0,1,3,3.05V70.73a3.06,3.06,0,0,1-6.11,0V50.81a3.06,3.06,0,0,1,3.06-3.05m0-1.5a4.55,4.55,0,0,0-4.56,4.55V70.73a4.56,4.56,0,0,0,9.11,0V50.81a4.55,4.55,0,0,0-4.55-4.55Z"/><path class="cls-1" d="M28,47.76a3.06,3.06,0,0,1,3.05,3.05V70.73a3.06,3.06,0,0,1-6.11,0V50.81A3.06,3.06,0,0,1,28,47.76m0-1.5a4.55,4.55,0,0,0-4.56,4.55V70.73a4.56,4.56,0,0,0,9.11,0V50.81A4.55,4.55,0,0,0,28,46.26Z"/><path class="cls-1" d="M50.87,85.78V95.2a3.05,3.05,0,0,1-6.1,0V85.78h6.1m1.5-1.5h-9.1V95.2a4.55,4.55,0,0,0,9.1,0V84.28Z"/><path class="cls-1" d="M66.67,85.78V95.2a3.06,3.06,0,0,1-6.11,0V85.78h6.11m1.5-1.5H59.06V95.2a4.56,4.56,0,0,0,9.11,0V84.28Z"/><path class="cls-1" d="M55.71,27.4h0A20.06,20.06,0,0,1,75.37,43.66H36.05A20.07,20.07,0,0,1,55.71,27.4m9.7,11.68a3.28,3.28,0,1,0-3.28-3.28,3.28,3.28,0,0,0,3.28,3.28m-19.36,0a3.28,3.28,0,1,0-3.29-3.28,3.28,3.28,0,0,0,3.29,3.28M55.71,25.9A21.63,21.63,0,0,0,34.3,45.16H77.12A21.61,21.61,0,0,0,55.71,25.9Zm9.7,11.68a1.78,1.78,0,1,1,1.78-1.78,1.78,1.78,0,0,1-1.78,1.78Zm-19.36,0a1.78,1.78,0,1,1,1.78-1.78,1.79,1.79,0,0,1-1.78,1.78Z"/></svg>