<?xml version="1.0" encoding="utf-8"?>
<!-- Generator: Adobe Illustrator 16.0.0, SVG Export Plug-In . SVG Version: 6.00 Build 0)  -->
<!DOCTYPE svg PUBLIC "-//W3C//DTD SVG 1.1//EN" "http://www.w3.org/Graphics/SVG/1.1/DTD/svg11.dtd">
<svg version="1.1" id="Layer_1" xmlns="http://www.w3.org/2000/svg" xmlns:xlink="http://www.w3.org/1999/xlink" x="0px" y="0px"
	 width="136.914px" height="136.914px" viewBox="0 0 136.914 136.914" enable-background="new 0 0 136.914 136.914"
	 xml:space="preserve">
<g>
	<g>
		<g>
			<g>
				<g>
					<circle fill="#49A0AE" cx="70.577" cy="68.457" r="63.333"/>
				</g>
			</g>
		</g>
	</g>
	<g>
		<g>
			<g>
				<g>
					<path fill="#C12C2B" d="M91.984,66.458h24.793c-1.183-23.677-20.169-42.663-43.846-43.847v24.794
						C82.947,48.49,90.898,56.442,91.984,66.458z"/>
				</g>
				<g>
					<path fill="#C12C2B" d="M67.39,47.514V22.675c-23.276,1.591-41.825,20.393-42.993,43.783h24.793
						C50.244,56.729,57.779,48.945,67.39,47.514z"/>
				</g>
				<g>
					<path fill="#C12C2B" d="M49.299,71.999h-24.84c1.572,22.991,19.939,41.358,42.931,42.931V90.091
						C58.062,88.702,50.688,81.328,49.299,71.999z"/>
				</g>
				<g>
					<path fill="#C12C2B" d="M72.932,90.2v24.792c23.391-1.168,42.192-19.717,43.783-42.993h-24.84
						C90.444,81.61,82.66,89.146,72.932,90.2z"/>
				</g>
				<g>
					<path fill="#CC3432" d="M70.587,90.329c-11.889,0-21.526-9.638-21.526-21.526s9.638-21.526,21.526-21.526
						s21.526,9.638,21.526,21.526S82.476,90.329,70.587,90.329z M70.587,31.504c-20.599,0-37.299,16.699-37.299,37.299
						c0,20.599,16.7,37.299,37.299,37.299s37.299-16.7,37.299-37.299C107.886,48.203,91.186,31.504,70.587,31.504z"/>
				</g>
				<g>
					<path fill="#D84141" d="M70.587,43.014c-14.242,0-25.789,11.546-25.789,25.789c0,14.242,11.547,25.789,25.789,25.789
						s25.789-11.547,25.789-25.789C96.376,54.56,84.829,43.014,70.587,43.014z M70.587,90.329c-11.889,0-21.526-9.638-21.526-21.526
						s9.638-21.526,21.526-21.526s21.526,9.638,21.526,21.526S82.476,90.329,70.587,90.329z"/>
				</g>
				<g>
					<g>
						<path fill="#FFFFFF" d="M70.587,90.24c-1.087,0-2.154-0.082-3.197-0.237v24.927c1.058,0.072,2.122,0.123,3.197,0.123
							c0.786,0,1.567-0.021,2.345-0.061V90.111C72.161,90.194,71.38,90.24,70.587,90.24z"/>
					</g>
					<g>
						<path fill="#FFFFFF" d="M70.587,47.374c0.793,0,1.574,0.046,2.345,0.129V22.611c-0.777-0.038-1.559-0.059-2.345-0.059
							c-1.075,0-2.14,0.05-3.197,0.122v24.937C68.433,47.456,69.5,47.374,70.587,47.374z"/>
					</g>
					<g>
						<path fill="#FFFFFF" d="M49.131,68.803c0-0.793,0.046-1.574,0.129-2.345H24.396c-0.039,0.776-0.06,1.559-0.06,2.345
							c0,1.075,0.05,2.14,0.122,3.196h24.91C49.213,70.956,49.131,69.889,49.131,68.803z"/>
					</g>
					<g>
						<path fill="#FFFFFF" d="M116.777,66.458H91.896c0.083,0.771,0.129,1.552,0.129,2.345c0,1.086-0.082,2.153-0.238,3.196h24.929
							c0.072-1.057,0.122-2.121,0.122-3.196C116.837,68.017,116.816,67.234,116.777,66.458z"/>
					</g>
				</g>
			</g>
		</g>
	</g>
</g>
</svg>
