<?xml version="1.0" encoding="utf-8"?>
<!-- Generator: Adobe Illustrator 16.0.0, SVG Export Plug-In . SVG Version: 6.00 Build 0)  -->
<!DOCTYPE svg PUBLIC "-//W3C//DTD SVG 1.1//EN" "http://www.w3.org/Graphics/SVG/1.1/DTD/svg11.dtd">
<svg version="1.1" id="Layer_1" xmlns="http://www.w3.org/2000/svg" xmlns:xlink="http://www.w3.org/1999/xlink" x="0px" y="0px"
	 width="136.914px" height="136.914px" viewBox="0 0 136.914 136.914" enable-background="new 0 0 136.914 136.914"
	 xml:space="preserve">
<g>
	<g>
		<g>
			<g>
				<g>
					<circle fill="#EDC92C" cx="68.457" cy="68.458" r="63.333"/>
				</g>
			</g>
		</g>
	</g>
	<g>
		<g>
			<g>
				<g>
					<path fill="#E9C29C" d="M101.333,68.456c0,18.161-14.718,32.877-32.876,32.877c-18.159,0-32.876-14.717-32.876-32.877
						c0-18.157,14.717-32.875,32.876-32.875C86.615,35.58,101.333,50.299,101.333,68.456z"/>
				</g>
				<g>
					<path fill="#A46434" d="M101.333,68.456L78.917,48.283c0,0-4.772,7.904-17.505,13.664c-12.275,5.551-25.831,6.508-25.831,6.508
						c0-18.157,14.717-32.875,32.876-32.875C86.615,35.58,101.333,50.299,101.333,68.456z"/>
				</g>
				<g>
					<g>
						<ellipse fill="#343433" cx="58.603" cy="73.341" rx="4.504" ry="4.758"/>
					</g>
					<g>
						<ellipse fill="#343433" cx="78.123" cy="73.341" rx="4.504" ry="4.758"/>
					</g>
					<g>
						<path fill="#FFFFFF" d="M81.33,71.538c0,1.049-0.805,1.902-1.802,1.902c-0.991,0-1.797-0.854-1.797-1.902
							c0-1.053,0.806-1.904,1.797-1.904C80.525,69.634,81.33,70.485,81.33,71.538z"/>
					</g>
					<g>
						<path fill="#FFFFFF" d="M61.763,71.538c0,1.049-0.805,1.902-1.803,1.902c-0.993,0-1.799-0.854-1.799-1.902
							c0-1.053,0.806-1.904,1.799-1.904C60.958,69.634,61.763,70.485,61.763,71.538z"/>
					</g>
				</g>
			</g>
		</g>
		<g>
			<g>
				<g>
					<path fill="#357180" d="M41.972,69.808c0,7.059,0.071,12.779-4.852,12.779c-4.924,0-8.915-5.721-8.915-12.779
						c0-7.058,3.991-12.78,8.915-12.78C42.043,57.027,41.972,62.75,41.972,69.808z"/>
				</g>
				<g>
					<path fill="#357180" d="M108.643,69.808c0,7.059-3.991,12.779-8.916,12.779c-4.923,0-4.852-5.721-4.852-12.779
						c0-7.058-0.071-12.78,4.852-12.78C104.651,57.027,108.643,62.75,108.643,69.808z"/>
				</g>
				<g>
					<g>
						<path fill="#357180" d="M68.674,33.168c19.961,0,36.423,18.865,38.859,37.595c0.2-1.572,0.319-3.174,0.319-4.804
							c0-20.996-17.542-42.398-39.179-42.398S29.496,44.963,29.496,65.959c0,1.629,0.119,3.231,0.321,4.804
							C32.253,52.033,48.714,33.168,68.674,33.168z"/>
					</g>
				</g>
			</g>
			<g>
				<g>
					<path fill="#24626C" d="M83.04,104.985c0.783,2.551-1.86,4.975-5.735,6.164c-3.876,1.193-7.51,0.701-8.293-1.85
						c-0.788-2.553,1.573-6.199,5.45-7.389C78.335,100.716,82.253,102.433,83.04,104.985z"/>
				</g>
				<g>
					<path fill="#357180" d="M111.02,70.204h-0.224v-0.121c0-1.348-1.093-2.44-2.441-2.44s-2.441,1.092-2.441,2.44v3.32
						c0,0.869,0.456,1.625,1.139,2.057c-2.577,15.096-12.077,24.967-23.824,30.018c-0.007-0.018,0-0.037-0.007-0.055
						c-0.607-1.973-4.241-2.607-8.114-1.414c-3.876,1.191-6.522,3.756-5.915,5.729c0.606,1.971,4.237,2.605,8.113,1.412
						c1.853-0.568,3.408-1.455,4.479-2.438C99.11,105.331,111.02,89.38,111.02,70.204z"/>
				</g>
			</g>
		</g>
	</g>
</g>
</svg>
