<?xml version="1.0" encoding="utf-8"?>
<!-- Generator: Adobe Illustrator 16.0.0, SVG Export Plug-In . SVG Version: 6.00 Build 0)  -->
<!DOCTYPE svg PUBLIC "-//W3C//DTD SVG 1.1//EN" "http://www.w3.org/Graphics/SVG/1.1/DTD/svg11.dtd">
<svg version="1.1" id="Layer_1" xmlns="http://www.w3.org/2000/svg" xmlns:xlink="http://www.w3.org/1999/xlink" x="0px" y="0px"
	 width="136.602px" height="135.696px" viewBox="0 0 136.602 135.696" enable-background="new 0 0 136.602 135.696"
	 xml:space="preserve">
<g>
	<g>
		<g>
			<g>
				<g>
					<circle fill="#9F77AA" cx="68.301" cy="67.849" r="63.333"/>
				</g>
			</g>
		</g>
	</g>
	<g>
		<g>
			<path fill="#828282" d="M63.176,110.226l-0.922,2.035c0,2.482,2.781,5.512,7.625,5.512c4.847,0,8.104-3.029,8.104-5.512
				l-0.922-2.035H63.176z"/>
		</g>
		<g>
			<path fill="#C0C0C0" d="M60.227,106.112l-1.312,2.628c0,3.204,3.959,7.114,10.861,7.114c6.905,0,11.546-3.91,11.546-7.114
				l-1.312-2.628H60.227z"/>
		</g>
		<g>
			<path fill="#939292" d="M59.147,102.566l-1.456,2.913c0,3.554,4.392,7.892,12.049,7.892c7.658,0,12.806-4.338,12.806-7.892
				l-1.456-2.913H59.147z"/>
		</g>
		<g>
			<path fill="#C0C0C0" d="M58.765,99.362l-1.508,3.016c0,3.678,4.547,8.166,12.47,8.166c7.925,0,13.253-4.488,13.253-8.166
				l-1.507-3.016H58.765z"/>
		</g>
		<g>
			<path fill="#A19F9F" d="M58.765,96.348l-1.508,3.015c0,3.678,4.547,8.167,12.47,8.167c7.925,0,13.253-4.489,13.253-8.167
				l-1.507-3.015H58.765z"/>
		</g>
		<g>
			<path fill="#C0C0C0" d="M76.095,88.182H64.143c-3.803,0-6.886,2.981-6.886,6.658v1.508c0,3.678,4.547,8.167,12.47,8.167
				c7.925,0,13.253-4.489,13.253-8.167V94.84C82.979,91.163,79.897,88.182,76.095,88.182z"/>
		</g>
		<g>
			<g>
				<path fill="#F4E028" d="M82.033,92.802c0-14.26,20.51-16.881,20.51-39.973c0-18.052-14.621-32.674-32.672-32.678
					C51.818,20.16,37.199,34.777,37.199,52.832c0,22.366,20.945,25.442,20.945,39.997C58.145,102.198,82.033,102.44,82.033,92.802z"
					/>
			</g>
			<g>
				<path fill="#F6E568" d="M42.862,55.255c-4.85-4.848,0.475-18.273,5.322-23.122c4.85-4.849,16.588-9.45,21.436-4.601
					C74.469,32.38,47.711,60.104,42.862,55.255z"/>
			</g>
			<g>
				<path fill="#F3E375" d="M78.718,74.795c-0.42-0.97-1.343-0.625-1.343-0.625c-2.621,0.819-5.284,7.843-6.887,12.896
					c-1.603-5.054-4.265-12.077-6.887-12.896c0,0-0.922-0.345-1.343,0.625c-0.396,0.913,0.352,1.464,0.634,1.64
					c1.6,0.994,3.902,6.367,5.93,13.285c0.204,0.689,0.421,9.479,0.616,10.197c0,0,0.576,0.039,1.039,0.039
					c0.577,0,1.103-0.053,1.103-0.053c0.199-0.73,0.378-9.521,0.585-10.225c2.025-6.898,4.322-12.252,5.919-13.244
					C78.366,76.259,79.115,75.708,78.718,74.795z"/>
			</g>
		</g>
		<g>
			<path fill="#A8A7A7" d="M69.74,104.515"/>
		</g>
	</g>
</g>
</svg>
