<?xml version="1.0" encoding="utf-8"?>
<!-- Generator: Adobe Illustrator 16.0.0, SVG Export Plug-In . SVG Version: 6.00 Build 0)  -->
<!DOCTYPE svg PUBLIC "-//W3C//DTD SVG 1.1//EN" "http://www.w3.org/Graphics/SVG/1.1/DTD/svg11.dtd">
<svg version="1.1" id="Layer_1" xmlns="http://www.w3.org/2000/svg" xmlns:xlink="http://www.w3.org/1999/xlink" x="0px" y="0px"
	 width="136.833px" height="136.833px" viewBox="0 0 136.833 136.833" style="enable-background:new 0 0 136.833 136.833;"
	 xml:space="preserve">
<style type="text/css">
<![CDATA[
	.st0{fill:#AAB6B3;}
	.st1{fill:#49A0AE;}
	.st2{fill:#ADBAB5;}
	.st3{clip-path:url(#SVGID_6_);fill:#9A989D;}
	.st4{clip-path:url(#SVGID_6_);fill:#9B999E;}
	.st5{clip-path:url(#SVGID_6_);fill:#9B9A9E;}
	.st6{fill:#E1E1E1;}
	.st7{clip-path:url(#SVGID_6_);fill:#9D9B9F;}
	.st8{clip-path:url(#SVGID_6_);fill:#9E9CA1;}
	.st9{clip-path:url(#SVGID_6_);fill:#9F9CA2;}
	.st10{clip-path:url(#SVGID_6_);fill:#9F9DA3;}
	.st11{fill:#4ABC96;}
	.st12{fill:#E5E5E5;}
	.st13{clip-path:url(#SVGID_4_);fill:#A09EA4;}
	.st14{clip-path:url(#SVGID_4_);fill:#A29FA4;}
	.st15{clip-path:url(#SVGID_4_);fill:#A3A1A6;}
	.st16{clip-path:url(#SVGID_4_);fill:#A4A2A8;}
	.st17{fill:#1A1919;}
	.st18{clip-path:url(#SVGID_4_);fill:#A5A3A9;}
	.st19{clip-path:url(#SVGID_4_);fill:#A6A4A9;}
	.st20{clip-path:url(#SVGID_4_);fill:#A6A4AA;}
	.st21{fill:#EB9682;}
	.st22{fill:#B7CAC4;}
	.st23{clip-path:url(#SVGID_4_);fill:#A8A5AB;}
	.st24{clip-path:url(#SVGID_4_);fill:#A9A6AC;}
	.st25{fill:#EDEDED;}
	.st26{fill:#505252;}
	.st27{clip-path:url(#SVGID_6_);fill:#A09EA4;}
	.st28{clip-path:url(#SVGID_4_);fill:#AAA7AD;}
	.st29{clip-path:url(#SVGID_4_);fill:#AAA8AE;}
	.st30{clip-path:url(#SVGID_6_);fill:#A29FA4;}
	.st31{clip-path:url(#SVGID_4_);fill:#ABA9AF;}
	.st32{clip-path:url(#SVGID_4_);fill:#ACA9B0;}
	.st33{fill:#BCD0CA;}
	.st34{clip-path:url(#SVGID_6_);fill:#A3A1A6;}
	.st35{clip-path:url(#SVGID_4_);fill:#ADAAB1;}
	.st36{clip-path:url(#SVGID_6_);fill:#A4A2A8;}
	.st37{fill:#202121;}
	.st38{clip-path:url(#SVGID_4_);fill:#AEACB2;}
	.st39{clip-path:url(#SVGID_6_);fill:#A5A3A9;}
	.st40{clip-path:url(#SVGID_4_);fill:#AFACB3;}
	.st41{clip-path:url(#SVGID_6_);fill:#A6A4A9;}
	.st42{clip-path:url(#SVGID_6_);fill:#A6A4AA;}
	.st43{clip-path:url(#SVGID_6_);fill:#A8A5AB;}
	.st44{clip-path:url(#SVGID_6_);fill:#A9A6AC;}
	.st45{clip-path:url(#SVGID_2_);}
	.st46{clip-path:url(#SVGID_4_);fill:#B0ADB4;}
	.st47{clip-path:url(#SVGID_6_);fill:#AAA7AD;}
	.st48{clip-path:url(#SVGID_6_);fill:#AAA8AE;}
	.st49{clip-path:url(#SVGID_6_);fill:#ABA9AF;}
	.st50{clip-path:url(#SVGID_4_);fill:#B2AFB6;}
	.st51{clip-path:url(#SVGID_6_);fill:#ACA9B0;}
	.st52{clip-path:url(#SVGID_4_);fill:#B3B0B7;}
	.st53{clip-path:url(#SVGID_4_);fill:#B3B1B8;}
	.st54{clip-path:url(#SVGID_6_);fill:#ADAAB1;}
	.st55{clip-path:url(#SVGID_4_);fill:#B4B1B9;}
	.st56{clip-path:url(#SVGID_6_);fill:#AEACB2;}
	.st57{clip-path:url(#SVGID_4_);fill:#B5B2BA;}
	.st58{clip-path:url(#SVGID_6_);fill:#AFACB3;}
	.st59{clip-path:url(#SVGID_4_);fill:#B6B3BB;}
	.st60{clip-path:url(#SVGID_4_);fill:#B7B4BC;}
	.st61{clip-path:url(#SVGID_4_);fill:#B8B5BD;}
	.st62{clip-path:url(#SVGID_4_);fill:#B8B6BE;}
	.st63{clip-path:url(#SVGID_4_);fill:#B9B7BF;}
	.st64{opacity:0.3;}
	.st65{fill:#61A5B1;}
	.st66{fill:#FFFFFF;}
	.st67{clip-path:url(#SVGID_6_);fill:#B0ADB4;}
	.st68{fill:#676768;}
	.st69{clip-path:url(#SVGID_4_);fill:#BAB8C0;}
	.st70{fill:#67B8CB;}
	.st71{clip-path:url(#SVGID_4_);fill:#BBB8C1;}
	.st72{clip-path:url(#SVGID_6_);fill:#B2AFB6;}
	.st73{clip-path:url(#SVGID_4_);fill:#BCB9C2;}
	.st74{clip-path:url(#SVGID_6_);fill:#B3B0B7;}
	.st75{clip-path:url(#SVGID_6_);fill:#B3B1B8;}
	.st76{clip-path:url(#SVGID_4_);fill:#BDBAC3;}
	.st77{clip-path:url(#SVGID_4_);fill:#BDBBC4;}
	.st78{clip-path:url(#SVGID_6_);fill:#B4B1B9;}
	.st79{clip-path:url(#SVGID_4_);fill:#BEBCC5;}
	.st80{clip-path:url(#SVGID_6_);fill:#B5B2BA;}
	.st81{clip-path:url(#SVGID_4_);fill:#BFBDC6;}
	.st82{clip-path:url(#SVGID_6_);fill:#B6B3BB;}
	.st83{clip-path:url(#SVGID_6_);fill:#B7B4BC;}
	.st84{clip-path:url(#SVGID_6_);fill:#B8B5BD;}
	.st85{clip-path:url(#SVGID_6_);fill:#B8B6BE;}
	.st86{clip-path:url(#SVGID_6_);fill:#B9B7BF;}
	.st87{fill:#357180;}
	.st88{fill:#36858D;}
	.st89{clip-path:url(#SVGID_6_);fill:#BAB8C0;}
	.st90{clip-path:url(#SVGID_4_);fill:#C1BFC8;}
	.st91{clip-path:url(#SVGID_6_);fill:#BBB8C1;}
	.st92{clip-path:url(#SVGID_4_);fill:#C2C0C9;}
	.st93{clip-path:url(#SVGID_6_);fill:#BCB9C2;}
	.st94{clip-path:url(#SVGID_4_);fill:#949295;}
	.st95{clip-path:url(#SVGID_4_);fill:#C3C1C9;}
	.st96{clip-path:url(#SVGID_6_);fill:#BDBAC3;}
	.st97{clip-path:url(#SVGID_6_);fill:#BDBBC4;}
	.st98{clip-path:url(#SVGID_4_);fill:#959498;}
	.st99{clip-path:url(#SVGID_4_);fill:#C4C2CA;}
	.st100{clip-path:url(#SVGID_6_);fill:#BEBCC5;}
	.st101{clip-path:url(#SVGID_4_);fill:#969499;}
	.st102{clip-path:url(#SVGID_4_);fill:#C5C2CB;}
	.st103{clip-path:url(#SVGID_4_);fill:#C5C3CC;}
	.st104{clip-path:url(#SVGID_6_);fill:#BFBDC6;}
	.st105{clip-path:url(#SVGID_4_);fill:#97959A;}
	.st106{clip-path:url(#SVGID_4_);fill:#C6C4CD;}
	.st107{fill:#3CB881;}
	.st108{clip-path:url(#SVGID_4_);fill:#98969A;}
	.st109{clip-path:url(#SVGID_4_);fill:#C7C5CE;}
	.st110{clip-path:url(#SVGID_4_);fill:#99979C;}
	.st111{clip-path:url(#SVGID_4_);fill:#C8C5CF;}
	.st112{fill:#D8D8D8;}
	.st113{fill:#3E4141;}
	.st114{clip-path:url(#SVGID_4_);fill:#C9C6D0;}
	.st115{clip-path:url(#SVGID_4_);fill:#C9C7D1;}
	.st116{clip-path:url(#SVGID_4_);fill:#9A989D;}
	.st117{clip-path:url(#SVGID_4_);fill:#9B999E;}
	.st118{clip-path:url(#SVGID_4_);fill:#9B9A9E;}
	.st119{clip-path:url(#SVGID_4_);fill:#CAC7D1;}
	.st120{clip-path:url(#SVGID_6_);fill:#C1BFC8;}
	.st121{fill:#DBDBDA;}
	.st122{fill:#DBF0F4;}
	.st123{clip-path:url(#SVGID_6_);fill:#C2C0C9;}
	.st124{clip-path:url(#SVGID_4_);fill:#9D9B9F;}
	.st125{clip-path:url(#SVGID_6_);fill:#949295;}
	.st126{clip-path:url(#SVGID_6_);fill:#C3C1C9;}
	.st127{clip-path:url(#SVGID_4_);fill:#9E9CA1;}
	.st128{clip-path:url(#SVGID_6_);fill:#959498;}
	.st129{clip-path:url(#SVGID_4_);fill:#9F9CA2;}
	.st130{clip-path:url(#SVGID_4_);fill:#9F9DA3;}
	.st131{clip-path:url(#SVGID_6_);fill:#969499;}
	.st132{clip-path:url(#SVGID_6_);fill:#97959A;}
	.st133{fill:#DFF1ED;}
	.st134{clip-path:url(#SVGID_6_);fill:#98969A;}
	.st135{fill:#43B29B;}
	.st136{clip-path:url(#SVGID_6_);fill:#99979C;}
]]>
</style>
<g>
	<g>
		<g>
			<circle class="st107" cx="68.417" cy="68.417" r="63.333"/>
		</g>
	</g>
	<g>
		<g>
			<g>
				<g>
					<path class="st37" d="M89.895,28.562H47.304c-8.303,0-12.529,4.225-12.529,12.527v80.978c1.026,0.646,2.068,1.269,3.133,1.854
						V44.536h61.07v79.355c1.174-0.648,2.32-1.341,3.447-2.06V41.089C102.425,32.787,98.199,28.562,89.895,28.562z"/>
				</g>
				<g>
					<path class="st65" d="M98.978,123.891V44.536h-61.07v79.386c9.05,4.985,19.445,7.828,30.508,7.828
						C79.5,131.75,89.916,128.894,98.978,123.891z"/>
				</g>
			</g>
			<g>
				<path d="M76.533,37.958c0,0.808-0.654,1.461-1.459,1.461H62.127c-0.808,0-1.462-0.653-1.462-1.461l0,0
					c0-0.807,0.654-1.46,1.462-1.46h12.946C75.878,36.498,76.533,37.151,76.533,37.958L76.533,37.958z"/>
			</g>
		</g>
	</g>
	<g>
		<g>
			<g>
				<g>
					<path class="st66" d="M121.629,87.964c0,3.274-2.658,5.931-5.933,5.931H70.719c-3.274,0-5.931-2.656-5.931-5.931V61.768
						c0-3.276,2.656-5.932,5.931-5.932h44.978c3.274,0,5.933,2.655,5.933,5.932V87.964z"/>
				</g>
				<g>
					<path class="st66" d="M79.321,101.877c-0.464,0.466-1.219,0.466-1.684,0l-5.684-8.028c-0.465-0.464-0.465-1.219,0-1.684h13.05
						c0.466,0.465,0.466,1.22,0,1.684L79.321,101.877z"/>
				</g>
			</g>
		</g>
		<g>
			<g>
				<path class="st22" d="M84.76,77.878c0,0.908-0.234,1.727-0.701,2.451c-0.469,0.724-1.152,1.291-2.056,1.701
					c-0.902,0.411-1.974,0.616-3.211,0.616c-1.483,0-2.707-0.282-3.669-0.842c-0.685-0.403-1.24-0.94-1.666-1.615
					c-0.428-0.673-0.642-1.326-0.642-1.963c0-0.368,0.128-0.686,0.385-0.948c0.257-0.264,0.583-0.395,0.979-0.395
					c0.319,0,0.593,0.103,0.813,0.307c0.223,0.205,0.414,0.509,0.572,0.914c0.191,0.477,0.398,0.877,0.619,1.199
					c0.223,0.32,0.535,0.586,0.938,0.795s0.935,0.313,1.59,0.313c0.904,0,1.637-0.211,2.199-0.631s0.847-0.945,0.847-1.573
					c0-0.499-0.152-0.905-0.456-1.216c-0.305-0.312-0.697-0.549-1.18-0.714c-0.481-0.163-1.127-0.337-1.933-0.521
					c-1.08-0.253-1.985-0.549-2.712-0.887c-0.729-0.339-1.307-0.8-1.734-1.386c-0.426-0.583-0.639-1.311-0.639-2.178
					c0-0.827,0.225-1.563,0.676-2.205s1.105-1.137,1.959-1.481c0.854-0.345,1.858-0.519,3.014-0.519
					c0.924,0,1.722,0.115,2.395,0.344c0.672,0.229,1.231,0.534,1.678,0.912c0.443,0.381,0.768,0.778,0.975,1.196
					c0.203,0.415,0.306,0.823,0.306,1.22c0,0.362-0.128,0.688-0.385,0.979c-0.257,0.29-0.575,0.436-0.958,0.436
					c-0.349,0-0.614-0.087-0.796-0.262c-0.18-0.174-0.377-0.46-0.589-0.856c-0.275-0.567-0.602-1.01-0.985-1.328
					c-0.382-0.316-0.999-0.476-1.845-0.476c-0.786,0-1.421,0.171-1.902,0.518c-0.482,0.345-0.723,0.76-0.723,1.246
					c0,0.3,0.082,0.56,0.246,0.778s0.39,0.406,0.678,0.564c0.287,0.157,0.578,0.28,0.87,0.369c0.293,0.088,0.78,0.219,1.456,0.39
					c0.85,0.198,1.615,0.416,2.301,0.656c0.689,0.239,1.274,0.529,1.756,0.872c0.48,0.341,0.857,0.772,1.126,1.297
					C84.625,76.479,84.76,77.12,84.76,77.878z"/>
				<path class="st22" d="M78.792,83.147c-1.564,0-2.883-0.306-3.92-0.909c-0.755-0.445-1.372-1.044-1.837-1.781
					c-0.477-0.75-0.719-1.5-0.719-2.229c0-0.503,0.177-0.94,0.527-1.298c0.352-0.361,0.802-0.545,1.337-0.545
					c0.444,0,0.843,0.152,1.153,0.44c0.278,0.256,0.513,0.626,0.698,1.099c0.175,0.436,0.366,0.807,0.566,1.099
					c0.173,0.249,0.428,0.464,0.755,0.634s0.785,0.256,1.359,0.256c0.789,0,1.428-0.179,1.9-0.531
					c0.435-0.324,0.646-0.708,0.646-1.173c0-0.367-0.103-0.65-0.313-0.866c-0.251-0.257-0.573-0.449-0.984-0.591
					c-0.459-0.155-1.093-0.326-1.883-0.507c-1.112-0.261-2.057-0.57-2.811-0.921c-0.804-0.374-1.452-0.894-1.927-1.544
					c-0.488-0.668-0.735-1.5-0.735-2.473c0-0.93,0.258-1.768,0.767-2.492c0.505-0.72,1.239-1.277,2.181-1.658
					c0.913-0.369,1.989-0.555,3.201-0.555c0.972,0,1.832,0.125,2.555,0.37c0.729,0.249,1.347,0.586,1.84,1.004
					c0.495,0.425,0.864,0.88,1.1,1.356c0.237,0.485,0.357,0.97,0.357,1.441c0,0.486-0.171,0.927-0.51,1.311
					c-0.674,0.761-1.899,0.759-2.476,0.203c-0.222-0.215-0.445-0.535-0.683-0.981c-0.253-0.52-0.541-0.91-0.864-1.179
					c-0.284-0.235-0.812-0.36-1.525-0.36c-0.678,0-1.22,0.143-1.61,0.423c-0.461,0.33-0.515,0.638-0.515,0.841
					c0,0.19,0.048,0.348,0.146,0.479c0.12,0.159,0.294,0.303,0.519,0.426c0.254,0.14,0.515,0.25,0.775,0.329
					c0.287,0.086,0.767,0.215,1.433,0.384c0.858,0.2,1.65,0.426,2.344,0.669c0.73,0.254,1.364,0.568,1.88,0.937
					c0.547,0.388,0.978,0.885,1.281,1.477c0.305,0.589,0.46,1.313,0.46,2.149c0,1.002-0.263,1.918-0.781,2.722
					c-0.521,0.805-1.284,1.438-2.27,1.886C81.248,82.924,80.098,83.147,78.792,83.147z M74.18,77.384
					c-0.262,0-0.459,0.077-0.621,0.243c-0.166,0.17-0.243,0.36-0.243,0.6c0,0.536,0.189,1.106,0.563,1.694
					c0.38,0.603,0.884,1.091,1.498,1.453c0.88,0.512,2.03,0.772,3.415,0.772c1.161,0,2.172-0.192,3.003-0.571
					c0.809-0.367,1.429-0.878,1.844-1.518c0.412-0.64,0.621-1.373,0.621-2.18c0-0.675-0.118-1.244-0.349-1.692
					c-0.23-0.448-0.557-0.824-0.971-1.118c-0.44-0.313-0.988-0.585-1.631-0.808c-0.661-0.232-1.417-0.447-2.25-0.642
					c-0.694-0.176-1.189-0.309-1.486-0.398c-0.328-0.1-0.652-0.237-0.967-0.409c-0.35-0.192-0.632-0.429-0.837-0.703
					c-0.23-0.306-0.346-0.669-0.346-1.078c0-0.45,0.162-1.103,0.932-1.653c0.562-0.404,1.3-0.61,2.193-0.61
					c0.977,0,1.684,0.193,2.164,0.591c0.44,0.365,0.805,0.854,1.116,1.494c0.223,0.417,0.389,0.621,0.487,0.716
					c0.104,0.1,0.301,0.121,0.448,0.121c0.24,0,0.42-0.082,0.583-0.267c0.177-0.2,0.259-0.406,0.259-0.648
					c0-0.318-0.086-0.654-0.255-1c-0.174-0.353-0.461-0.702-0.851-1.037c-0.395-0.334-0.905-0.61-1.514-0.818
					c-0.619-0.21-1.371-0.317-2.233-0.317c-1.083,0-2.033,0.162-2.827,0.482c-0.76,0.307-1.344,0.746-1.737,1.305
					c-0.394,0.561-0.585,1.188-0.585,1.918c0,0.757,0.183,1.39,0.542,1.883c0.374,0.513,0.893,0.926,1.542,1.228
					c0.692,0.321,1.572,0.608,2.615,0.853c0.82,0.188,1.487,0.368,1.979,0.535c0.556,0.19,1.019,0.472,1.376,0.838
					c0.397,0.406,0.599,0.933,0.599,1.565c0,0.779-0.362,1.462-1.047,1.974c-0.649,0.484-1.49,0.73-2.499,0.73
					c-0.737,0-1.349-0.124-1.82-0.369c-0.473-0.245-0.849-0.565-1.118-0.953c-0.243-0.354-0.469-0.791-0.672-1.298
					c-0.13-0.334-0.28-0.579-0.447-0.732C74.525,77.439,74.375,77.384,74.18,77.384z"/>
			</g>
			<g>
				<path class="st22" d="M91.895,80.124l-2.41-9.577v10.377c0,0.575-0.126,1.005-0.385,1.292c-0.256,0.288-0.596,0.432-1.02,0.432
					c-0.41,0-0.744-0.144-1.004-0.427c-0.262-0.283-0.391-0.716-0.391-1.297V69.03c0-0.656,0.172-1.1,0.514-1.327
					c0.343-0.229,0.802-0.345,1.384-0.345h0.942c0.566,0,0.98,0.052,1.236,0.154s0.446,0.287,0.568,0.554
					c0.124,0.268,0.264,0.7,0.422,1.301l2.184,8.235l2.184-8.235c0.157-0.601,0.297-1.033,0.42-1.301
					c0.123-0.267,0.314-0.451,0.568-0.554c0.258-0.103,0.669-0.154,1.237-0.154h0.943c0.581,0,1.042,0.115,1.384,0.345
					c0.342,0.228,0.513,0.671,0.513,1.327v11.894c0,0.575-0.127,1.005-0.385,1.292c-0.255,0.288-0.601,0.432-1.03,0.432
					c-0.404,0-0.734-0.144-0.994-0.432c-0.26-0.287-0.391-0.717-0.391-1.292V70.546l-2.408,9.577
					c-0.157,0.622-0.287,1.079-0.385,1.368c-0.1,0.291-0.281,0.557-0.549,0.796s-0.638,0.359-1.107,0.359
					c-0.355,0-0.656-0.078-0.903-0.231c-0.245-0.154-0.438-0.351-0.573-0.59s-0.244-0.504-0.322-0.795
					C92.058,80.741,91.976,80.438,91.895,80.124z"/>
				<path class="st22" d="M99.77,83.147c-0.549,0-1.008-0.201-1.365-0.597c-0.345-0.381-0.52-0.929-0.52-1.627v-6.338l-1.423,5.66
					c-0.162,0.64-0.295,1.109-0.396,1.406c-0.128,0.376-0.36,0.714-0.689,1.009c-0.361,0.322-0.846,0.486-1.441,0.486
					c-0.446,0-0.839-0.104-1.167-0.307c-0.32-0.201-0.569-0.459-0.745-0.768c-0.158-0.279-0.282-0.586-0.37-0.912
					c-0.079-0.29-0.162-0.596-0.244-0.912l-1.426-5.667v6.342c0,0.711-0.168,1.243-0.513,1.627
					c-0.681,0.767-2.044,0.793-2.764,0.008c-0.346-0.374-0.522-0.925-0.522-1.635V69.03c0-0.832,0.248-1.418,0.737-1.743
					c0.424-0.284,0.983-0.429,1.661-0.429h0.942c0.638,0,1.103,0.062,1.422,0.19c0.374,0.15,0.663,0.43,0.837,0.81
					c0.135,0.291,0.283,0.744,0.451,1.381l1.7,6.412l1.7-6.412c0.166-0.633,0.313-1.085,0.449-1.382
					c0.175-0.379,0.463-0.658,0.835-0.809c0.323-0.128,0.789-0.19,1.424-0.19h0.943c0.679,0,1.238,0.145,1.663,0.43
					c0.486,0.324,0.734,0.91,0.734,1.742v11.894c0,0.7-0.172,1.247-0.513,1.626C100.827,82.939,100.341,83.147,99.77,83.147z
					 M97.9,70.424l0.985,0.122v10.377c0,0.443,0.088,0.765,0.261,0.956c0.347,0.385,0.978,0.345,1.279,0.005
					c0.173-0.192,0.259-0.515,0.259-0.961V69.03c0-0.328-0.05-0.751-0.29-0.911c-0.259-0.173-0.63-0.261-1.107-0.261h-0.943
					c-0.656,0-0.941,0.075-1.053,0.119c-0.134,0.054-0.23,0.149-0.299,0.298c-0.11,0.239-0.241,0.649-0.39,1.218l-2.667,10.06
					l-2.667-10.059c-0.151-0.573-0.283-0.982-0.392-1.218c-0.069-0.151-0.164-0.245-0.301-0.3c-0.11-0.044-0.394-0.119-1.05-0.119
					h-0.942c-0.476,0-0.848,0.087-1.105,0.26c-0.242,0.161-0.292,0.584-0.292,0.912v11.894c0,0.45,0.087,0.772,0.258,0.958
					c0.341,0.372,0.97,0.353,1.282,0.002c0.172-0.191,0.259-0.514,0.259-0.96V70.546l0.985-0.122l2.41,9.577
					c0.08,0.31,0.161,0.609,0.24,0.897c0.066,0.247,0.159,0.476,0.275,0.68c0.094,0.166,0.227,0.302,0.405,0.414
					c0.383,0.237,1.109,0.192,1.411-0.078c0.203-0.181,0.336-0.372,0.409-0.585c0.094-0.279,0.22-0.724,0.373-1.328L97.9,70.424z"/>
			</g>
			<g>
				<path class="st22" d="M115.209,77.878c0,0.908-0.234,1.727-0.703,2.451c-0.467,0.724-1.152,1.291-2.056,1.701
					c-0.9,0.411-1.972,0.616-3.209,0.616c-1.484,0-2.708-0.282-3.671-0.842c-0.684-0.403-1.24-0.94-1.666-1.615
					c-0.427-0.673-0.641-1.326-0.641-1.963c0-0.368,0.128-0.686,0.385-0.948c0.256-0.264,0.582-0.395,0.979-0.395
					c0.322,0,0.593,0.103,0.815,0.307c0.222,0.205,0.412,0.509,0.569,0.914c0.191,0.477,0.397,0.877,0.621,1.199
					c0.223,0.32,0.531,0.586,0.938,0.795c0.404,0.209,0.932,0.313,1.589,0.313c0.903,0,1.637-0.211,2.2-0.631
					c0.563-0.42,0.846-0.945,0.846-1.573c0-0.499-0.153-0.905-0.456-1.216c-0.304-0.312-0.698-0.549-1.18-0.714
					c-0.483-0.163-1.126-0.337-1.933-0.521c-1.08-0.253-1.984-0.549-2.711-0.887c-0.729-0.339-1.307-0.8-1.734-1.386
					c-0.428-0.583-0.64-1.311-0.64-2.178c0-0.827,0.224-1.563,0.677-2.205c0.449-0.643,1.104-1.137,1.957-1.481
					s1.859-0.519,3.014-0.519c0.924,0,1.721,0.115,2.395,0.344c0.673,0.229,1.234,0.534,1.678,0.912
					c0.443,0.381,0.768,0.778,0.973,1.196c0.206,0.415,0.309,0.823,0.309,1.22c0,0.362-0.129,0.688-0.384,0.979
					c-0.258,0.29-0.577,0.436-0.96,0.436c-0.35,0-0.613-0.087-0.795-0.262c-0.182-0.174-0.377-0.46-0.59-0.856
					c-0.271-0.567-0.602-1.01-0.982-1.328c-0.384-0.316-0.998-0.476-1.848-0.476c-0.786,0-1.42,0.171-1.9,0.518
					c-0.482,0.345-0.722,0.76-0.722,1.246c0,0.3,0.081,0.56,0.245,0.778s0.388,0.406,0.676,0.564
					c0.288,0.157,0.578,0.28,0.871,0.369c0.295,0.088,0.779,0.219,1.459,0.39c0.846,0.198,1.613,0.416,2.299,0.656
					c0.688,0.239,1.271,0.529,1.756,0.872c0.48,0.341,0.855,0.772,1.127,1.297C115.075,76.479,115.209,77.12,115.209,77.878z"/>
				<path class="st22" d="M109.242,83.147c-1.564,0-2.884-0.306-3.922-0.909c-0.755-0.446-1.373-1.045-1.837-1.781
					c-0.476-0.75-0.718-1.501-0.718-2.229c0-0.503,0.177-0.94,0.527-1.298c0.351-0.361,0.8-0.545,1.336-0.545
					c0.448,0,0.836,0.147,1.153,0.438c0.28,0.259,0.514,0.629,0.698,1.102c0.176,0.438,0.367,0.809,0.565,1.095
					c0.18,0.259,0.427,0.467,0.755,0.636c0.331,0.171,0.788,0.257,1.36,0.257c0.788,0,1.428-0.179,1.901-0.532
					c0.434-0.323,0.645-0.707,0.645-1.172c0-0.366-0.103-0.65-0.314-0.867c-0.246-0.251-0.577-0.45-0.984-0.59
					c-0.466-0.157-1.101-0.328-1.882-0.507c-1.111-0.26-2.056-0.569-2.811-0.921c-0.803-0.373-1.452-0.893-1.927-1.544
					c-0.488-0.665-0.736-1.497-0.736-2.473c0-0.932,0.258-1.771,0.768-2.493c0.502-0.718,1.235-1.276,2.179-1.657
					c0.912-0.369,1.988-0.555,3.201-0.555c0.971,0,1.831,0.125,2.555,0.37c0.733,0.25,1.352,0.588,1.841,1.005
					c0.496,0.425,0.864,0.881,1.097,1.356c0.238,0.48,0.36,0.966,0.36,1.44c0,0.484-0.171,0.924-0.508,1.309
					c-0.678,0.764-1.9,0.762-2.478,0.205c-0.217-0.208-0.441-0.529-0.684-0.98c-0.248-0.516-0.534-0.906-0.863-1.181
					c-0.284-0.234-0.813-0.359-1.527-0.359c-0.678,0-1.219,0.143-1.608,0.423c-0.461,0.33-0.514,0.638-0.514,0.841
					c0,0.191,0.047,0.348,0.145,0.479c0.123,0.163,0.292,0.303,0.517,0.426c0.256,0.14,0.517,0.251,0.775,0.329
					c0.289,0.086,0.766,0.215,1.436,0.383c0.863,0.203,1.654,0.429,2.342,0.67c0.727,0.253,1.359,0.567,1.879,0.936
					c0.543,0.386,0.975,0.882,1.282,1.476c0.306,0.592,0.46,1.315,0.46,2.151c0,1.003-0.264,1.919-0.783,2.723
					c-0.518,0.802-1.281,1.437-2.269,1.885C111.697,82.924,110.548,83.147,109.242,83.147z M104.627,77.384
					c-0.262,0-0.459,0.077-0.62,0.243c-0.167,0.17-0.244,0.36-0.244,0.6c0,0.536,0.189,1.106,0.563,1.695
					c0.379,0.602,0.883,1.09,1.498,1.452c0.881,0.512,2.032,0.772,3.417,0.772c1.162,0,2.171-0.192,3.001-0.571
					c0.812-0.368,1.431-0.879,1.843-1.518c0.414-0.639,0.623-1.372,0.623-2.18c0-0.675-0.117-1.244-0.349-1.692
					c-0.236-0.456-0.554-0.822-0.972-1.118c-0.443-0.313-0.992-0.586-1.631-0.808c-0.655-0.23-1.412-0.446-2.249-0.643
					c-0.697-0.175-1.188-0.308-1.487-0.396c-0.326-0.1-0.651-0.236-0.968-0.41c-0.349-0.191-0.629-0.428-0.836-0.703
					c-0.229-0.305-0.345-0.668-0.345-1.078c0-0.45,0.162-1.104,0.931-1.653c0.561-0.404,1.299-0.61,2.191-0.61
					c0.976,0,1.685,0.193,2.166,0.59c0.442,0.369,0.816,0.872,1.116,1.498c0.225,0.418,0.389,0.619,0.484,0.711
					c0.18,0.174,0.728,0.202,1.036-0.145c0.172-0.197,0.257-0.41,0.257-0.647c0-0.319-0.086-0.654-0.256-0.997
					c-0.174-0.355-0.46-0.704-0.851-1.04c-0.392-0.334-0.901-0.609-1.514-0.818c-0.62-0.21-1.372-0.317-2.233-0.317
					c-1.083,0-2.034,0.162-2.827,0.482c-0.76,0.308-1.344,0.746-1.734,1.304c-0.395,0.561-0.586,1.188-0.586,1.919
					c0,0.758,0.183,1.391,0.543,1.882c0.38,0.521,0.885,0.923,1.542,1.229c0.693,0.322,1.573,0.609,2.614,0.853
					c0.812,0.187,1.479,0.366,1.979,0.535c0.56,0.191,1.022,0.474,1.378,0.839c0.397,0.406,0.598,0.934,0.598,1.564
					c0,0.791-0.352,1.455-1.046,1.974c-0.65,0.485-1.491,0.73-2.5,0.73c-0.744,0-1.339-0.12-1.818-0.368
					c-0.47-0.242-0.847-0.563-1.119-0.954c-0.245-0.353-0.465-0.776-0.674-1.298c-0.13-0.335-0.279-0.58-0.445-0.733
					C104.975,77.44,104.823,77.384,104.627,77.384z"/>
			</g>
		</g>
	</g>
</g>
</svg>
