<?xml version="1.0" encoding="utf-8"?>
<!-- Generator: Adobe Illustrator 16.0.0, SVG Export Plug-In . SVG Version: 6.00 Build 0)  -->
<!DOCTYPE svg PUBLIC "-//W3C//DTD SVG 1.1//EN" "http://www.w3.org/Graphics/SVG/1.1/DTD/svg11.dtd">
<svg version="1.1" id="Layer_1" xmlns="http://www.w3.org/2000/svg" xmlns:xlink="http://www.w3.org/1999/xlink" x="0px" y="0px"
	 width="136.914px" height="136.913px" viewBox="0 0 136.914 136.913" enable-background="new 0 0 136.914 136.913"
	 xml:space="preserve">
<g>
	<g>
		<g>
			<g>
				<g>
					<g>
						<circle fill="#357180" cx="68.457" cy="68.457" r="63.333"/>
					</g>
				</g>
			</g>
		</g>
	</g>
	<g>
		<g id="_32237776">
			<path fill="#DDDCD9" d="M35.393,39.221h67.727c2.275,0,4.137,1.861,4.137,4.135v53.598c0,2.275-1.861,4.135-4.137,4.135H35.393
				c-2.275,0-4.137-1.859-4.137-4.135V43.355C31.256,41.082,33.117,39.221,35.393,39.221L35.393,39.221z"/>
		</g>
		<g id="_32237800">
			<path fill="#D32027" d="M35.393,39.221h67.727c2.275,0,4.137,1.861,4.137,4.135V57.66h-76V43.355
				C31.256,41.082,33.117,39.221,35.393,39.221L35.393,39.221z"/>
		</g>
		<g id="_32237272" opacity="0.15">
			<path d="M90.014,39.221v7.715c0,1.936-1.583,3.518-3.517,3.518h-3.021c-1.936,0-3.518-1.582-3.518-3.518v-7.715H90.014
				L90.014,39.221z M48.499,39.221h10.056v7.715c0,1.936-1.583,3.518-3.518,3.518h-3.022c-1.934,0-3.516-1.582-3.516-3.518V39.221
				L48.499,39.221z"/>
		</g>
		<g id="_32234584">
			<path fill="#FFFFFF" d="M83.476,29.568h3.021c0.97,0,1.764,0.795,1.764,1.764v15.604c0,0.971-0.794,1.764-1.764,1.764h-3.021
				c-0.971,0-1.765-0.793-1.765-1.764V31.332C81.711,30.363,82.505,29.568,83.476,29.568z M52.015,29.568h3.022
				c0.97,0,1.764,0.795,1.764,1.764v15.604c0,0.971-0.794,1.764-1.764,1.764h-3.022c-0.969,0-1.763-0.793-1.763-1.764V31.332
				C50.252,30.363,51.046,29.568,52.015,29.568z"/>
		</g>
		<g>
			<g>
				<path fill="#626463" d="M68.943,88.174h-18.9c0.216-1.865,0.873-3.621,1.972-5.266s3.158-3.586,6.179-5.822
					c1.846-1.371,3.026-2.414,3.542-3.125s0.773-1.387,0.773-2.025c0-0.691-0.256-1.281-0.766-1.771
					c-0.511-0.49-1.152-0.734-1.926-0.734c-0.804,0-1.461,0.252-1.972,0.758c-0.51,0.504-0.854,1.398-1.029,2.676l-6.31-0.51
					c0.248-1.773,0.701-3.158,1.361-4.154c0.659-0.994,1.59-1.758,2.792-2.289c1.2-0.529,2.863-0.795,4.987-0.795
					c2.217,0,3.941,0.252,5.173,0.758c1.232,0.506,2.201,1.279,2.908,2.326c0.706,1.049,1.06,2.221,1.06,3.52
					c0,1.381-0.405,2.701-1.214,3.959c-0.81,1.258-2.282,2.641-4.416,4.146c-1.269,0.875-2.116,1.488-2.544,1.84
					c-0.429,0.35-0.931,0.809-1.508,1.377h9.837V88.174z"/>
			</g>
			<g>
				<path fill="#626463" d="M89.868,70.605l-6.264,0.773c-0.165-0.877-0.44-1.496-0.827-1.855c-0.387-0.361-0.864-0.543-1.432-0.543
					c-1.021,0-1.814,0.516-2.381,1.547c-0.412,0.742-0.717,2.33-0.913,4.766c0.753-0.764,1.526-1.33,2.32-1.695
					c0.794-0.367,1.712-0.549,2.753-0.549c2.021,0,3.73,0.723,5.127,2.166c1.397,1.443,2.096,3.273,2.096,5.49
					c0,1.494-0.353,2.859-1.059,4.098c-0.707,1.238-1.687,2.174-2.939,2.807c-1.253,0.635-2.822,0.951-4.71,0.951
					c-2.268,0-4.087-0.387-5.459-1.158c-1.371-0.775-2.467-2.01-3.287-3.705c-0.819-1.695-1.229-3.941-1.229-6.734
					c0-4.096,0.861-7.092,2.583-8.994c1.723-1.902,4.109-2.854,7.161-2.854c1.805,0,3.23,0.209,4.276,0.625
					c1.047,0.418,1.915,1.029,2.606,1.834C88.982,68.377,89.507,69.389,89.868,70.605z M78.269,80.705
					c0,1.227,0.31,2.188,0.928,2.885c0.619,0.695,1.377,1.043,2.274,1.043c0.824,0,1.515-0.314,2.072-0.943
					c0.557-0.629,0.835-1.568,0.835-2.814c0-1.277-0.289-2.254-0.866-2.924c-0.578-0.67-1.294-1.006-2.149-1.006
					c-0.877,0-1.611,0.326-2.204,0.975C78.565,78.57,78.269,79.498,78.269,80.705z"/>
			</g>
		</g>
	</g>
</g>
</svg>
